<?xml version="1.0" encoding="UTF-8"?>
<svg version="1.1" xmlns="http://www.w3.org/2000/svg" width="220" height="220">
<path d="M0 0 C1.175625 0.5259375 1.175625 0.5259375 2.375 1.0625 C3.24125 1.371875 4.1075 1.68125 5 2 C5.66 1.67 6.32 1.34 7 1 C9.10231877 0.90248453 11.20792623 0.87023313 13.3125 0.875 C14.44300781 0.87242188 15.57351562 0.86984375 16.73828125 0.8671875 C20 1 20 1 22.43359375 1.5703125 C25.97514564 2.16326639 29.24539706 1.56721897 32.75 1 C35.1674966 0.61757116 37.56742969 0.28478872 40 0 C40.495 0.495 40.495 0.495 41 1 C48.29996994 1.97413108 55.6459071 2.14643105 63 2 C62.67 3.32 62.34 4.64 62 6 C63.19625 5.79375 64.3925 5.5875 65.625 5.375 C69.5576018 4.86418162 72.3121243 5.43265283 76 7 C76 7.66 76 8.32 76 9 C76.5775 9.28875 77.155 9.5775 77.75 9.875 C80.5 11.25 83.25 12.625 86 14 C86 14.66 86 15.32 86 16 C87.7015625 16.4021875 87.7015625 16.4021875 89.4375 16.8125 C90.613125 17.204375 91.78875 17.59625 93 18 C93.33 18.99 93.66 19.98 94 21 C94.66 21 95.32 21 96 21 C96 21.99 96 22.98 96 24 C96.99 23.67 97.98 23.34 99 23 C99 23.99 99 24.98 99 26 C101.31 26 103.62 26 106 26 C106.061875 26.78375 106.12375 27.5675 106.1875 28.375 C106.5896875 29.674375 106.5896875 29.674375 107 31 C108.64551962 31.71727778 110.31422289 32.38325228 112 33 C113.1875 34.875 113.1875 34.875 114 37 C115.22435919 40.10609515 115.22435919 40.10609515 117.875 41.9375 C122.06441779 44.0322089 123.78175139 47.44014486 125.4375 51.6875 C126.6500901 55.17454841 126.6500901 55.17454841 129.59765625 56.20703125 C130.39042969 56.46871094 131.18320313 56.73039062 132 57 C131.98259766 58.08667969 131.98259766 58.08667969 131.96484375 59.1953125 C131.91768689 64.24783323 131.92622436 69.03378767 133 74 C135.97 74.495 135.97 74.495 139 75 C139 77.31 139 79.62 139 82 C138.34 82 137.68 82 137 82 C137.32597168 82.94238525 137.65194336 83.88477051 137.98779297 84.85571289 C139.35320741 89.66115589 139.25061197 94.34618118 139.1953125 99.30859375 C139.1924826 100.27531509 139.18965271 101.24203644 139.18673706 102.23805237 C139.17560407 105.30466452 139.15051224 108.37097715 139.125 111.4375 C139.11496131 113.52538639 139.10583701 115.61327738 139.09765625 117.70117188 C139.07568727 122.80089544 139.04120507 127.90039705 139 133 C138.01 133.33 137.02 133.66 136 134 C136 135.32 136 136.64 136 138 C135.47163483 140.67274083 134.8958074 143.29402717 134.25 145.9375 C134.09273437 146.64068359 133.93546875 147.34386719 133.7734375 148.06835938 C132.68129529 152.55034298 131.33944851 155.64083033 128 159 C127.34 159 126.68 159 126 159 C126.061875 159.66 126.12375 160.32 126.1875 161 C125.83141673 166.69733225 123.39465236 172.43027567 120 177 C115.75862069 180 115.75862069 180 113 180 C112.62875 180.9590625 112.62875 180.9590625 112.25 181.9375 C111 184 111 184 108.875 184.75 C108.25625 184.8325 107.6375 184.915 107 185 C106.67 186.32 106.34 187.64 106 189 C104.68 189 103.36 189 102 189 C101.67 189.99 101.34 190.98 101 192 C100.01 192 99.02 192 98 192 C97.01 192.33 96.02 192.66 95 193 C94.67 193.99 94.34 194.98 94 196 C93.34 196 92.68 196 92 196 C91.67 198.31 91.34 200.62 91 203 C86.25 202.125 86.25 202.125 84 201 C84 201.66 84 202.32 84 203 C83.12988281 203.05607422 83.12988281 203.05607422 82.2421875 203.11328125 C77.18321136 203.53903667 73.45720842 204.37138991 69 207 C68.67 206.67 68.34 206.34 68 206 C67.67 206.99 67.34 207.98 67 209 C64 210 64 210 61 209 C60.67 209.66 60.34 210.32 60 211 C59.175 210.814375 58.35 210.62875 57.5 210.4375 C54.17838555 210.02229819 51.46634178 210.30414602 48.17446899 210.75088501 C44.67357257 211.1519603 41.18844155 211.16248859 37.66796875 211.16796875 C36.90954178 211.17129715 36.15111481 211.17462555 35.3697052 211.17805481 C33.78236491 211.18307749 32.19501424 211.18546459 30.60766602 211.18530273 C28.17642226 211.18751006 25.74561812 211.20577072 23.31445312 211.22460938 C21.76562654 211.22754013 20.21679782 211.22952705 18.66796875 211.23046875 C17.94296677 211.23765427 17.21796478 211.24483978 16.47099304 211.25224304 C12.7563885 211.23530391 11.17508003 211.11672002 8 209 C7.67 209.66 7.34 210.32 7 211 C7 210.34 7 209.68 7 209 C5.68 209 4.36 209 3 209 C2.67 209.66 2.34 210.32 2 211 C1.67 210.34 1.34 209.68 1 209 C-0.98 209 -2.96 209 -5 209 C-5.16371094 208.36320313 -5.32742187 207.72640625 -5.49609375 207.0703125 C-6.94850221 204.58244769 -6.94850221 204.58244769 -10.66015625 204.2421875 C-12.12594657 204.10132279 -13.59367935 203.97964231 -15.0625 203.875 C-17.73345842 203.65799906 -20.34213796 203.37086447 -23 203 C-23.33 202.34 -23.66 201.68 -24 201 C-24.94875 201.061875 -25.8975 201.12375 -26.875 201.1875 C-27.90625 201.125625 -28.9375 201.06375 -30 201 C-32 198 -32 198 -32 195 C-35.04913228 193.98888907 -35.04913228 193.98888907 -38 195 C-38 194.01 -38 193.02 -38 192 C-39.32 192.99 -40.64 193.98 -42 195 C-45 190.375 -45 190.375 -45 187 C-46.32 186.34 -47.64 185.68 -49 185 C-49.33 185.66 -49.66 186.32 -50 187 C-50.66 187 -51.32 187 -52 187 C-52.33 184.69 -52.66 182.38 -53 180 C-53.66 180 -54.32 180 -55 180 C-55 179.34 -55 178.68 -55 178 C-55.63292969 177.92136719 -56.26585938 177.84273437 -56.91796875 177.76171875 C-57.60503906 177.51035156 -58.29210937 177.25898438 -59 177 C-59.80078125 175.14453125 -59.80078125 175.14453125 -60.3125 172.8125 C-61.38344747 169.03443533 -62.39659446 167.32210014 -65.5625 165 C-69.30696592 162.16423292 -69.85503708 159.84390984 -70.53515625 155.3046875 C-71.03929674 152.80516743 -71.90786787 150.98211084 -73.125 148.75 C-74.77765776 145.68952267 -75.44332145 143.54657163 -75 140 C-75.99 140.99 -75.99 140.99 -77 142 C-76.98839844 141.22914063 -76.97679688 140.45828125 -76.96484375 139.6640625 C-76.95582031 138.66117188 -76.94679688 137.65828125 -76.9375 136.625 C-76.92589844 135.62726563 -76.91429688 134.62953125 -76.90234375 133.6015625 C-76.81993398 131.01567547 -76.81993398 131.01567547 -78 129 C-78 126.66666667 -78 124.33333333 -78 122 C-78.33 121.34 -78.66 120.68 -79 120 C-79.08842658 116.97613382 -78.85486219 113.95689734 -78.6875 110.9375 C-78.65205078 110.11572266 -78.61660156 109.29394531 -78.58007812 108.44726562 C-78.31547773 103.4277567 -77.62871595 98.76621108 -76.35839844 93.90014648 C-75.89343676 91.43502609 -76.49994207 89.42885282 -77 87 C-75.5625 85.1875 -75.5625 85.1875 -74 84 C-74.66 84 -75.32 84 -76 84 C-76.98248524 79.9472484 -77.08159574 76.16138263 -77 72 C-75.02 71.505 -75.02 71.505 -73 71 C-72.87625 70.38125 -72.7525 69.7625 -72.625 69.125 C-72 67 -72 67 -70 65 C-69.54188325 63.02764667 -69.54188325 63.02764667 -69.375 60.875 C-69.25125 59.59625 -69.1275 58.3175 -69 57 C-67.68 57.33 -66.36 57.66 -65 58 C-64.87625 56.9171875 -64.87625 56.9171875 -64.75 55.8125 C-63.8492343 52.43462862 -62.2326044 50.65121773 -60 48 C-59.67 47.01 -59.34 46.02 -59 45 C-58.67 44.34 -58.34 43.68 -58 43 C-55.4375 42.375 -55.4375 42.375 -53 42 C-53 41.34 -53 40.68 -53 40 C-52.34 40 -51.68 40 -51 40 C-51 38.02 -51 36.04 -51 34 C-50.236875 33.979375 -49.47375 33.95875 -48.6875 33.9375 C-47.800625 33.628125 -46.91375 33.31875 -46 33 C-45.505 31.845 -45.01 30.69 -44.5 29.5 C-44.005 28.345 -43.51 27.19 -43 26 C-40.3125 25.0625 -40.3125 25.0625 -38 25 C-37.67 23.35 -37.34 21.7 -37 20 C-33.68885166 18.87119943 -30.41021743 17.78697325 -27 17 C-27 16.34 -27 15.68 -27 15 C-23.22549357 13.0265271 -19.6666702 11.19394042 -15.5625 10 C-14.716875 9.67 -13.87125 9.34 -13 9 C-12.03122943 6.96756452 -12.03122943 6.96756452 -12 5 C-11.01 5.495 -11.01 5.495 -10 6 C-10 6.66 -10 7.32 -10 8 C-9.34 8 -8.68 8 -8 8 C-7.67 6.02 -7.34 4.04 -7 2 C-5.02 2 -3.04 2 -1 2 C-0.67 1.34 -0.34 0.68 0 0 Z M135 76 C135.33 76.99 135.66 77.98 136 79 C136.66 78.67 137.32 78.34 138 78 C137.01 77.34 136.02 76.68 135 76 Z M-74 78 C-74.33 79.32 -74.66 80.64 -75 82 C-74.01 82.495 -74.01 82.495 -73 83 C-73 81.35 -73 79.7 -73 78 C-73.33 78 -73.66 78 -74 78 Z M65 206 C66 208 66 208 66 208 Z " fill="#F8F0E3" transform="translate(81,9)"/>
<path d="M0 0 C0.66 0 1.32 0 2 0 C2 1.32 2 2.64 2 4 C2.66 4 3.32 4 4 4 C4 5.32 4 6.64 4 8 C3.34 8 2.68 8 2 8 C2.495 9.98 2.495 9.98 3 12 C1.68 11.67 0.36 11.34 -1 11 C-1 12.32 -1 13.64 -1 15 C-2.32 15 -3.64 15 -5 15 C-4.505 16.98 -4.505 16.98 -4 19 C-3.278125 18.855625 -2.55625 18.71125 -1.8125 18.5625 C-0.00897447 18.20179489 1.80424295 17.88510815 3.625 17.625 C6.26900178 16.92921006 7.28222137 16.07941624 9 14 C9.66 15.32 10.32 16.64 11 18 C7.25 21 7.25 21 5 21 C4.67 22.32 4.34 23.64 4 25 C2.68 25 1.36 25 0 25 C-0.495 26.485 -0.495 26.485 -1 28 C-1.99 28 -2.98 28 -4 28 C-4.99 28.33 -5.98 28.66 -7 29 C-7.495 30.485 -7.495 30.485 -8 32 C-8.66 32 -9.32 32 -10 32 C-10.33 34.31 -10.66 36.62 -11 39 C-15.75 38.125 -15.75 38.125 -18 37 C-18 37.66 -18 38.32 -18 39 C-18.87011719 39.05607422 -18.87011719 39.05607422 -19.7578125 39.11328125 C-24.81678864 39.53903667 -28.54279158 40.37138991 -33 43 C-33.495 42.505 -33.495 42.505 -34 42 C-34.33 42.99 -34.66 43.98 -35 45 C-38 46 -38 46 -41 45 C-41.33 45.66 -41.66 46.32 -42 47 C-42.886875 46.835 -43.77375 46.67 -44.6875 46.5 C-47.53596892 46.07004243 -50.13004802 45.91558965 -53 46 C-53 44.35 -53 42.7 -53 41 C-52.34 41 -51.68 41 -51 41 C-51 41.66 -51 42.32 -51 43 C-49.515 42.505 -49.515 42.505 -48 42 C-48 42.66 -48 43.32 -48 44 C-45.03 43.505 -45.03 43.505 -42 43 C-42 40.69 -42 38.38 -42 36 C-41.34 36.33 -40.68 36.66 -40 37 C-40 38.32 -40 39.64 -40 41 C-39.01 40.505 -39.01 40.505 -38 40 C-38 37.36 -38 34.72 -38 32 C-38.66 32 -39.32 32 -40 32 C-38.50120132 28.88711043 -36.78832621 25.95462591 -35 23 C-34.67 22.34 -34.34 21.68 -34 21 C-30.9375 20.375 -30.9375 20.375 -28 20 C-28 20.66 -28 21.32 -28 22 C-27.34 22 -26.68 22 -26 22 C-26 20.68 -26 19.36 -26 18 C-25.34 17.34 -24.68 16.68 -24 16 C-24 15.01 -24 14.02 -24 13 C-23.34 13 -22.68 13 -22 13 C-22 13.66 -22 14.32 -22 15 C-18.88667752 14.33131686 -18.88667752 14.33131686 -17.8125 11.9375 C-17.544375 11.298125 -17.27625 10.65875 -17 10 C-14.36 10 -11.72 10 -9 10 C-9.495 7.525 -9.495 7.525 -10 5 C-9.01 5 -8.02 5 -7 5 C-3.26842083 3.81681636 -2.23943282 3.35914922 0 0 Z M-1 20 C0 22 0 22 0 22 Z M-37 42 C-36 44 -36 44 -36 44 Z " fill="#EADBCA" transform="translate(183,173)"/>
<path d="M0 0 C0.66 0.33 1.32 0.66 2 1 C2 1.99 2 2.98 2 4 C2.66 4.33 3.32 4.66 4 5 C4 4.34 4 3.68 4 3 C5.0209375 3.5259375 5.0209375 3.5259375 6.0625 4.0625 C11.60370114 5.83096845 16.70009714 3.93898885 22 2 C22.495 4.475 22.495 4.475 23 7 C24.98491642 6.73323796 24.98491642 6.73323796 27 6 C27.33 5.01 27.66 4.02 28 3 C29.98 3.33 31.96 3.66 34 4 C34 5.32 34 6.64 34 8 C33.34 8 32.68 8 32 8 C32.495 9.98 32.495 9.98 33 12 C34.32 12.33 35.64 12.66 37 13 C35.95125002 15.62187494 35.35068687 16.79371361 32.875 18.25 C32.25625 18.4975 31.6375 18.745 31 19 C31 18.01 31 17.02 31 16 C30.01 15.67 29.02 15.34 28 15 C27.67 16.32 27.34 17.64 27 19 C27.99 19 28.98 19 30 19 C30 19.99 30 20.98 30 22 C30.639375 22.103125 31.27875 22.20625 31.9375 22.3125 C32.618125 22.539375 33.29875 22.76625 34 23 C34.495 24.485 34.495 24.485 35 26 C37.00016466 27.20882096 37.00016466 27.20882096 39 28 C34.78248718 28.04946113 30.56512832 28.08574827 26.34741211 28.10986328 C24.91281188 28.119917 23.47823211 28.13356194 22.04370117 28.15087891 C19.98090562 28.17515549 17.91838115 28.18648919 15.85546875 28.1953125 C14.61434326 28.20578613 13.37321777 28.21625977 12.09448242 28.22705078 C9 28 9 28 6 26 C5.67 26.66 5.34 27.32 5 28 C5 27.34 5 26.68 5 26 C3.68 26 2.36 26 1 26 C0.67 26.66 0.34 27.32 0 28 C-0.33 27.34 -0.66 26.68 -1 26 C-2.98 26 -4.96 26 -7 26 C-7.35191406 25.03320312 -7.35191406 25.03320312 -7.7109375 24.046875 C-8.81161073 21.7922092 -8.81161073 21.7922092 -11.1640625 21.390625 C-12.38222656 21.32101563 -12.38222656 21.32101563 -13.625 21.25 C-14.44226563 21.19328125 -15.25953125 21.1365625 -16.1015625 21.078125 C-17.04128906 21.03945312 -17.04128906 21.03945312 -18 21 C-16.68 20.67 -15.36 20.34 -14 20 C-14.33 19.01 -14.66 18.02 -15 17 C-13.3125 14.3125 -13.3125 14.3125 -11 12 C-9.68 12 -8.36 12 -7 12 C-7.33 9.03 -7.66 6.06 -8 3 C-5.36 2.67 -2.72 2.34 0 2 C0 1.34 0 0.68 0 0 Z " fill="#EFE4D4" transform="translate(83,192)"/>
<path d="M0 0 C3 2 3 2 3.875 5.8125 C4.25204065 9.71807205 3.45444152 11.85831485 1 15 C1.66 15 2.32 15 3 15 C3 15.66 3 16.32 3 17 C3.99 17.33 4.98 17.66 6 18 C5.67 18.33 5.34 18.66 5 19 C5.99 19 6.98 19 8 19 C8 19.66 8 20.32 8 21 C5.69 21.33 3.38 21.66 1 22 C0.67 21.34 0.34 20.68 0 20 C0 20.99 0 21.98 0 23 C0 23.66 0 24.32 0 25 C0.66 25 1.32 25 2 25 C2.33 24.34 2.66 23.68 3 23 C3.66 23 4.32 23 5 23 C5 23.99 5 24.98 5 26 C5.66 26.33 6.32 26.66 7 27 C6.34 27 5.68 27 5 27 C5 27.66 5 28.32 5 29 C5.99 29 6.98 29 8 29 C8.45375 29.474375 8.9075 29.94875 9.375 30.4375 C11.46366683 32.44583349 13.1783448 32.61869524 16 33 C14.27256146 36.61939504 12.52349243 39.87567603 10 43 C11.32 43 12.64 43 14 43 C14.33 42.34 14.66 41.68 15 41 C15.66 41.99 16.32 42.98 17 44 C16.67 44.33 16.34 44.66 16 45 C17.65 45.33 19.3 45.66 21 46 C21 46.99 21 47.98 21 49 C21.66 49 22.32 49 23 49 C22.01 51.475 22.01 51.475 21 54 C24.14737182 53.30058404 27.02588876 52.23921302 30 51 C30.28875 51.969375 30.5775 52.93875 30.875 53.9375 C31.64214682 57.10664203 31.64214682 57.10664203 34 58 C33.47731534 60.76276177 32.89130413 63.3260876 32 66 C32.99 66.495 32.99 66.495 34 67 C33.01 67.99 32.02 68.98 31 70 C28.69 68.68 26.38 67.36 24 66 C24 63.36 24 60.72 24 58 C23.67 58 23.34 58 23 58 C22.3503125 58.7734375 22.3503125 58.7734375 21.6875 59.5625 C21.130625 60.036875 20.57375 60.51125 20 61 C17.8125 60.6875 17.8125 60.6875 16 60 C16 59.34 16 58.68 16 58 C14.515 58.495 14.515 58.495 13 59 C13 58.01 13 57.02 13 56 C12.01 56 11.02 56 10 56 C10.45336079 60.87362847 11.7089159 63.39042389 15 67 C14.67 67.66 14.34 68.32 14 69 C12.08203125 68.76171875 12.08203125 68.76171875 10 68 C9.19921875 66.14453125 9.19921875 66.14453125 8.6875 63.8125 C7.61655253 60.03443533 6.60340554 58.32210014 3.4375 56 C-0.30696592 53.16423292 -0.85503708 50.84390984 -1.53515625 46.3046875 C-2.03929674 43.80516743 -2.90786787 41.98211084 -4.125 39.75 C-5.77765776 36.68952267 -6.44332145 34.54657163 -6 31 C-6.66 31.66 -7.32 32.32 -8 33 C-8 28.33333333 -8 23.66666667 -8 19 C-7.21238281 18.84789062 -6.42476563 18.69578125 -5.61328125 18.5390625 C-2.91396913 17.3102892 -2.91396913 17.3102892 -2.30615234 15.24121094 C-1.82846576 12.95680292 -1.48252053 10.69006559 -1.1875 8.375 C-1.06697266 7.57320313 -0.94644531 6.77140625 -0.82226562 5.9453125 C-0.52779466 3.96646763 -0.26121159 1.98350918 0 0 Z M0 15 C1 17 1 17 1 17 Z " fill="#F0E5D6" transform="translate(12,118)"/>
<path d="M0 0 C0.66 0 1.32 0 2 0 C2 1.32 2 2.64 2 4 C2.66 4 3.32 4 4 4 C4 5.32 4 6.64 4 8 C3.34 8 2.68 8 2 8 C2.33 9.32 2.66 10.64 3 12 C1.68 11.67 0.36 11.34 -1 11 C-1 12.32 -1 13.64 -1 15 C-2.32 15 -3.64 15 -5 15 C-4.67 16.32 -4.34 17.64 -4 19 C-3.278125 18.855625 -2.55625 18.71125 -1.8125 18.5625 C-0.00897447 18.20179489 1.80424295 17.88510815 3.625 17.625 C6.26900178 16.92921006 7.28222137 16.07941624 9 14 C9.66 15.32 10.32 16.64 11 18 C7.25 21 7.25 21 5 21 C4.67 22.32 4.34 23.64 4 25 C2.68 25 1.36 25 0 25 C-0.33 25.99 -0.66 26.98 -1 28 C-1.99 28 -2.98 28 -4 28 C-4.99 28.33 -5.98 28.66 -7 29 C-7.33 29.99 -7.66 30.98 -8 32 C-8.66 32 -9.32 32 -10 32 C-10.33 34.31 -10.66 36.62 -11 39 C-15.75 38.125 -15.75 38.125 -18 37 C-18 37.66 -18 38.32 -18 39 C-20.97 39 -23.94 39 -27 39 C-25.02 38.505 -25.02 38.505 -23 38 C-23.226875 37.175 -23.45375 36.35 -23.6875 35.5 C-24.10188624 30.85887407 -22.83308334 28.25275335 -21 24 C-20.01 24.33 -19.02 24.66 -18 25 C-16.3308802 28.61642624 -17.34330117 32.20574012 -18 36 C-17.34 36 -16.68 36 -16 36 C-15.67 35.01 -15.34 34.02 -15 33 C-14.34 33 -13.68 33 -13 33 C-13 32.01 -13 31.02 -13 30 C-13.66 29.67 -14.32 29.34 -15 29 C-15 26.69 -15 24.38 -15 22 C-14.34 21.67 -13.68 21.34 -13 21 C-12.34 21.99 -11.68 22.98 -11 24 C-10.01 23.67 -9.02 23.34 -8 23 C-8 21.68 -8 20.36 -8 19 C-9.65 18.67 -11.3 18.34 -13 18 C-13.1875 15.125 -13.1875 15.125 -13 12 C-12.01 11.34 -11.02 10.68 -10 10 C-9.74969023 7.41619823 -9.74969023 7.41619823 -10 5 C-9.01 5 -8.02 5 -7 5 C-3.26842083 3.81681636 -2.23943282 3.35914922 0 0 Z M-1 20 C0 22 0 22 0 22 Z " fill="#E6DCCE" transform="translate(183,173)"/>
<path d="M0 0 C0.99 0.33 1.98 0.66 3 1 C3.12375 1.804375 3.2475 2.60875 3.375 3.4375 C3.58125 4.283125 3.7875 5.12875 4 6 C4.66 6.33 5.32 6.66 6 7 C5.47731534 9.76276177 4.89130413 12.3260876 4 15 C4.66 15.33 5.32 15.66 6 16 C5.01 16.99 4.02 17.98 3 19 C0.69 17.68 -1.62 16.36 -4 15 C-4 12.36 -4 9.72 -4 7 C-4.33 7 -4.66 7 -5 7 C-5.6496875 7.7734375 -5.6496875 7.7734375 -6.3125 8.5625 C-6.869375 9.036875 -7.42625 9.51125 -8 10 C-10.1875 9.6875 -10.1875 9.6875 -12 9 C-12 8.34 -12 7.68 -12 7 C-12.99 7.33 -13.98 7.66 -15 8 C-15 7.01 -15 6.02 -15 5 C-15.99 5 -16.98 5 -18 5 C-17.54663921 9.87362847 -16.2910841 12.39042389 -13 16 C-13.33 16.66 -13.66 17.32 -14 18 C-15.90234375 17.77734375 -15.90234375 17.77734375 -18 17 C-18.94140625 15.00390625 -18.94140625 15.00390625 -19.5625 12.5625 C-20.56530179 8.54053935 -20.56530179 8.54053935 -24 6 C-24 5.01 -24 4.02 -24 3 C-18.25 2 -18.25 2 -16 2 C-14.66216607 1.68521554 -13.32796291 1.35412344 -12 1 C-12 1.66 -12 2.32 -12 3 C-11.34 3 -10.68 3 -10 3 C-10 2.34 -10 1.68 -10 1 C-9.01 1 -8.02 1 -7 1 C-7 1.66 -7 2.32 -7 3 C-4.03824877 2.38722388 -2.61941217 1.74627478 0 0 Z " fill="#F0E3D3" transform="translate(40,169)"/>
<path d="M0 0 C0.33 0 0.66 0 1 0 C1 2.64 1 5.28 1 8 C0.01 8.33 -0.98 8.66 -2 9 C-1.01 10.485 -1.01 10.485 0 12 C0.28875 11.4225 0.5775 10.845 0.875 10.25 C1.91666667 8.16666667 2.95833333 6.08333333 4 4 C6.41270412 8.51740346 5.81828778 11.18211851 4.375 16 C4.03210938 17.19625 3.68921875 18.3925 3.3359375 19.625 C1.97796178 23.0556755 0.54533351 25.34399981 -2 28 C-2.66 28 -3.32 28 -4 28 C-4.33 28.99 -4.66 29.98 -5 31 C-5.99 30.67 -6.98 30.34 -8 30 C-7.96519531 29.22914063 -7.93039063 28.45828125 -7.89453125 27.6640625 C-7.86746094 26.66117188 -7.84039062 25.65828125 -7.8125 24.625 C-7.77769531 23.62726563 -7.74289063 22.62953125 -7.70703125 21.6015625 C-7.80371094 20.74304688 -7.90039062 19.88453125 -8 19 C-8.99 18.34 -9.98 17.68 -11 17 C-10.79503906 16.39671875 -10.59007812 15.7934375 -10.37890625 15.171875 C-9.97478516 13.97304687 -9.97478516 13.97304687 -9.5625 12.75 C-9.29566406 11.96109375 -9.02882812 11.1721875 -8.75390625 10.359375 C-7.97029131 8.04387978 -7.97029131 8.04387978 -7.53125 5.78125 C-7 4 -7 4 -4.9375 2.75 C-4.298125 2.5025 -3.65875 2.255 -3 2 C-2.67 2.66 -2.34 3.32 -2 4 C-1.34 2.68 -0.68 1.36 0 0 Z " fill="#EEE8DA" transform="translate(211,140)"/>
<path d="M0 0 C5.62587248 0.03709366 8.80145403 0.30145403 12.8125 4.3125 C12.8125 5.3025 12.8125 6.2925 12.8125 7.3125 C13.4725 7.3125 14.1325 7.3125 14.8125 7.3125 C15.1425 8.9625 15.4725 10.6125 15.8125 12.3125 C12.43787285 11.76526317 10.73015 11.2576 7.8125 9.3125 C1.32529881 7.64971558 -3.50255636 8.30067331 -9.47265625 11.20703125 C-11.34865981 12.21027771 -11.34865981 12.21027771 -12.1875 14.3125 C-12.8475 14.3125 -13.5075 14.3125 -14.1875 14.3125 C-15.54189668 11.60370665 -15.25251451 9.30316732 -15.1875 6.3125 C-14.5275 6.3125 -13.8675 6.3125 -13.1875 6.3125 C-13.1875 5.6525 -13.1875 4.9925 -13.1875 4.3125 C-11.7334375 3.6009375 -11.7334375 3.6009375 -10.25 2.875 C-4.81772554 0.1034314 -4.81772554 0.1034314 0 0 Z " fill="#988673" transform="translate(109.1875,132.6875)"/>
<path d="M0 0 C2.51303599 2.51303599 3 4.48882191 3 8 C3.66 8.33 4.32 8.66 5 9 C5 9.66 5 10.32 5 11 C5.66 11 6.32 11 7 11 C6.67 12.65 6.34 14.3 6 16 C5.01 16.33 4.02 16.66 3 17 C3 16.34 3 15.68 3 15 C2.34 15 1.68 15 1 15 C1 15.66 1 16.32 1 17 C0.34 17 -0.32 17 -1 17 C-1 18.32 -1 19.64 -1 21 C-0.34 21 0.32 21 1 21 C1 21.66 1 22.32 1 23 C2.32 23.33 3.64 23.66 5 24 C4.67 24.66 4.34 25.32 4 26 C1.125 26.1875 1.125 26.1875 -2 26 C-4 23 -4 23 -4 20 C-7.04913228 18.98888907 -7.04913228 18.98888907 -10 20 C-10 19.01 -10 18.02 -10 17 C-11.32 17.99 -12.64 18.98 -14 20 C-17 15.375 -17 15.375 -17 12 C-17.66 11.67 -18.32 11.34 -19 11 C-18.01 10.67 -17.02 10.34 -16 10 C-16 10.99 -16 11.98 -16 13 C-14.7315625 12.938125 -14.7315625 12.938125 -13.4375 12.875 C-9.57786731 13.01535028 -6.66311987 13.82780164 -3 15 C-3.37125 13.783125 -3.7425 12.56625 -4.125 11.3125 C-5.08254219 7.56877603 -4.94522377 5.45817559 -3 2 C-2.01 2 -1.02 2 0 2 C0 1.34 0 0.68 0 0 Z " fill="#EFE2D2" transform="translate(53,184)"/>
<path d="M0 0 C2.35953094 2.35953094 2.49141413 3.77895617 3 7 C2.360625 7.103125 1.72125 7.20625 1.0625 7.3125 C0.0415625 7.6528125 0.0415625 7.6528125 -1 8 C-1.33 8.99 -1.66 9.98 -2 11 C-3.32 10.67 -4.64 10.34 -6 10 C-4.73053486 14.82442184 -4.73053486 14.82442184 -1 18 C-1 19.32 -1 20.64 -1 22 C-1.99 22.33 -2.98 22.66 -4 23 C-4.33 22.67 -4.66 22.34 -5 22 C-5.33 22.99 -5.66 23.98 -6 25 C-9 26 -9 26 -12 25 C-12.33 25.66 -12.66 26.32 -13 27 C-13.886875 26.835 -14.77375 26.67 -15.6875 26.5 C-18.53596892 26.07004243 -21.13004802 25.91558965 -24 26 C-24 24.35 -24 22.7 -24 21 C-23.34 21 -22.68 21 -22 21 C-22 21.66 -22 22.32 -22 23 C-21.01 22.67 -20.02 22.34 -19 22 C-19 22.66 -19 23.32 -19 24 C-17.02 23.67 -15.04 23.34 -13 23 C-13 20.69 -13 18.38 -13 16 C-12.34 16.33 -11.68 16.66 -11 17 C-11 18.32 -11 19.64 -11 21 C-10.34 20.67 -9.68 20.34 -9 20 C-9 17.36 -9 14.72 -9 12 C-9.66 12 -10.32 12 -11 12 C-9.50120132 8.88711043 -7.78832621 5.95462591 -6 3 C-5.67 2.34 -5.34 1.68 -5 1 C-2.5625 0.25 -2.5625 0.25 0 0 Z M-8 22 C-7 24 -7 24 -7 24 Z " fill="#EBE1D2" transform="translate(154,193)"/>
<path d="M0 0 C0 3.66666667 0 7.33333333 0 11 C0.639375 11.226875 1.27875 11.45375 1.9375 11.6875 C4 13 4 13 4.75 15.625 C4.8325 16.40875 4.915 17.1925 5 18 C4.01 18 3.02 18 2 18 C2 17.34 2 16.68 2 16 C-0.49361571 17.20381448 -2.68143083 18.45428722 -5 20 C-5.33 20.99 -5.66 21.98 -6 23 C-6.66 23 -7.32 23 -8 23 C-8.33 20.69 -8.66 18.38 -9 16 C-9.66 16 -10.32 16 -11 16 C-11.0825 15.113125 -11.165 14.22625 -11.25 13.3125 C-11.76813727 9.89097535 -11.76813727 9.89097535 -14.125 7.375 C-16 5 -16 5 -15.75 2.6875 C-15.5025 2.130625 -15.255 1.57375 -15 1 C-14.01 1 -13.02 1 -12 1 C-11.67 1.66 -11.34 2.32 -11 3 C-10.34 3 -9.68 3 -9 3 C-9 3.66 -9 4.32 -9 5 C-4.68607774 4.5206753 -2.83430453 3.2542015 0 0 Z " fill="#F3E8D9" transform="translate(37,173)"/>
<path d="M0 0 C2 1.5625 2 1.5625 4 4 C4.04166002 6.3329614 4.04166002 8.6670386 4 11 C5.35885116 13.40083438 5.35885116 13.40083438 7 15 C3.535 16.485 3.535 16.485 0 18 C-0.66 17.34 -1.32 16.68 -2 16 C-2.66 16.99 -3.32 17.98 -4 19 C-6.09375 19.4765625 -6.09375 19.4765625 -8.5 19.625 C-11.87761268 19.82462241 -11.87761268 19.82462241 -15 21 C-15 19.35 -15 17.7 -15 16 C-13.68 16 -12.36 16 -11 16 C-11 14.68 -11 13.36 -11 12 C-10.01 12 -9.02 12 -8 12 C-8 11.01 -8 10.02 -8 9 C-6.3545622 7.31237149 -4.68711423 5.6459651 -3 4 C-2.67 3.01 -2.34 2.02 -2 1 C-1.34 0.67 -0.68 0.34 0 0 Z " fill="#EEE2D3" transform="translate(193,172)"/>
<path d="M0 0 C3.65316671 1.24976756 4.78065836 1.67098753 7 5 C7.99 5 8.98 5 10 5 C9.67 5.66 9.34 6.32 9 7 C9.66 7.66 10.32 8.32 11 9 C10.67 9.33 10.34 9.66 10 10 C10.66 10.33 11.32 10.66 12 11 C12 11.66 12 12.32 12 13 C13.32 13 14.64 13 16 13 C16.33 12.34 16.66 11.68 17 11 C17.33 11.33 17.66 11.66 18 12 C18.66 11.67 19.32 11.34 20 11 C21.32 12.32 22.64 13.64 24 15 C22.1875 15.625 22.1875 15.625 20 16 C19.01 15.34 18.02 14.68 17 14 C16.67 14.66 16.34 15.32 16 16 C16 15.34 16 14.68 16 14 C14.68 14 13.36 14 12 14 C11.67 14.66 11.34 15.32 11 16 C10.67 15.34 10.34 14.68 10 14 C8.02 14 6.04 14 4 14 C3.64808594 13.03320312 3.64808594 13.03320312 3.2890625 12.046875 C2.18838927 9.7922092 2.18838927 9.7922092 -0.1640625 9.390625 C-1.38222656 9.32101563 -1.38222656 9.32101563 -2.625 9.25 C-3.85089844 9.16492188 -3.85089844 9.16492188 -5.1015625 9.078125 C-5.72804688 9.05234375 -6.35453125 9.0265625 -7 9 C-5.68 8.67 -4.36 8.34 -3 8 C-3.33 7.01 -3.66 6.02 -4 5 C-2.0625 2.3125 -2.0625 2.3125 0 0 Z " fill="#E0DACD" transform="translate(72,204)"/>
<path d="M0 0 C0.928125 0.495 1.85625 0.99 2.8125 1.5 C5.86527516 3.21289852 5.86527516 3.21289852 9 3 C9.33 4.65 9.66 6.3 10 8 C13.465 7.505 13.465 7.505 17 7 C17 8.65 17 10.3 17 12 C11.375 13.125 11.375 13.125 8 12 C8 11.34 8 10.68 8 10 C7.34 10 6.68 10 6 10 C6 10.99 6 11.98 6 13 C6.66 13.33 7.32 13.66 8 14 C7.34 14 6.68 14 6 14 C6 14.66 6 15.32 6 16 C3.69 16 1.38 16 -1 16 C-0.505 15.1028125 -0.505 15.1028125 0 14.1875 C1.20787988 11.94613529 1.20787988 11.94613529 1 9 C-0.93897879 6.32601524 -0.93897879 6.32601524 -3 4 C-2.34 3.67 -1.68 3.34 -1 3 C-0.67 2.01 -0.34 1.02 0 0 Z M2 2 C3 5 3 5 3 5 Z " fill="#EFE6D7" transform="translate(124,204)"/>
<path d="M0 0 C0 0.66 0 1.32 0 2 C1.32 2.66 2.64 3.32 4 4 C4.1875 6.875 4.1875 6.875 4 10 C1.00261059 11.99825961 0.36652492 12.27550398 -3 12.25 C-3.680625 12.25515625 -4.36125 12.2603125 -5.0625 12.265625 C-7 12 -7 12 -10 10 C-9.51470588 3.56985294 -9.51470588 3.56985294 -7.25 1.0625 C-4.64597372 -0.16717908 -2.84687774 -0.23723981 0 0 Z " fill="#6A5844" transform="translate(153,115)"/>
<path d="M0 0 C3.19599102 1.19849663 4.6407175 2.0370193 6.5 4.9375 C6.21861176 7.82310883 5.42732759 10.15551723 4.5 12.9375 C3.51 12.9375 2.52 12.9375 1.5 12.9375 C1.5 13.5975 1.5 14.2575 1.5 14.9375 C-1.375 14.25 -1.375 14.25 -4.5 12.9375 C-6.4275747 9.69566983 -7.08993325 6.67374391 -6.5 2.9375 C-4.33754831 0.5347759 -3.24717375 -0.08117934 0 0 Z " fill="#715F4B" transform="translate(70.5,113.0625)"/>
<path d="M0 0 C0.33 0.66 0.66 1.32 1 2 C1.99 1.67 2.98 1.34 4 1 C4.75 4.1875 4.75 4.1875 5 8 C3.0625 10.75 3.0625 10.75 1 13 C1 13.99 1 14.98 1 16 C-2.63 16 -6.26 16 -10 16 C-9.34 15.34 -8.68 14.68 -8 14 C-8.3185177 11.89179203 -8.3185177 11.89179203 -9 10 C-7.68 10 -6.36 10 -5 10 C-5 9.01 -5 8.02 -5 7 C-5.66 7 -6.32 7 -7 7 C-7 6.01 -7 5.02 -7 4 C-4.03 4.495 -4.03 4.495 -1 5 C-0.67 3.35 -0.34 1.7 0 0 Z " fill="#EAE3D4" transform="translate(68,196)"/>
<path d="M0 0 C1.9078584 3.1749094 2.1609041 5.10585211 1.625 8.75 C1.45871094 9.94882813 1.45871094 9.94882813 1.2890625 11.171875 C1.14597656 12.07679688 1.14597656 12.07679688 1 13 C-0.32 13 -1.64 13 -3 13 C-3.33 13.99 -3.66 14.98 -4 16 C-9.78461538 11.81538462 -9.78461538 11.81538462 -10.875 7.6875 C-10.91625 6.800625 -10.9575 5.91375 -11 5 C-9.68 5.33 -8.36 5.66 -7 6 C-6.67 4.68 -6.34 3.36 -6 2 C-4.7934375 1.7834375 -4.7934375 1.7834375 -3.5625 1.5625 C-1.07896294 1.25864751 -1.07896294 1.25864751 0 0 Z " fill="#F4EBDD" transform="translate(159,198)"/>
<path d="M0 0 C1.65 0 3.3 0 5 0 C5 1.32 5 2.64 5 4 C5.66 4.33 6.32 4.66 7 5 C7 6.66666667 7 8.33333333 7 10 C6.01 10 5.02 10 4 10 C3.731875 10.639375 3.46375 11.27875 3.1875 11.9375 C2 14 2 14 -1 15 C-1.33 15.66 -1.66 16.32 -2 17 C-3.32 16.67 -4.64 16.34 -6 16 C-5.67 15.34 -5.34 14.68 -5 14 C-4.01 14 -3.02 14 -2 14 C-2.33 13.01 -2.66 12.02 -3 11 C-3.66 11 -4.32 11 -5 11 C-5 10.34 -5 9.68 -5 9 C-4.319375 8.38125 -4.319375 8.38125 -3.625 7.75 C-1.46013354 5.41860535 -0.87294123 3.02171964 0 0 Z " fill="#F3E8DA" transform="translate(19,82)"/>
<path d="M0 0 C0.33 0 0.66 0 1 0 C1 2.64 1 5.28 1 8 C0.01 8.33 -0.98 8.66 -2 9 C-1.67 10.32 -1.34 11.64 -1 13 C-1.99 13 -2.98 13 -4 13 C-4 13.99 -4 14.98 -4 16 C-6 17.6875 -6 17.6875 -8 19 C-8.99 18.34 -9.98 17.68 -11 17 C-10.79503906 16.39671875 -10.59007812 15.7934375 -10.37890625 15.171875 C-9.97478516 13.97304687 -9.97478516 13.97304687 -9.5625 12.75 C-9.29566406 11.96109375 -9.02882812 11.1721875 -8.75390625 10.359375 C-7.97029131 8.04387978 -7.97029131 8.04387978 -7.53125 5.78125 C-7 4 -7 4 -4.9375 2.75 C-4.298125 2.5025 -3.65875 2.255 -3 2 C-2.67 2.66 -2.34 3.32 -2 4 C-1.34 2.68 -0.68 1.36 0 0 Z " fill="#F1E6D6" transform="translate(211,140)"/>
<path d="M0 0 C0.99 0.33 1.98 0.66 3 1 C4.6691198 4.61642624 3.65669883 8.20574012 3 12 C3.66 12 4.32 12 5 12 C5.33 11.01 5.66 10.02 6 9 C6.99 9 7.98 9 9 9 C9.33 10.98 9.66 12.96 10 15 C5.25 14.125 5.25 14.125 3 13 C3 13.66 3 14.32 3 15 C0.03 15 -2.94 15 -6 15 C-4.68 14.67 -3.36 14.34 -2 14 C-2.226875 13.175 -2.45375 12.35 -2.6875 11.5 C-3.10188624 6.85887407 -1.83308334 4.25275335 0 0 Z " fill="#DCD4C8" transform="translate(162,197)"/>
<path d="M0 0 C3 2 3 2 3.875 5.8125 C4.25204065 9.71807205 3.45444152 11.85831485 1 15 C1.66 15 2.32 15 3 15 C3 15.66 3 16.32 3 17 C3.99 17.33 4.98 17.66 6 18 C5.67 18.33 5.34 18.66 5 19 C5.99 19 6.98 19 8 19 C8 19.66 8 20.32 8 21 C5.69 21.33 3.38 21.66 1 22 C0.67 21.34 0.34 20.68 0 20 C-0.99 20.33 -1.98 20.66 -3 21 C-2.41523944 13.90593106 -1.36766005 6.98436101 0 0 Z M0 15 C1 17 1 17 1 17 Z " fill="#F2E7D8" transform="translate(12,118)"/>
<path d="M0 0 C4.2042578 0.52553222 7.43993622 2.1082931 11.1328125 4.0625 C13.1406578 5.12637293 13.1406578 5.12637293 16 6 C15.67 7.32 15.34 8.64 15 10 C12.36 9.67 9.72 9.34 7 9 C7 8.34 7 7.68 7 7 C5.35 7 3.7 7 2 7 C1.67 6.01 1.34 5.02 1 4 C0.34 4 -0.32 4 -1 4 C-0.67 2.68 -0.34 1.36 0 0 Z " fill="#867460" transform="translate(141,95)"/>
<path d="M0 0 C1.65 0 3.3 0 5 0 C5.33 1.65 5.66 3.3 6 5 C4.35 5.66 2.7 6.32 1 7 C0.34 6.01 -0.32 5.02 -1 4 C-1.16096147 8.68530728 -1.16096147 8.68530728 -0.3125 13.25 C-0.209375 13.8275 -0.10625 14.405 0 15 C-1.3125 16.75 -1.3125 16.75 -3 18 C-3.66 18 -4.32 18 -5 18 C-5 14.04 -5 10.08 -5 6 C-4.34 6 -3.68 6 -3 6 C-3 4.68 -3 3.36 -3 2 C-2.01 2 -1.02 2 0 2 C0 1.34 0 0.68 0 0 Z " fill="#F4EBDC" transform="translate(170,191)"/>
<path d="M0 0 C-0.33 1.65 -0.66 3.3 -1 5 C-2.32 5 -3.64 5 -5 5 C-5.226875 5.639375 -5.45375 6.27875 -5.6875 6.9375 C-7 9 -7 9 -9.5 9.8125 C-12 10 -12 10 -14 9 C-14 7.68 -14 6.36 -14 5 C-11 3 -11 3 -8 3 C-7.67 2.01 -7.34 1.02 -7 0 C-4.05610218 -1.17755913 -3.10046087 -1.03348696 0 0 Z " fill="#80715E" transform="translate(80,94)"/>
<path d="M0 0 C2 1.5625 2 1.5625 4 4 C4.04166002 6.3329614 4.04166002 8.6670386 4 11 C5.35885116 13.40083438 5.35885116 13.40083438 7 15 C5.02 15.66 3.04 16.32 1 17 C-0.04449911 13.86650268 0.06576355 13.01031744 1 10 C-0.32 9.34 -1.64 8.68 -3 8 C-2.74438677 5.6568787 -2.40729228 3.32156597 -2 1 C-1.34 0.67 -0.68 0.34 0 0 Z " fill="#F1E6D8" transform="translate(193,172)"/>
<path d="M0 0 C0.66 0.33 1.32 0.66 2 1 C2 2.32 2 3.64 2 5 C3.32 4.67 4.64 4.34 6 4 C6.33 5.65 6.66 7.3 7 9 C4 10 4 10 1 9 C0.67 9.66 0.34 10.32 0 11 C-0.886875 10.835 -1.77375 10.67 -2.6875 10.5 C-5.53596892 10.07004243 -8.13004802 9.91558965 -11 10 C-11 8.35 -11 6.7 -11 5 C-10.34 5 -9.68 5 -9 5 C-9 5.66 -9 6.32 -9 7 C-8.01 6.67 -7.02 6.34 -6 6 C-6 6.66 -6 7.32 -6 8 C-4.02 7.67 -2.04 7.34 0 7 C0 4.69 0 2.38 0 0 Z M5 6 C6 8 6 8 6 8 Z " fill="#D2CFC1" transform="translate(141,209)"/>
<path d="M0 0 C1.6015625 0.99609375 1.6015625 0.99609375 3 3 C2.63388228 5.85991961 2.1389023 8.31099202 1.375 11.0625 C1.19582031 11.79533203 1.01664063 12.52816406 0.83203125 13.28320312 C-0.59917092 18.73278061 -0.59917092 18.73278061 -4 21 C-4.73080266 19.02253397 -5.39421747 17.01927511 -6 15 C-5.67 14.34 -5.34 13.68 -5 13 C-4.34 13 -3.68 13 -3 13 C-3.04125 11.88625 -3.0825 10.7725 -3.125 9.625 C-3 6 -3 6 -1 4 C-0.3574765 1.93125966 -0.3574765 1.93125966 0 0 Z " fill="#E7E2D3" transform="translate(214,144)"/>
<path d="M0 0 C0.33 0.99 0.66 1.98 1 3 C1.66 2.67 2.32 2.34 3 2 C3 2.66 3 3.32 3 4 C3.66 4 4.32 4 5 4 C4.6875 5.875 4.6875 5.875 4 8 C3.01 8.66 2.02 9.32 1 10 C0.67 10.99 0.34 11.98 0 13 C-0.66 13 -1.32 13 -2 13 C-2.33 10.69 -2.66 8.38 -3 6 C-3.66 6 -4.32 6 -5 6 C-5 5.34 -5 4.68 -5 4 C-4.01 3.67 -3.02 3.34 -2 3 C-1.34 2.01 -0.68 1.02 0 0 Z " fill="#E7DFD1" transform="translate(31,183)"/>
<path d="M0 0 C0.66 0.66 1.32 1.32 2 2 C2.66 1.34 3.32 0.68 4 0 C4.103125 0.639375 4.20625 1.27875 4.3125 1.9375 C4.539375 2.618125 4.76625 3.29875 5 4 C5.99 4.33 6.98 4.66 8 5 C6.625 6.5 6.625 6.5 5 8 C4.34 8 3.68 8 3 8 C3.66 9.65 4.32 11.3 5 13 C4.34 13.66 3.68 14.32 3 15 C0.71194223 12.71194223 0.54417401 11.66724344 -0.0625 8.5625 C-0.58554517 5.93862879 -1.15093007 3.54720979 -2 1 C-1.34 0.67 -0.68 0.34 0 0 Z " fill="#D9D5C5" transform="translate(11,158)"/>
<path d="M0 0 C0.99 0.33 1.98 0.66 3 1 C3 3.64 3 6.28 3 9 C2.01 8.34 1.02 7.68 0 7 C-0.99 8.485 -0.99 8.485 -2 10 C-4.625 10.6875 -4.625 10.6875 -7 11 C-7 9.02 -7 7.04 -7 5 C-6.01 5 -5.02 5 -4 5 C-3.34 4.01 -2.68 3.02 -2 2 C-1.34 1.34 -0.68 0.68 0 0 Z " fill="#F8F1E3" transform="translate(191,181)"/>
<path d="M0 0 C0.33 0.99 0.66 1.98 1 3 C2.3303125 2.938125 2.3303125 2.938125 3.6875 2.875 C7.06220063 3.00234719 9.10779911 3.26467947 12 5 C12.8125 7.625 12.8125 7.625 13 10 C12.38125 9.814375 11.7625 9.62875 11.125 9.4375 C8.95839822 8.76313824 8.95839822 8.76313824 7 10 C7 9.01 7 8.02 7 7 C5.68 7.99 4.36 8.98 3 10 C0 5.375 0 5.375 0 2 C-0.66 1.67 -1.32 1.34 -2 1 C-1.34 0.67 -0.68 0.34 0 0 Z " fill="#BCBBB2" transform="translate(36,194)"/>
<path d="M0 0 C0 0.66 0 1.32 0 2 C-1.98 2.99 -1.98 2.99 -4 4 C-3.34 4.66 -2.68 5.32 -2 6 C-2 6.99 -2 7.98 -2 9 C-2.99 9.33 -3.98 9.66 -5 10 C-5.33 10.66 -5.66 11.32 -6 12 C-6.66 12 -7.32 12 -8 12 C-9.35439668 9.29120665 -9.06501451 6.99066732 -9 4 C-8.34 4 -7.68 4 -7 4 C-7 3.34 -7 2.68 -7 2 C-2.25 0 -2.25 0 0 0 Z " fill="#796754" transform="translate(103,135)"/>
<path d="M0 0 C0.33 0.66 0.66 1.32 1 2 C2.32 1.67 3.64 1.34 5 1 C5 1.99 5 2.98 5 4 C5.66 4 6.32 4 7 4 C7.33 5.65 7.66 7.3 8 9 C3.48349806 8.46864683 0.57941844 6.76591425 -3 4 C-3.33 3.01 -3.66 2.02 -4 1 C-3.01 1.33 -2.02 1.66 -1 2 C-0.67 1.34 -0.34 0.68 0 0 Z " fill="#66533F" transform="translate(117,136)"/>
<path d="M0 0 C0.66 0 1.32 0 2 0 C2.33 1.32 2.66 2.64 3 4 C3.66 3.34 4.32 2.68 5 2 C5.08107583 3.93681161 5.13922475 5.8745934 5.1875 7.8125 C5.22230469 8.89144531 5.25710937 9.97039062 5.29296875 11.08203125 C5 14 5 14 3.48828125 15.88671875 C2.99714844 16.25410156 2.50601563 16.62148437 2 17 C0.7017874 11.23918159 -0.25706972 5.91260345 0 0 Z " fill="#FDF9ED" transform="translate(215,100)"/>
<path d="M0 0 C2.9375 0.8125 2.9375 0.8125 6 2 C6.33 2.99 6.66 3.98 7 5 C8.32 5.66 9.64 6.32 11 7 C6.71 7 2.42 7 -2 7 C-2 6.01 -2 5.02 -2 4 C-1.01 4 -0.02 4 1 4 C1 3.34 1 2.68 1 2 C0.34 1.67 -0.32 1.34 -1 1 C-0.67 0.67 -0.34 0.34 0 0 Z " fill="#DED7C8" transform="translate(111,213)"/>
<path d="M0 0 C0.99 0 1.98 0 3 0 C3.33 0.66 3.66 1.32 4 2 C4.66 2 5.32 2 6 2 C7.34972126 6.04916379 6.88376862 8.91257012 6 13 C3.36113331 9.81516089 0.85505895 6.7101179 -1 3 C-0.67 2.01 -0.34 1.02 0 0 Z " fill="#F8F0E1" transform="translate(22,174)"/>
<path d="M0 0 C-0.2475 0.53625 -0.495 1.0725 -0.75 1.625 C-1.13593635 5.29139532 0.88805529 7.10361868 3 10 C3.69429379 11.3191582 4.37530495 12.64649406 5 14 C3.68 14 2.36 14 1 14 C-1.89842026 11.10157974 -2.72766995 7.81699014 -4 4 C-4.66 3.67 -5.32 3.34 -6 3 C-6 2.01 -6 1.02 -6 0 C-3 -1 -3 -1 0 0 Z " fill="#C7C3B9" transform="translate(22,172)"/>
<path d="M0 0 C0.33 0.66 0.66 1.32 1 2 C1.66 2 2.32 2 3 2 C3 3.32 3 4.64 3 6 C2.360625 6.226875 1.72125 6.45375 1.0625 6.6875 C-1.27193661 7.85250896 -1.27193661 7.85250896 -1.75 10.625 C-1.8325 11.40875 -1.915 12.1925 -2 13 C-2.99 12.67 -3.98 12.34 -5 12 C-4.67 9.36 -4.34 6.72 -4 4 C-3.34 4 -2.68 4 -2 4 C-1.34 2.68 -0.68 1.36 0 0 Z " fill="#F3E8DA" transform="translate(30,60)"/>
<path d="M0 0 C4.67461851 -0.32613618 7.16674383 0.29417212 11 3 C10.67 3.66 10.34 4.32 10 5 C8.34178227 5.37309899 6.67422986 5.70700977 5 6 C4.67 6.33 4.34 6.66 4 7 C2.32457024 6.71395102 0.65614657 6.38218767 -1 6 C-0.67 4.02 -0.34 2.04 0 0 Z " fill="#7A6854" transform="translate(110,133)"/>
<path d="M0 0 C1.65 1.65 3.3 3.3 5 5 C3.35 6.65 1.7 8.3 0 10 C-1.9375 9.1875 -1.9375 9.1875 -4 8 C-4.33 7.01 -4.66 6.02 -5 5 C-4.34 5 -3.68 5 -3 5 C-2.87625 4.360625 -2.7525 3.72125 -2.625 3.0625 C-2.41875 2.381875 -2.2125 1.70125 -2 1 C-1.34 0.67 -0.68 0.34 0 0 Z " fill="#FBF4E8" transform="translate(122,210)"/>
<path d="M0 0 C0.66 0 1.32 0 2 0 C2.33 2.64 2.66 5.28 3 8 C5.97 8.495 5.97 8.495 9 9 C8.01 10.32 7.02 11.64 6 13 C2.535 11.02 2.535 11.02 -1 9 C-1.09765625 2.84765625 -1.09765625 2.84765625 -1 1 C-0.67 0.67 -0.34 0.34 0 0 Z " fill="#E8D9C7" transform="translate(37,175)"/>
<path d="M0 0 C0.33 1.32 0.66 2.64 1 4 C1.99 4 2.98 4 4 4 C3.67 5.65 3.34 7.3 3 9 C2.67 8.34 2.34 7.68 2 7 C0.02 7.33 -1.96 7.66 -4 8 C-4.66 6.02 -5.32 4.04 -6 2 C-2.25 0 -2.25 0 0 0 Z " fill="#FBF4E5" transform="translate(20,164)"/>
<path d="M0 0 C-0.33 2.97 -0.66 5.94 -1 9 C-1.66 9 -2.32 9 -3 9 C-3.33 9.99 -3.66 10.98 -4 12 C-6 9 -6 9 -7 6 C-6.25 3.375 -6.25 3.375 -5 1 C-2 0 -2 0 0 0 Z " fill="#F6ECDE" transform="translate(17,149)"/>
<path d="M0 0 C0.66 0 1.32 0 2 0 C2.2475 0.78375 2.495 1.5675 2.75 2.375 C4.15389099 5.32317108 5.00675737 5.9024777 8 7 C8 8.65 8 10.3 8 12 C5.125 11.3125 5.125 11.3125 2 10 C0.01543209 6.66231761 -0.21905594 3.83347895 0 0 Z " fill="#6E5C48" transform="translate(64,116)"/>
<path d="M0 0 C2 2 2 2 2.125 4.625 C2.08375 5.40875 2.0425 6.1925 2 7 C2.66 7 3.32 7 4 7 C4 7.66 4 8.32 4 9 C5.32 9.33 6.64 9.66 8 10 C7.67 10.66 7.34 11.32 7 12 C4.125 12.1875 4.125 12.1875 1 12 C-1.56616632 8.15075052 -1.55097676 5.5650696 -2 1 C-1.34 0.67 -0.68 0.34 0 0 Z " fill="#F2ECDF" transform="translate(50,198)"/>
<path d="M0 0 C0.7425 0.391875 1.485 0.78375 2.25 1.1875 C1.92 1.8475 1.59 2.5075 1.25 3.1875 C0.26 3.1875 -0.73 3.1875 -1.75 3.1875 C-2.08 4.5075 -2.41 5.8275 -2.75 7.1875 C-2.75 6.5275 -2.75 5.8675 -2.75 5.1875 C-3.41 5.1875 -4.07 5.1875 -4.75 5.1875 C-4.42 6.5075 -4.09 7.8275 -3.75 9.1875 C-4.74 8.8575 -5.73 8.5275 -6.75 8.1875 C-7 5.375 -7 5.375 -6.75 2.1875 C-4.37960299 -0.62185941 -3.5708257 -1.05501669 0 0 Z " fill="#E3D3C1" transform="translate(176.75,182.8125)"/>
<path d="M0 0 C1.98 0.66 3.96 1.32 6 2 C5.67 2.78375 5.34 3.5675 5 4.375 C3.88133489 6.84332497 3.88133489 6.84332497 4 9 C3.01 9 2.02 9 1 9 C-1.125 3.375 -1.125 3.375 0 0 Z " fill="#D7D2C4" transform="translate(7,149)"/>
<path d="M0 0 C0.33 0.99 0.66 1.98 1 3 C3.97 3.495 3.97 3.495 7 4 C7 6.31 7 8.62 7 11 C6.34 10.67 5.68 10.34 5 10 C4.375 7.9375 4.375 7.9375 4 6 C3.01 7.32 2.02 8.64 1 10 C-0.1577506 6.52674819 -0.06866652 3.63932552 0 0 Z " fill="#D3D1CB" transform="translate(213,80)"/>
<path d="M0 0 C1.65 0.99 3.3 1.98 5 3 C4.67 3.99 4.34 4.98 4 6 C3.071875 5.773125 2.14375 5.54625 1.1875 5.3125 C-1.96826848 4.63680017 -1.96826848 4.63680017 -3.875 6.4375 C-4.24625 6.953125 -4.6175 7.46875 -5 8 C-5 6.35 -5 4.7 -5 3 C-4.360625 2.87625 -3.72125 2.7525 -3.0625 2.625 C-2.0415625 2.315625 -2.0415625 2.315625 -1 2 C-0.67 1.34 -0.34 0.68 0 0 Z " fill="#BCBAB3" transform="translate(81,9)"/>
<path d="M0 0 C0.33 0.66 0.66 1.32 1 2 C1.99 1.67 2.98 1.34 4 1 C4.33 3.31 4.66 5.62 5 8 C2 9 2 9 -0.1875 8.0625 C-0.785625 7.711875 -1.38375 7.36125 -2 7 C-1.67 6.401875 -1.34 5.80375 -1 5.1875 C0.20787988 2.94613529 0.20787988 2.94613529 0 0 Z " fill="#F2E8D9" transform="translate(68,196)"/>
<path d="M0 0 C0.99 0 1.98 0 3 0 C3 0.99 3 1.98 3 3 C2.01 3 1.02 3 0 3 C-0.268125 3.639375 -0.53625 4.27875 -0.8125 4.9375 C-2 7 -2 7 -5 8 C-5.33 8.66 -5.66 9.32 -6 10 C-7.32 9.67 -8.64 9.34 -10 9 C-9.67 8.34 -9.34 7.68 -9 7 C-8.01 7 -7.02 7 -6 7 C-6 6.34 -6 5.68 -6 5 C-5.01 5 -4.02 5 -3 5 C-2.505 4.175 -2.01 3.35 -1.5 2.5 C-1.005 1.675 -0.51 0.85 0 0 Z " fill="#EFE3D2" transform="translate(23,89)"/>
<path d="M0 0 C-0.33 1.65 -0.66 3.3 -1 5 C-2.32 5 -3.64 5 -5 5 C-5 5.66 -5 6.32 -5 7 C-5.66 7 -6.32 7 -7 7 C-6.67 4.69 -6.34 2.38 -6 0 C-3 -1 -3 -1 0 0 Z " fill="#655340" transform="translate(80,94)"/>
<path d="M0 0 C-0.99 1.98 -1.98 3.96 -3 6 C-3.99 6 -4.98 6 -6 6 C-6 4.68 -6 3.36 -6 2 C-7.32 1.67 -8.64 1.34 -10 1 C-6.1496895 -1.56687367 -4.41430237 -0.83288724 0 0 Z " fill="#F0E3D3" transform="translate(28,151)"/>
<path d="M0 0 C1.32 0.66 2.64 1.32 4 2 C2.79157144 6.43090471 1.48331435 8.98112756 -2 12 C-2.66 11.67 -3.32 11.34 -4 11 C-3.525625 10.67 -3.05125 10.34 -2.5625 10 C-0.14208385 6.90186733 -0.31801083 3.87973208 0 0 Z " fill="#C4C4C0" transform="translate(12,66)"/>
<path d="M0 0 C0.33 0.66 0.66 1.32 1 2 C1.33 1.34 1.66 0.68 2 0 C4.475 0.99 4.475 0.99 7 2 C7 2.99 7 3.98 7 5 C4.83125748 4.49396008 3.00032373 4.00016187 1 3 C0.67 3.66 0.34 4.32 0 5 C0 4.34 0 3.68 0 3 C-1.32 2.67 -2.64 2.34 -4 2 C-2.68 2 -1.36 2 0 2 C0 1.34 0 0.68 0 0 Z " fill="#A5A096" transform="translate(88,215)"/>
<path d="M0 0 C0.33 0.66 0.66 1.32 1 2 C0.01 3.485 0.01 3.485 -1 5 C-1.33 4.67 -1.66 4.34 -2 4 C-2.66 5.32 -3.32 6.64 -4 8 C-4.66 8 -5.32 8 -6 8 C-5.67 5.69 -5.34 3.38 -5 1 C-3.35 0.67 -1.7 0.34 0 0 Z " fill="#E8DAC8" transform="translate(154,193)"/>
<path d="M0 0 C1.98 0.66 3.96 1.32 6 2 C6.33 3.65 6.66 5.3 7 7 C6.38125 6.814375 5.7625 6.62875 5.125 6.4375 C2.95839822 5.76313824 2.95839822 5.76313824 1 7 C0.67 4.69 0.34 2.38 0 0 Z " fill="#D0C7B8" transform="translate(42,197)"/>
<path d="M0 0 C1.32 0 2.64 0 4 0 C4.33 1.65 4.66 3.3 5 5 C2.525 6.485 2.525 6.485 0 8 C-0.33 7.01 -0.66 6.02 -1 5 C-0.34 5 0.32 5 1 5 C0.67 3.35 0.34 1.7 0 0 Z " fill="#F4EADC" transform="translate(131,195)"/>
<path d="M0 0 C2.31 0 4.62 0 7 0 C6.690625 0.598125 6.38125 1.19625 6.0625 1.8125 C4.89790296 4.08956772 4.89790296 4.08956772 4 7 C2.68 6.67 1.36 6.34 0 6 C0 5.34 0 4.68 0 4 C0.66 3.67 1.32 3.34 2 3 C1.34 2.67 0.68 2.34 0 2 C0 1.34 0 0.68 0 0 Z " fill="#EFE3D3" transform="translate(166,183)"/>
<path d="M0 0 C0 1.32 0 2.64 0 4 C-0.66 4 -1.32 4 -2 4 C-1.67 5.32 -1.34 6.64 -1 8 C-2.32 7.67 -3.64 7.34 -5 7 C-4.625 4.0625 -4.625 4.0625 -4 1 C-2 0 -2 0 0 0 Z " fill="#E9DACA" transform="translate(187,177)"/>
<path d="M0 0 C0 0.66 0 1.32 0 2 C-1.98 2.99 -1.98 2.99 -4 4 C-3.34 5.32 -2.68 6.64 -2 8 C-3.32 7.67 -4.64 7.34 -6 7 C-6.33 5.35 -6.66 3.7 -7 2 C-2.25 0 -2.25 0 0 0 Z " fill="#635140" transform="translate(103,135)"/>
<path d="M0 0 C0.66 0 1.32 0 2 0 C1.67 2.97 1.34 5.94 1 9 C0.01 8.67 -0.98 8.34 -2 8 C-1.125 1.125 -1.125 1.125 0 0 Z " fill="#776550" transform="translate(145,117)"/>
<path d="M0 0 C0.66 0 1.32 0 2 0 C2 0.66 2 1.32 2 2 C2.99 1.67 3.98 1.34 5 1 C5 1.99 5 2.98 5 4 C7.31 4 9.62 4 12 4 C12 4.33 12 4.66 12 5 C9.03 5 6.06 5 3 5 C2.67 5.66 2.34 6.32 2 7 C1.34 4.69 0.68 2.38 0 0 Z " fill="#DBD7CF" transform="translate(175,31)"/>
<path d="M0 0 C1.53445094 3.06890187 0.54984289 5.70094266 0 9 C-0.99 9 -1.98 9 -3 9 C-3.1875 5.625 -3.1875 5.625 -3 2 C-2.01 1.34 -1.02 0.68 0 0 Z " fill="#E4DFD5" transform="translate(6,108)"/>
<path d="M0 0 C0.99 0 1.98 0 3 0 C3.33 1.98 3.66 3.96 4 6 C-0.75 5.25 -0.75 5.25 -3 3 C-2.34 3 -1.68 3 -1 3 C-0.67 2.01 -0.34 1.02 0 0 Z " fill="#B9B5AA" transform="translate(168,206)"/>
<path d="M0 0 C1.32 0 2.64 0 4 0 C4.33 1.65 4.66 3.3 5 5 C0.25 4.25 0.25 4.25 -2 2 C-1.34 2 -0.68 2 0 2 C0 1.34 0 0.68 0 0 Z " fill="#73614D" transform="translate(120,140)"/>
<path d="M0 0 C-0.33 1.32 -0.66 2.64 -1 4 C-3.64 3.67 -6.28 3.34 -9 3 C-8 1 -8 1 -6.1875 0.375 C-4 0 -4 0 0 0 Z " fill="#6B5843" transform="translate(157,101)"/>
<path d="M0 0 C1.65 0.33 3.3 0.66 5 1 C5.33 1.99 5.66 2.98 6 4 C4.68 3.67 3.36 3.34 2 3 C1.67 3.66 1.34 4.32 1 5 C0.34 4.67 -0.32 4.34 -1 4 C-0.67 2.68 -0.34 1.36 0 0 Z " fill="#6C5C49" transform="translate(141,95)"/>
<path d="M0 0 C0.66 0 1.32 0 2 0 C1.43454163 3.95820859 0.19097652 6.6659053 -2 10 C-2.66 9.01 -3.32 8.02 -4 7 C-3.34 6.34 -2.68 5.68 -2 5 C-1.67 4.01 -1.34 3.02 -1 2 C-0.67 1.34 -0.34 0.68 0 0 Z " fill="#D0CFC8" transform="translate(23,52)"/>
<path d="M0 0 C0.66 0 1.32 0 2 0 C2 0.66 2 1.32 2 2 C2.99 1.67 3.98 1.34 5 1 C5 1.66 5 2.32 5 3 C5.99 3.33 6.98 3.66 8 4 C5.07175348 4.97608217 3.04386724 5.08226668 0 5 C0 3.35 0 1.7 0 0 Z " fill="#CBC4B9" transform="translate(130,214)"/>
<path d="M0 0 C-0.33 1.65 -0.66 3.3 -1 5 C-3.475 4.01 -3.475 4.01 -6 3 C-6 2.01 -6 1.02 -6 0 C-3 -1 -3 -1 0 0 Z " fill="#D5D0C2" transform="translate(22,172)"/>
<path d="M0 0 C1.2065625 0.0309375 1.2065625 0.0309375 2.4375 0.0625 C1.4475 0.5575 1.4475 0.5575 0.4375 1.0625 C0.7675 2.0525 1.0975 3.0425 1.4375 4.0625 C0 6.25 0 6.25 -1.5625 8.0625 C-2.2225 5.7525 -2.8825 3.4425 -3.5625 1.0625 C-2.5625 0.0625 -2.5625 0.0625 0 0 Z " fill="#7F6E5A" transform="translate(150.5625,114.9375)"/>
<path d="M0 0 C0.33 0.99 0.66 1.98 1 3 C0.0409375 3.6496875 0.0409375 3.6496875 -0.9375 4.3125 C-3.26746003 5.91239177 -3.26746003 5.91239177 -4 9 C-4.66 9 -5.32 9 -6 9 C-5.69381595 5.32579134 -5.24228216 4.21864487 -2.4375 1.6875 C-1.633125 1.130625 -0.82875 0.57375 0 0 Z " fill="#D4CDBF" transform="translate(35,187)"/>
<path d="M0 0 C0.66 0 1.32 0 2 0 C3.625 2 3.625 2 5 4 C3.02 4.66 1.04 5.32 -1 6 C-1.33 5.01 -1.66 4.02 -2 3 C-1.34 2.01 -0.68 1.02 0 0 Z " fill="#C7C2B8" transform="translate(195,183)"/>
<path d="M0 0 C0.66 0.33 1.32 0.66 2 1 C2 2.65 2 4.3 2 6 C1.01 6 0.02 6 -1 6 C-1.99 6.495 -1.99 6.495 -3 7 C-2.25 2.25 -2.25 2.25 0 0 Z " fill="#EADBC9" transform="translate(195,165)"/>
<path d="M0 0 C0.33 1.65 0.66 3.3 1 5 C0.01 5.33 -0.98 5.66 -2 6 C-2.99 4.68 -3.98 3.36 -5 2 C-2 0 -2 0 0 0 Z " fill="#806E5A" transform="translate(103,137)"/>
<path d="M0 0 C0.66 0 1.32 0 2 0 C2 0.66 2 1.32 2 2 C3.32 2.33 4.64 2.66 6 3 C5.67 3.66 5.34 4.32 5 5 C3.02 5 1.04 5 -1 5 C-0.67 3.35 -0.34 1.7 0 0 Z " fill="#C6C3B6" transform="translate(52,205)"/>
<path d="M0 0 C1.65 0 3.3 0 5 0 C4.67 1.32 4.34 2.64 4 4 C2.68 4.33 1.36 4.66 0 5 C0 3.35 0 1.7 0 0 Z " fill="#F6EDDF" transform="translate(178,188)"/>
<path d="M0 0 C0.33 0.66 0.66 1.32 1 2 C1.99 2 2.98 2 4 2 C3.42655063 4.86724686 3.1385485 5.8614515 1 8 C0.26919734 6.02253397 -0.39421747 4.01927511 -1 2 C-0.67 1.34 -0.34 0.68 0 0 Z " fill="#C4BEB8" transform="translate(209,157)"/>
<path d="M0 0 C0.99 0 1.98 0 3 0 C2.67 1.98 2.34 3.96 2 6 C1.34 6 0.68 6 0 6 C-0.66 4.68 -1.32 3.36 -2 2 C-1.34 1.34 -0.68 0.68 0 0 Z " fill="#D4D1C7" transform="translate(5,136)"/>
<path d="M0 0 C0.66 0 1.32 0 2 0 C1.38722388 2.96175123 0.74627478 4.38058783 -1 7 C-1.66 7 -2.32 7 -3 7 C-2.67 5.35 -2.34 3.7 -2 2 C-1.34 2 -0.68 2 0 2 C0 1.34 0 0.68 0 0 Z " fill="#E6E2D5" transform="translate(28,49)"/>
<path d="M0 0 C0.66 0 1.32 0 2 0 C2 0.66 2 1.32 2 2 C2.66 2 3.32 2 4 2 C4.33 2.99 4.66 3.98 5 5 C3.68 5 2.36 5 1 5 C1 4.34 1 3.68 1 3 C0.01 2.67 -0.98 2.34 -2 2 C-1.34 1.34 -0.68 0.68 0 0 Z " fill="#FDF5E2" transform="translate(83,212)"/>
<path d="M0 0 C0.33 0.66 0.66 1.32 1 2 C1.66 2 2.32 2 3 2 C3 3.65 3 5.3 3 7 C2.01 7.495 2.01 7.495 1 8 C0.26919734 6.02253397 -0.39421747 4.01927511 -1 2 C-0.67 1.34 -0.34 0.68 0 0 Z " fill="#FAF5E9" transform="translate(11,153)"/>
<path d="M0 0 C2.625 0.9375 2.625 0.9375 5 2 C4.67 2.66 4.34 3.32 4 4 C1.4375 4.625 1.4375 4.625 -1 5 C-1.33 3.68 -1.66 2.36 -2 1 C-1.34 0.67 -0.68 0.34 0 0 Z " fill="#907F6B" transform="translate(116,134)"/>
<path d="M0 0 C0.99 0.495 0.99 0.495 2 1 C2 1.66 2 2.32 2 3 C2.66 3.33 3.32 3.66 4 4 C3.67 4.99 3.34 5.98 3 7 C2.01 7 1.02 7 0 7 C0 4.69 0 2.38 0 0 Z " fill="#EAE8DD" transform="translate(215,86)"/>
<path d="M0 0 C3 2 3 2 3.6875 4.125 C3.8421875 5.053125 3.8421875 5.053125 4 6 C2.68 6.33 1.36 6.66 0 7 C0 4.69 0 2.38 0 0 Z " fill="#F2E7D8" transform="translate(156,184)"/>
<path d="M0 0 C0.66 0 1.32 0 2 0 C2.66 2.64 3.32 5.28 4 8 C3.01 7.67 2.02 7.34 1 7 C0.67 4.69 0.34 2.38 0 0 Z " fill="#5B4934" transform="translate(64,116)"/>
<path d="M0 0 C0 0.99 0 1.98 0 3 C-1.98 3.99 -3.96 4.98 -6 6 C-6 5.01 -6 4.02 -6 3 C-4.02 2.01 -2.04 1.02 0 0 Z " fill="#695744" transform="translate(72,96)"/>
<path d="M0 0 C0.99 0.33 1.98 0.66 3 1 C4.1875 4.0625 4.1875 4.0625 5 7 C4.34 7.66 3.68 8.32 3 9 C1.9375 7.125 1.9375 7.125 1 5 C1.33 4.34 1.66 3.68 2 3 C1.34 3 0.68 3 0 3 C0 2.01 0 1.02 0 0 Z " fill="#D3D1C5" transform="translate(193,45)"/>
<path d="M0 0 C0.33 0 0.66 0 1 0 C1 1.65 1 3.3 1 5 C0.34 4.67 -0.32 4.34 -1 4 C-0.67 2.68 -0.34 1.36 0 0 Z " fill="#A9A9A9" transform="translate(187,199)"/>
<path d="M0 0 C1.0625 1.875 1.0625 1.875 2 4 C1.67 4.66 1.34 5.32 1 6 C0 5 0 5 -0.0625 2.4375 C-0.041875 1.633125 -0.02125 0.82875 0 0 Z " fill="#9C9C9C" transform="translate(218,145)"/>
<path d="M0 0 C0.66 0 1.32 0 2 0 C1.34 1.32 0.68 2.64 0 4 C0 2.68 0 1.36 0 0 Z " fill="#9A9A9A" transform="translate(146,11)"/>
<path d="M0 0 C1 4 1 4 1 4 Z " fill="#7F7F7F" transform="translate(203,184)"/>
<path d="M0 0 C0.99 0.33 1.98 0.66 3 1 C2.01 1 1.02 1 0 1 C0 0.67 0 0.34 0 0 Z " fill="#919191" transform="translate(12,64)"/>
<path d="M0 0 C0.99 0.33 1.98 0.66 3 1 C2.01 1 1.02 1 0 1 C0 0.67 0 0.34 0 0 Z " fill="#919191" transform="translate(175,27)"/>
<path d="M0 0 C0.99 0.495 0.99 0.495 2 1 C1.01 1.495 1.01 1.495 0 2 C0 1.34 0 0.68 0 0 Z " fill="#8B8B8B" transform="translate(55,210)"/>
<path d="M0 0 C0.99 0.495 0.99 0.495 2 1 C1.01 1.495 1.01 1.495 0 2 C0 1.34 0 0.68 0 0 Z " fill="#8B8B8B" transform="translate(178,202)"/>
<path d="" fill="#7F7F7F" transform="translate(0,0)"/>
<path d="" fill="#7F7F7F" transform="translate(0,0)"/>
<path d="" fill="#7F7F7F" transform="translate(0,0)"/>
<path d="" fill="#D1D1D1" transform="translate(0,0)"/>
<path d="" fill="#7F7F7F" transform="translate(0,0)"/>
<path d="" fill="#7F7F7F" transform="translate(0,0)"/>
<path d="" fill="#7F7F7F" transform="translate(0,0)"/>
<path d="" fill="#7F7F7F" transform="translate(0,0)"/>
<path d="" fill="#7F7F7F" transform="translate(0,0)"/>
<path d="M0 0 C2 1 2 1 2 1 Z " fill="#A4A4A4" transform="translate(216,81)"/>
<path d="M0 0 C2 1 2 1 2 1 Z " fill="#A4A4A4" transform="translate(5,76)"/>
<path d="" fill="#D1D1D1" transform="translate(0,0)"/>
<path d="" fill="#7F7F7F" transform="translate(0,0)"/>
<path d="" fill="#D1D1D1" transform="translate(0,0)"/>
<path d="" fill="#7F7F7F" transform="translate(0,0)"/>
<path d="" fill="#D1D1D1" transform="translate(0,0)"/>
<path d="" fill="#D1D1D1" transform="translate(0,0)"/>
<path d="" fill="#A4A4A4" transform="translate(0,0)"/>
<path d="" fill="#A4A4A4" transform="translate(0,0)"/>
<path d="" fill="#A4A4A4" transform="translate(0,0)"/>
<path d="" fill="#A4A4A4" transform="translate(0,0)"/>
<path d="" fill="#A4A4A4" transform="translate(0,0)"/>
<path d="" fill="#A4A4A4" transform="translate(0,0)"/>
<path d="" fill="#A4A4A4" transform="translate(0,0)"/>
<path d="" fill="#A4A4A4" transform="translate(0,0)"/>
<path d="" fill="#A4A4A4" transform="translate(0,0)"/>
<path d="" fill="#A4A4A4" transform="translate(0,0)"/>
<path d="" fill="#A4A4A4" transform="translate(0,0)"/>
<path d="" fill="#A4A4A4" transform="translate(0,0)"/>
<path d="" fill="#A4A4A4" transform="translate(0,0)"/>
<path d="" fill="#A4A4A4" transform="translate(0,0)"/>
<path d="" fill="#A4A4A4" transform="translate(0,0)"/>
<path d="" fill="#A4A4A4" transform="translate(0,0)"/>
<path d="" fill="#A4A4A4" transform="translate(0,0)"/>
<path d="" fill="#A4A4A4" transform="translate(0,0)"/>
<path d="" fill="#A4A4A4" transform="translate(0,0)"/>
<path d="" fill="#A4A4A4" transform="translate(0,0)"/>
<path d="" fill="#A4A4A4" transform="translate(0,0)"/>
<path d="" fill="#A4A4A4" transform="translate(0,0)"/>
<path d="" fill="#A4A4A4" transform="translate(0,0)"/>
<path d="" fill="#A4A4A4" transform="translate(0,0)"/>
<path d="" fill="#A4A4A4" transform="translate(0,0)"/>
<path d="" fill="#A4A4A4" transform="translate(0,0)"/>
<path d="" fill="#A4A4A4" transform="translate(0,0)"/>
<path d="" fill="#A4A4A4" transform="translate(0,0)"/>
<path d="" fill="#A4A4A4" transform="translate(0,0)"/>
<path d="" fill="#A4A4A4" transform="translate(0,0)"/>
<path d="" fill="#A4A4A4" transform="translate(0,0)"/>
<path d="" fill="#A4A4A4" transform="translate(0,0)"/>
<path d="" fill="#A4A4A4" transform="translate(0,0)"/>
<path d="" fill="#A4A4A4" transform="translate(0,0)"/>
<path d="" fill="#A4A4A4" transform="translate(0,0)"/>
<path d="" fill="#A4A4A4" transform="translate(0,0)"/>
<path d="" fill="#A4A4A4" transform="translate(0,0)"/>
<path d="" fill="#A4A4A4" transform="translate(0,0)"/>
<path d="" fill="#A4A4A4" transform="translate(0,0)"/>
<path d="" fill="#A4A4A4" transform="translate(0,0)"/>
</svg>
