<?xml version="1.0" encoding="UTF-8"?>
<svg version="1.1" xmlns="http://www.w3.org/2000/svg" width="220" height="220">
<path d="M0 0 C17.82 0 35.64 0 54 0 C54.495 1.485 54.495 1.485 55 3 C59.95 3 64.9 3 70 3 C70.33 3.66 70.66 4.32 71 5 C73.02463255 5.65213292 73.02463255 5.65213292 75 6 C75 6.99 75 7.98 75 9 C76.65 9 78.3 9 80 9 C80.33 9.99 80.66 10.98 81 12 C82.32 12 83.64 12 85 12 C85 12.99 85 13.98 85 15 C86.98 15 88.96 15 91 15 C91 15.99 91 16.98 91 18 C92.32 18 93.64 18 95 18 C95 18.99 95 19.98 95 21 C96.32 21.33 97.64 21.66 99 22 C99 22.66 99 23.32 99 24 C99.66 24 100.32 24 101 24 C101 24.99 101 25.98 101 27 C102.32 27 103.64 27 105 27 C105 27.99 105 28.98 105 30 C106.32 30 107.64 30 109 30 C109 30.99 109 31.98 109 33 C109.66 33 110.32 33 111 33 C111 33.99 111 34.98 111 36 C112.32 36 113.64 36 115 36 C115 36.99 115 37.98 115 39 C115.66 39 116.32 39 117 39 C117 39.99 117 40.98 117 42 C117.66 42 118.32 42 119 42 C119 42.99 119 43.98 119 45 C119.66 45 120.32 45 121 45 C121 45.99 121 46.98 121 48 C121.66 48 122.32 48 123 48 C124.85776765 51.13498292 125.20140476 53.37471432 125 57 C125.66 57 126.32 57 127 57 C128.85776765 60.13498292 129.20140476 62.37471432 129 66 C129.66 66 130.32 66 131 66 C131 67.98 131 69.96 131 72 C131.66 72 132.32 72 133 72 C133 74.97 133 77.94 133 81 C133.66 81 134.32 81 135 81 C135 94.53 135 108.06 135 122 C134.34 122 133.68 122 133 122 C133 124.97 133 127.94 133 131 C132.34 131 131.68 131 131 131 C131.04125 132.2375 131.0825 133.475 131.125 134.75 C131.13658291 138.01637962 130.8568702 140.2146947 129 143 C128.34 143 127.68 143 127 143 C127 143.99 127 144.98 127 146 C126.34 146 125.68 146 125 146 C125 146.99 125 147.98 125 149 C124.34 149 123.68 149 123 149 C123 149.99 123 150.98 123 152 C122.34 152 121.68 152 121 152 C121 152.99 121 153.98 121 155 C120.34 155 119.68 155 119 155 C119 155.99 119 156.98 119 158 C118.34 158 117.68 158 117 158 C117 158.99 117 159.98 117 161 C116.34 161 115.68 161 115 161 C115 161.99 115 162.98 115 164 C113.68 164 112.36 164 111 164 C111 164.99 111 165.98 111 167 C110.34 167 109.68 167 109 167 C109 167.99 109 168.98 109 170 C107.68 170 106.36 170 105 170 C105 170.99 105 171.98 105 173 C103.68 173 102.36 173 101 173 C101 173.99 101 174.98 101 176 C99.68 176 98.36 176 97 176 C96.67 176.99 96.34 177.98 96 179 C94.35 179 92.7 179 91 179 C91 179.99 91 180.98 91 182 C89.865625 182.12375 88.73125 182.2475 87.5625 182.375 C86.386875 182.58125 85.21125 182.7875 84 183 C83.67 183.66 83.34 184.32 83 185 C80.36 185 77.72 185 75 185 C75 185.99 75 186.98 75 188 C73.02 188 71.04 188 69 188 C68.67 188.99 68.34 189.98 68 191 C63.71 191 59.42 191 55 191 C55 191.99 55 192.98 55 194 C39.16 194 23.32 194 7 194 C6.67 193.34 6.34 192.68 6 192 C2.98566709 191.60701599 2.98566709 191.60701599 -0.5 191.5 C-4.09375 191.34375 -4.09375 191.34375 -7 191 C-7.33 190.34 -7.66 189.68 -8 189 C-9.89533342 188.53476937 -9.89533342 188.53476937 -12.0625 188.375 C-13.361875 188.25125 -14.66125 188.1275 -16 188 C-16.33 187.01 -16.66 186.02 -17 185 C-18.98 185 -20.96 185 -23 185 C-23 184.01 -23 183.02 -23 182 C-24.98 182 -26.96 182 -29 182 C-29 181.01 -29 180.02 -29 179 C-30.98 179 -32.96 179 -35 179 C-35 178.01 -35 177.02 -35 176 C-36.65 176 -38.3 176 -40 176 C-40.33 175.01 -40.66 174.02 -41 173 C-41.66 173 -42.32 173 -43 173 C-43 172.01 -43 171.02 -43 170 C-44.32 170 -45.64 170 -47 170 C-47 169.01 -47 168.02 -47 167 C-47.66 167 -48.32 167 -49 167 C-49 166.01 -49 165.02 -49 164 C-50.32 164 -51.64 164 -53 164 C-53 163.01 -53 162.02 -53 161 C-53.66 161 -54.32 161 -55 161 C-55 160.01 -55 159.02 -55 158 C-55.66 158 -56.32 158 -57 158 C-57 157.01 -57 156.02 -57 155 C-57.66 155 -58.32 155 -59 155 C-59 154.01 -59 153.02 -59 152 C-59.66 152 -60.32 152 -61 152 C-61 151.01 -61 150.02 -61 149 C-61.66 149 -62.32 149 -63 149 C-63 148.01 -63 147.02 -63 146 C-63.66 146 -64.32 146 -65 146 C-65 144.02 -65 142.04 -65 140 C-65.66 140 -66.32 140 -67 140 C-67 139.01 -67 138.02 -67 137 C-67.66 137 -68.32 137 -69 137 C-69 135.02 -69 133.04 -69 131 C-69.66 131 -70.32 131 -71 131 C-71 129.02 -71 127.04 -71 125 C-71.66 125 -72.32 125 -73 125 C-73 113.45 -73 101.9 -73 90 C-72.34 90 -71.68 90 -71 90 C-71.01160156 89.37351562 -71.02320312 88.74703125 -71.03515625 88.1015625 C-71.04417969 87.28429687 -71.05320312 86.46703125 -71.0625 85.625 C-71.07410156 84.81289062 -71.08570312 84.00078125 -71.09765625 83.1640625 C-71 81 -71 81 -70 79 C-69.82139064 77.60798105 -69.68044293 76.21096613 -69.5625 74.8125 C-69.14619505 70.66287965 -68.26634906 66.96789371 -67 63 C-66.34 63 -65.68 63 -65 63 C-65 61.02 -65 59.04 -65 57 C-64.34 57 -63.68 57 -63 57 C-63 56.01 -63 55.02 -63 54 C-62.34 54 -61.68 54 -61 54 C-61 53.01 -61 52.02 -61 51 C-60.34 51 -59.68 51 -59 51 C-59.061875 49.88625 -59.061875 49.88625 -59.125 48.75 C-58.99601866 45.91241048 -58.42948778 44.41226062 -57 42 C-56.34 42 -55.68 42 -55 42 C-55 41.01 -55 40.02 -55 39 C-54.34 39 -53.68 39 -53 39 C-53 38.01 -53 37.02 -53 36 C-52.34 36 -51.68 36 -51 36 C-50.67 35.01 -50.34 34.02 -50 33 C-49.01 33 -48.02 33 -47 33 C-47 32.01 -47 31.02 -47 30 C-45.6875 28.3125 -45.6875 28.3125 -44 27 C-43.01 27 -42.02 27 -41 27 C-40.505 25.515 -40.505 25.515 -40 24 C-39.01 24 -38.02 24 -37 24 C-37 23.01 -37 22.02 -37 21 C-36.34 21 -35.68 21 -35 21 C-35 20.01 -35 19.02 -35 18 C-33.68 18 -32.36 18 -31 18 C-31 17.01 -31 16.02 -31 15 C-29.68 15 -28.36 15 -27 15 C-27 14.01 -27 13.02 -27 12 C-25.68 12 -24.36 12 -23 12 C-23 11.01 -23 10.02 -23 9 C-22.360625 8.87625 -21.72125 8.7525 -21.0625 8.625 C-20.381875 8.41875 -19.70125 8.2125 -19 8 C-18.67 7.34 -18.34 6.68 -18 6 C-15.69 6 -13.38 6 -11 6 C-11 5.01 -11 4.02 -11 3 C-10.28972656 2.95101563 -9.57945313 2.90203125 -8.84765625 2.8515625 C-7.92855469 2.77679688 -7.00945312 2.70203125 -6.0625 2.625 C-4.68771484 2.52058594 -4.68771484 2.52058594 -3.28515625 2.4140625 C-2.53105469 2.27742187 -1.77695313 2.14078125 -1 2 C-0.67 1.34 -0.34 0.68 0 0 Z " fill="#FCF4E6" transform="translate(80,13)"/>
<path d="M0 0 C1.6588516 3.59417847 1.57087476 8.11959457 1 12 C-1.06771104 15.27981751 -2.77119011 16.84746007 -6 19 C-10.07490752 19.33957563 -11.53001271 19.31332486 -15 17 C-16.421875 15.23046875 -16.421875 15.23046875 -17.75 13.1875 C-18.19859375 12.52105469 -18.6471875 11.85460937 -19.109375 11.16796875 C-20.29256591 8.28783298 -20.1246082 6.89118025 -19 4 C-16.890625 2.453125 -16.890625 2.453125 -14.25 1.25 C-12.95835937 0.63898438 -12.95835937 0.63898438 -11.640625 0.015625 C-3.93220339 -2.94915254 -3.93220339 -2.94915254 0 0 Z " fill="#69523F" transform="translate(155,107)"/>
<path d="M0 0 C2.83875496 2.51616917 4.8961079 4.84416185 7 8 C6.01 9.485 6.01 9.485 5 11 C4.4172881 12.54766142 3.87735813 14.11192222 3.375 15.6875 C3.11460938 16.49574219 2.85421875 17.30398437 2.5859375 18.13671875 C2.29589844 19.05904297 2.29589844 19.05904297 2 20 C-2.3266341 21.00619398 -5.12471677 21.36822864 -9 19 C-11.88900085 14.59771299 -11.40817098 9.07298218 -11 4 C-10.1875 0.9375 -10.1875 0.9375 -9 -1 C-5.11576096 -2.29474635 -3.71300843 -1.63372371 0 0 Z " fill="#6D5543" transform="translate(72,105)"/>
<path d="M0 0 C2.76889459 1.60791096 4.44399808 3.50388606 6.10546875 6.22265625 C5.44546875 7.87265625 4.78546875 9.52265625 4.10546875 11.22265625 C1.90539896 10.16336339 -0.11941233 9.07208708 -2.15234375 7.7109375 C-7.09390796 5.02897744 -12.35310709 4.86307369 -17.89453125 5.22265625 C-20.80153498 6.29506869 -23.24735692 7.55266033 -25.87109375 9.19140625 C-26.87269531 9.701875 -26.87269531 9.701875 -27.89453125 10.22265625 C-28.88453125 9.89265625 -29.87453125 9.56265625 -30.89453125 9.22265625 C-29.65202341 4.25262487 -28.19432035 2.02251892 -23.89453125 -0.77734375 C-15.91847067 -4.47291849 -7.88665495 -3.4982142 0 0 Z " fill="#645040" transform="translate(121.89453125,139.77734375)"/>
<path d="M0 0 C0.99 0.33 1.98 0.66 3 1 C3.6875 3.0625 3.6875 3.0625 4 5 C-1.87300966 10.00359131 -11.03375951 17 -19 17 C-19 17.66 -19 18.32 -19 19 C-20.65614657 19.38218767 -22.32457024 19.71395102 -24 20 C-25 19 -25 19 -25.6875 16.3125 C-25 13 -25 13 -23.12109375 11.41015625 C-18.04826553 8.29024781 -12.76496459 5.96051971 -7.1953125 3.8828125 C-4.80187636 2.99244666 -4.80187636 2.99244666 -2.0625 1.1875 C-1.381875 0.795625 -0.70125 0.40375 0 0 Z " fill="#685240" transform="translate(156,78)"/>
<path d="M0 0 C3.86137461 1.11550822 6.29521127 2.02473239 9 5 C9.66 5 10.32 5 11 5 C11 5.66 11 6.32 11 7 C12.65 6.34 14.3 5.68 16 5 C16.33 5.99 16.66 6.98 17 8 C17.66 8 18.32 8 19 8 C19.33 7.01 19.66 6.02 20 5 C20.99 5.99 21.98 6.98 23 8 C23.45375 7.505 23.9075 7.01 24.375 6.5 C26 5 26 5 28 5 C29.06775224 6.96466413 30.06553465 8.96855359 31 11 C30.67 11.66 30.34 12.32 30 13 C26.98003217 13.54908506 24.07380605 14 21 14 C20.21625 14.165 19.4325 14.33 18.625 14.5 C16 15 16 15 12 15 C12 14.01 12 13.02 12 12 C11.67 12.66 11.34 13.32 11 14 C10.34 13.67 9.68 13.34 9 13 C8.375 10.9375 8.375 10.9375 8 9 C7.195625 8.855625 6.39125 8.71125 5.5625 8.5625 C3 8 3 8 2 7 C1.34 7.66 0.68 8.32 0 9 C0 8.34 0 7.68 0 7 C-0.66 7 -1.32 7 -2 7 C-1.125 1.125 -1.125 1.125 0 0 Z " fill="#F5E9D8" transform="translate(69,189)"/>
<path d="M0 0 C4.37232119 0.53852636 7.55227041 1.57519197 11.375 3.75 C12.31730469 4.28367187 13.25960937 4.81734375 14.23046875 5.3671875 C17.86695727 7.51112572 21.4468009 9.72058926 25 12 C24.67 13.65 24.34 15.3 24 17 C21.45145825 17.98800326 19.65369222 18.23455338 17.05810547 17.30322266 C14.80738156 16.2081221 12.62246443 15.03345437 10.4375 13.8125 C9.68275391 13.41224609 8.92800781 13.01199219 8.15039062 12.59960938 C4.22198222 10.46407811 0.96695842 8.42341356 -2 5 C-1.34 3.35 -0.68 1.7 0 0 Z " fill="#5E4A39" transform="translate(63,79)"/>
<path d="M0 0 C0.66 0.66 1.32 1.32 2 2 C1.625 4.125 1.625 4.125 1 6 C2.32 5.67 3.64 5.34 5 5 C4.67 6.32 4.34 7.64 4 9 C5.32 8.67 6.64 8.34 8 8 C8.66 9.32 9.32 10.64 10 12 C11.32 11.67 12.64 11.34 14 11 C13 13 12 15 11 17 C11.99 17 12.98 17 14 17 C14.66 18.32 15.32 19.64 16 21 C15 22 15 22 11.9375 22.0625 C10.968125 22.041875 9.99875 22.02125 9 22 C9 21.01 9 20.02 9 19 C7.02 19 5.04 19 3 19 C3 18.01 3 17.02 3 16 C1.35 16 -0.3 16 -2 16 C-1.67 14.35 -1.34 12.7 -1 11 C-2.32 11 -3.64 11 -5 11 C-5.66 11 -6.32 11 -7 11 C-6.67 9.68 -6.34 8.36 -6 7 C-5.38125 6.95875 -4.7625 6.9175 -4.125 6.875 C-3.42375 6.58625 -2.7225 6.2975 -2 6 C-0.6954344 3.00384054 -0.6954344 3.00384054 0 0 Z " fill="#FAF1E3" transform="translate(48,176)"/>
<path d="M0 0 C0 0.66 0 1.32 0 2 C0.66 2.66 1.32 3.32 2 4 C2 4.66 2 5.32 2 6 C3.65532623 7.01866229 5.32260138 8.01810813 7 9 C7.33 9.66 7.66 10.32 8 11 C7.01 11.495 7.01 11.495 6 12 C5.67 12.99 5.34 13.98 5 15 C-0.625 15.25 -0.625 15.25 -4 13 C-5.38671875 11.1953125 -5.38671875 11.1953125 -6.6875 9.125 C-7.34298828 8.10792969 -7.34298828 8.10792969 -8.01171875 7.0703125 C-9 5 -9 5 -9 1 C-5.57367167 -0.61798838 -3.61944899 -1.34053666 0 0 Z " fill="#654F3F" transform="translate(144,111)"/>
<path d="M0 0 C2 2 2 2 2 5 C2.99 5.33 3.98 5.66 5 6 C5 6.66 5 7.32 5 8 C7.63904371 9.41377341 10.07120629 10.37240135 13 11 C13 14 13 14 12 16 C11.34 16 10.68 16 10 16 C10.37125 16.763125 10.7425 17.52625 11.125 18.3125 C11.41375 19.199375 11.7025 20.08625 12 21 C11.34 21.99 10.68 22.98 10 24 C9.67 23.01 9.34 22.02 9 21 C8.34 21 7.68 21 7 21 C7 20.34 7 19.68 7 19 C6.34 19 5.68 19 5 19 C5 18.01 5 17.02 5 16 C4.34 16 3.68 16 3 16 C3 15.01 3 14.02 3 13 C2.34 13 1.68 13 1 13 C0.86722656 12.30132812 0.73445312 11.60265625 0.59765625 10.8828125 C0.42105469 9.97273437 0.24445312 9.06265625 0.0625 8.125 C-0.11152344 7.22007812 -0.28554687 6.31515625 -0.46484375 5.3828125 C-0.89963701 3.00043683 -0.89963701 3.00043683 -2 1 C-1.34 0.67 -0.68 0.34 0 0 Z M13 9 C13.99 9.495 13.99 9.495 15 10 C14.01 10.495 14.01 10.495 13 11 C13 10.34 13 9.68 13 9 Z " fill="#F7EDDC" transform="translate(14,146)"/>
<path d="M0 0 C5.92082575 0.11670484 10.86630268 1.39383625 16 4.375 C18.625 7.125 18.625 7.125 20 9.375 C19.34 11.025 18.68 12.675 18 14.375 C14.88256767 12.87401406 11.84498177 11.35068178 9 9.375 C9 8.385 9 7.395 9 6.375 C8.34 5.715 7.68 5.055 7 4.375 C7.33 4.045 7.66 3.715 8 3.375 C5.525 2.385 5.525 2.385 3 1.375 C2.67 2.695 2.34 4.015 2 5.375 C1.34 4.385 0.68 3.395 0 2.375 C-3.58357241 2.12484127 -3.58357241 2.12484127 -7 2.375 C-4.47583796 -0.14916204 -3.50215204 0.04974648 0 0 Z " fill="#5B4533" transform="translate(108,136.625)"/>
<path d="M0 0 C0.33 0 0.66 0 1 0 C1 1.65 1 3.3 1 5 C2.32 5 3.64 5 5 5 C5.33 4.34 5.66 3.68 6 3 C8 3 8 3 9.625 4.3125 C11 6 11 6 11 9 C10.67619874 10.33568021 10.34342449 11.66923011 10 13 C10 13.66 10 14.32 10 15 C9.01 15 8.02 15 7 15 C7 14.01 7 13.02 7 12 C4.36 11.67 1.72 11.34 -1 11 C-2.0257259 6.58937864 -2.03684712 4.07369424 0 0 Z " fill="#F2E5D3" transform="translate(28,166)"/>
<path d="M0 0 C1.91794127 1.8829788 3.39292718 3.82572501 5 6 C4.34 6 3.68 6 3 6 C3 6.99 3 7.98 3 9 C-1.86896303 8.40380045 -6.32790951 7.43023178 -11 6 C-10.1875 2.5625 -10.1875 2.5625 -9 -1 C-5.09415641 -2.30194786 -3.71345493 -1.70818927 0 0 Z " fill="#594433" transform="translate(72,105)"/>
<path d="M0 0 C0.3125 3.1875 0.3125 3.1875 0 7 C-2.5 9.9375 -2.5 9.9375 -5 12 C-5.99 11.67 -6.98 11.34 -8 11 C-8.309375 10.34 -8.61875 9.68 -8.9375 9 C-9.82027141 6.79394438 -9.82027141 6.79394438 -12.125 6.25 C-12.74375 6.1675 -13.3625 6.085 -14 6 C-14 5.01 -14 4.02 -14 3 C-13.278125 3.061875 -12.55625 3.12375 -11.8125 3.1875 C-7.12889552 2.8752597 -4.89440697 0 0 0 Z " fill="#F2E5D3" transform="translate(118,193)"/>
<path d="M0 0 C-0.66 0 -1.32 0 -2 0 C-1.67 2.64 -1.34 5.28 -1 8 C-0.34 7.67 0.32 7.34 1 7 C1.33 7.99 1.66 8.98 2 10 C2.6599679 11.66933058 3.32558869 13.3364521 4 15 C1.525 16.485 1.525 16.485 -1 18 C-0.34 16.68 0.32 15.36 1 14 C-0.1446875 13.4121875 -0.1446875 13.4121875 -1.3125 12.8125 C-4.2725656 10.81617669 -5.45019232 9.18118419 -7 6 C-7 5.34 -7 4.68 -7 4 C-9.31 4.33 -11.62 4.66 -14 5 C-10.69595986 0.91853865 -5.12984719 -2.25713276 0 0 Z " fill="#513D2E" transform="translate(150,107)"/>
<path d="M0 0 C0.6875 2.0625 0.6875 2.0625 1 4 C-0.2608012 5.03319813 -1.53403258 6.05124379 -2.8125 7.0625 C-3.52019531 7.63097656 -4.22789062 8.19945313 -4.95703125 8.78515625 C-5.63121094 9.18605469 -6.30539063 9.58695313 -7 10 C-7.99 9.67 -8.98 9.34 -10 9 C-9.67 7.68 -9.34 6.36 -9 5 C-10.32 4.67 -11.64 4.34 -13 4 C-11.40233897 3.13372601 -9.79660056 2.28233535 -8.1875 1.4375 C-7.29417969 0.96183594 -6.40085938 0.48617187 -5.48046875 -0.00390625 C-3 -1 -3 -1 0 0 Z " fill="#5F4B3B" transform="translate(159,79)"/>
<path d="M0 0 C0.66 0.66 1.32 1.32 2 2 C1.625 4.125 1.625 4.125 1 6 C2.32 5.67 3.64 5.34 5 5 C3.85485202 10.41342681 2.65987191 12.9342948 -2 16 C-1.67 14.35 -1.34 12.7 -1 11 C-2.32 11 -3.64 11 -5 11 C-5.66 11 -6.32 11 -7 11 C-6.67 9.68 -6.34 8.36 -6 7 C-5.38125 6.95875 -4.7625 6.9175 -4.125 6.875 C-3.42375 6.58625 -2.7225 6.2975 -2 6 C-0.6954344 3.00384054 -0.6954344 3.00384054 0 0 Z " fill="#F4E8D7" transform="translate(48,176)"/>
<path d="M0 0 C5.70629354 0.42797202 9.41078616 2.84345952 14 6 C13.01 6.495 13.01 6.495 12 7 C11.34 6.67 10.68 6.34 10 6 C10 6.66 10 7.32 10 8 C9.34 8 8.68 8 8 8 C7.67 7.34 7.34 6.68 7 6 C6.01 5.67 5.02 5.34 4 5 C3.01 5.66 2.02 6.32 1 7 C0.34 7 -0.32 7 -1 7 C-1.625 5.1875 -1.625 5.1875 -2 3 C-1.34 2.01 -0.68 1.02 0 0 Z " fill="#523F31" transform="translate(63,79)"/>
<path d="M0 0 C0.99 0.33 1.98 0.66 3 1 C2.67 1.66 2.34 2.32 2 3 C2.66 3 3.32 3 4 3 C3.67 3.66 3.34 4.32 3 5 C2.34 5 1.68 5 1 5 C0.525625 5.825 0.05125 6.65 -0.4375 7.5 C-0.953125 8.325 -1.46875 9.15 -2 10 C-2.99 10 -3.98 10 -5 10 C-5.33 10.66 -5.66 11.32 -6 12 C-6.79953138 8.71303767 -7.09658936 7.28976808 -6 4 C-5.01 4 -4.02 4 -3 4 C-3 3.34 -3 2.68 -3 2 C-2.01 2 -1.02 2 0 2 C0 1.34 0 0.68 0 0 Z " fill="#F7ECDC" transform="translate(194,165)"/>
<path d="M0 0 C-0.875 4.75 -0.875 4.75 -2 7 C-3.32 6.67 -4.64 6.34 -6 6 C-6.66 7.98 -7.32 9.96 -8 12 C-8.90305236 9.29084291 -9.63723355 6.82957829 -10 4 C-9.34 3.34 -8.68 2.68 -8 2 C-8 2.66 -8 3.32 -8 4 C-7.4225 3.34 -6.845 2.68 -6.25 2 C-4 0 -4 0 0 0 Z " fill="#EFDFCD" transform="translate(151,188)"/>
<path d="M0 0 C-0.66 1.65 -1.32 3.3 -2 5 C-2.66 5 -3.32 5 -4 5 C-4.33 6.65 -4.66 8.3 -5 10 C-9 5.5 -9 5.5 -9 1 C-5.57367167 -0.61798838 -3.61944899 -1.34053666 0 0 Z " fill="#533E2F" transform="translate(144,111)"/>
<path d="M0 0 C1.98 0 3.96 0 6 0 C6.33 1.32 6.66 2.64 7 4 C6.34 4 5.68 4 5 4 C5 4.66 5 5.32 5 6 C2 8 2 8 -1.1875 7.625 C-2.115625 7.41875 -3.04375 7.2125 -4 7 C-3.01 6.67 -2.02 6.34 -1 6 C-0.67 4.02 -0.34 2.04 0 0 Z " fill="#78614E" transform="translate(144,84)"/>
<path d="M0 0 C0.33 0.66 0.66 1.32 1 2 C3.58774327 3.51695295 6.07471973 4.37315423 9 5 C9 8 9 8 8 10 C7.01 10 6.02 10 5 10 C5 9.34 5 8.68 5 8 C4.34 8 3.68 8 3 8 C2.67 8.66 2.34 9.32 2 10 C1.11064623 6.696686 0.53725895 3.37705625 0 0 Z M9 3 C9.99 3.495 9.99 3.495 11 4 C10.01 4.495 10.01 4.495 9 5 C9 4.34 9 3.68 9 3 Z " fill="#F3E7D5" transform="translate(18,152)"/>
<path d="M0 0 C0.99 0.99 1.98 1.98 3 3 C3.66 2.67 4.32 2.34 5 2 C5.75 3.75 5.75 3.75 6 6 C4.3125 8.3125 4.3125 8.3125 2 10 C-0.25 9.75 -0.25 9.75 -2 9 C-2 8.34 -2 7.68 -2 7 C-1.34 7 -0.68 7 0 7 C-0.66 6.01 -1.32 5.02 -2 4 C-1 1 -1 1 0 0 Z " fill="#F2E4D3" transform="translate(130,189)"/>
<path d="M0 0 C0.33 0.99 0.66 1.98 1 3 C0.34 3 -0.32 3 -1 3 C-1.33 3.99 -1.66 4.98 -2 6 C-1.34 6.66 -0.68 7.32 0 8 C-2.31 8.66 -4.62 9.32 -7 10 C-6.835 9.4225 -6.67 8.845 -6.5 8.25 C-5.85537969 5.73335631 -5.85537969 5.73335631 -6 2 C-3 0 -3 0 0 0 Z " fill="#55402F" transform="translate(144,85)"/>
<path d="M0 0 C2.02045442 0.60183749 4.02111039 1.27306096 6 2 C6.33 2.66 6.66 3.32 7 4 C6.34 4 5.68 4 5 4 C4.67 5.32 4.34 6.64 4 8 C3.34 8 2.68 8 2 8 C1.67 8.99 1.34 9.98 1 11 C-0.59555725 7.50971852 -1.32049797 4.84597567 -1 1 C-0.67 0.67 -0.34 0.34 0 0 Z " fill="#F4E8D6" transform="translate(8,121)"/>
<path d="M0 0 C1.06775224 1.96466413 2.06553465 3.96855359 3 6 C2.67 6.66 2.34 7.32 2 8 C-0.32156597 8.40729228 -2.6568787 8.74438677 -5 9 C-5 7 -5 7 -3.5 5.375 C-3.005 4.92125 -2.51 4.4675 -2 4 C-2.99 3.67 -3.98 3.34 -5 3 C-2.25 0 -2.25 0 0 0 Z " fill="#F3E6D4" transform="translate(97,194)"/>
<path d="M0 0 C2.31 0.66 4.62 1.32 7 2 C7 3.66666667 7 5.33333333 7 7 C4.36 7 1.72 7 -1 7 C-0.67 4.69 -0.34 2.38 0 0 Z " fill="#836A54" transform="translate(111,138)"/>
<path d="M0 0 C0.99 0.66 1.98 1.32 3 2 C3 2.99 3 3.98 3 5 C2.34 5 1.68 5 1 5 C0.67 6.32 0.34 7.64 0 9 C-1.32 8.67 -2.64 8.34 -4 8 C-4 6.35 -4 4.7 -4 3 C-3.01 2.67 -2.02 2.34 -1 2 C-0.67 1.34 -0.34 0.68 0 0 Z " fill="#6C5444" transform="translate(143,113)"/>
<path d="M0 0 C0.33 0.99 0.66 1.98 1 3 C1.66 3.33 2.32 3.66 3 4 C3.75 6.4375 3.75 6.4375 4 9 C3.34 9.66 2.68 10.32 2 11 C0.68 10.34 -0.64 9.68 -2 9 C-1.34 6.03 -0.68 3.06 0 0 Z " fill="#614B3A" transform="translate(152,110)"/>
<path d="M0 0 C0.66 0.33 1.32 0.66 2 1 C1.67 1.66 1.34 2.32 1 3 C0.34 3 -0.32 3 -1 3 C-1 4.32 -1 5.64 -1 7 C-1.66 7 -2.32 7 -3 7 C-3 6.34 -3 5.68 -3 5 C-3.66 5 -4.32 5 -5 5 C-5.33 5.66 -5.66 6.32 -6 7 C-6.66 5.68 -7.32 4.36 -8 3 C-7.05125 2.690625 -6.1025 2.38125 -5.125 2.0625 C-2.13919592 1.12605258 -2.13919592 1.12605258 0 0 Z " fill="#F0E2CF" transform="translate(168,181)"/>
<path d="M0 0 C0.66 0.66 1.32 1.32 2 2 C1.01 3.485 1.01 3.485 0 5 C-0.66158043 7.04584079 -0.66158043 7.04584079 -1.125 9.1875 C-1.41375 10.445625 -1.7025 11.70375 -2 13 C-2.66 12.67 -3.32 12.34 -4 12 C-4 9.69 -4 7.38 -4 5 C-3.01 4.67 -2.02 4.34 -1 4 C-0.26676204 1.98491642 -0.26676204 1.98491642 0 0 Z " fill="#5A4430" transform="translate(77,111)"/>
<path d="M0 0 C0.99 1.32 1.98 2.64 3 4 C4.32 3.67 5.64 3.34 7 3 C6.34 4.32 5.68 5.64 5 7 C3.35 7 1.7 7 0 7 C-0.66 5.02 -1.32 3.04 -2 1 C-1.34 0.67 -0.68 0.34 0 0 Z " fill="#F1E4D2" transform="translate(55,184)"/>
<path d="M0 0 C0.33 0 0.66 0 1 0 C0.95875 0.94875 0.9175 1.8975 0.875 2.875 C0.65026182 6.10244856 0.65026182 6.10244856 3 8 C3 8.99 3 9.98 3 11 C1.68 11 0.36 11 -1 11 C-2.0257259 6.58937864 -2.03684712 4.07369424 0 0 Z " fill="#F6ECDC" transform="translate(28,166)"/>
<path d="M0 0 C3.59391114 1.33488128 6.75490696 2.96022723 10 5 C9.01 5.495 9.01 5.495 8 6 C7.34 5.67 6.68 5.34 6 5 C6 5.66 6 6.32 6 7 C5.34 7 4.68 7 4 7 C3.67 6.34 3.34 5.68 3 5 C2.01 4.67 1.02 4.34 0 4 C0 2.68 0 1.36 0 0 Z " fill="#433226" transform="translate(67,80)"/>
<path d="M0 0 C0.66 0.33 1.32 0.66 2 1 C1.67 1.33 1.34 1.66 1 2 C1.66 2.33 2.32 2.66 3 3 C3.33 2.34 3.66 1.68 4 1 C3.67 2.65 3.34 4.3 3 6 C1.35 6 -0.3 6 -2 6 C-2 2 -2 2 0 0 Z " fill="#765E4C" transform="translate(67,82)"/>
<path d="M0 0 C2.9375 0.8125 2.9375 0.8125 6 2 C6.33 2.99 6.66 3.98 7 5 C5.68 5 4.36 5 3 5 C3 5.66 3 6.32 3 7 C1.68 6.34 0.36 5.68 -1 5 C-0.67 3.35 -0.34 1.7 0 0 Z " fill="#705946" transform="translate(66,103)"/>
<path d="M0 0 C2.31 0.33 4.62 0.66 7 1 C5.02 1.99 5.02 1.99 3 3 C3 3.66 3 4.32 3 5 C2.01 5.33 1.02 5.66 0 6 C-0.66 4.68 -1.32 3.36 -2 2 C-1.34 2 -0.68 2 0 2 C0 1.34 0 0.68 0 0 Z " fill="#7B6352" transform="translate(73,85)"/>
<path d="M0 0 C0.99 0.33 1.98 0.66 3 1 C4.6691198 4.61642624 3.65669883 8.20574012 3 12 C1 11 1 11 0.375 9.375 C-0.12095645 6.2339425 -0.06103811 3.17398169 0 0 Z " fill="#4A3526" transform="translate(61,112)"/>
<path d="M0 0 C1.98 0.66 3.96 1.32 6 2 C4.25 4.0625 4.25 4.0625 2 6 C-0.25 5.75 -0.25 5.75 -2 5 C-1.01 4.67 -0.02 4.34 1 4 C1 3.34 1 2.68 1 2 C0.34 1.67 -0.32 1.34 -1 1 C-0.67 0.67 -0.34 0.34 0 0 Z " fill="#F0E1CF" transform="translate(76,185)"/>
<path d="M0 0 C1.32 1.32 2.64 2.64 4 4 C3.67 4.66 3.34 5.32 3 6 C3.66 6.33 4.32 6.66 5 7 C3.35 7.33 1.7 7.66 0 8 C-0.38063221 5.6739143 -0.71269945 3.33944736 -1 1 C-0.67 0.67 -0.34 0.34 0 0 Z " fill="#F7EDDD" transform="translate(107,198)"/>
<path d="M0 0 C1.98 0.495 1.98 0.495 4 1 C3.67 2.98 3.34 4.96 3 7 C2.34 7 1.68 7 1 7 C1 6.01 1 5.02 1 4 C0.34 4 -0.32 4 -1 4 C-0.67 2.68 -0.34 1.36 0 0 Z " fill="#FAF3E5" transform="translate(16,155)"/>
<path d="M0 0 C0.66 0.99 1.32 1.98 2 3 C2 2.34 2 1.68 2 1 C2.66 1 3.32 1 4 1 C4 1.66 4 2.32 4 3 C4.66 3.33 5.32 3.66 6 4 C3.6875 5.5625 3.6875 5.5625 1 7 C0.01 6.67 -0.98 6.34 -2 6 C-1.34 4.02 -0.68 2.04 0 0 Z " fill="#3E2D1D" transform="translate(93,143)"/>
<path d="M0 0 C1.65 0 3.3 0 5 0 C4.54625 0.556875 4.0925 1.11375 3.625 1.6875 C1.96266232 4.05313439 0.97855457 6.29015658 0 9 C-0.33 9 -0.66 9 -1 9 C-1.08886184 5.80097361 -0.91058531 3.07322544 0 0 Z " fill="#EFEAE3" transform="translate(91,140)"/>
<path d="M0 0 C0.99 0.33 1.98 0.66 3 1 C2.67 2.32 2.34 3.64 2 5 C1.34 5 0.68 5 0 5 C-0.33 5.33 -0.66 5.66 -1 6 C-1.99 6.33 -2.98 6.66 -4 7 C-3.6875 4.625 -3.6875 4.625 -3 2 C-2.01 1.34 -1.02 0.68 0 0 Z " fill="#957A64" transform="translate(97,141)"/>
<path d="M0 0 C1.75881567 3.28312259 3 6.23856995 3 10 C1.68 10.33 0.36 10.66 -1 11 C-1.33 10.34 -1.66 9.68 -2 9 C-1.34 8.67 -0.68 8.34 0 8 C0 5.36 0 2.72 0 0 Z " fill="#7A614D" transform="translate(71,115)"/>
<path d="M0 0 C-0.99 1.485 -0.99 1.485 -2 3 C-4.31 2.67 -6.62 2.34 -9 2 C-4.13793103 -1.24137931 -4.13793103 -1.24137931 0 0 Z " fill="#775F4C" transform="translate(144,111)"/>
<path d="M0 0 C0.6875 2.0625 0.6875 2.0625 1 4 C0.01 3.67 -0.98 3.34 -2 3 C-2 2.34 -2 1.68 -2 1 C-2.66 1 -3.32 1 -4 1 C-4.33 2.32 -4.66 3.64 -5 5 C-5 4.01 -5 3.02 -5 2 C-5.66 1.67 -6.32 1.34 -7 1 C-3.375 -1.125 -3.375 -1.125 0 0 Z " fill="#4A3623" transform="translate(159,79)"/>
<path d="M0 0 C0.33 0.66 0.66 1.32 1 2 C0.67 2.66 0.34 3.32 0 4 C-2.31 4 -4.62 4 -7 4 C-6.67 3.01 -6.34 2.02 -6 1 C-5.360625 1.185625 -4.72125 1.37125 -4.0625 1.5625 C-3.381875 1.706875 -2.70125 1.85125 -2 2 C-1.67 1.67 -1.34 1.34 -1 1 C-0.67 0.67 -0.34 0.34 0 0 Z " fill="#FDF8EB" transform="translate(81,200)"/>
<path d="M0 0 C2.475 0.99 2.475 0.99 5 2 C4.67 2.99 4.34 3.98 4 5 C2.35 4.67 0.7 4.34 -1 4 C-0.67 2.68 -0.34 1.36 0 0 Z " fill="#F0E3D0" transform="translate(69,189)"/>
<path d="M0 0 C0.66 -0.33 1.32 -0.66 2 -1 C1.67 0.32 1.34 1.64 1 3 C0.21625 2.814375 -0.5675 2.62875 -1.375 2.4375 C-3.97089775 1.74037734 -3.97089775 1.74037734 -6 3 C-6 2.01 -6 1.02 -6 0 C-3.4791665 -1.26041675 -2.64903564 -0.66225891 0 0 Z " fill="#F2E3D1" transform="translate(178,179)"/>
<path d="M0 0 C2 2 2 2 2 6 C1.01 6.33 0.02 6.66 -1 7 C-1.33 5.02 -1.66 3.04 -2 1 C-1.34 0.67 -0.68 0.34 0 0 Z " fill="#F1E2D0" transform="translate(196,154)"/>
<path d="M0 0 C-0.33 0.99 -0.66 1.98 -1 3 C-1.99 3.33 -2.98 3.66 -4 4 C-4.66 4.66 -5.32 5.32 -6 6 C-6.33 5.01 -6.66 4.02 -7 3 C-4.49955934 -0.00052879 -4.2621484 0 0 0 Z " fill="#F6EAD9" transform="translate(142,196)"/>
<path d="M0 0 C3 3.625 3 3.625 3 7 C1.68 6.67 0.36 6.34 -1 6 C-1.042721 4.33388095 -1.04063832 2.66617115 -1 1 C-0.67 0.67 -0.34 0.34 0 0 Z " fill="#76604D" transform="translate(140,115)"/>
</svg>
