<?xml version="1.0" encoding="UTF-8"?>
<svg version="1.1" xmlns="http://www.w3.org/2000/svg" width="220" height="220">
<path d="M0 0 C0 0.66 0 1.32 0 2 C1.794375 1.938125 1.794375 1.938125 3.625 1.875 C9.02041768 1.86650328 14.2210783 2.6697159 19.54296875 3.5 C23.3945556 4.05706567 27.22447229 4.35920305 31.109375 4.55859375 C33 5 33 5 35 8 C36.66500443 8.34153937 38.33178677 8.67449498 40 9 C40.495 9.515625 40.99 10.03125 41.5 10.5625 C42.95456237 12.2882939 42.95456237 12.2882939 45.5 12 C48 12 48 12 49.6875 13.4375 C50.120625 13.953125 50.55375 14.46875 51 15 C51.99 15.495 51.99 15.495 53 16 C53.66 15.34 54.32 14.68 55 14 C55.33 15.32 55.66 16.64 56 18 C57.65 18.33 59.3 18.66 61 19 C61.185625 19.9590625 61.185625 19.9590625 61.375 20.9375 C61.58125 21.618125 61.7875 22.29875 62 23 C62.66 23.33 63.32 23.66 64 24 C64 24.66 64 25.32 64 26 C65.0725 26.20625 66.145 26.4125 67.25 26.625 C71.7541826 28.27653362 72.60395838 29.97807299 75 34 C75.99 34.33 76.98 34.66 78 35 C78.70674629 36.31252882 79.36184656 37.65278717 80 39 C81.29198676 40.83167743 82.62546606 42.62561693 83.9765625 44.4140625 C85 46 85 46 85 48 C85.92039063 48.37125 85.92039063 48.37125 86.859375 48.75 C89.39494109 50.23062253 90.02968785 51.36567537 91.25 54 C91.58515625 54.70125 91.9203125 55.4025 92.265625 56.125 C93 58 93 58 93 60 C93.99 60.33 94.98 60.66 96 61 C96.13277344 61.83144531 96.26554688 62.66289063 96.40234375 63.51953125 C96.66724609 65.14955078 96.66724609 65.14955078 96.9375 66.8125 C97.11152344 67.89144531 97.28554687 68.97039062 97.46484375 70.08203125 C98.07664677 74.14609367 98.07664677 74.14609367 100.5 77.25 C102.79351591 79.92576856 102.65951714 82.53842422 103 86 C103.165 87.175625 103.33 88.35125 103.5 89.5625 C105.34321105 104.7763055 106.01509755 119.92451226 103 135 C103 135.66 103 136.32 103 137 C102.34 137 101.68 137 101 137 C101.165 137.928125 101.33 138.85625 101.5 139.8125 C102 143 102 143 102 146 C101.34 145.67 100.68 145.34 100 145 C99.71125 145.86625 99.4225 146.7325 99.125 147.625 C98.75375 148.73875 98.3825 149.8525 98 151 C97.690625 152.093125 97.38125 153.18625 97.0625 154.3125 C96.711875 155.199375 96.36125 156.08625 96 157 C95.01 157.33 94.02 157.66 93 158 C92.855625 158.78375 92.71125 159.5675 92.5625 160.375 C92 163 92 163 91 165 C90.01 165 89.02 165 88 165 C88.04125 165.763125 88.0825 166.52625 88.125 167.3125 C88 170 88 170 86 173 C85.0409375 174.5778125 85.0409375 174.5778125 84.0625 176.1875 C83.381875 177.115625 82.70125 178.04375 82 179 C81.01 179 80.02 179 79 179 C79 179.66 79 180.32 79 181 C75.535 181.99 75.535 181.99 72 183 C71.67 184.32 71.34 185.64 71 187 C70.67 186.34 70.34 185.68 70 185 C69.01 185.33 68.02 185.66 67 186 C66.26676204 188.01508358 66.26676204 188.01508358 66 190 C65.34 190 64.68 190 64 190 C64 190.66 64 191.32 64 192 C63.01 192 62.02 192 61 192 C61 192.66 61 193.32 61 194 C58.73710959 195.57145167 56.76752201 196.82668858 54.0625 197.4375 C51.71671263 197.96047153 51.71671263 197.96047153 49 200 C46.39324263 201.73783825 44.98704569 202.50215905 42 203 C39.53179256 203.59577421 37.16926754 204.27158561 34.75 205.0625 C30.58651842 206.1033704 27.26771878 206.14974452 23 206 C22.67 206.66 22.34 207.32 22 208 C19.96875 208.4140625 19.96875 208.4140625 17.5 208.625 C16.6853125 208.69976562 15.870625 208.77453125 15.03125 208.8515625 C13 209 13 209 12 209 C11.34 209.66 10.68 210.32 10 211 C9.34 210.67 8.68 210.34 8 210 C8 210.99 8 211.98 8 213 C7.34 213 6.68 213 6 213 C6 212.01 6 211.02 6 210 C5.2575 210.309375 4.515 210.61875 3.75 210.9375 C-0.8044164 212.69716088 -0.8044164 212.69716088 -3 213 C-3.66 212.34 -4.32 211.68 -5 211 C-6.485 210.01 -6.485 210.01 -8 209 C-8 208.34 -8 207.68 -8 207 C-9.85625 206.9690625 -9.85625 206.9690625 -11.75 206.9375 C-12.44609375 206.92589844 -13.1421875 206.91429687 -13.859375 206.90234375 C-15.99087442 206.90872979 -15.99087442 206.90872979 -17.90234375 207.59375 C-20.84107001 208.16288879 -22.94346577 207.37449082 -25.8125 206.5625 C-33.33890783 204.68089804 -40.29110577 204.71211598 -48 205 C-48.33 203.02 -48.66 201.04 -49 199 C-51.31 198.34 -53.62 197.68 -56 197 C-56 197.66 -56 198.32 -56 199 C-56.99 198.67 -57.98 198.34 -59 198 C-59.33 197.01 -59.66 196.02 -60 195 C-60.99 194.67 -61.98 194.34 -63 194 C-63.33 194.66 -63.66 195.32 -64 196 C-64 195.01 -64 194.02 -64 193 C-64.66 193 -65.32 193 -66 193 C-66.99 191.02 -66.99 191.02 -68 189 C-68.99 189 -69.98 189 -71 189 C-74 185.66666667 -74 185.66666667 -74 183 C-74.94875 182.938125 -75.8975 182.87625 -76.875 182.8125 C-77.90625 182.544375 -78.9375 182.27625 -80 182 C-81.375 179.4375 -81.375 179.4375 -82 177 C-82.66 177 -83.32 177 -84 177 C-84.33 176.01 -84.66 175.02 -85 174 C-85.99 173.67 -86.98 173.34 -88 173 C-88.0825 172.29875 -88.165 171.5975 -88.25 170.875 C-89.17608431 167.32501013 -90.87125289 164.96734446 -93 162 C-94.54627671 159.68058494 -95.86182828 157.47020248 -97.125 155 C-97.47820312 154.319375 -97.83140625 153.63875 -98.1953125 152.9375 C-99 151 -99 151 -99 148 C-99.66 148 -100.32 148 -101 148 C-101 147.34 -101 146.68 -101 146 C-101.66 146 -102.32 146 -103 146 C-102.67 145.01 -102.34 144.02 -102 143 C-102.63040043 141.64914193 -103.30251417 140.31747324 -104 139 C-104.90131013 135.64057132 -105.12133403 134.36400208 -104 131 C-104.28070946 127.70166389 -104.54470019 125.60099576 -106.5625 122.9375 C-108.37738248 120.49135405 -108.24790447 118.97485361 -108 116 C-107.34 116 -106.68 116 -106 116 C-105.9729957 114.54176788 -105.95360213 113.08339325 -105.9375 111.625 C-105.92589844 110.81289062 -105.91429688 110.00078125 -105.90234375 109.1640625 C-105.85533666 106.95062858 -105.85533666 106.95062858 -107 105 C-106.59255295 102.9428198 -106.10151304 100.90168903 -105.5625 98.875 C-105.27503906 97.77929688 -104.98757812 96.68359375 -104.69140625 95.5546875 C-104.46324219 94.71164063 -104.23507813 93.86859375 -104 93 C-104.99 92.67 -105.98 92.34 -107 92 C-106.7834375 91.26394531 -106.566875 90.52789062 -106.34375 89.76953125 C-106.0653125 88.79371094 -105.786875 87.81789063 -105.5 86.8125 C-105.2215625 85.84957031 -104.943125 84.88664062 -104.65625 83.89453125 C-104.03322392 81.14654124 -103.87697188 78.80401584 -104 76 C-103.34 76 -102.68 76 -102 76 C-102.12375 74.14375 -102.12375 74.14375 -102.25 72.25 C-102.2638695 68.29025645 -102.2638695 68.29025645 -100.125 65.9375 C-99.42375 65.298125 -98.7225 64.65875 -98 64 C-96.59908154 60.07742832 -96 57.17814948 -96 53 C-94.35360035 51.64172029 -92.68704193 50.30745749 -91 49 C-91 48.01 -91 47.02 -91 46 C-90.01 45.34 -89.02 44.68 -88 44 C-88.020625 43.21625 -88.04125 42.4325 -88.0625 41.625 C-88 39 -88 39 -86.125 36.6875 C-84 35 -84 35 -82 35 C-81.5875 34.05125 -81.175 33.1025 -80.75 32.125 C-78.86832941 28.76487395 -78.26858399 28.53214875 -75 27 C-74.505 26.154375 -74.01 25.30875 -73.5 24.4375 C-72 22 -72 22 -69.8125 21.1875 C-69.214375 21.125625 -68.61625 21.06375 -68 21 C-68 20.34 -68 19.68 -68 19 C-66.35 18.67 -64.7 18.34 -63 18 C-62.67 16.35 -62.34 14.7 -62 13 C-58.7 12.67 -55.4 12.34 -52 12 C-52 11.34 -52 10.68 -52 10 C-51.34 10 -50.68 10 -50 10 C-50 9.34 -50 8.68 -50 8 C-48.02 8 -46.04 8 -44 8 C-43.67 7.34 -43.34 6.68 -43 6 C-34.12035478 4.54696715 -24.97821547 4.45520618 -16 4 C-15.67 3.34 -15.34 2.68 -15 2 C-14.31292969 2.02320313 -13.62585938 2.04640625 -12.91796875 2.0703125 C-12.01691406 2.08835937 -11.11585937 2.10640625 -10.1875 2.125 C-9.29417969 2.14820313 -8.40085937 2.17140625 -7.48046875 2.1953125 C-4.41382936 1.95384483 -3.01022956 0 0 0 Z " fill="#FAF2E4" transform="translate(111,6)"/>
<path d="M0 0 C0.99 0.33 1.98 0.66 3 1 C2.67 1.66 2.34 2.32 2 3 C3.98 3.495 3.98 3.495 6 4 C6.33 6.31 6.66 8.62 7 11 C7.99 11.33 8.98 11.66 10 12 C9.34 12.99 8.68 13.98 8 15 C8.99 15.495 8.99 15.495 10 16 C9.979375 16.78375 9.95875 17.5675 9.9375 18.375 C9.81315937 20.98114961 9.81315937 20.98114961 11 23 C10.01 23 9.02 23 8 23 C8 23.66 8 24.32 8 25 C9.32 25.33 10.64 25.66 12 26 C12.43200679 30.75207471 10.98489083 33.78210698 9 38 C9.66 38 10.32 38 11 38 C11 38.66 11 39.32 11 40 C10.01 40.33 9.02 40.66 8 41 C9.32 41.66 10.64 42.32 12 43 C11.01 45.97 11.01 45.97 10 49 C9.34 49 8.68 49 8 49 C7.87625 49.721875 7.7525 50.44375 7.625 51.1875 C7.0095069 53.95721894 6.11555626 56.3970354 5 59 C5.66 59.33 6.32 59.66 7 60 C6.34 60 5.68 60 5 60 C5 61.98 5 63.96 5 66 C2.525 66.99 2.525 66.99 0 68 C-0.33 70.31 -0.66 72.62 -1 75 C-1.99 75 -2.98 75 -4 75 C-4 75.66 -4 76.32 -4 77 C-3.34 77 -2.68 77 -2 77 C-2 78.32 -2 79.64 -2 81 C-4.475 81.495 -4.475 81.495 -7 82 C-7.33 83.65 -7.66 85.3 -8 87 C-8.66 87 -9.32 87 -10 87 C-10.33 88.98 -10.66 90.96 -11 93 C-11.66 93 -12.32 93 -13 93 C-13.33 92.34 -13.66 91.68 -14 91 C-14.66 91 -15.32 91 -16 91 C-16 92.65 -16 94.3 -16 96 C-16.99 96.495 -16.99 96.495 -18 97 C-18.66 96.67 -19.32 96.34 -20 96 C-20.33 96.99 -20.66 97.98 -21 99 C-22.98 99 -24.96 99 -27 99 C-27.33 99.66 -27.66 100.32 -28 101 C-28.66 101 -29.32 101 -30 101 C-30.33 102.32 -30.66 103.64 -31 105 C-34.75 106.125 -34.75 106.125 -37 105 C-36.67 106.32 -36.34 107.64 -36 109 C-40.455 109.495 -40.455 109.495 -45 110 C-45 110.66 -45 111.32 -45 112 C-42.525 111.01 -42.525 111.01 -40 110 C-40 110.99 -40 111.98 -40 113 C-42.125 114.1875 -42.125 114.1875 -45 115 C-48.3125 113.625 -48.3125 113.625 -51 112 C-51.33 112.66 -51.66 113.32 -52 114 C-54.0625 114.625 -54.0625 114.625 -56 115 C-56 113.68 -56 112.36 -56 111 C-56.66 110.34 -57.32 109.68 -58 109 C-58.33 107.824375 -58.66 106.64875 -59 105.4375 C-59.33 104.303125 -59.66 103.16875 -60 102 C-60.66 101.67 -61.32 101.34 -62 101 C-62 102.32 -62 103.64 -62 105 C-62.99 105.495 -62.99 105.495 -64 106 C-62.02 106.99 -62.02 106.99 -60 108 C-60.99 108 -61.98 108 -63 108 C-62.34 108.66 -61.68 109.32 -61 110 C-60.01 110 -59.02 110 -58 110 C-58.56545837 113.95820859 -59.80902348 116.6659053 -62 120 C-63.98 119.67 -65.96 119.34 -68 119 C-68.495 120.485 -68.495 120.485 -69 122 C-69.66 122 -70.32 122 -71 122 C-70.34 119.69 -69.68 117.38 -69 115 C-71.35785318 115.89335797 -71.35785318 115.89335797 -72.125 119.0625 C-72.41375 120.031875 -72.7025 121.00125 -73 122 C-73.66 122 -74.32 122 -75 122 C-74.34 120.02 -73.68 118.04 -73 116 C-74.32 116 -75.64 116 -77 116 C-77 115.34 -77 114.68 -77 114 C-78.65 114.33 -80.3 114.66 -82 115 C-81.67 116.32 -81.34 117.64 -81 119 C-80.67 118.34 -80.34 117.68 -80 117 C-79.34 117 -78.68 117 -78 117 C-78.66 118.65 -79.32 120.3 -80 122 C-81.92134857 121.76404491 -83.84244377 121.52570455 -85.76171875 121.2734375 C-87.79371116 121.02520108 -89.83452546 120.8520544 -91.875 120.6875 C-95 120 -95 120 -96.4375 117.9375 C-96.623125 117.298125 -96.80875 116.65875 -97 116 C-97.66 116 -98.32 116 -99 116 C-98.67 117.65 -98.34 119.3 -98 121 C-98.804375 120.814375 -99.60875 120.62875 -100.4375 120.4375 C-101.283125 120.293125 -102.12875 120.14875 -103 120 C-103.33 120.33 -103.66 120.66 -104 121 C-105.98 120.01 -105.98 120.01 -108 119 C-108 118.34 -108 117.68 -108 117 C-109.485 116.505 -109.485 116.505 -111 116 C-111.33 116.66 -111.66 117.32 -112 118 C-112.66 118 -113.32 118 -114 118 C-114.2165625 116.5459375 -114.2165625 116.5459375 -114.4375 115.0625 C-114.67562341 112.13513227 -114.67562341 112.13513227 -116 111 C-116.495 112.98 -116.495 112.98 -117 115 C-117.66 115 -118.32 115 -119 115 C-119.33 115.66 -119.66 116.32 -120 117 C-121.32 117 -122.64 117 -124 117 C-124.33 116.34 -124.66 115.68 -125 115 C-126.65 115 -128.3 115 -130 115 C-129.67 114.34 -129.34 113.68 -129 113 C-128.01 113.495 -128.01 113.495 -127 114 C-127.66 112.68 -128.32 111.36 -129 110 C-129.598125 110.350625 -130.19625 110.70125 -130.8125 111.0625 C-133 112 -133 112 -136 111 C-136 110.34 -136 109.68 -136 109 C-137.65 109 -139.3 109 -141 109 C-141 108.34 -141 107.68 -141 107 C-139.02 107 -137.04 107 -135 107 C-135.66 106.01 -136.32 105.02 -137 104 C-137.99 104.66 -138.98 105.32 -140 106 C-140 105.34 -140 104.68 -140 104 C-141.32 104 -142.64 104 -144 104 C-144 103.34 -144 102.68 -144 102 C-145.98 102.495 -145.98 102.495 -148 103 C-147.01 103.66 -146.02 104.32 -145 105 C-145.66 105.66 -146.32 106.32 -147 107 C-147.99 107 -148.98 107 -150 107 C-152 104 -152 104 -152 101 C-153.32 100.67 -154.64 100.34 -156 100 C-156 99.34 -156 98.68 -156 98 C-157.32 97.67 -158.64 97.34 -160 97 C-160.33 95.35 -160.66 93.7 -161 92 C-162.485 91.505 -162.485 91.505 -164 91 C-164.33 90.01 -164.66 89.02 -165 88 C-166.485 88.495 -166.485 88.495 -168 89 C-168.33 88.01 -168.66 87.02 -169 86 C-168.67 85.67 -168.34 85.34 -168 85 C-170.68247184 82.31752816 -172.12775536 81 -176 81 C-176 80.34 -176 79.68 -176 79 C-175.01 78.505 -175.01 78.505 -174 78 C-174.495 77.566875 -174.99 77.13375 -175.5 76.6875 C-177 75 -177 75 -177 72 C-177.99 72 -178.98 72 -180 72 C-180.33 69.36 -180.66 66.72 -181 64 C-181.66 64 -182.32 64 -183 64 C-183 58 -183 58 -182 56 C-182.99 55.34 -183.98 54.68 -185 54 C-184.505 53.505 -184.505 53.505 -184 53 C-184.28604898 51.32457024 -184.61781233 49.65614657 -185 48 C-185.66 48 -186.32 48 -187 48 C-186.34 46.02 -185.68 44.04 -185 42 C-184.01 42.33 -183.02 42.66 -182 43 C-182 42.34 -182 41.68 -182 41 C-182.99 41 -183.98 41 -185 41 C-185 40.34 -185 39.68 -185 39 C-185.99 38.67 -186.98 38.34 -188 38 C-185.8125 35.4375 -185.8125 35.4375 -183 33 C-179.55383944 33.08014327 -178.4443896 33.5556104 -176 36 C-177.32 36.99 -178.64 37.98 -180 39 C-179.34 39.66 -178.68 40.32 -178 41 C-178.66 41 -179.32 41 -180 41 C-180 41.66 -180 42.32 -180 43 C-177.525 42.505 -177.525 42.505 -175 42 C-174.67 43.98 -174.34 45.96 -174 48 C-174.99 48.495 -174.99 48.495 -176 49 C-175.01 49.66 -174.02 50.32 -173 51 C-174.32 52.98 -175.64 54.96 -177 57 C-175.02 57.66 -173.04 58.32 -171 59 C-171 59.66 -171 60.32 -171 61 C-169.54166642 62.62514468 -169.54166642 62.62514468 -168 64 C-168.99 64.99 -168.99 64.99 -170 66 C-169.01 68.64 -168.02 71.28 -167 74 C-165.515 73.505 -165.515 73.505 -164 73 C-163.34 74.32 -162.68 75.64 -162 77 C-161.4225 76.62875 -160.845 76.2575 -160.25 75.875 C-158 75 -158 75 -155.8125 75.75 C-154 77 -154 77 -153 79 C-153 80.66666667 -153 82.33333333 -153 84 C-152.01 84.33 -151.02 84.66 -150 85 C-150.66 86.98 -151.32 88.96 -152 91 C-152.66 91 -153.32 91 -154 91 C-153.34 91.78375 -152.68 92.5675 -152 93.375 C-150 96 -150 96 -150 98 C-149.401875 97.835 -148.80375 97.67 -148.1875 97.5 C-146 97 -146 97 -143 97 C-143.495 98.485 -143.495 98.485 -144 100 C-142.68 100 -141.36 100 -140 100 C-139.34 99.34 -138.68 98.68 -138 98 C-137.34 98 -136.68 98 -136 98 C-136.99 97.505 -136.99 97.505 -138 97 C-138 96.34 -138 95.68 -138 95 C-135.03 95.99 -135.03 95.99 -132 97 C-132 97.66 -132 98.32 -132 99 C-131.113125 98.835 -130.22625 98.67 -129.3125 98.5 C-122.15942029 97.42028986 -122.15942029 97.42028986 -119 99 C-116.46406791 99.03044858 -113.94434952 98.93314983 -111.41015625 98.83984375 C-109 99 -109 99 -106 101 C-102.66657937 101.91669067 -101.34350146 102.11450049 -98 101 C-98 102.32 -98 103.64 -98 105 C-96.02 105.33 -94.04 105.66 -92 106 C-92 105.34 -92 104.68 -92 104 C-91.01 103.67 -90.02 103.34 -89 103 C-88.26676204 100.98491642 -88.26676204 100.98491642 -88 99 C-87.2575 99.185625 -86.515 99.37125 -85.75 99.5625 C-82.92104183 100.01256153 -81.70230666 99.71531647 -79 99 C-76.66702567 98.95907063 -74.33294775 98.95758277 -72 99 C-71.01 99 -70.02 99 -69 99 C-69 99.99 -69 100.98 -69 102 C-67.68 100.68 -66.36 99.36 -65 98 C-64.34 98.66 -63.68 99.32 -63 100 C-60.98944339 99.73775349 -58.98821313 99.39764263 -57 99 C-55.68 99 -54.36 99 -53 99 C-52.67 98.01 -52.34 97.02 -52 96 C-50.35 96.33 -48.7 96.66 -47 97 C-46.67 96.34 -46.34 95.68 -46 95 C-45.01 94.67 -44.02 94.34 -43 94 C-42.01 94.99 -41.02 95.98 -40 97 C-39.67 95.35 -39.34 93.7 -39 92 C-38.01 92 -37.02 92 -36 92 C-35.34 92.66 -34.68 93.32 -34 94 C-33.236875 93.505 -32.47375 93.01 -31.6875 92.5 C-29 91 -29 91 -26 91 C-24.64613064 89.34997172 -23.31321858 87.6825613 -22 86 C-21.01 85.67 -20.02 85.34 -19 85 C-18.34 85.33 -17.68 85.66 -17 86 C-16.67 84.35 -16.34 82.7 -16 81 C-15.34 81 -14.68 81 -14 81 C-14.185625 80.38125 -14.37125 79.7625 -14.5625 79.125 C-15 77 -15 77 -14 75 C-13.34 75 -12.68 75 -12 75 C-12.309375 74.401875 -12.61875 73.80375 -12.9375 73.1875 C-14 71 -14 71 -15 68 C-14.34 67.67 -13.68 67.34 -13 67 C-13 67.66 -13 68.32 -13 69 C-12.01 68.67 -11.02 68.34 -10 68 C-9.34 68 -8.68 68 -8 68 C-8 66.68 -8 65.36 -8 64 C-8.66 63.67 -9.32 63.34 -10 63 C-10 62.01 -10 61.02 -10 60 C-10.66 59.67 -11.32 59.34 -12 59 C-11.67 58.01 -11.34 57.02 -11 56 C-9.68 56 -8.36 56 -7 56 C-5.66666667 53 -5.66666667 53 -7 50 C-3.25 48.875 -3.25 48.875 -1 50 C-0.67 49.34 -0.34 48.68 0 48 C0.66 48 1.32 48 2 48 C2.2165625 46.9171875 2.2165625 46.9171875 2.4375 45.8125 C2.623125 44.884375 2.80875 43.95625 3 43 C3.144375 42.0925 3.28875 41.185 3.4375 40.25 C3.623125 39.5075 3.80875 38.765 4 38 C4.66 37.67 5.32 37.34 6 37 C5.505 36.566875 5.01 36.13375 4.5 35.6875 C3 34 3 34 3 31 C3.66 31 4.32 31 5 31 C3.93798263 28.77260299 3.93798263 28.77260299 2 26 C1.01 26 0.02 26 -1 26 C-0.67 24.68 -0.34 23.36 0 22 C-0.66 22 -1.32 22 -2 22 C-4 19 -4 19 -3.75 15.875 C-3.37875 14.451875 -3.37875 14.451875 -3 13 C-2.34 12.67 -1.68 12.34 -1 12 C-1.99 11.34 -2.98 10.68 -4 10 C-3.34 8.68 -2.68 7.36 -2 6 C-2.66 6 -3.32 6 -4 6 C-4 5.34 -4 4.68 -4 4 C-2.68 4 -1.36 4 0 4 C0 2.68 0 1.36 0 0 Z M-177 44 C-176.34 44.66 -175.68 45.32 -175 46 C-175 45.34 -175 44.68 -175 44 C-175.66 44 -176.32 44 -177 44 Z " fill="#EDE0CF" transform="translate(199,88)"/>
<path d="M0 0 C0.99 0.33 1.98 0.66 3 1 C2.67 1.99 2.34 2.98 2 4 C0.66666667 4.33333333 -0.66666667 4.66666667 -2 5 C-2.33 5.99 -2.66 6.98 -3 8 C-3.99 8 -4.98 8 -6 8 C-6.33 8.99 -6.66 9.98 -7 11 C-8.8125 12 -8.8125 12 -11 13 C-12.051875 13.804375 -12.051875 13.804375 -13.125 14.625 C-15 16 -15 16 -17 16 C-17 16.66 -17 17.32 -17 18 C-17.99 18 -18.98 18 -20 18 C-20.020625 18.763125 -20.04125 19.52625 -20.0625 20.3125 C-20.371875 21.199375 -20.68125 22.08625 -21 23 C-22.69928713 23.71892917 -24.40441046 24.42944163 -26.14453125 25.04296875 C-29.53100771 26.78967766 -31.02441564 29.82709178 -33 33 C-32.01 33 -31.02 33 -30 33 C-31 36 -31 36 -33 37 C-33 37.66 -33 38.32 -33 39 C-34.32 39 -35.64 39 -37 39 C-36.95875 39.763125 -36.9175 40.52625 -36.875 41.3125 C-37 44 -37 44 -39 47 C-38.34 47.66 -37.68 48.32 -37 49 C-39.3125 51.5 -39.3125 51.5 -42 54 C-42.99 54 -43.98 54 -45 54 C-45.2475 54.70125 -45.495 55.4025 -45.75 56.125 C-47.16088026 59.37002459 -48.97895398 62.10316737 -51 65 C-50.01 65 -49.02 65 -48 65 C-49.875 70.75 -49.875 70.75 -51 73 C-50.34 73.33 -49.68 73.66 -49 74 C-50.15173355 76.46800047 -51.04783565 78.04783565 -53 80 C-52.01 80.33 -51.02 80.66 -50 81 C-50.825 81.53625 -51.65 82.0725 -52.5 82.625 C-55.33951208 84.80271869 -55.33951208 84.80271869 -55.3125 88.25 C-55.209375 89.1575 -55.10625 90.065 -55 91 C-56.485 91.495 -56.485 91.495 -58 92 C-58.495 92.99 -58.495 92.99 -59 94 C-60.5625 91.625 -60.5625 91.625 -62 89 C-61.505 88.01 -61.505 88.01 -61 87 C-61.99 86.67 -62.98 86.34 -64 86 C-63.7834375 85.26394531 -63.566875 84.52789062 -63.34375 83.76953125 C-63.0653125 82.79371094 -62.786875 81.81789063 -62.5 80.8125 C-62.2215625 79.84957031 -61.943125 78.88664062 -61.65625 77.89453125 C-61.03322392 75.14654124 -60.87697188 72.80401584 -61 70 C-60.34 70 -59.68 70 -59 70 C-59.12375 68.14375 -59.12375 68.14375 -59.25 66.25 C-59.2638695 62.29025645 -59.2638695 62.29025645 -57.125 59.9375 C-56.42375 59.298125 -55.7225 58.65875 -55 58 C-53.59908154 54.07742832 -53 51.17814948 -53 47 C-51.35360035 45.64172029 -49.68704193 44.30745749 -48 43 C-48 42.01 -48 41.02 -48 40 C-47.01 39.34 -46.02 38.68 -45 38 C-45.020625 37.21625 -45.04125 36.4325 -45.0625 35.625 C-45 33 -45 33 -43.125 30.6875 C-41 29 -41 29 -39 29 C-38.5875 28.05125 -38.175 27.1025 -37.75 26.125 C-35.86832941 22.76487395 -35.26858399 22.53214875 -32 21 C-31.505 20.154375 -31.01 19.30875 -30.5 18.4375 C-29 16 -29 16 -26.8125 15.1875 C-26.214375 15.125625 -25.61625 15.06375 -25 15 C-25 14.34 -25 13.68 -25 13 C-23.35 12.67 -21.7 12.34 -20 12 C-19.67 10.35 -19.34 8.7 -19 7 C-15.7 6.67 -12.4 6.34 -9 6 C-9 5.34 -9 4.68 -9 4 C-8.34 4 -7.68 4 -7 4 C-7 3.34 -7 2.68 -7 2 C-5.02 2 -3.04 2 -1 2 C-0.67 1.34 -0.34 0.68 0 0 Z " fill="#FCF8EB" transform="translate(68,12)"/>
<path d="M0 0 C2.3125 0.9375 2.3125 0.9375 4.3125 2.9375 C2.9925 3.9275 1.6725 4.9175 0.3125 5.9375 C0.9725 6.5975 1.6325 7.2575 2.3125 7.9375 C1.6525 7.9375 0.9925 7.9375 0.3125 7.9375 C0.3125 8.5975 0.3125 9.2575 0.3125 9.9375 C1.9625 9.6075 3.6125 9.2775 5.3125 8.9375 C5.6425 10.9175 5.9725 12.8975 6.3125 14.9375 C5.3225 15.4325 5.3225 15.4325 4.3125 15.9375 C5.3025 16.5975 6.2925 17.2575 7.3125 17.9375 C5.3325 20.9075 5.3325 20.9075 3.3125 23.9375 C5.2925 24.5975 7.2725 25.2575 9.3125 25.9375 C9.3125 26.5975 9.3125 27.2575 9.3125 27.9375 C10.77083358 29.56264468 10.77083358 29.56264468 12.3125 30.9375 C11.6525 31.5975 10.9925 32.2575 10.3125 32.9375 C11.3025 35.5775 12.2925 38.2175 13.3125 40.9375 C14.7975 40.4425 14.7975 40.4425 16.3125 39.9375 C16.9725 41.2575 17.6325 42.5775 18.3125 43.9375 C18.89 43.56625 19.4675 43.195 20.0625 42.8125 C22.3125 41.9375 22.3125 41.9375 24.5 42.6875 C26.3125 43.9375 26.3125 43.9375 27.3125 45.9375 C25.13825883 48.43787734 23.58204202 49.37378586 20.3125 49.9375 C20.3125 48.6175 20.3125 47.2975 20.3125 45.9375 C19.6525 45.9375 18.9925 45.9375 18.3125 45.9375 C17.9825 46.9275 17.6525 47.9175 17.3125 48.9375 C16.6525 47.9475 15.9925 46.9575 15.3125 45.9375 C15.3125 47.5875 15.3125 49.2375 15.3125 50.9375 C16.3025 50.4425 16.3025 50.4425 17.3125 49.9375 C15.94266497 53.09865776 15.3234362 53.9302092 12.3125 55.9375 C11.9825 54.9475 11.6525 53.9575 11.3125 52.9375 C11.6425 52.6075 11.9725 52.2775 12.3125 51.9375 C9.63002816 49.25502816 8.18474464 47.9375 4.3125 47.9375 C4.3125 47.2775 4.3125 46.6175 4.3125 45.9375 C5.3025 45.4425 5.3025 45.4425 6.3125 44.9375 C5.8175 44.504375 5.3225 44.07125 4.8125 43.625 C3.3125 41.9375 3.3125 41.9375 3.3125 38.9375 C2.3225 38.9375 1.3325 38.9375 0.3125 38.9375 C-0.0175 36.2975 -0.3475 33.6575 -0.6875 30.9375 C-1.3475 30.9375 -2.0075 30.9375 -2.6875 30.9375 C-2.6875 24.9375 -2.6875 24.9375 -1.6875 22.9375 C-2.6775 22.2775 -3.6675 21.6175 -4.6875 20.9375 C-4.3575 20.6075 -4.0275 20.2775 -3.6875 19.9375 C-3.97354898 18.26207024 -4.30531233 16.59364657 -4.6875 14.9375 C-5.3475 14.9375 -6.0075 14.9375 -6.6875 14.9375 C-6.0275 12.9575 -5.3675 10.9775 -4.6875 8.9375 C-3.6975 9.2675 -2.7075 9.5975 -1.6875 9.9375 C-1.6875 9.2775 -1.6875 8.6175 -1.6875 7.9375 C-2.6775 7.9375 -3.6675 7.9375 -4.6875 7.9375 C-4.6875 7.2775 -4.6875 6.6175 -4.6875 5.9375 C-5.6775 5.6075 -6.6675 5.2775 -7.6875 4.9375 C-3.40496385 -0.07918521 -3.40496385 -0.07918521 0 0 Z M3.3125 10.9375 C3.9725 11.5975 4.6325 12.2575 5.3125 12.9375 C5.3125 12.2775 5.3125 11.6175 5.3125 10.9375 C4.6525 10.9375 3.9925 10.9375 3.3125 10.9375 Z " fill="#F1E4D4" transform="translate(18.6875,121.0625)"/>
<path d="M0 0 C0.66 0.33 1.32 0.66 2 1 C2.625 3.5625 2.625 3.5625 3 6 C3 5.34 3 4.68 3 4 C3.99 3.67 4.98 3.34 6 3 C5.67 4.98 5.34 6.96 5 9 C2.69 9.33 0.38 9.66 -2 10 C-2 9.34 -2 8.68 -2 8 C-2.66 8 -3.32 8 -4 8 C-4 8.99 -4 9.98 -4 11 C-5.65 11.66 -7.3 12.32 -9 13 C-8.67 13.33 -8.34 13.66 -8 14 C-7.67 14.66 -7.34 15.32 -7 16 C-7.6492959 17.34187818 -8.31731862 18.67479497 -9 20 C-9 20.99 -9 21.98 -9 23 C-9.99 23.8971875 -9.99 23.8971875 -11 24.8125 C-13.32248776 26.89197202 -13.32248776 26.89197202 -13.1875 30.125 C-13.125625 31.07375 -13.06375 32.0225 -13 33 C-13.33 33.66 -13.66 34.32 -14 35 C-13.34 35 -12.68 35 -12 35 C-12.99 37.475 -12.99 37.475 -14 40 C-15.32 40 -16.64 40 -18 40 C-18.66 40.99 -19.32 41.98 -20 43 C-20.66 43 -21.32 43 -22 43 C-22 42.34 -22 41.68 -22 41 C-24.05990478 42.29467677 -24.05990478 42.29467677 -26 44 C-26 44.99 -26 45.98 -26 47 C-26.66 47 -27.32 47 -28 47 C-28 49.31 -28 51.62 -28 54 C-28.33 53.34 -28.66 52.68 -29 52 C-29.66 52 -30.32 52 -31 52 C-30.4740625 52.86625 -30.4740625 52.86625 -29.9375 53.75 C-28.85082593 56.35801776 -29.06934867 57.39417629 -30 60 C-30.66 60 -31.32 60 -32 60 C-32 60.66 -32 61.32 -32 62 C-31.34 62 -30.68 62 -30 62 C-29.71428571 70.57142857 -29.71428571 70.57142857 -32 74 C-32.66 74 -33.32 74 -34 74 C-33.95875 73.0925 -33.9175 72.185 -33.875 71.25 C-33.99812548 68.04873748 -34.49925347 66.72010308 -36 64 C-36 63.01 -36 62.02 -36 61 C-35.34 61 -34.68 61 -34 61 C-33.06576355 57.98968256 -32.95550089 57.13349732 -34 54 C-33.814375 53.34 -33.62875 52.68 -33.4375 52 C-33.293125 51.34 -33.14875 50.68 -33 50 C-33.66 49.01 -34.32 48.02 -35 47 C-34.34 47 -33.68 47 -33 47 C-32.731875 46.278125 -32.46375 45.55625 -32.1875 44.8125 C-29.70468827 38.93215644 -27.88379015 36.68607811 -22 34 C-21.67 33.34 -21.34 32.68 -21 32 C-21.66 31.34 -22.32 30.68 -23 30 C-22.34 29.01 -21.68 28.02 -21 27 C-20.61500109 25.34450469 -20.27206865 23.6777567 -20 22 C-18.68 22 -17.36 22 -16 22 C-16.33 21.01 -16.66 20.02 -17 19 C-16.01 18.67 -15.02 18.34 -14 18 C-13.67 17.34 -13.34 16.68 -13 16 C-13.99 16.33 -14.98 16.66 -16 17 C-16 13.04435836 -14.59478606 11.89133304 -12 9 C-9.08235 7.0549 -7.37462715 6.54723683 -4 6 C-3.67 4.35 -3.34 2.7 -3 1 C-2.01 0.67 -1.02 0.34 0 0 Z " fill="#F4E9DA" transform="translate(51,29)"/>
<path d="M0 0 C3.375 0.3125 3.375 0.3125 7 1 C7.66 1.99 8.32 2.98 9 4 C10.66500443 4.34153937 12.33178677 4.67449498 14 5 C14.495 5.515625 14.99 6.03125 15.5 6.5625 C16.95456237 8.2882939 16.95456237 8.2882939 19.5 8 C22 8 22 8 23.6875 9.4375 C24.120625 9.953125 24.55375 10.46875 25 11 C25.66 11.33 26.32 11.66 27 12 C27.66 11.34 28.32 10.68 29 10 C29.33 11.32 29.66 12.64 30 14 C32.475 14.495 32.475 14.495 35 15 C35.12375 15.639375 35.2475 16.27875 35.375 16.9375 C35.58125 17.618125 35.7875 18.29875 36 19 C36.66 19.33 37.32 19.66 38 20 C38 20.66 38 21.32 38 22 C39.0725 22.185625 40.145 22.37125 41.25 22.5625 C44.44444216 23.46499484 45.77562903 24.53950266 47.5 27.375 C49 31 49 31 48.75 33.4375 C48.5025 33.953125 48.255 34.46875 48 35 C47.34 35 46.68 35 46 35 C46 34.34 46 33.68 46 33 C45.29875 33.268125 44.5975 33.53625 43.875 33.8125 C41 34 41 34 37.8125 31.9375 C34.95956777 29.3265903 33.88113243 26.78886945 33 23 C32.34 23 31.68 23 31 23 C30.67 21.68 30.34 20.36 30 19 C28.35 19.33 26.7 19.66 25 20 C25 19.34 25 18.68 25 18 C24.2575 17.9175 23.515 17.835 22.75 17.75 C19.48778646 16.8603054 18.19045122 15.51496251 16 13 C15.67 13.66 15.34 14.32 15 15 C14.01 14.67 13.02 14.34 12 14 C12.66 13.67 13.32 13.34 14 13 C14 12.34 14 11.68 14 11 C13.01 10.67 12.02 10.34 11 10 C11 9.34 11 8.68 11 8 C8.69 7.67 6.38 7.34 4 7 C3.896875 6.360625 3.79375 5.72125 3.6875 5.0625 C3.460625 4.381875 3.23375 3.70125 3 3 C2.01 2.67 1.02 2.34 0 2 C0 1.34 0 0.68 0 0 Z M38 32 C37.01 32.66 36.02 33.32 35 34 C34.01 33.34 33.02 32.68 32 32 C35.75 30.875 35.75 30.875 38 32 Z " fill="#FCF7EA" transform="translate(137,10)"/>
<path d="M0 0 C0.0825 0.598125 0.165 1.19625 0.25 1.8125 C1.23677173 4.6905842 2.45038728 5.37911219 5 7 C12.30343592 9.39170026 18.68491727 9.06282159 26 7 C26 6.34 26 5.68 26 5 C26.99 5 27.98 5 29 5 C29.66 3.68 30.32 2.36 31 1 C32.65 1 34.3 1 36 1 C35.17665455 4.89217848 34.60052783 7.39947217 31.75 10.25 C25.87674336 13.98752695 21.57565466 15.55744597 14.6875 15.5 C13.93782959 15.49718018 13.18815918 15.49436035 12.41577148 15.49145508 C6.40793101 15.31622911 1.60716904 14.07866586 -3 10 C-5.29013653 6.5647952 -5.17842973 5.014669 -5 1 C-2 0 -2 0 0 0 Z " fill="#685641" transform="translate(97,132)"/>
<path d="M0 0 C2.0625 0.75 2.0625 0.75 4 2 C4.33 2.99 4.66 3.98 5 5 C5.66 5 6.32 5 7 5 C8.41703948 10.28169261 7.49499401 13.19482636 5 18 C3 20 3 20 0.625 20.375 C-2 20 -2 20 -4.25 18.4375 C-6.56371623 15.21482382 -6.86386697 12.9478579 -7 9 C-6.0625 5.5625 -6.0625 5.5625 -5 3 C-4.34 3 -3.68 3 -3 3 C-2.67 2.34 -2.34 1.68 -2 1 C-1.34 0.67 -0.68 0.34 0 0 Z " fill="#6C5A45" transform="translate(73,98)"/>
<path d="M0 0 C-0.5625 2.375 -0.5625 2.375 -2 5 C-5.625 6.3125 -5.625 6.3125 -9 7 C-9.33 8.32 -9.66 9.64 -10 11 C-8.6078125 11.1546875 -8.6078125 11.1546875 -7.1875 11.3125 C-4 12 -4 12 -2.0625 13.3125 C-1 15 -1 15 -1.3125 17.1875 C-1.539375 17.785625 -1.76625 18.38375 -2 19 C-7.62582013 18.53118166 -13.84448044 17.15551956 -18 13 C-18.26293056 8.96839809 -18.29404844 7.44107266 -16 4 C-15.34 4 -14.68 4 -14 4 C-13.67 3.34 -13.34 2.68 -13 2 C-9.02291084 -1.97708916 -5.28744325 -0.91513441 0 0 Z " fill="#67543F" transform="translate(157,102)"/>
<path d="M0 0 C0.66 0.66 1.32 1.32 2 2 C2.78375 1.835 3.5675 1.67 4.375 1.5 C8.57503906 0.69999256 10.55850683 2.70567122 14 5 C16 8 16 8 16.8125 10.125 C17.88778304 12.28277867 17.88778304 12.28277867 20.625 12.75 C21.40875 12.8325 22.1925 12.915 23 13 C22.34 14.65 21.68 16.3 21 18 C19.68 17.67 18.36 17.34 17 17 C17 17.99 17 18.98 17 20 C15.68 19.67 14.36 19.34 13 19 C13.66 17.68 14.32 16.36 15 15 C14.38511719 14.81824219 13.77023438 14.63648438 13.13671875 14.44921875 C12.32847656 14.19785156 11.52023438 13.94648437 10.6875 13.6875 C9.88699219 13.44386719 9.08648437 13.20023438 8.26171875 12.94921875 C5.90035427 11.95817977 4.66120007 10.91925057 3 9 C3 9.66 3 10.32 3 11 C1.35 10.67 -0.3 10.34 -2 10 C-1.34 8.68 -0.68 7.36 0 6 C-0.66 5.67 -1.32 5.34 -2 5 C-1.125 1.125 -1.125 1.125 0 0 Z M11 12 C12.32 12.33 13.64 12.66 15 13 C15.66 12.01 16.32 11.02 17 10 C14.53721199 10 13.14775881 10.85452863 11 12 Z " fill="#F3E7D7" transform="translate(158,31)"/>
<path d="M0 0 C2 3 2 3 1.625 5.6875 C1.41875 6.450625 1.2125 7.21375 1 8 C1.66 8 2.32 8 3 8 C3.33 7.01 3.66 6.02 4 5 C4.66 6.32 5.32 7.64 6 9 C5.34 9 4.68 9 4 9 C3.79913557 12.71599191 3.8480563 13.77208445 6 17 C6 17.66 6 18.32 6 19 C5.34 19 4.68 19 4 19 C3.67 20.98 3.34 22.96 3 25 C3.99 25.33 4.98 25.66 6 26 C5.67 27.65 5.34 29.3 5 31 C3.68 31 2.36 31 1 31 C0.566875 29.576875 0.566875 29.576875 0.125 28.125 C-0.76825109 24.94788422 -0.76825109 24.94788422 -3 23 C-3.125 20.375 -3.125 20.375 -3 18 C-2.34 18 -1.68 18 -1 18 C-0.9729957 16.54176788 -0.95360213 15.08339325 -0.9375 13.625 C-0.92589844 12.81289062 -0.91429687 12.00078125 -0.90234375 11.1640625 C-0.85533666 8.95062858 -0.85533666 8.95062858 -2 7 C-1.39239518 4.6505947 -0.72870472 2.31470912 0 0 Z " fill="#FDF9ED" transform="translate(6,104)"/>
<path d="M0 0 C0 0.99 0 1.98 0 3 C1.0828125 2.2265625 1.0828125 2.2265625 2.1875 1.4375 C5.4195366 -0.21442982 6.61608307 -0.06351675 10 1 C9.67 1.99 9.34 2.98 9 4 C9.66 4.33 10.32 4.66 11 5 C11.33 4.01 11.66 3.02 12 2 C14 3.375 14 3.375 16 5 C16 5.66 16 6.32 16 7 C16.66 7 17.32 7 18 7 C18 7.66 18 8.32 18 9 C16.96875 8.938125 15.9375 8.87625 14.875 8.8125 C10.76531027 9.01135595 8.51117504 9.94467803 5 12 C4.34 10.02 3.68 8.04 3 6 C2.01 6.495 2.01 6.495 1 7 C1 6.34 1 5.68 1 5 C-0.32 5 -1.64 5 -3 5 C-3 4.01 -3 3.02 -3 2 C-3.66 2 -4.32 2 -5 2 C-5 2.66 -5 3.32 -5 4 C-5.99 4 -6.98 4 -8 4 C-7 1 -7 1 -4.5625 -0.25 C-2 -1 -2 -1 0 0 Z " fill="#F4EADA" transform="translate(141,20)"/>
<path d="M0 0 C0.33 0.99 0.66 1.98 1 3 C1.66 3 2.32 3 3 3 C3.33 3.99 3.66 4.98 4 6 C4.66 6.33 5.32 6.66 6 7 C5.34 9.31 4.68 11.62 4 14 C4.99 14 5.98 14 7 14 C7.66 16.97 8.32 19.94 9 23 C6 24 6 24 2 24 C2.66 22.68 3.32 21.36 4 20 C4.66 20.33 5.32 20.66 6 21 C6 20.34 6 19.68 6 19 C5.21625 19.185625 4.4325 19.37125 3.625 19.5625 C1 20 1 20 -1 19 C-0.67 17.02 -0.34 15.04 0 13 C-0.66 13 -1.32 13 -2 13 C-2.66 11.02 -3.32 9.04 -4 7 C-3.01 7.33 -2.02 7.66 -1 8 C-1.20625 7.236875 -1.4125 6.47375 -1.625 5.6875 C-2 3 -2 3 0 0 Z M5 15 C4.67 15.99 4.34 16.98 4 18 C4.99 17.67 5.98 17.34 7 17 C6.34 16.34 5.68 15.68 5 15 Z " fill="#F2E6D7" transform="translate(193,61)"/>
<path d="M0 0 C0.66 0.66 1.32 1.32 2 2 C0.75 3.5 0.75 3.5 -1 5 C-2.32 5 -3.64 5 -5 5 C-4.34 5.33 -3.68 5.66 -3 6 C-3 7.65 -3 9.3 -3 11 C-6.375 10.75 -6.375 10.75 -10 10 C-11.4375 7.9375 -11.4375 7.9375 -12 6 C-12.66 6 -13.32 6 -14 6 C-13.67 7.65 -13.34 9.3 -13 11 C-14.65 10.67 -16.3 10.34 -18 10 C-18 9.34 -18 8.68 -18 8 C-18.66 8 -19.32 8 -20 8 C-19.67 7.34 -19.34 6.68 -19 6 C-18.67 5.01 -18.34 4.02 -18 3 C-13.545 2.505 -13.545 2.505 -9 2 C-9 2.66 -9 3.32 -9 4 C-8.2575 3.525625 -7.515 3.05125 -6.75 2.5625 C-4.37855147 1.21508606 -2.69425157 0.27871568 0 0 Z " fill="#F1E5D5" transform="translate(114,198)"/>
<path d="M0 0 C1.32 0.66 2.64 1.32 4 2 C4 3.65 4 5.3 4 7 C3.34 7 2.68 7 2 7 C1.67 8.98 1.34 10.96 1 13 C0.34 13 -0.32 13 -1 13 C-1.33 12.34 -1.66 11.68 -2 11 C-2.66 11 -3.32 11 -4 11 C-4 12.65 -4 14.3 -4 16 C-4.66 16.33 -5.32 16.66 -6 17 C-6.66 16.67 -7.32 16.34 -8 16 C-8.33 16.99 -8.66 17.98 -9 19 C-10.32 18.67 -11.64 18.34 -13 18 C-12.34 16.68 -11.68 15.36 -11 14 C-10.34 14 -9.68 14 -9 14 C-9.33 12.68 -9.66 11.36 -10 10 C-6.93882432 7.37613513 -6.26826873 7 -2 7 C-2 6.01 -2 5.02 -2 4 C-1.34 4 -0.68 4 0 4 C0 4.66 0 5.32 0 6 C0.99 6 1.98 6 3 6 C3 5.34 3 4.68 3 4 C1.68 3.67 0.36 3.34 -1 3 C-0.67 2.01 -0.34 1.02 0 0 Z " fill="#F2E7D8" transform="translate(187,168)"/>
<path d="M0 0 C0 0.66 0 1.32 0 2 C0.99 2.33 1.98 2.66 3 3 C3 3.66 3 4.32 3 5 C4.32 4.67 5.64 4.34 7 4 C7 4.66 7 5.32 7 6 C7.99 6.33 8.98 6.66 10 7 C9.34 7.66 8.68 8.32 8 9 C7.34 8.67 6.68 8.34 6 8 C6 8.99 6 9.98 6 11 C5.34 11 4.68 11 4 11 C4 10.01 4 9.02 4 8 C3.2575 8.309375 2.515 8.61875 1.75 8.9375 C-2.8044164 10.69716088 -2.8044164 10.69716088 -5 11 C-5.66 10.34 -6.32 9.68 -7 9 C-7.99 8.34 -8.98 7.68 -10 7 C-9.67 5.02 -9.34 3.04 -9 1 C-8.34 1 -7.68 1 -7 1 C-6.67 2.32 -6.34 3.64 -6 5 C-4.68 5 -3.36 5 -2 5 C-2 4.01 -2 3.02 -2 2 C-2.99 2.33 -3.98 2.66 -5 3 C-5.33 2.34 -5.66 1.68 -6 1 C-3.92446352 0.4465236 -2.15634036 0 0 0 Z " fill="#FDF7EA" transform="translate(113,208)"/>
<path d="M0 0 C0.99 0 1.98 0 3 0 C3 0.99 3 1.98 3 3 C3.66 3 4.32 3 5 3 C5 3.66 5 4.32 5 5 C5.66 5 6.32 5 7 5 C7.33 3.68 7.66 2.36 8 1 C8 1.99 8 2.98 8 4 C8.928125 4.103125 9.85625 4.20625 10.8125 4.3125 C14 5 14 5 15.9375 6.3125 C17 8 17 8 16.6875 10.1875 C16.460625 10.785625 16.23375 11.38375 16 12 C10.37417987 11.53118166 4.15551956 10.15551956 0 6 C-0.04080783 4.00041636 -0.04254356 1.99954746 0 0 Z " fill="#7B6955" transform="translate(139,109)"/>
<path d="M0 0 C-3.46188341 6.80012812 -3.46188341 6.80012812 -6.1875 7.8125 C-6.785625 7.874375 -7.38375 7.93625 -8 8 C-8.33 8.66 -8.66 9.32 -9 10 C-9 9.34 -9 8.68 -9 8 C-10.32 8 -11.64 8 -13 8 C-13 7.34 -13 6.68 -13 6 C-13.66 6 -14.32 6 -15 6 C-14.11888201 2.95613784 -13.58026389 1.37546487 -10.875 -0.375 C-6.96455084 -1.22509764 -3.94016692 -0.6678249 0 0 Z " fill="#F6EBDC" transform="translate(75,23)"/>
<path d="M0 0 C1.9375 0.625 1.9375 0.625 4 2 C4.75 5.125 4.75 5.125 5 8 C5.99 8 6.98 8 8 8 C7.67 9.65 7.34 11.3 7 13 C8.32 13.33 9.64 13.66 11 14 C9.02253397 14.73080266 7.01927511 15.39421747 5 16 C4.34 15.67 3.68 15.34 3 15 C3 16.98 3 18.96 3 21 C-0.96 21.495 -0.96 21.495 -5 22 C-4.67 21.34 -4.34 20.68 -4 20 C-2.68 20 -1.36 20 0 20 C0.433125 18.6696875 0.433125 18.6696875 0.875 17.3125 C1.83148748 14.49617576 2.86798946 11.74916844 4 9 C2.35 9.33 0.7 9.66 -1 10 C-1 9.01 -1 8.02 -1 7 C-1.66 6.34 -2.32 5.68 -3 5 C-2.01 4.67 -1.02 4.34 0 4 C0 2.68 0 1.36 0 0 Z " fill="#F2E6D7" transform="translate(137,189)"/>
<path d="M0 0 C0.66 0.33 1.32 0.66 2 1 C2 1.66 2 2.32 2 3 C2.66 3 3.32 3 4 3 C4 3.66 4 4.32 4 5 C5.32 4.67 6.64 4.34 8 4 C7.360625 4.598125 6.72125 5.19625 6.0625 5.8125 C3.79689611 7.90810337 3.79689611 7.90810337 3 11 C2.34870203 12.34090759 1.68486725 13.67592331 1 15 C0.01 14.34 -0.98 13.68 -2 13 C-2 12.34 -2 11.68 -2 11 C-2.99 10.67 -3.98 10.34 -5 10 C-4.67 9.01 -4.34 8.02 -4 7 C-4.38932856 4.85744207 -4.38932856 4.85744207 -5 3 C-3.68 3.33 -2.36 3.66 -1 4 C-0.67 2.68 -0.34 1.36 0 0 Z " fill="#E9DAC9" transform="translate(93,194)"/>
<path d="M0 0 C2.97 0.495 2.97 0.495 6 1 C6 1.66 6 2.32 6 3 C6.66 3.33 7.32 3.66 8 4 C8 4.66 8 5.32 8 6 C9.32 6.66 10.64 7.32 12 8 C11.67 8.66 11.34 9.32 11 10 C10.38511719 9.9278125 9.77023438 9.855625 9.13671875 9.78125 C8.32847656 9.6884375 7.52023438 9.595625 6.6875 9.5 C5.88699219 9.4071875 5.08648437 9.314375 4.26171875 9.21875 C1.88103445 8.95186537 1.88103445 8.95186537 -1 9 C-1.08886184 5.80097361 -0.91058531 3.07322544 0 0 Z " fill="#F3E7D8" transform="translate(179,49)"/>
<path d="M0 0 C0.66 0.33 1.32 0.66 2 1 C2.5775 0.814375 3.155 0.62875 3.75 0.4375 C6.9024317 -0.17547283 9.05641398 0.8627054 12 2 C12 2.33 12 2.66 12 3 C14.97 3.495 14.97 3.495 18 4 C16 6 16 6 12.0859375 6.1953125 C10.51550649 6.18200376 8.94513779 6.15813602 7.375 6.125 C6.57320313 6.11597656 5.77140625 6.10695312 4.9453125 6.09765625 C2.96341477 6.07406223 0.98167019 6.03819065 -1 6 C-1 5.34 -1 4.68 -1 4 C0.32 4.33 1.64 4.66 3 5 C3 4.34 3 3.68 3 3 C2.01 3 1.02 3 0 3 C0 2.01 0 1.02 0 0 Z " fill="#65533F" transform="translate(104,141)"/>
<path d="M0 0 C0.66 0.33 1.32 0.66 2 1 C2 1.99 2 2.98 2 4 C2.99 4 3.98 4 5 4 C4.34 5.32 3.68 6.64 3 8 C2.34 8 1.68 8 1 8 C1 9.32 1 10.64 1 12 C0.01 12.33 -0.98 12.66 -2 13 C-2 12.01 -2 11.02 -2 10 C-2.66 10 -3.32 10 -4 10 C-4 10.66 -4 11.32 -4 12 C-5.32 12 -6.64 12 -8 12 C-7.67 10.35 -7.34 8.7 -7 7 C-6.34 7 -5.68 7 -5 7 C-5 7.66 -5 8.32 -5 9 C-4.01 9 -3.02 9 -2 9 C-2 8.34 -2 7.68 -2 7 C-2.66 6.67 -3.32 6.34 -4 6 C-3.34 6 -2.68 6 -2 6 C-1.34 4.02 -0.68 2.04 0 0 Z " fill="#EBDDCC" transform="translate(128,186)"/>
<path d="M0 0 C0 0.66 0 1.32 0 2 C0.66 2.33 1.32 2.66 2 3 C1.01 4.485 1.01 4.485 0 6 C-3.0390625 6.29296875 -3.0390625 6.29296875 -6.625 6.1875 C-7.81351562 6.16042969 -9.00203125 6.13335938 -10.2265625 6.10546875 C-11.59941406 6.05326172 -11.59941406 6.05326172 -13 6 C-13.33 5.01 -13.66 4.02 -14 3 C-12.948125 2.87625 -11.89625 2.7525 -10.8125 2.625 C-7.14383087 2.02357883 -3.63516111 0 0 0 Z " fill="#FDF9EB" transform="translate(111,6)"/>
<path d="M0 0 C3 1 3 1 4.125 3 C4.41375 3.66 4.7025 4.32 5 5 C5.33 5.33 5.66 5.66 6 6 C6.99 6 7.98 6 9 6 C8.67 7.32 8.34 8.64 8 10 C9.32 10.33 10.64 10.66 12 11 C12 12.32 12 13.64 12 15 C11.34 15 10.68 15 10 15 C7 11.53846154 7 11.53846154 7 9 C4.69 8.67 2.38 8.34 0 8 C0 8.66 0 9.32 0 10 C-0.66 10 -1.32 10 -2 10 C-2 9.01 -2 8.02 -2 7 C-1.01 6.34 -0.02 5.68 1 5 C0.67 3.35 0.34 1.7 0 0 Z " fill="#F6EDDE" transform="translate(27,169)"/>
<path d="M0 0 C0.7425 0.185625 1.485 0.37125 2.25 0.5625 C2.8275 0.706875 3.405 0.85125 4 1 C3.01 2.98 2.02 4.96 1 7 C-0.65 6.67 -2.3 6.34 -4 6 C-4.33 6.99 -4.66 7.98 -5 9 C-5.66 9 -6.32 9 -7 9 C-6.4740625 7.329375 -6.4740625 7.329375 -5.9375 5.625 C-4.62760669 2.19735524 -4.62760669 2.19735524 -6 0 C-3.45555769 -1.27222115 -2.67379418 -0.78641005 0 0 Z M-3 1 C-2 3 -2 3 -2 3 Z " fill="#F3E8D9" transform="translate(135,201)"/>
<path d="M0 0 C1.32 0.33 2.64 0.66 4 1 C4.43200679 5.75207471 2.98489083 8.78210698 1 13 C1.66 13 2.32 13 3 13 C3 13.66 3 14.32 3 15 C1.68 14.67 0.36 14.34 -1 14 C-1.33 12.35 -1.66 10.7 -2 9 C-1.34 9 -0.68 9 0 9 C-0.185625 7.88625 -0.37125 6.7725 -0.5625 5.625 C-1 2 -1 2 0 0 Z " fill="#F5EADB" transform="translate(207,113)"/>
<path d="M0 0 C6.39559286 0.60335782 6.39559286 0.60335782 9 2.3125 C10 4 10 4 9.6875 6.1875 C9.3471875 7.0846875 9.3471875 7.0846875 9 8 C8.34 7.67 7.68 7.34 7 7 C7 6.34 7 5.68 7 5 C6.01 5.495 6.01 5.495 5 6 C5 6.99 5 7.98 5 9 C2.01771223 7.01180815 0.21480305 5.42353587 -1 2 C-0.67 1.34 -0.34 0.68 0 0 Z " fill="#FCF6EB" transform="translate(27,177)"/>
<path d="M0 0 C0.99 1.32 1.98 2.64 3 4 C0.6875 6.5 0.6875 6.5 -2 9 C-2.99 9 -3.98 9 -5 9 C-5.66 10.32 -6.32 11.64 -7 13 C-7.66 12.67 -8.32 12.34 -9 12 C-7.75023244 8.34683329 -7.32901247 7.21934164 -4 5 C-3.01 5.33 -2.02 5.66 -1 6 C-1 5.34 -1 4.68 -1 4 C-1.66 3.67 -2.32 3.34 -3 3 C-2.01 2.01 -1.02 1.02 0 0 Z " fill="#F6EDDE" transform="translate(28,57)"/>
<path d="M0 0 C5.75 1.75 5.75 1.75 8 4 C7.625 6.125 7.625 6.125 7 8 C4.69 7.67 2.38 7.34 0 7 C0.20625 6.38125 0.4125 5.7625 0.625 5.125 C0.74875 4.42375 0.8725 3.7225 1 3 C0.34 2.34 -0.32 1.68 -1 1 C-0.67 0.67 -0.34 0.34 0 0 Z " fill="#65513D" transform="translate(148,113)"/>
<path d="M0 0 C4.92307692 4.18461538 4.92307692 4.18461538 5.3125 8.3125 C5.209375 9.199375 5.10625 10.08625 5 11 C3.35 11.66 1.7 12.32 0 13 C-0.33 12.01 -0.66 11.02 -1 10 C-0.67 9.34 -0.34 8.68 0 8 C0.66 8 1.32 8 2 8 C1.690625 7.401875 1.38125 6.80375 1.0625 6.1875 C0 4 0 4 -1 1 C-0.67 0.67 -0.34 0.34 0 0 Z " fill="#F2E5D5" transform="translate(185,155)"/>
<path d="M0 0 C0.99 0 1.98 0 3 0 C3 0.66 3 1.32 3 2 C4.65 1.67 6.3 1.34 8 1 C8.33 2.32 8.66 3.64 9 5 C10.65 4.34 12.3 3.68 14 3 C14 3.99 14 4.98 14 6 C12 7.25 12 7.25 9 8 C6.04236169 7.12160366 3.41458437 5.92941088 1 4 C0.265625 1.8515625 0.265625 1.8515625 0 0 Z " fill="#F0E5D5" transform="translate(145,195)"/>
<path d="M0 0 C1.32 0.66 2.64 1.32 4 2 C3.34 3.98 2.68 5.96 2 8 C1.34 8 0.68 8 0 8 C0 9.32 0 10.64 0 12 C-0.66 12 -1.32 12 -2 12 C-2.66 9.69 -3.32 7.38 -4 5 C-2.68 4.67 -1.36 4.34 0 4 C0 2.68 0 1.36 0 0 Z " fill="#F4E9D9" transform="translate(207,129)"/>
<path d="M0 0 C0 0.66 0 1.32 0 2 C2.35367713 2.6878236 2.35367713 2.6878236 5 3 C5.99 2.34 6.98 1.68 8 1 C8.33 2.32 8.66 3.64 9 5 C6 6 6 6 3 5 C3 5.66 3 6.32 3 7 C2.01 7 1.02 7 0 7 C-0.33 5.35 -0.66 3.7 -1 2 C-1.99 2.33 -2.98 2.66 -4 3 C-4 2.34 -4 1.68 -4 1 C-2 0 -2 0 0 0 Z " fill="#F2E8D9" transform="translate(55,190)"/>
<path d="M0 0 C2.64 0.99 5.28 1.98 8 3 C6.68 3.99 5.36 4.98 4 6 C4.99 6 5.98 6 7 6 C7 6.66 7 7.32 7 8 C4.69 8 2.38 8 0 8 C-1.08174162 4.63458162 -0.92538169 3.70152678 0 0 Z " fill="#7F6C57" transform="translate(100,138)"/>
<path d="M0 0 C1.61949011 2.57213134 2.04408751 3.67669159 1.625 6.75 C1.41875 7.4925 1.2125 8.235 1 9 C0.34 9 -0.32 9 -1 9 C-1 8.34 -1 7.68 -1 7 C-2.65 7 -4.3 7 -6 7 C-5.67 6.34 -5.34 5.68 -5 5 C-5.33 4.01 -5.66 3.02 -6 2 C-2.25 0.875 -2.25 0.875 0 2 C0 1.34 0 0.68 0 0 Z " fill="#F3E7D8" transform="translate(198,136)"/>
<path d="M0 0 C0.66 0.33 1.32 0.66 2 1 C2 1.66 2 2.32 2 3 C2.66 3 3.32 3 4 3 C4 3.66 4 4.32 4 5 C5.32 4.67 6.64 4.34 8 4 C7.67 4.66 7.34 5.32 7 6 C4.6875 6.5625 4.6875 6.5625 2 7 C0.66457061 7.32483418 -0.66961551 7.6550855 -2 8 C-2 7.34 -2 6.68 -2 6 C-2.99 5.67 -3.98 5.34 -5 5 C-5 4.34 -5 3.68 -5 3 C-3.68 3.33 -2.36 3.66 -1 4 C-0.67 2.68 -0.34 1.36 0 0 Z " fill="#DFCEBB" transform="translate(93,194)"/>
<path d="M0 0 C0.33 2.31 0.66 4.62 1 7 C-2.8063457 6.32829194 -6.35206816 5.27253436 -10 4 C-10 3.67 -10 3.34 -10 3 C-8.35 3 -6.7 3 -5 3 C-5 2.34 -5 1.68 -5 1 C-3 0 -3 0 0 0 Z M-13 4 C-10 5 -10 5 -10 5 Z " fill="#F5EADB" transform="translate(103,16)"/>
<path d="M0 0 C0.33 0.66 0.66 1.32 1 2 C-1.4 8.4 -1.4 8.4 -4 11 C-6.625 11.125 -6.625 11.125 -9 11 C-9.33 10.34 -9.66 9.68 -10 9 C-9.05125 8.54625 -8.1025 8.0925 -7.125 7.625 C-3.99686321 6.19761746 -3.99686321 6.19761746 -2 4 C-2.66 3.67 -3.32 3.34 -4 3 C-2.68 2.01 -1.36 1.02 0 0 Z " fill="#584634" transform="translate(80,107)"/>
<path d="M0 0 C0.99 0 1.98 0 3 0 C3.28571429 8.57142857 3.28571429 8.57142857 1 12 C0.34 12 -0.32 12 -1 12 C-0.979375 11.0925 -0.95875 10.185 -0.9375 9.25 C-0.9889755 6.57327412 -1.2215017 4.53011948 -2 2 C-1.34 2 -0.68 2 0 2 C0 1.34 0 0.68 0 0 Z " fill="#EFE1D0" transform="translate(18,91)"/>
<path d="M0 0 C-0.33 1.32 -0.66 2.64 -1 4 C-4.375 4.625 -4.375 4.625 -8 5 C-8.66 4.34 -9.32 3.68 -10 3 C-7.29536552 -0.8183075 -4.37912428 -0.24787496 0 0 Z " fill="#76634F" transform="translate(156,103)"/>
<path d="M0 0 C0.66 0.33 1.32 0.66 2 1 C1.125 5.75 1.125 5.75 0 8 C1.32 7.34 2.64 6.68 4 6 C4.99 6.66 5.98 7.32 7 8 C6.67 8.66 6.34 9.32 6 10 C5.01 9.67 4.02 9.34 3 9 C0.85744207 9.38932856 0.85744207 9.38932856 -1 10 C-1.9765625 3.9453125 -1.9765625 3.9453125 -2 2 C-1.34 1.34 -0.68 0.68 0 0 Z " fill="#F5EBDD" transform="translate(20,150)"/>
<path d="M0 0 C2 2 2 2 2 5 C-0.70879335 6.35439668 -3.00933268 6.06501451 -6 6 C-5.67 5.34 -5.34 4.68 -5 4 C-5.66 3.34 -6.32 2.68 -7 2 C-4.69 1.34 -2.38 0.68 0 0 Z " fill="#7B6853" transform="translate(120,139)"/>
<path d="M0 0 C2 1 2 1 2 1 Z M3 3 C1.02 3.66 -0.96 4.32 -3 5 C-2.34 5.33 -1.68 5.66 -1 6 C-1.33 6.66 -1.66 7.32 -2 8 C-3.32 7.67 -4.64 7.34 -6 7 C-5.67 5.35 -5.34 3.7 -5 2 C-1.59745511 0.7848054 -0.06748874 1.13759612 3 3 Z " fill="#F0E2D2" transform="translate(173,170)"/>
<path d="M0 0 C3 3.75 3 3.75 3 6 C1.35 6.66 -0.3 7.32 -2 8 C-2.33 7.34 -2.66 6.68 -3 6 C-3.99 6.495 -3.99 6.495 -5 7 C-3.70700306 4.11562221 -2.34058637 2.12780579 0 0 Z " fill="#F5EBDE" transform="translate(69,196)"/>
<path d="M0 0 C1.9375 0.75 1.9375 0.75 4 2 C4.75 4.125 4.75 4.125 5 6 C2.625 7.0625 2.625 7.0625 0 8 C-0.66 7.67 -1.32 7.34 -2 7 C-2 6.34 -2 5.68 -2 5 C-1.34 4.67 -0.68 4.34 0 4 C0 2.68 0 1.36 0 0 Z " fill="#F1E6D6" transform="translate(199,148)"/>
<path d="M0 0 C0.5534764 2.07553648 1 3.84365964 1 6 C1.66 6.33 2.32 6.66 3 7 C1.02 7 -0.96 7 -3 7 C-3.33 5.35 -3.66 3.7 -4 2 C-2.68 1.34 -1.36 0.68 0 0 Z " fill="#F5EADB" transform="translate(199,101)"/>
<path d="M0 0 C0.66 0 1.32 0 2 0 C2 0.66 2 1.32 2 2 C3.65 1.67 5.3 1.34 7 1 C7.33 2.32 7.66 3.64 8 5 C7.01 5.33 6.02 5.66 5 6 C5 5.01 5 4.02 5 3 C4.34 3 3.68 3 3 3 C3 3.66 3 4.32 3 5 C1.68 5 0.36 5 -1 5 C-0.67 3.35 -0.34 1.7 0 0 Z " fill="#E3D2C0" transform="translate(121,193)"/>
<path d="M0 0 C2.66666667 0 5.33333333 0 8 0 C8.33 1.65 8.66 3.3 9 5 C7.68 5 6.36 5 5 5 C4.34 4.34 3.68 3.68 3 3 C2.01 3 1.02 3 0 3 C0 2.01 0 1.02 0 0 Z " fill="#F3E9DB" transform="translate(84,191)"/>
<path d="M0 0 C2.97 0.495 2.97 0.495 6 1 C5.67 1.99 5.34 2.98 5 4 C3.0625 3.6875 3.0625 3.6875 1 3 C0.67 2.01 0.34 1.02 0 0 Z M-2 3 C-0.68 3.33 0.64 3.66 2 4 C1.67 5.32 1.34 6.64 1 8 C0.01 6.35 -0.98 4.7 -2 3 Z " fill="#FCF7EC" transform="translate(39,187)"/>
<path d="M0 0 C-0.33 0.66 -0.66 1.32 -1 2 C-2.093125 1.95875 -3.18625 1.9175 -4.3125 1.875 C-8.08892229 1.67925334 -8.08892229 1.67925334 -11 4 C-11.33 3.34 -11.66 2.68 -12 2 C-11 0 -11 0 -9.375 -0.6875 C-6.12574921 -1.115033 -3.21226196 -0.55596842 0 0 Z " fill="#5C4A36" transform="translate(157,102)"/>
<path d="M0 0 C0.99 0 1.98 0 3 0 C3.66 2.97 4.32 5.94 5 9 C3.35 9.33 1.7 9.66 0 10 C0.66 9.34 1.32 8.68 2 8 C1.67 7.01 1.34 6.02 1 5 C1.33 4.34 1.66 3.68 2 3 C1.34 3 0.68 3 0 3 C0 2.01 0 1.02 0 0 Z " fill="#E6D6C4" transform="translate(116,193)"/>
<path d="M0 0 C-0.99 0.495 -0.99 0.495 -2 1 C-2 2.32 -2 3.64 -2 5 C-1.34 5.33 -0.68 5.66 0 6 C-1.65 6 -3.3 6 -5 6 C-5 5.34 -5 4.68 -5 4 C-5.66 3.67 -6.32 3.34 -7 3 C-7 2.34 -7 1.68 -7 1 C-4.53721199 -0.231394 -2.7204945 -0.07159196 0 0 Z " fill="#E6D6C4" transform="translate(105,194)"/>
<path d="M0 0 C0.99 0 1.98 0 3 0 C3.33 1.32 3.66 2.64 4 4 C2.68 4.33 1.36 4.66 0 5 C-0.33 6.32 -0.66 7.64 -1 9 C-1.66 7.02 -2.32 5.04 -3 3 C-2.01 3 -1.02 3 0 3 C0 2.01 0 1.02 0 0 Z " fill="#FCF6EC" transform="translate(25,171)"/>
<path d="M0 0 C0.66 1.32 1.32 2.64 2 4 C-1 6 -1 6 -3.1875 5.625 C-3.785625 5.41875 -4.38375 5.2125 -5 5 C-5.33 3.68 -5.66 2.36 -6 1 C-5.01 1 -4.02 1 -3 1 C-3 1.66 -3 2.32 -3 3 C-2.34 3 -1.68 3 -1 3 C-0.67 2.01 -0.34 1.02 0 0 Z " fill="#E6D6C5" transform="translate(70,189)"/>
<path d="M0 0 C3.63 0.66 7.26 1.32 11 2 C11 2.66 11 3.32 11 4 C11.66 4.33 12.32 4.66 13 5 C11.20601116 4.74500159 9.41479125 4.47046186 7.625 4.1875 C6.62726563 4.03667969 5.62953125 3.88585937 4.6015625 3.73046875 C2 3 2 3 0 0 Z " fill="#FBF9F4" transform="translate(100,137)"/>
<path d="M0 0 C2.475 0.495 2.475 0.495 5 1 C4.67 2.65 4.34 4.3 4 6 C3.67 5.34 3.34 4.68 3 4 C2.01 4 1.02 4 0 4 C0 2.68 0 1.36 0 0 Z M1 5 C1.66 5.66 2.32 6.32 3 7 C2.01 7 1.02 7 0 7 C0.33 6.34 0.66 5.68 1 5 Z " fill="#F6EEDF" transform="translate(197,71)"/>
<path d="M0 0 C0 1.32 0 2.64 0 4 C-2.31 4.33 -4.62 4.66 -7 5 C-7.33 4.01 -7.66 3.02 -8 2 C-2.25 0 -2.25 0 0 0 Z " fill="#E8D8C6" transform="translate(101,189)"/>
<path d="M0 0 C0.66 0.33 1.32 0.66 2 1 C2 1.66 2 2.32 2 3 C1.01 3.495 1.01 3.495 0 4 C0.33 4.66 0.66 5.32 1 6 C-0.98 6.66 -2.96 7.32 -5 8 C-4.34 6.02 -3.68 4.04 -3 2 C-2.01 2 -1.02 2 0 2 C0 1.34 0 0.68 0 0 Z " fill="#F2E7D7" transform="translate(82,187)"/>
<path d="M0 0 C0.66 0 1.32 0 2 0 C2.33 0.66 2.66 1.32 3 2 C3.33 1.34 3.66 0.68 4 0 C4.66 0 5.32 0 6 0 C6 1.65 6 3.3 6 5 C4.35 4.67 2.7 4.34 1 4 C0.67 2.68 0.34 1.36 0 0 Z " fill="#F2E6D7" transform="translate(183,63)"/>
<path d="M0 0 C0.99 0.33 1.98 0.66 3 1 C2.01 1.495 2.01 1.495 1 2 C1.33 3.65 1.66 5.3 2 7 C0.68 7 -0.64 7 -2 7 C-1.125 2.25 -1.125 2.25 0 0 Z " fill="#EFE2D1" transform="translate(99,202)"/>
<path d="M0 0 C0.721875 0.350625 1.44375 0.70125 2.1875 1.0625 C5.3122705 2.10409017 6.88161996 1.89096572 10 1 C9.01 2.485 9.01 2.485 8 4 C4.375 4.1875 4.375 4.1875 1 4 C0.67 2.68 0.34 1.36 0 0 Z " fill="#7D6A54" transform="translate(70,106)"/>
<path d="M0 0 C1.65 0 3.3 0 5 0 C4.67 1.65 4.34 3.3 4 5 C2.35 5 0.7 5 -1 5 C-0.67 3.35 -0.34 1.7 0 0 Z " fill="#FDFAEF" transform="translate(115,8)"/>
<path d="M0 0 C2.625 -0.1875 2.625 -0.1875 5 0 C4.67 1.65 4.34 3.3 4 5 C2.02 4.34 0.04 3.68 -2 3 C-1.34 2.01 -0.68 1.02 0 0 Z " fill="#67523D" transform="translate(128,133)"/>
<path d="M0 0 C2.8992226 0.46761655 3.86675182 0.86675182 6 3 C4.02 3.66 2.04 4.32 0 5 C0.33 4.01 0.66 3.02 1 2 C0.34 1.67 -0.32 1.34 -1 1 C-0.67 0.67 -0.34 0.34 0 0 Z " fill="#F0E3D2" transform="translate(103,187)"/>
<path d="M0 0 C0.66 0.66 1.32 1.32 2 2 C1.67 2.66 1.34 3.32 1 4 C1.66 4.33 2.32 4.66 3 5 C1.02 5.66 -0.96 6.32 -3 7 C-1.125 1.125 -1.125 1.125 0 0 Z " fill="#F2E5D5" transform="translate(199,126)"/>
<path d="M0 0 C1.32 0.33 2.64 0.66 4 1 C4 1.66 4 2.32 4 3 C0.53846154 6 0.53846154 6 -2 6 C-1.34 4.02 -0.68 2.04 0 0 Z " fill="#F0E5D4" transform="translate(14,113)"/>
<path d="M0 0 C0.66 0 1.32 0 2 0 C1.67 1.65 1.34 3.3 1 5 C-0.98 5.66 -2.96 6.32 -5 7 C-5 5 -5 5 -3.625 3.375 C-2 2 -2 2 0 2 C0 1.34 0 0.68 0 0 Z " fill="#FBF9F1" transform="translate(158,102)"/>
<path d="M0 0 C0.66 0.99 1.32 1.98 2 3 C1.125 6.1875 1.125 6.1875 0 9 C-0.66 9 -1.32 9 -2 9 C-1.34 7.02 -0.68 5.04 0 3 C-0.66 2.67 -1.32 2.34 -2 2 C-1.34 1.34 -0.68 0.68 0 0 Z " fill="#F1E5D4" transform="translate(126,201)"/>
<path d="M0 0 C1.32 0.66 2.64 1.32 4 2 C3.01 2 2.02 2 1 2 C1 3.65 1 5.3 1 7 C0.01 7.495 0.01 7.495 -1 8 C-1.625 5.6875 -1.625 5.6875 -2 3 C-1.34 2.01 -0.68 1.02 0 0 Z " fill="#E8D9C7" transform="translate(60,186)"/>
<path d="M0 0 C0.99 0 1.98 0 3 0 C3 1.32 3 2.64 3 4 C1.02 4.66 -0.96 5.32 -3 6 C-3 5.01 -3 4.02 -3 3 C-1.68 2.67 -0.36 2.34 1 2 C0.67 1.34 0.34 0.68 0 0 Z " fill="#53422F" transform="translate(77,103)"/>
<path d="M0 0 C1.32 0.33 2.64 0.66 4 1 C2.68 1.33 1.36 1.66 0 2 C0 1.34 0 0.68 0 0 Z " fill="#FFFFEF" transform="translate(146,11)"/>
<path d="M0 0 C0.66 0.66 1.32 1.32 2 2 C0.68 1.67 -0.64 1.34 -2 1 C-1.34 0.67 -0.68 0.34 0 0 Z " fill="#FFFFFF" transform="translate(128,215)"/>
<path d="M0 0 C0.66 0.99 1.32 1.98 2 3 C1.01 2.67 0.02 2.34 -1 2 C-0.67 1.34 -0.34 0.68 0 0 Z " fill="#FFFFFF" transform="translate(18,51)"/>
<path d="M0 0 C0.66 0 1.32 0 2 0 C1.67 0.66 1.34 1.32 1 2 C0.67 1.34 0.34 0.68 0 0 Z " fill="#FFFFFF" transform="translate(103,217)"/>
<path d="M0 0 C0.99 0.495 0.99 0.495 2 1 C1.01 1.495 1.01 1.495 0 2 C0 1.34 0 0.68 0 0 Z " fill="#FFFFFF" transform="translate(174,199)"/>
<path d="M0 0 C0.99 0.495 0.99 0.495 2 1 C1.01 1.495 1.01 1.495 0 2 C0 1.34 0 0.68 0 0 Z " fill="#FFFFEE" transform="translate(207,163)"/>
<path d="" fill="#FFFFFF" transform="translate(0,0)"/>
<path d="" fill="#FFFFFF" transform="translate(0,0)"/>
<path d="M0 0 C2 1 2 1 2 1 Z " fill="#FFFFFF" transform="translate(87,214)"/>
<path d="" fill="#FFFFFF" transform="translate(0,0)"/>
<path d="M0 0 C2 1 2 1 2 1 Z " fill="#FFFFFF" transform="translate(205,169)"/>
<path d="" fill="#FFFFFF" transform="translate(0,0)"/>
<path d="" fill="#FFFFFF" transform="translate(0,0)"/>
<path d="M0 0 C2 1 2 1 2 1 Z " fill="#FFFFFF" transform="translate(195,49)"/>
<path d="M0 0 C2 1 2 1 2 1 Z " fill="#FFFFFF" transform="translate(189,38)"/>
<path d="M0 0 C2 1 2 1 2 1 Z " fill="#FFFFFF" transform="translate(180,30)"/>
<path d="M0 0 C2 1 2 1 2 1 Z " fill="#FFFFFF" transform="translate(46,21)"/>
<path d="" fill="#FFFFFF" transform="translate(0,0)"/>
<path d="M0 0 C2 1 2 1 2 1 Z " fill="#FFFFFF" transform="translate(103,3)"/>
<path d="" fill="#FFFFFF" transform="translate(0,0)"/>
<path d="" fill="#FFFFFF" transform="translate(0,0)"/>
<path d="" fill="#FFFFFF" transform="translate(0,0)"/>
<path d="" fill="#FFFFFF" transform="translate(0,0)"/>
<path d="" fill="#FFFFFF" transform="translate(0,0)"/>
<path d="" fill="#FFFFFF" transform="translate(0,0)"/>
<path d="" fill="#FFFFFF" transform="translate(0,0)"/>
<path d="" fill="#FFFFFF" transform="translate(0,0)"/>
<path d="" fill="#FFFFFF" transform="translate(0,0)"/>
<path d="" fill="#FFFFFF" transform="translate(0,0)"/>
<path d="" fill="#FFFFFF" transform="translate(0,0)"/>
<path d="" fill="#FFFFFF" transform="translate(0,0)"/>
<path d="" fill="#FFFFFF" transform="translate(0,0)"/>
<path d="" fill="#FFFFFF" transform="translate(0,0)"/>
<path d="" fill="#FFFFFF" transform="translate(0,0)"/>
<path d="" fill="#FFFFBF" transform="translate(0,0)"/>
<path d="" fill="#FFFFFF" transform="translate(0,0)"/>
<path d="" fill="#FFFFFF" transform="translate(0,0)"/>
<path d="" fill="#FFFFFF" transform="translate(0,0)"/>
<path d="" fill="#FFFFFF" transform="translate(0,0)"/>
<path d="" fill="#FFFFFF" transform="translate(0,0)"/>
<path d="" fill="#FFFFFF" transform="translate(0,0)"/>
<path d="" fill="#FFFFFF" transform="translate(0,0)"/>
<path d="" fill="#FFFFFF" transform="translate(0,0)"/>
<path d="" fill="#FFFFFF" transform="translate(0,0)"/>
<path d="" fill="#FFFFFF" transform="translate(0,0)"/>
<path d="" fill="#FFFFFF" transform="translate(0,0)"/>
<path d="" fill="#FFFFFF" transform="translate(0,0)"/>
<path d="" fill="#FFFFFF" transform="translate(0,0)"/>
<path d="" fill="#FFFFFF" transform="translate(0,0)"/>
<path d="" fill="#FFFFFF" transform="translate(0,0)"/>
<path d="" fill="#FFFFFF" transform="translate(0,0)"/>
<path d="" fill="#FFFFFF" transform="translate(0,0)"/>
<path d="" fill="#FFFFFF" transform="translate(0,0)"/>
<path d="" fill="#FFFFFF" transform="translate(0,0)"/>
<path d="" fill="#FFFFFF" transform="translate(0,0)"/>
<path d="" fill="#FFFFFF" transform="translate(0,0)"/>
<path d="" fill="#FFFFFF" transform="translate(0,0)"/>
<path d="" fill="#FFFFFF" transform="translate(0,0)"/>
<path d="" fill="#FFFFFF" transform="translate(0,0)"/>
<path d="" fill="#FFFFFF" transform="translate(0,0)"/>
<path d="" fill="#FFFFFF" transform="translate(0,0)"/>
<path d="" fill="#FFFFFF" transform="translate(0,0)"/>
<path d="" fill="#FFFFFF" transform="translate(0,0)"/>
<path d="" fill="#FFFFFF" transform="translate(0,0)"/>
<path d="" fill="#FFFFFF" transform="translate(0,0)"/>
<path d="" fill="#FFFFFF" transform="translate(0,0)"/>
<path d="" fill="#FFFFFF" transform="translate(0,0)"/>
<path d="" fill="#FFFFFF" transform="translate(0,0)"/>
<path d="" fill="#FFFFFF" transform="translate(0,0)"/>
<path d="" fill="#FFFFFF" transform="translate(0,0)"/>
<path d="" fill="#FFFFFF" transform="translate(0,0)"/>
<path d="" fill="#FFFFFF" transform="translate(0,0)"/>
<path d="" fill="#FFFFFF" transform="translate(0,0)"/>
<path d="" fill="#FFFFFF" transform="translate(0,0)"/>
<path d="" fill="#FFFFFF" transform="translate(0,0)"/>
<path d="" fill="#FFFFFF" transform="translate(0,0)"/>
</svg>
