<?xml version="1.0" encoding="UTF-8"?>
<svg version="1.1" xmlns="http://www.w3.org/2000/svg" width="220" height="220">
<path d="M0 0 C2.03279786 0 4.06493472 -0.01760789 6.09765625 -0.03515625 C7.75260302 -0.04447614 9.40755101 -0.05358188 11.0625 -0.0625 C11.90361328 -0.07087891 12.74472656 -0.07925781 13.61132812 -0.08789062 C15.74106964 -0.09647137 17.87088693 -0.05244121 20 0 C20.495 0.495 20.495 0.495 21 1 C21.99 1 22.98 1 24 1 C24.495 1.99 24.495 1.99 25 3 C25.556875 2.608125 26.11375 2.21625 26.6875 1.8125 C29 1 29 1 31.75 2.25 C32.4925 2.8275 33.235 3.405 34 4 C34 4.66 34 5.32 34 6 C34.99 6 35.98 6 37 6 C37.33 5.34 37.66 4.68 38 4 C38 4.66 38 5.32 38 6 C38.75925781 6.13277344 39.51851562 6.26554688 40.30078125 6.40234375 C41.29464844 6.57894531 42.28851563 6.75554688 43.3125 6.9375 C44.29863281 7.11152344 45.28476563 7.28554687 46.30078125 7.46484375 C50.05760443 8.20968424 53.46169788 9.56555319 57 11 C57 11.66 57 12.32 57 13 C57.556875 13.12375 58.11375 13.2475 58.6875 13.375 C61.2261135 14.06111176 63.56277496 15.01350415 66 16 C67.99620166 16.67795528 69.99538701 17.34733531 72 18 C72 19.98 72 21.96 72 24 C72.804375 24.12375 73.60875 24.2475 74.4375 24.375 C75.283125 24.58125 76.12875 24.7875 77 25 C77.33 25.66 77.66 26.32 78 27 C78.99 26.505 78.99 26.505 80 26 C80.99 28.475 80.99 28.475 82 31 C82.66 31 83.32 31 84 31 C86.10358996 32.84064121 87.71650115 34.37225254 88.875 36.9375 C90.0813139 39.14907549 91.16118561 40.02999064 93.125 41.5625 C94.07375 42.366875 95.0225 43.17125 96 44 C96 44.99 96 45.98 96 47 C97.65 47.66 99.3 48.32 101 49 C100.01 49.495 100.01 49.495 99 50 C99.99 50 100.98 50 102 50 C102.66 50 103.32 50 104 50 C103.98259766 50.92232422 103.98259766 50.92232422 103.96484375 51.86328125 C103.95582031 52.67152344 103.94679687 53.47976562 103.9375 54.3125 C103.92009766 55.51326172 103.92009766 55.51326172 103.90234375 56.73828125 C103.90342145 59.16861334 103.90342145 59.16861334 105 62 C104.67 62.66 104.34 63.32 104 64 C105.65 64.33 107.3 64.66 109 65 C109.66 66.98 110.32 68.96 111 71 C111.33 70.34 111.66 69.68 112 69 C114.11161731 78.41002278 114.11161731 78.41002278 115 83 C115.99 83.33 116.98 83.66 118 84 C118 86.33333333 118 88.66666667 118 91 C117.34 91 116.68 91 116 91 C116.53625 91.7425 117.0725 92.485 117.625 93.25 C118.07875 94.1575 118.5325 95.065 119 96 C118.67 96.639375 118.34 97.27875 118 97.9375 C117.67 98.618125 117.34 99.29875 117 100 C118.28322447 103.23394361 118.28322447 103.23394361 120 106 C119.01 106 118.02 106 117 106 C117 106.66 117 107.32 117 108 C117.66 108.33 118.32 108.66 119 109 C118.34 109 117.68 109 117 109 C117 109.99 117 110.98 117 112 C117.66 112.66 118.32 113.32 119 114 C118.34 114.66 117.68 115.32 117 116 C117.2602896 118.34260643 117.59952556 120.67724823 118 123 C118 124.32 118 125.64 118 127 C117.34 127 116.68 127 116 127 C116.57344937 129.86724686 116.8614515 130.8614515 119 133 C117.68 133 116.36 133 115 133 C113.65155132 138.6556294 112.63065155 144.2190275 112 150 C111.34 150 110.68 150 110 150 C110 150.66 110 151.32 110 152 C109.525625 152.433125 109.05125 152.86625 108.5625 153.3125 C106.58616914 155.44693733 106.38336764 157.16307947 106 160 C105.34 160 104.68 160 104 160 C103.20046862 163.28696233 102.90341064 164.71023192 104 168 C102.35 168 100.7 168 99 168 C99 168.66 99 169.32 99 170 C98.34 170 97.68 170 97 170 C96.67 172.64 96.34 175.28 96 178 C95.05125 178.103125 94.1025 178.20625 93.125 178.3125 C89.70892499 178.68539295 89.70892499 178.68539295 88 182 C86.46374902 183.53625098 84.78011916 184.75931089 83 186 C82.34 186 81.68 186 81 186 C81 186.66 81 187.32 81 188 C78.79608787 190.20391213 76.95193881 191.7760144 73.875 192.5 C73.25625 192.665 72.6375 192.83 72 193 C71.67 193.66 71.34 194.32 71 195 C67.38249819 198.41078742 64.86993938 199.35067475 60 200 C59.34 200.66 58.68 201.32 58 202 C57.34 202.33 56.68 202.66 56 203 C55.34444881 205.52733235 55.34444881 205.52733235 55 208 C54.34 208 53.68 208 53 208 C53 206.68 53 205.36 53 204 C52.44828125 204.32742187 51.8965625 204.65484375 51.328125 204.9921875 C48.61219077 206.16787715 46.69448241 206.20248638 43.75 206.125 C42.85796875 206.10695312 41.9659375 206.08890625 41.046875 206.0703125 C40.37140625 206.04710937 39.6959375 206.02390625 39 206 C39 206.66 39 207.32 39 208 C33.61053939 208.917355 28.45972465 209.09522776 23 209 C20.54675201 209 18.35719594 209.18381469 15.9375 209.5 C3.70447625 210.90149208 3.70447625 210.90149208 -2 209 C-3.92259033 209.09805226 -3.92259033 209.09805226 -6 209.4375 C-14.74369198 210.49130001 -21.58007254 211.27639286 -29 206 C-29.66 206.66 -30.32 207.32 -31 208 C-31 207.34 -31 206.68 -31 206 C-31.66 206 -32.32 206 -33 206 C-33 206.66 -33 207.32 -33 208 C-33.66 208 -34.32 208 -35 208 C-35 207.01 -35 206.02 -35 205 C-35.99 205 -36.98 205 -38 205 C-38.33 205.66 -38.66 206.32 -39 207 C-39.99 206.01 -40.98 205.02 -42 204 C-42.33 204.66 -42.66 205.32 -43 206 C-43.66 204.35 -44.32 202.7 -45 201 C-45 201.99 -45 202.98 -45 204 C-45.99 203.67 -46.98 203.34 -48 203 C-48.309375 202.34 -48.61875 201.68 -48.9375 201 C-49.8084159 198.81142334 -49.8084159 198.81142334 -52 198.3125 C-52.66 198.209375 -53.32 198.10625 -54 198 C-54.66 197.67 -55.32 197.34 -56 197 C-56 197.99 -56 198.98 -56 200 C-58 199 -58 199 -59.4375 196.9375 C-59.953125 196.298125 -60.46875 195.65875 -61 195 C-61.99 195 -62.98 195 -64 195 C-64.1546875 194.071875 -64.1546875 194.071875 -64.3125 193.125 C-64.87525373 190.63473516 -64.87525373 190.63473516 -68 189 C-68 188.01 -68 187.02 -68 186 C-68.66 186 -69.32 186 -70 186 C-70 186.66 -70 187.32 -70 188 C-70.66 187.67 -71.32 187.34 -72 187 C-71.67 186.34 -71.34 185.68 -71 185 C-71.66 185 -72.32 185 -73 185 C-73 183.68 -73 182.36 -73 181 C-73.99 181.33 -74.98 181.66 -76 182 C-76 180.68 -76 179.36 -76 178 C-76.66 178 -77.32 178 -78 178 C-78 177.01 -78 176.02 -78 175 C-78.66 175 -79.32 175 -80 175 C-81.98 171.535 -81.98 171.535 -84 168 C-84.66 168 -85.32 168 -86 168 C-87.625 165.375 -87.625 165.375 -89 162 C-88.1875 158.625 -88.1875 158.625 -87 156 C-87.66 155.67 -88.32 155.34 -89 155 C-88.505 154.01 -88.505 154.01 -88 153 C-88.66 152.67 -89.32 152.34 -90 152 C-90 151.67 -90 151.34 -90 151 C-90.66 150.67 -91.32 150.34 -92 150 C-91.67 149.01 -91.34 148.02 -91 147 C-91.87914688 144.3430809 -91.87914688 144.3430809 -93 142 C-93.66 142 -94.32 142 -95 142 C-94.34 140.02 -93.68 138.04 -93 136 C-93.99 136 -94.98 136 -96 136 C-96.09765625 129.84765625 -96.09765625 129.84765625 -96 128 C-95.505 127.505 -95.505 127.505 -95 127 C-95.42089145 124.61887285 -95.89675726 122.29145668 -96.4375 119.9375 C-96.58509766 119.27427734 -96.73269531 118.61105469 -96.88476562 117.92773438 C-97.25135435 116.28399784 -97.62502412 114.64184353 -98 113 C-97.34 113 -96.68 113 -96 113 C-96.33 112.01 -96.66 111.02 -97 110 C-97.09416778 107.98093192 -97.12991192 105.95875687 -97.125 103.9375 C-97.12757812 102.87402344 -97.13015625 101.81054688 -97.1328125 100.71484375 C-97 98 -97 98 -96 96 C-96.66 95.67 -97.32 95.34 -98 95 C-97.34 95 -96.68 95 -96 95 C-96.020625 93.72125 -96.04125 92.4425 -96.0625 91.125 C-96.125 87.25 -96.125 87.25 -95 85 C-95.28112064 82.99199544 -95.61067967 80.98985949 -96 79 C-95.01 78.505 -95.01 78.505 -94 78 C-94.061875 77.21625 -94.12375 76.4325 -94.1875 75.625 C-94.125625 74.75875 -94.06375 73.8925 -94 73 C-92.515 72.01 -92.515 72.01 -91 71 C-90.05793434 69.05958678 -90.05793434 69.05958678 -89.4375 66.8125 C-89.18742187 66.01070313 -88.93734375 65.20890625 -88.6796875 64.3828125 C-88.09423857 62.33037659 -87.57214588 60.26005993 -87.0625 58.1875 C-85.91008389 54.73025166 -84.70142929 53.36375063 -82 51 C-81.34 50.01 -80.68 49.02 -80 48 C-79.34 48 -78.68 48 -78 48 C-78 46.35 -78 44.7 -78 43 C-77.01 43 -76.02 43 -75 43 C-74.82984375 42.36191406 -74.6596875 41.72382812 -74.484375 41.06640625 C-74.24203125 40.24011719 -73.9996875 39.41382813 -73.75 38.5625 C-73.51796875 37.73878906 -73.2859375 36.91507813 -73.046875 36.06640625 C-72 34 -72 34 -70.0234375 33.33984375 C-69.35570313 33.22769531 -68.68796875 33.11554687 -68 33 C-66.62689293 31.70766393 -65.28965176 30.37562854 -64 29 C-63.34 28.67 -62.68 28.34 -62 28 C-62 27.01 -62 26.02 -62 25 C-62.66 24.67 -63.32 24.34 -64 24 C-60.92382812 23.70703125 -60.92382812 23.70703125 -57.84765625 23.4140625 C-57.23792969 23.27742188 -56.62820312 23.14078125 -56 23 C-55.67 22.34 -55.34 21.68 -55 21 C-52.78473528 19.91001915 -50.51659446 19.01889061 -48.2265625 18.09765625 C-45.93843149 16.96964781 -44.60691281 15.96674299 -43 14 C-42.67 13.01 -42.34 12.02 -42 11 C-41.34 11 -40.68 11 -40 11 C-40 11.66 -40 12.32 -40 13 C-39.34 13 -38.68 13 -38 13 C-37.67 12.34 -37.34 11.68 -37 11 C-37.495 10.505 -37.495 10.505 -38 10 C-31.61078435 5.7405229 -22.65956606 4.06382972 -15 4 C-14.01 4.33 -13.02 4.66 -12 5 C-11.67 4.34 -11.34 3.68 -11 3 C-8.2586162 -1.19270463 -4.53535751 -0.21596941 0 0 Z M3 1 C4 3 4 3 4 3 Z M6 1 C5.67 1.99 5.34 2.98 5 4 C5.99 3.67 6.98 3.34 8 3 C7.34 2.34 6.68 1.68 6 1 Z M-5 2 C-1 3 -1 3 -1 3 Z M1 2 C2 4 2 4 2 4 Z M-35 9 C-34 11 -34 11 -34 11 Z M-68 34 C-67 36 -67 36 -67 36 Z M-95 80 C-94 82 -94 82 -94 82 Z M-87 161 C-86 163 -86 163 -86 163 Z M-23 207 C-19 208 -19 208 -19 208 Z " fill="#FAF1E4" transform="translate(99,7)"/>
<path d="M0 0 C1.32 0 2.64 0 4 0 C4.22084624 6.09781001 4.01167675 11.21642935 2 17 C2.66 17 3.32 17 4 17 C4 17.66 4 18.32 4 19 C3.34 19 2.68 19 2 19 C2 20.65 2 22.3 2 24 C1.34 24 0.68 24 0 24 C-0.185625 25.7015625 -0.185625 25.7015625 -0.375 27.4375 C-0.58125 28.613125 -0.7875 29.78875 -1 31 C-1.66 31.33 -2.32 31.66 -3 32 C-6.21325625 36.28434167 -7.04569761 40.84676711 -8 46 C-8.99 46 -9.98 46 -11 46 C-11.144375 46.61875 -11.28875 47.2375 -11.4375 47.875 C-12 50 -12 50 -13 52 C-13.804375 52.28875 -14.60875 52.5775 -15.4375 52.875 C-18.13212393 53.70912248 -18.13212393 53.70912248 -18.80859375 55.8984375 C-20.49540843 58.87386799 -22.51175892 59.4467828 -25.625 60.75 C-26.62789063 61.17796875 -27.63078125 61.6059375 -28.6640625 62.046875 C-29.43492187 62.36140625 -30.20578125 62.6759375 -31 63 C-31 61.02 -31 59.04 -31 57 C-31.66 57 -32.32 57 -33 57 C-32.505 60.465 -32.505 60.465 -32 64 C-32.66 64 -33.32 64 -34 64 C-34 64.66 -34 65.32 -34 66 C-35.65 66.33 -37.3 66.66 -39 67 C-39 67.99 -39 68.98 -39 70 C-41.31 69.67 -43.62 69.34 -46 69 C-46 69.66 -46 70.32 -46 71 C-45.01 71 -44.02 71 -43 71 C-43.495 72.485 -43.495 72.485 -44 74 C-45.98 73.505 -45.98 73.505 -48 73 C-47.67 74.32 -47.34 75.64 -47 77 C-47.969375 76.79375 -48.93875 76.5875 -49.9375 76.375 C-54.52772745 75.68834712 -58.58126458 76.78760321 -63 78 C-63 76.68 -63 75.36 -63 74 C-63.66 74 -64.32 74 -65 74 C-67.74375671 76.95481492 -68 77.77471908 -68 82 C-68.66 82 -69.32 82 -70 82 C-70 81.01 -70 80.02 -70 79 C-70.66 79 -71.32 79 -72 79 C-72.495 80.485 -72.495 80.485 -73 82 C-73.433125 81.525625 -73.86625 81.05125 -74.3125 80.5625 C-76.02309613 78.76313043 -76.02309613 78.76313043 -79 78 C-79 79.65 -79 81.3 -79 83 C-80.485 82.505 -80.485 82.505 -82 82 C-82.33 81.01 -82.66 80.02 -83 79 C-83.391875 79.639375 -83.78375 80.27875 -84.1875 80.9375 C-86.38472296 83.43778819 -87.75791433 83.64950425 -91 84 C-91.33 83.01 -91.66 82.02 -92 81 C-92.66 81 -93.32 81 -94 81 C-93.67 81.99 -93.34 82.98 -93 84 C-94.32 84 -95.64 84 -97 84 C-97 83.34 -97 82.68 -97 82 C-97.7425 82.2165625 -97.7425 82.2165625 -98.5 82.4375 C-104.34552536 83.75274321 -110.03705552 84.12422801 -116 84 C-116 83.34 -116 82.68 -116 82 C-116.66 82 -117.32 82 -118 82 C-117.67 83.98 -117.34 85.96 -117 88 C-117.66 88 -118.32 88 -119 88 C-119.495 87.01 -119.495 87.01 -120 86 C-121.32 86 -122.64 86 -124 86 C-124.495 85.01 -124.495 85.01 -125 84 C-126.65 84 -128.3 84 -130 84 C-129.505 82.515 -129.505 82.515 -129 81 C-129.66 81 -130.32 81 -131 81 C-131 81.66 -131 82.32 -131 83 C-132.485 82.505 -132.485 82.505 -134 82 C-134 81.34 -134 80.68 -134 80 C-134.66 80 -135.32 80 -136 80 C-136.33 81.32 -136.66 82.64 -137 84 C-137 83.34 -137 82.68 -137 82 C-137.66 82 -138.32 82 -139 82 C-138.67 80.02 -138.34 78.04 -138 76 C-139.65 76.99 -141.3 77.98 -143 79 C-143 78.34 -143 77.68 -143 77 C-143.66 76.67 -144.32 76.34 -145 76 C-145 77.65 -145 79.3 -145 81 C-145.33 80.01 -145.66 79.02 -146 78 C-146.66 78 -147.32 78 -148 78 C-147.67 76.68 -147.34 75.36 -147 74 C-146.34 74 -145.68 74 -145 74 C-144.67 73.01 -144.34 72.02 -144 71 C-144.66 70.67 -145.32 70.34 -146 70 C-146 69.34 -146 68.68 -146 68 C-141.73067018 67.02969777 -139.811881 66.9669968 -136 69 C-133.80252869 68.70194993 -133.80252869 68.70194993 -132 68 C-132.33 68.99 -132.66 69.98 -133 71 C-131.02 70.505 -131.02 70.505 -129 70 C-129.66 69.67 -130.32 69.34 -131 69 C-129.68 68.01 -128.36 67.02 -127 66 C-126.34 66.33 -125.68 66.66 -125 67 C-122.3534665 67 -120.4191837 66.01860366 -118 65 C-118 66.98 -118 68.96 -118 71 C-116.515 71.495 -116.515 71.495 -115 72 C-114.3125 74.0625 -114.3125 74.0625 -114 76 C-112.08404032 76.08133791 -110.16708068 76.13934367 -108.25 76.1875 C-107.18265625 76.22230469 -106.1153125 76.25710937 -105.015625 76.29296875 C-101.68511459 75.9694088 -100.34242876 75.34811426 -98 73 C-98 72.34 -98 71.68 -98 71 C-95.36 70.67 -92.72 70.34 -90 70 C-90 68.68 -90 67.36 -90 66 C-89.34 66 -88.68 66 -88 66 C-87.89042969 66.56589844 -87.78085938 67.13179688 -87.66796875 67.71484375 C-87.50941406 68.44832031 -87.35085937 69.18179688 -87.1875 69.9375 C-87.03667969 70.66839844 -86.88585937 71.39929688 -86.73046875 72.15234375 C-86.48941406 72.76207031 -86.24835938 73.37179688 -86 74 C-85.01 74.33 -84.02 74.66 -83 75 C-83 74.34 -83 73.68 -83 73 C-82.175 72.525625 -81.35 72.05125 -80.5 71.5625 C-79.2625 70.7890625 -79.2625 70.7890625 -78 70 C-78 69.01 -78 68.02 -78 67 C-76.35 67.33 -74.7 67.66 -73 68 C-73 68.99 -73 69.98 -73 71 C-72.34 70.34 -71.68 69.68 -71 69 C-66.53125 66.82291667 -66.53125 66.82291667 -63 68 C-62.67 68.99 -62.34 69.98 -62 71 C-58.70924004 70.62095792 -58.70924004 70.62095792 -56 69 C-55.01 68.34 -54.02 67.68 -53 67 C-53.66 65.35 -54.32 63.7 -55 62 C-53.68 61.01 -52.36 60.02 -51 59 C-50.34 59.33 -49.68 59.66 -49 60 C-49 58.68 -49 57.36 -49 56 C-44.92857143 53 -44.92857143 53 -42 53 C-42 53.66 -42 54.32 -42 55 C-40.6696875 54.319375 -40.6696875 54.319375 -39.3125 53.625 C-36.57068159 52.27995701 -33.84975669 51.08961285 -31 50 C-31 50.99 -31 51.98 -31 53 C-30.01 52.67 -29.02 52.34 -28 52 C-28 52.66 -28 53.32 -28 54 C-25.27048977 53.62351583 -24.23414335 53.28097201 -22.4375 51.125 C-21.963125 50.42375 -21.48875 49.7225 -21 49 C-19.4375 47.25 -19.4375 47.25 -18 46 C-17.34 46 -16.68 46 -16 46 C-16.20625 45.05125 -16.4125 44.1025 -16.625 43.125 C-16.74875 42.09375 -16.8725 41.0625 -17 40 C-16.01 39.01 -16.01 39.01 -15 38 C-15.37125 37.443125 -15.7425 36.88625 -16.125 36.3125 C-17 34 -17 34 -16.1875 31.5 C-15.795625 30.675 -15.40375 29.85 -15 29 C-14.855625 28.2575 -14.71125 27.515 -14.5625 26.75 C-14.376875 26.1725 -14.19125 25.595 -14 25 C-13.01 24.67 -12.02 24.34 -11 24 C-9.77554716 22.37051936 -9.77554716 22.37051936 -8.8125 20.4375 C-8.214375 19.303125 -7.61625 18.16875 -7 17 C-6.34 17 -5.68 17 -5 17 C-3.69523918 12.84107487 -2.87918115 9.34947869 -3 5 C-2.67 4.01 -2.34 3.02 -2 2 C-1.34 2 -0.68 2 0 2 C0 1.34 0 0.68 0 0 Z M-13 36 C-13.33 36.66 -13.66 37.32 -14 38 C-13.34 38 -12.68 38 -12 38 C-12.33 37.34 -12.66 36.68 -13 36 Z M-139 70 C-139.33 70.66 -139.66 71.32 -140 72 C-139.34 72 -138.68 72 -138 72 C-138.33 71.34 -138.66 70.68 -139 70 Z " fill="#ECDECD" transform="translate(206,123)"/>
<path d="M0 0 C0.66 0 1.32 0 2 0 C2 0.66 2 1.32 2 2 C2.66 2 3.32 2 4 2 C4.33 1.34 4.66 0.68 5 0 C5.6875 1.8125 5.6875 1.8125 6 4 C4.5625 5.75 4.5625 5.75 3 7 C2.505 6.01 2.505 6.01 2 5 C1.65373409 8.00030058 1.65373409 8.00030058 3.5 9.5625 C3.995 10.036875 4.49 10.51125 5 11 C5 11.66 5 12.32 5 13 C-1.625 15 -1.625 15 -5 15 C-8.84838328 16.41107387 -11.25501018 19.02626103 -14 22 C-14 22.33 -14 22.66 -14 23 C-13.34 23.33 -12.68 23.66 -12 24 C-12.66 24.66 -13.32 25.32 -14 26 C-14.35015049 27.66321482 -14.68197057 29.33034549 -15 31 C-16.0625 33.3125 -16.0625 33.3125 -17 35 C-18.65 35 -20.3 35 -22 35 C-22.33 34.01 -22.66 33.02 -23 32 C-22.505 35.465 -22.505 35.465 -22 39 C-22.99 39.33 -23.98 39.66 -25 40 C-25.33 39.34 -25.66 38.68 -26 38 C-26.33 38.66 -26.66 39.32 -27 40 C-28.32 40 -29.64 40 -31 40 C-31.33 41.65 -31.66 43.3 -32 45 C-35.465 45.495 -35.465 45.495 -39 46 C-39.33 46.99 -39.66 47.98 -40 49 C-41.64639965 50.35827971 -43.31295807 51.69254251 -45 53 C-45.33 53.66 -45.66 54.32 -46 55 C-45.34 55 -44.68 55 -44 55 C-44 55.66 -44 56.32 -44 57 C-44.66 57 -45.32 57 -46 57 C-46 57.99 -46 58.98 -46 60 C-45.34 60.33 -44.68 60.66 -44 61 C-44 62.32 -44 63.64 -44 65 C-42.68 65.66 -41.36 66.32 -40 67 C-41.32 68.32 -42.64 69.64 -44 71 C-43.67 71.99 -43.34 72.98 -43 74 C-43.66 74 -44.32 74 -45 74 C-45 74.66 -45 75.32 -45 76 C-44.34 76 -43.68 76 -43 76 C-43.8125 78.4375 -43.8125 78.4375 -45 81 C-46.485 81.495 -46.485 81.495 -48 82 C-47.79375 82.99 -47.5875 83.98 -47.375 85 C-46.72137698 89.37837888 -47.74542211 92.79347412 -49 97 C-48.34 97 -47.68 97 -47 97 C-47.33 98.32 -47.66 99.64 -48 101 C-48.66 101 -49.32 101 -50 101 C-49.67 105.29 -49.34 109.58 -49 114 C-48.01 114.33 -47.02 114.66 -46 115 C-46.01160156 115.61488281 -46.02320313 116.22976562 -46.03515625 116.86328125 C-46.04417969 117.67152344 -46.05320312 118.47976562 -46.0625 119.3125 C-46.07410156 120.11300781 -46.08570313 120.91351563 -46.09765625 121.73828125 C-46.09657855 124.16861334 -46.09657855 124.16861334 -45 127 C-44.34 127 -43.68 127 -43 127 C-42.08867236 131.05463567 -41.68055886 135.04499492 -41.375 139.1875 C-41.27960937 140.41855469 -41.18421875 141.64960938 -41.0859375 142.91796875 C-41 146 -41 146 -42 148 C-41.34 148.33 -40.68 148.66 -40 149 C-40.66 149.33 -41.32 149.66 -42 150 C-42.99 149.67 -43.98 149.34 -45 149 C-44.2236068 152.0745356 -44.2236068 152.0745356 -42 154 C-42.33 154.99 -42.66 155.98 -43 157 C-45.12182819 154.41690482 -46.68297532 152.38159655 -47 149 C-46.0625 146.75 -46.0625 146.75 -45 145 C-45.66 144.67 -46.32 144.34 -47 144 C-46.505 143.01 -46.505 143.01 -46 142 C-46.66 141.67 -47.32 141.34 -48 141 C-48 140.67 -48 140.34 -48 140 C-48.66 139.67 -49.32 139.34 -50 139 C-49.67 138.01 -49.34 137.02 -49 136 C-49.87914688 133.3430809 -49.87914688 133.3430809 -51 131 C-51.66 131 -52.32 131 -53 131 C-52.34 129.02 -51.68 127.04 -51 125 C-51.99 125 -52.98 125 -54 125 C-54.09765625 118.84765625 -54.09765625 118.84765625 -54 117 C-53.505 116.505 -53.505 116.505 -53 116 C-53.42089145 113.61887285 -53.89675726 111.29145668 -54.4375 108.9375 C-54.58509766 108.27427734 -54.73269531 107.61105469 -54.88476562 106.92773438 C-55.25135435 105.28399784 -55.62502412 103.64184353 -56 102 C-55.34 102 -54.68 102 -54 102 C-54.33 101.01 -54.66 100.02 -55 99 C-55.09416778 96.98093192 -55.12991192 94.95875687 -55.125 92.9375 C-55.12757812 91.87402344 -55.13015625 90.81054688 -55.1328125 89.71484375 C-55 87 -55 87 -54 85 C-54.66 84.67 -55.32 84.34 -56 84 C-55.34 84 -54.68 84 -54 84 C-54.020625 82.72125 -54.04125 81.4425 -54.0625 80.125 C-54.125 76.25 -54.125 76.25 -53 74 C-53.28112064 71.99199544 -53.61067967 69.98985949 -54 68 C-53.01 67.505 -53.01 67.505 -52 67 C-52.061875 66.21625 -52.12375 65.4325 -52.1875 64.625 C-52.125625 63.75875 -52.06375 62.8925 -52 62 C-51.01 61.34 -50.02 60.68 -49 60 C-48.05793434 58.05958678 -48.05793434 58.05958678 -47.4375 55.8125 C-47.18742187 55.01070312 -46.93734375 54.20890625 -46.6796875 53.3828125 C-46.09423857 51.33037659 -45.57214588 49.26005993 -45.0625 47.1875 C-43.91008389 43.73025166 -42.70142929 42.36375063 -40 40 C-39.34 39.01 -38.68 38.02 -38 37 C-37.34 37 -36.68 37 -36 37 C-36 35.35 -36 33.7 -36 32 C-35.01 32 -34.02 32 -33 32 C-32.82984375 31.36191406 -32.6596875 30.72382812 -32.484375 30.06640625 C-32.12085938 28.82697266 -32.12085938 28.82697266 -31.75 27.5625 C-31.51796875 26.73878906 -31.2859375 25.91507813 -31.046875 25.06640625 C-30 23 -30 23 -28.0234375 22.33984375 C-27.35570313 22.22769531 -26.68796875 22.11554687 -26 22 C-24.62689293 20.70766393 -23.28965176 19.37562854 -22 18 C-21.34 17.67 -20.68 17.34 -20 17 C-20 16.01 -20 15.02 -20 14 C-20.66 13.67 -21.32 13.34 -22 13 C-18.92382812 12.70703125 -18.92382812 12.70703125 -15.84765625 12.4140625 C-15.23792969 12.27742188 -14.62820312 12.14078125 -14 12 C-13.67 11.34 -13.34 10.68 -13 10 C-10.78473528 8.91001915 -8.51659446 8.01889061 -6.2265625 7.09765625 C-3.93843149 5.96964781 -2.60691281 4.96674299 -1 3 C-0.67 2.01 -0.34 1.02 0 0 Z M-26 23 C-25 25 -25 25 -25 25 Z M-53 69 C-52 71 -52 71 -52 71 Z " fill="#FCF7EB" transform="translate(57,18)"/>
<path d="M0 0 C0 0.66 0 1.32 0 2 C-1.98 2.66 -3.96 3.32 -6 4 C-5.67 4.99 -5.34 5.98 -5 7 C-5 7.66 -5 8.32 -5 9 C-4.34 8.34 -3.68 7.68 -3 7 C-2.67 7.66 -2.34 8.32 -2 9 C-2.9375 11.125 -2.9375 11.125 -4 13 C-5.32 13 -6.64 13 -8 13 C-8 13.66 -8 14.32 -8 15 C-6.35 15 -4.7 15 -3 15 C-3.185625 15.804375 -3.37125 16.60875 -3.5625 17.4375 C-3.7790625 18.7059375 -3.7790625 18.7059375 -4 20 C-3.67 20.33 -3.34 20.66 -3 21 C-2.01 21 -1.02 21 0 21 C0.99 21 1.98 21 3 21 C3 22.65 3 24.3 3 26 C3.66 26.33 4.32 26.66 5 27 C4.67 27.66 4.34 28.32 4 29 C4.66 29.33 5.32 29.66 6 30 C5.01 32.475 5.01 32.475 4 35 C4.66 35.66 5.32 36.32 6 37 C7.97536745 36.65213292 7.97536745 36.65213292 10 36 C10.99 36 11.98 36 13 36 C13.33692785 37.60341555 13.66941093 39.20776555 14 40.8125 C14.185625 41.70582031 14.37125 42.59914062 14.5625 43.51953125 C15 46 15 46 15 49 C17.98055586 51.42603384 20.00323092 52.91332443 23.875 53.25 C24.57625 53.1675 25.2775 53.085 26 53 C25.67 53.99 25.34 54.98 25 56 C25.66 56 26.32 56 27 56 C27 56.99 27 57.98 27 59 C27.66 58.01 28.32 57.02 29 56 C30.32 56.33 31.64 56.66 33 57 C33.12375 58.134375 33.2475 59.26875 33.375 60.4375 C33.58125 61.613125 33.7875 62.78875 34 64 C34.99 64.495 34.99 64.495 36 65 C34.68 65.99 33.36 66.98 32 68 C31.01 67.505 31.01 67.505 30 67 C27.41222792 70.05580974 27.41222792 70.05580974 27 74 C25.35 74 23.7 74 22 74 C21.34 75.32 20.68 76.64 20 78 C18.23537317 74.91190305 18 73.76687864 18 70 C17.505 69.01 17.505 69.01 17 68 C16.505 67.01 16.505 67.01 16 66 C15.34 66 14.68 66 14 66 C13.896875 65.05125 13.79375 64.1025 13.6875 63.125 C13.31460705 59.70892499 13.31460705 59.70892499 10 58 C9.01 58.99 8.02 59.98 7 61 C6.34 59.35 5.68 57.7 5 56 C5.66 56 6.32 56 7 56 C7 55.34 7 54.68 7 54 C6.34 54 5.68 54 5 54 C5 52.68 5 51.36 5 50 C4.05125 50.020625 3.1025 50.04125 2.125 50.0625 C-1 50 -1 50 -3 49 C-3.2734375 46.99609375 -3.2734375 46.99609375 -3.375 44.4375 C-3.72374981 39.82479022 -4.91035876 36.81216584 -7.140625 32.8203125 C-8.40057363 30.15151222 -8.34399097 27.88952414 -8 25 C-7.67 24.34 -7.34 23.68 -7 23 C-7.66 22.67 -8.32 22.34 -9 22 C-8.67 21.34 -8.34 20.68 -8 20 C-8.66 20 -9.32 20 -10 20 C-12.12932581 16.80601128 -12.21365943 16.12782642 -12.0625 12.5 C-11.94816757 9.51741494 -12.03516907 7.89449278 -13 5 C-12.34 4.34 -11.68 3.68 -11 3 C-10.67 3.66 -10.34 4.32 -10 5 C-8.63875 3.7625 -8.63875 3.7625 -7.25 2.5 C-4.46375503 -0.03294997 -4.12741739 0 0 0 Z " fill="#EFE2D2" transform="translate(22,125)"/>
<path d="M0 0 C1.32 0 2.64 0 4 0 C4.22084624 6.09781001 4.01167675 11.21642935 2 17 C2.66 17 3.32 17 4 17 C4 17.66 4 18.32 4 19 C3.34 19 2.68 19 2 19 C2 20.65 2 22.3 2 24 C1.34 24 0.68 24 0 24 C-0.12375 25.134375 -0.2475 26.26875 -0.375 27.4375 C-0.684375 29.2009375 -0.684375 29.2009375 -1 31 C-1.66 31.33 -2.32 31.66 -3 32 C-6.21325625 36.28434167 -7.04569761 40.84676711 -8 46 C-8.99 46 -9.98 46 -11 46 C-11.2165625 46.928125 -11.2165625 46.928125 -11.4375 47.875 C-12 50 -12 50 -13 52 C-13.804375 52.28875 -14.60875 52.5775 -15.4375 52.875 C-18.4979705 54.21862119 -18.63617482 55.09050628 -20 58 C-23.23162551 60.30830393 -26.1189265 60.17641243 -30 60 C-29.8125 58.125 -29.8125 58.125 -29 56 C-27.34795544 55.29788106 -25.68076231 54.63028587 -24 54 C-23.67 53.01 -23.34 52.02 -23 51 C-22.34 50.34 -21.68 49.68 -21 49 C-20.505 48.46375 -20.01 47.9275 -19.5 47.375 C-18 46 -18 46 -16 46 C-16.20625 45.05125 -16.4125 44.1025 -16.625 43.125 C-16.74875 42.09375 -16.8725 41.0625 -17 40 C-16.34 39.34 -15.68 38.68 -15 38 C-15.37125 37.443125 -15.7425 36.88625 -16.125 36.3125 C-17 34 -17 34 -16.1875 31.5 C-15.795625 30.675 -15.40375 29.85 -15 29 C-14.855625 28.2575 -14.71125 27.515 -14.5625 26.75 C-14.376875 26.1725 -14.19125 25.595 -14 25 C-13.01 24.67 -12.02 24.34 -11 24 C-9.77554716 22.37051936 -9.77554716 22.37051936 -8.8125 20.4375 C-8.214375 19.303125 -7.61625 18.16875 -7 17 C-6.34 17 -5.68 17 -5 17 C-3.69523918 12.84107487 -2.87918115 9.34947869 -3 5 C-2.67 4.01 -2.34 3.02 -2 2 C-1.34 2 -0.68 2 0 2 C0 1.34 0 0.68 0 0 Z M-13 36 C-13.33 36.66 -13.66 37.32 -14 38 C-13.34 38 -12.68 38 -12 38 C-12.33 37.34 -12.66 36.68 -13 36 Z " fill="#EFE2D2" transform="translate(206,123)"/>
<path d="M0 0 C0.804375 -0.00128906 1.60875 -0.00257813 2.4375 -0.00390625 C3.283125 -0.00003906 4.12875 0.00382813 5 0.0078125 C6.2684375 0.00201172 6.2684375 0.00201172 7.5625 -0.00390625 C8.366875 -0.00261719 9.17125 -0.00132812 10 0 C10.7425 0.00112793 11.485 0.00225586 12.25 0.00341797 C14 0.1328125 14 0.1328125 15 1.1328125 C15.99 1.1328125 16.98 1.1328125 18 1.1328125 C18.33 1.7928125 18.66 2.4528125 19 3.1328125 C19.556875 2.7409375 20.11375 2.3490625 20.6875 1.9453125 C23 1.1328125 23 1.1328125 25.75 2.3828125 C26.86375 3.2490625 26.86375 3.2490625 28 4.1328125 C28 4.7928125 28 5.4528125 28 6.1328125 C28.99 6.1328125 29.98 6.1328125 31 6.1328125 C31.33 5.4728125 31.66 4.8128125 32 4.1328125 C32 4.7928125 32 5.4528125 32 6.1328125 C36.95 7.1228125 36.95 7.1228125 42 8.1328125 C42 10.7728125 42 13.4128125 42 16.1328125 C39.69 15.8028125 37.38 15.4728125 35 15.1328125 C35 14.4728125 35 13.8128125 35 13.1328125 C31.7 12.1428125 28.4 11.1528125 25 10.1328125 C24.67 11.1228125 24.34 12.1128125 24 13.1328125 C22.34385343 13.51500017 20.67542976 13.84676352 19 14.1328125 C18 13.1328125 18 13.1328125 17.9375 10.5703125 C17.958125 9.7659375 17.97875 8.9615625 18 8.1328125 C16.20767663 8.44152372 14.41615679 8.75490314 12.625 9.0703125 C11.62726563 9.24433594 10.62953125 9.41835938 9.6015625 9.59765625 C7.03090344 10.00993312 7.03090344 10.00993312 5 11.1328125 C4.67 9.8128125 4.34 8.4928125 4 7.1328125 C3.2575 7.4834375 2.515 7.8340625 1.75 8.1953125 C-1.1322726 9.17790543 -2.21176345 9.1654927 -5 8.1328125 C-4.7215625 7.235625 -4.7215625 7.235625 -4.4375 6.3203125 C-3.77906313 3.96872488 -3.77906313 3.96872488 -5 1.1328125 C-3.4779041 -0.3892834 -2.11789918 0.00321729 0 0 Z M-3 1.1328125 C-2 3.1328125 -2 3.1328125 -2 3.1328125 Z M0 1.1328125 C-0.33 2.1228125 -0.66 3.1128125 -1 4.1328125 C-0.01 3.8028125 0.98 3.4728125 2 3.1328125 C1.34 2.4728125 0.68 1.8128125 0 1.1328125 Z " fill="#FCF9ED" transform="translate(105,6.8671875)"/>
<path d="M0 0 C1.67419438 0.9873454 3.34051852 1.98812105 5 3 C6.32 3 7.64 3 9 3 C10 5 10 5 9.0625 8.125 C8.5365625 9.548125 8.5365625 9.548125 8 11 C6.35 11.33 4.7 11.66 3 12 C2.93941406 12.62648438 2.87882812 13.25296875 2.81640625 13.8984375 C2.73261719 14.71570313 2.64882813 15.53296875 2.5625 16.375 C2.48128906 17.18710938 2.40007813 17.99921875 2.31640625 18.8359375 C2 21 2 21 1 23 C0.34 22.67 -0.32 22.34 -1 22 C-1 23.65 -1 25.3 -1 27 C-2.32 27.33 -3.64 27.66 -5 28 C-2.525 28.99 -2.525 28.99 0 30 C-0.66 30.33 -1.32 30.66 -2 31 C-2 31.66 -2 32.32 -2 33 C-1.34 33.33 -0.68 33.66 0 34 C2 37 2 37 2 40 C0.6078125 40.1546875 0.6078125 40.1546875 -0.8125 40.3125 C-4.03254358 41.0070192 -5.02579865 41.47740939 -7 44 C-7.66 43.67 -8.32 43.34 -9 43 C-9 42.34 -9 41.68 -9 41 C-8.34 41 -7.68 41 -7 41 C-6.67 39.68 -6.34 38.36 -6 37 C-6.66 37 -7.32 37 -8 37 C-7.93981939 34.58073961 -7.85277783 32.16751328 -7.75 29.75 C-7.73582031 29.06808594 -7.72164062 28.38617188 -7.70703125 27.68359375 C-7.53810176 24.20364621 -7.28827412 22.34275112 -5.015625 19.640625 C-4.35046875 19.09921875 -3.6853125 18.5578125 -3 18 C-2.67 17.34 -2.34 16.68 -2 16 C-2.66 16 -3.32 16 -4 16 C-4 15.34 -4 14.68 -4 14 C-3.34 14 -2.68 14 -2 14 C-2.66 12.68 -3.32 11.36 -4 10 C-2.68 9.01 -1.36 8.02 0 7 C-1.32 6.34 -2.64 5.68 -4 5 C-3.6875 3.0625 -3.6875 3.0625 -3 1 C-2.01 0.67 -1.02 0.34 0 0 Z " fill="#F3E8D9" transform="translate(16,78)"/>
<path d="M0 0 C3.36179774 1.44077046 5.59156268 3.24750021 8 6 C8 6.66 8 7.32 8 8 C14.48224488 9.13182054 20.12905143 9.4381665 26 6 C27.27585112 3.97675999 27.27585112 3.97675999 28 2 C29.32 2.33 30.64 2.66 32 3 C31.45276317 6.37462715 30.9451 8.08235 29 11 C28.01 11 27.02 11 26 11 C26 11.66 26 12.32 26 13 C20.63999211 15.25684543 16.8022175 16.36263859 11 16 C11 15.34 11 14.68 11 14 C9.9171875 13.9071875 9.9171875 13.9071875 8.8125 13.8125 C4.99765319 12.71043314 3.47769309 11.0803752 1 8 C0.05995934 5.65958948 -0.46479486 3.48140565 -1 1 C-0.67 0.67 -0.34 0.34 0 0 Z " fill="#705E49" transform="translate(92,132)"/>
<path d="M0 0 C0.33 0.66 0.66 1.32 1 2 C1.99 2 2.98 2 4 2 C4 2.66 4 3.32 4 4 C4.99 4 5.98 4 7 4 C7 4.99 7 5.98 7 7 C7.66 7 8.32 7 9 7 C9.33 8.98 9.66 10.96 10 13 C9.34 13 8.68 13 8 13 C9.22473384 17.49069074 10.6182879 19.84373538 14 23 C14 23.66 14 24.32 14 25 C13.34 25.33 12.68 25.66 12 26 C11.690625 26.66 11.38125 27.32 11.0625 28 C10 30 10 30 7 31 C6.67 30.01 6.34 29.02 6 28 C5.34 28 4.68 28 4 28 C4 25.69 4 23.38 4 21 C2.68 21.33 1.36 21.66 0 22 C0.66 21.01 1.32 20.02 2 19 C2.45139459 16.9507906 2.45139459 16.9507906 2.625 14.8125 C2.74875 13.554375 2.8725 12.29625 3 11 C3.66 11 4.32 11 5 11 C5 9.68 5 8.36 5 7 C4.01 6.67 3.02 6.34 2 6 C2 6.66 2 7.32 2 8 C1.34 8 0.68 8 0 8 C0 5.33333333 0 2.66666667 0 0 Z " fill="#F3E8D9" transform="translate(198,81)"/>
<path d="M0 0 C1.32 0 2.64 0 4 0 C4.22084624 6.09781001 4.01167675 11.21642935 2 17 C2.66 17 3.32 17 4 17 C4 17.66 4 18.32 4 19 C3.34 19 2.68 19 2 19 C2 20.65 2 22.3 2 24 C1.34 24 0.68 24 0 24 C-0.0825 25.11375 -0.165 26.2275 -0.25 27.375 C-1 31 -1 31 -2.9375 32.3125 C-3.9584375 32.6528125 -3.9584375 32.6528125 -5 33 C-5.66 33.66 -6.32 34.32 -7 35 C-6.67 33.35 -6.34 31.7 -6 30 C-5.01 29.67 -4.02 29.34 -3 29 C-3 27.68 -3 26.36 -3 25 C-4.32 25 -5.64 25 -7 25 C-7.66 25 -8.32 25 -9 25 C-8.25 23.0625 -8.25 23.0625 -7 21 C-6.34 20.855625 -5.68 20.71125 -5 20.5625 C-4.34 20.376875 -3.68 20.19125 -3 20 C-1.70339566 17.50965614 -1.70339566 17.50965614 -1 15 C-1.66 15 -2.32 15 -3 15 C-3.02708567 13.39592672 -3.04643483 11.7917215 -3.0625 10.1875 C-3.07410156 9.29417969 -3.08570313 8.40085938 -3.09765625 7.48046875 C-3 5 -3 5 -2 2 C-1.34 2 -0.68 2 0 2 C0 1.34 0 0.68 0 0 Z " fill="#F4E9DA" transform="translate(206,123)"/>
<path d="M0 0 C1.904694 3.10765863 2.4301344 6.38370759 3.1875 9.9375 C1.2075 10.9275 1.2075 10.9275 -0.8125 11.9375 C-0.8125 11.2775 -0.8125 10.6175 -0.8125 9.9375 C-1.4725 9.9375 -2.1325 9.9375 -2.8125 9.9375 C-3.1425 8.6175 -3.4725 7.2975 -3.8125 5.9375 C-5.55921588 5.14393199 -5.55921588 5.14393199 -7.8125 4.9375 C-10.43637135 6.32842892 -10.43637135 6.32842892 -12.8125 7.9375 C-13.4725 7.9375 -14.1325 7.9375 -14.8125 7.9375 C-14.8125 8.5975 -14.8125 9.2575 -14.8125 9.9375 C-15.8025 9.9375 -16.7925 9.9375 -17.8125 9.9375 C-17.8125 10.5975 -17.8125 11.2575 -17.8125 11.9375 C-18.4725 11.9375 -19.1325 11.9375 -19.8125 11.9375 C-20.1425 10.6175 -20.4725 9.2975 -20.8125 7.9375 C-20.1525 7.9375 -19.4925 7.9375 -18.8125 7.9375 C-18.5959375 7.009375 -18.5959375 7.009375 -18.375 6.0625 C-17.8125 3.9375 -17.8125 3.9375 -16.8125 1.9375 C-16.1525 1.9375 -15.4925 1.9375 -14.8125 1.9375 C-14.4825 0.9475 -14.1525 -0.0425 -13.8125 -1.0625 C-9.10668102 -2.34590518 -4.32837117 -2.53732103 0 0 Z " fill="#776550" transform="translate(77.8125,103.0625)"/>
<path d="M0 0 C1.258125 -0.04125 2.51625 -0.0825 3.8125 -0.125 C4.52019531 -0.14820312 5.22789062 -0.17140625 5.95703125 -0.1953125 C8 0 8 0 11 2 C11 2.66 11 3.32 11 4 C12.32 4.66 13.64 5.32 15 6 C15 8.31 15 10.62 15 13 C10.33067093 11.35942492 10.33067093 11.35942492 8.5625 9.4375 C6.28516033 7.3423475 4.00290797 7.33365644 1 7 C0.608125 7.825 0.21625 8.65 -0.1875 9.5 C-0.785625 10.325 -1.38375 11.15 -2 12 C-4.6875 12.3125 -4.6875 12.3125 -7 12 C-6.67 9.69 -6.34 7.38 -6 5 C-5.34 5 -4.68 5 -4 5 C-3.67 4.01 -3.34 3.02 -3 2 C-2.01 2 -1.02 2 0 2 C0 1.34 0 0.68 0 0 Z " fill="#685743" transform="translate(143,103)"/>
<path d="M0 0 C0.66 0 1.32 0 2 0 C2 1.65 2 3.3 2 5 C2.66 5 3.32 5 4 5 C4.99 6.485 4.99 6.485 6 8 C6.66 8 7.32 8 8 8 C8.33 7.34 8.66 6.68 9 6 C9.433125 6.7425 9.86625 7.485 10.3125 8.25 C11.9021225 10.96435326 11.9021225 10.96435326 13.6875 13.125 C15 15 15 15 15 18 C15.33 18.66 15.66 19.32 16 20 C16.66 20 17.32 20 18 20 C18 20.99 18 21.98 18 23 C16.35 23 14.7 23 13 23 C12.34 24.32 11.68 25.64 11 27 C9.23537317 23.91190305 9 22.76687864 9 19 C8.67 18.34 8.34 17.68 8 17 C7.67 16.34 7.34 15.68 7 15 C6.34 15 5.68 15 5 15 C4.896875 14.05125 4.79375 13.1025 4.6875 12.125 C4.31460705 8.70892499 4.31460705 8.70892499 1 7 C0.01 7.99 -0.98 8.98 -2 10 C-2.66 8.35 -3.32 6.7 -4 5 C-3.34 5 -2.68 5 -2 5 C-1.7834375 4.0409375 -1.7834375 4.0409375 -1.5625 3.0625 C-1 1 -1 1 0 0 Z " fill="#F2E7D8" transform="translate(31,176)"/>
<path d="M0 0 C0.99 0.33 1.98 0.66 3 1 C2.01 1.495 2.01 1.495 1 2 C1.99 3.32 2.98 4.64 4 6 C3.195625 6.45375 2.39125 6.9075 1.5625 7.375 C-1.08856572 8.74725665 -1.08856572 8.74725665 -2 11 C-5.3 11 -8.6 11 -12 11 C-12.33 12.32 -12.66 13.64 -13 15 C-13 14.34 -13 13.68 -13 13 C-13.66 13 -14.32 13 -15 13 C-15.33 13.99 -15.66 14.98 -16 16 C-16.66 15.01 -17.32 14.02 -18 13 C-18 13.66 -18 14.32 -18 15 C-18.66 15 -19.32 15 -20 15 C-20.66 13.35 -21.32 11.7 -22 10 C-20.68 8.35 -19.36 6.7 -18 5 C-17.67 6.32 -17.34 7.64 -17 9 C-16.34 9 -15.68 9 -15 9 C-14.67 7.68 -14.34 6.36 -14 5 C-12.68 5.33 -11.36 5.66 -10 6 C-10 6.66 -10 7.32 -10 8 C-9.34 8 -8.68 8 -8 8 C-7.67 7.34 -7.34 6.68 -7 6 C-6.34 6 -5.68 6 -5 6 C-5 6.99 -5 7.98 -5 9 C-4.731875 8.2575 -4.46375 7.515 -4.1875 6.75 C-3.05770579 4.13363446 -1.79106798 2.19812889 0 0 Z " fill="#F3E9DA" transform="translate(141,196)"/>
<path d="M0 0 C3.55780196 0.60990891 6.6828589 1.5783681 10 3 C10 3.66 10 4.32 10 5 C10.63808594 5.04898437 11.27617187 5.09796875 11.93359375 5.1484375 C12.75988281 5.22320313 13.58617187 5.29796875 14.4375 5.375 C15.26121094 5.44460937 16.08492187 5.51421875 16.93359375 5.5859375 C17.61550781 5.72257812 18.29742187 5.85921875 19 6 C19.33 6.66 19.66 7.32 20 8 C17.6875 8.6875 17.6875 8.6875 15 9 C13.1875 7.5625 13.1875 7.5625 12 6 C12 6.66 12 7.32 12 8 C11.38125 8.144375 10.7625 8.28875 10.125 8.4375 C7.96741678 8.93152225 7.96741678 8.93152225 6 10 C6 9.01 6 8.02 6 7 C4.02 8.32 2.04 9.64 0 11 C0 10.34 0 9.68 0 9 C-0.66 8.67 -1.32 8.34 -2 8 C-2 6.68 -2 5.36 -2 4 C-2.66 4 -3.32 4 -4 4 C-3.67 5.32 -3.34 6.64 -3 8 C-3.66 8 -4.32 8 -5 8 C-5 7.34 -5 6.68 -5 6 C-5.66 6 -6.32 6 -7 6 C-6.67 5.01 -6.34 4.02 -6 3 C-5.195625 2.87625 -4.39125 2.7525 -3.5625 2.625 C-2.716875 2.41875 -1.87125 2.2125 -1 2 C-0.67 1.34 -0.34 0.68 0 0 Z M4 10 C6 11 6 11 6 11 Z " fill="#F5EBDD" transform="translate(130,17)"/>
<path d="M0 0 C0.99 0 1.98 0 3 0 C3 2.31 3 4.62 3 7 C5.94729537 8.15811388 5.94729537 8.15811388 9 8 C9 8.66 9 9.32 9 10 C7.68 10 6.36 10 5 10 C5 10.66 5 11.32 5 12 C4.01 12.33 3.02 12.66 2 13 C3.32 13 4.64 13 6 13 C6.33 14.65 6.66 16.3 7 18 C6.34 18 5.68 18 5 18 C4.67 17.34 4.34 16.68 4 16 C2.68 16 1.36 16 0 16 C-0.33 15.34 -0.66 14.68 -1 14 C-2.65 14 -4.3 14 -6 14 C-5.67 13.01 -5.34 12.02 -5 11 C-5.66 11 -6.32 11 -7 11 C-7 11.66 -7 12.32 -7 13 C-7.99 12.67 -8.98 12.34 -10 12 C-10 11.34 -10 10.68 -10 10 C-10.99 10.33 -11.98 10.66 -13 11 C-13 10.01 -13 9.02 -13 8 C-11.68 7.34 -10.36 6.68 -9 6 C-9 6.66 -9 7.32 -9 8 C-8.401875 7.649375 -7.80375 7.29875 -7.1875 6.9375 C-5 6 -5 6 -2 7 C-2.66 7 -3.32 7 -4 7 C-3.67 7.99 -3.34 8.98 -3 10 C-1.68 9.67 -0.36 9.34 1 9 C0.814375 8.401875 0.62875 7.80375 0.4375 7.1875 C0 5 0 5 1 2 C0.34 1.67 -0.32 1.34 -1 1 C-0.67 0.67 -0.34 0.34 0 0 Z " fill="#F1E5D5" transform="translate(82,193)"/>
<path d="M0 0 C3.375 -0.1875 3.375 -0.1875 7 0 C7.66 0.99 8.32 1.98 9 3 C9.66 2.67 10.32 2.34 11 2 C11.66 3.65 12.32 5.3 13 7 C13.66 7 14.32 7 15 7 C15.66 8.32 16.32 9.64 17 11 C13.46877012 12.76561494 9.64272879 11.09993587 6 10 C3.4375 8.625 3.4375 8.625 2 7 C2 5.68 2 4.36 2 3 C1.34 3 0.68 3 0 3 C0 2.01 0 1.02 0 0 Z " fill="#FDF9EC" transform="translate(168,31)"/>
<path d="M0 0 C1.98 0 3.96 0 6 0 C5.52354792 4.28806873 4.34097516 6.26647487 1 9 C0.34 9 -0.32 9 -1 9 C-1 9.66 -1 10.32 -1 11 C-1.99 11 -2.98 11 -4 11 C-4 11.66 -4 12.32 -4 13 C-4.66 13 -5.32 13 -6 13 C-6.33 11.68 -6.66 10.36 -7 9 C-6.34 9 -5.68 9 -5 9 C-4.7834375 8.071875 -4.7834375 8.071875 -4.5625 7.125 C-4 5 -4 5 -3 3 C-2.34 3 -1.68 3 -1 3 C-0.67 2.01 -0.34 1.02 0 0 Z " fill="#786550" transform="translate(64,102)"/>
<path d="M0 0 C2.64 0.33 5.28 0.66 8 1 C7.01 2.98 6.02 4.96 5 7 C6.32 7 7.64 7 9 7 C8.67 7.99 8.34 8.98 8 10 C3.38 10 -1.24 10 -6 10 C-6.33 9.34 -6.66 8.68 -7 8 C-4.36 8 -1.72 8 1 8 C1 7.34 1 6.68 1 6 C0.34 6 -0.32 6 -1 6 C-0.67 4.02 -0.34 2.04 0 0 Z " fill="#FBF4E7" transform="translate(106,207)"/>
<path d="M0 0 C2 1 2 1 3 2 C3.99 1.67 4.98 1.34 6 1 C5.33333333 4.33333333 4.66666667 7.66666667 4 11 C1.03 10.505 1.03 10.505 -2 10 C-2.33 7.36 -2.66 4.72 -3 2 C-2.01 1.34 -1.02 0.68 0 0 Z " fill="#F2E7D9" transform="translate(21,164)"/>
<path d="M0 0 C1.32 0.33 2.64 0.66 4 1 C3.45276317 4.37462715 2.9451 6.08235 1 9 C0.443125 8.79375 -0.11375 8.5875 -0.6875 8.375 C-3.659538 7.89304789 -5.31979941 8.73434972 -8 10 C-8 8.68 -8 7.36 -8 6 C-7.05125 5.7525 -6.1025 5.505 -5.125 5.25 C-1.91306809 4.3142923 -1.91306809 4.3142923 -0.625 1.875 C-0.41875 1.25625 -0.2125 0.6375 0 0 Z " fill="#65523E" transform="translate(120,134)"/>
<path d="M0 0 C0.66 0.66 1.32 1.32 2 2 C3.32 1.34 4.64 0.68 6 0 C6.33 1.32 6.66 2.64 7 4 C1.63999211 6.25684543 -2.1977825 7.36263859 -8 7 C-7.34 6.34 -6.68 5.68 -6 5 C-6.33 4.34 -6.66 3.68 -7 3 C-6.01 3 -5.02 3 -4 3 C-4 2.34 -4 1.68 -4 1 C-2 0 -2 0 0 0 Z " fill="#78644D" transform="translate(111,141)"/>
<path d="M0 0 C-0.804375 0.763125 -1.60875 1.52625 -2.4375 2.3125 C-5.16799024 4.79430898 -5.16799024 4.79430898 -6 8 C-10.455 7.01 -10.455 7.01 -15 6 C-15 5.34 -15 4.68 -15 4 C-15.66 3.67 -16.32 3.34 -17 3 C-14.73194205 2.30190555 -12.46133393 1.61628983 -10.1875 0.9375 C-9.54490234 0.73833984 -8.90230469 0.53917969 -8.24023438 0.33398438 C-3.33984375 -1.11328125 -3.33984375 -1.11328125 0 0 Z M-14 3 C-13 5 -13 5 -13 5 Z " fill="#FDF8EB" transform="translate(78,13)"/>
<path d="M0 0 C0.33 1.32 0.66 2.64 1 4 C-0.98 3.34 -2.96 2.68 -5 2 C-5.33 2.99 -5.66 3.98 -6 5 C-6.66 5 -7.32 5 -8 5 C-8 5.99 -8 6.98 -8 8 C-14.52307692 8.36923077 -14.52307692 8.36923077 -16.9375 6.5 C-17.4634375 5.7575 -17.4634375 5.7575 -18 5 C-15 4 -15 4 -12 5 C-11.67 4.34 -11.34 3.68 -11 3 C-8.26493631 -1.18303859 -4.51962084 -0.22227643 0 0 Z " fill="#FEFDF1" transform="translate(99,7)"/>
<path d="M0 0 C2.64329853 4.72017596 4.49105589 9.07085188 3.125 14.4375 C2.75375 15.283125 2.3825 16.12875 2 17 C0 15.8125 0 15.8125 -2 14 C-2.34791629 11.14708645 -2.2872642 9.5745284 -1 7 C-1.28112064 4.99199544 -1.61067967 2.98985949 -2 1 C-1.34 0.67 -0.68 0.34 0 0 Z M-1 2 C0 4 0 4 0 4 Z " fill="#FDFBF3" transform="translate(5,85)"/>
<path d="M0 0 C3.36591866 1.44253657 5.51047079 3.33264727 8 6 C7.34 7.65 6.68 9.3 6 11 C3.525 10.01 3.525 10.01 1 9 C1 8.34 1 7.68 1 7 C0.34 6.67 -0.32 6.34 -1 6 C-0.67 4.02 -0.34 2.04 0 0 Z " fill="#FDFAEF" transform="translate(187,45)"/>
<path d="M0 0 C1.09658936 3.28976808 0.79953138 4.71303767 0 8 C-0.99 8 -1.98 8 -3 8 C-3.12375 8.61875 -3.2475 9.2375 -3.375 9.875 C-4 12 -4 12 -6 14 C-6.66 13.34 -7.32 12.68 -8 12 C-8 11.01 -8 10.02 -8 9 C-6.68 8.67 -5.36 8.34 -4 8 C-4 7.34 -4 6.68 -4 6 C-4.66 6 -5.32 6 -6 6 C-6 5.34 -6 4.68 -6 4 C-4.7934375 3.566875 -4.7934375 3.566875 -3.5625 3.125 C-0.8673532 2.26737432 -0.8673532 2.26737432 0 0 Z " fill="#F3E9DA" transform="translate(198,161)"/>
<path d="M0 0 C3.375 -0.125 3.375 -0.125 7 0 C9 2 9 2 9.125 5.625 C9.08375 6.73875 9.0425 7.8525 9 9 C6.5625 8.25 6.5625 8.25 4 7 C3.375 5.0625 3.375 5.0625 3 3 C1.52109931 1.26973898 1.52109931 1.26973898 0 0 Z " fill="#725F4A" transform="translate(149,107)"/>
<path d="M0 0 C0.99 0 1.98 0 3 0 C3.33 0.66 3.66 1.32 4 2 C5.953125 1.93489583 7.90625 1.86979167 9.859375 1.8046875 C12.30155975 2.02751458 13.88636771 2.79085 16 4 C9.28837062 4.88021369 2.76594019 5.11381955 -4 5 C-4.33 4.34 -4.66 3.68 -5 3 C-4.360625 2.87625 -3.72125 2.7525 -3.0625 2.625 C-2.0415625 2.315625 -2.0415625 2.315625 -1 2 C-0.67 1.34 -0.34 0.68 0 0 Z " fill="#FDF9E7" transform="translate(81,212)"/>
<path d="M0 0 C5.625 -0.25 5.625 -0.25 9 2 C9 2.66 9 3.32 9 4 C7.68 4.33 6.36 4.66 5 5 C5.99 5.99 6.98 6.98 8 8 C4.7 7.67 1.4 7.34 -2 7 C-2 6.01 -2 5.02 -2 4 C-0.02 3.34 1.96 2.68 4 2 C2.68 1.34 1.36 0.68 0 0 Z " fill="#584430" transform="translate(145,103)"/>
<path d="M0 0 C1.32 0.99 2.64 1.98 4 3 C2.02 3.99 2.02 3.99 0 5 C0.33 7.31 0.66 9.62 1 12 C-0.32 12.33 -1.64 12.66 -3 13 C-2.67 11.35 -2.34 9.7 -2 8 C-2.66 7.67 -3.32 7.34 -4 7 C-3.67 5.68 -3.34 4.36 -3 3 C-2.34 3 -1.68 3 -1 3 C-0.67 2.01 -0.34 1.02 0 0 Z " fill="#F4EADB" transform="translate(31,55)"/>
<path d="M0 0 C0.66 0.66 1.32 1.32 2 2 C1.01 4.31 0.02 6.62 -1 9 C-4 8 -4 8 -6 6 C-6.125 3.375 -6.125 3.375 -6 1 C-5.01 1.33 -4.02 1.66 -3 2 C-2.01 1.34 -1.02 0.68 0 0 Z " fill="#F3E8D9" transform="translate(67,198)"/>
<path d="M0 0 C0.66 0 1.32 0 2 0 C2 0.66 2 1.32 2 2 C2.99 2.33 3.98 2.66 5 3 C4.01 3.33 3.02 3.66 2 4 C1.67 4.66 1.34 5.32 1 6 C2.98 5.67 4.96 5.34 7 5 C5 8 5 8 1.875 8.6875 C0.92625 8.790625 -0.0225 8.89375 -1 9 C-0.67 7.68 -0.34 6.36 0 5 C-0.66 5 -1.32 5 -2 5 C-1.125 1.125 -1.125 1.125 0 0 Z " fill="#FCF7EA" transform="translate(160,198)"/>
<path d="M0 0 C3 0 3 0 6 1 C6 1.99 6 2.98 6 4 C4.35 4.33 2.7 4.66 1 5 C1 5.99 1 6.98 1 8 C-0.32 7.34 -1.64 6.68 -3 6 C-2.01 4.02 -1.02 2.04 0 0 Z " fill="#EFE3D3" transform="translate(166,185)"/>
<path d="M0 0 C1.67542976 0.28604898 3.34385343 0.61781233 5 1 C5.33 1.99 5.66 2.98 6 4 C6.99 5.485 6.99 5.485 8 7 C7.67 7.99 7.34 8.98 7 10 C6.34 9.01 5.68 8.02 5 7 C4.34 7 3.68 7 3 7 C2.34 7.66 1.68 8.32 1 9 C1 6.69 1 4.38 1 2 C0.34 1.67 -0.32 1.34 -1 1 C-0.67 0.67 -0.34 0.34 0 0 Z " fill="#E9DAC8" transform="translate(138,190)"/>
<path d="M0 0 C2 1 2 1 4 4 C4 4.99 4 5.98 4 7 C2.35 7.33 0.7 7.66 -1 8 C-1 7.34 -1 6.68 -1 6 C-0.34 6 0.32 6 1 6 C1 5.34 1 4.68 1 4 C-0.98 4.99 -0.98 4.99 -3 6 C-3 4.35 -3 2.7 -3 1 C-2.01 0.67 -1.02 0.34 0 0 Z " fill="#F0E4D4" transform="translate(14,111)"/>
<path d="M0 0 C1.98 0 3.96 0 6 0 C5.6875 2.375 5.6875 2.375 5 5 C4.01 5.66 3.02 6.32 2 7 C1.34 6.34 0.68 5.68 0 5 C0 4.67 0 4.34 0 4 C-0.99 4.33 -1.98 4.66 -3 5 C-3 4.34 -3 3.68 -3 3 C-2.34 3 -1.68 3 -1 3 C-0.67 2.01 -0.34 1.02 0 0 Z " fill="#5F4D39" transform="translate(64,102)"/>
<path d="M0 0 C-1 2 -1 2 -3 3 C-3.65555119 5.52733235 -3.65555119 5.52733235 -4 8 C-4.66 8 -5.32 8 -6 8 C-6 6.68 -6 5.36 -6 4 C-7.32 4.33 -8.64 4.66 -10 5 C-9 2 -9 2 -7.25 0.8125 C-4.70039426 -0.10819096 -2.69076919 -0.14948718 0 0 Z " fill="#FEFEEC" transform="translate(158,207)"/>
<path d="M0 0 C0.66666667 2.66666667 1.33333333 5.33333333 2 8 C1.34 8 0.68 8 0 8 C-0.33 8.66 -0.66 9.32 -1 10 C-1.99 9.01 -2.98 8.02 -4 7 C-4.33 7.66 -4.66 8.32 -5 9 C-5.33 7.68 -5.66 6.36 -6 5 C-5.38125 4.731875 -4.7625 4.46375 -4.125 4.1875 C-1.7004767 3.04443152 -1.7004767 3.04443152 0 0 Z " fill="#FDF9EB" transform="translate(61,204)"/>
<path d="M0 0 C0.99 0.33 1.98 0.66 3 1 C3 3.31 3 5.62 3 8 C2.01 8 1.02 8 0 8 C-0.33 8.66 -0.66 9.32 -1 10 C-2.46726798 6.18510326 -1.43336419 3.70988378 0 0 Z " fill="#E8D9C7" transform="translate(80,194)"/>
<path d="M0 0 C0.66 0.33 1.32 0.66 2 1 C1.67 3.31 1.34 5.62 1 8 C-0.65 8.66 -2.3 9.32 -4 10 C-3.01 8.35 -2.02 6.7 -1 5 C-2.32 4.67 -3.64 4.34 -5 4 C-4.01 4 -3.02 4 -2 4 C-1.34 2.68 -0.68 1.36 0 0 Z " fill="#FBF3E1" transform="translate(210,146)"/>
<path d="M0 0 C0.99 0.66 1.98 1.32 3 2 C4.32 1.34 5.64 0.68 7 0 C7.33 1.32 7.66 2.64 8 4 C6.741875 4.185625 5.48375 4.37125 4.1875 4.5625 C3.12595703 4.71912109 3.12595703 4.71912109 2.04296875 4.87890625 C0 5 0 5 -3 4 C-2.34 4 -1.68 4 -1 4 C-0.67 2.68 -0.34 1.36 0 0 Z " fill="#88755F" transform="translate(110,141)"/>
<path d="M0 0 C2 3 2 3 1.625 5.6875 C1.41875 6.450625 1.2125 7.21375 1 8 C1.66 8 2.32 8 3 8 C3.66 6.68 4.32 5.36 5 4 C5 4.99 5 5.98 5 7 C5.66 7 6.32 7 7 7 C7 7.66 7 8.32 7 9 C4.36 9 1.72 9 -1 9 C-0.67 6.03 -0.34 3.06 0 0 Z " fill="#F2E7D7" transform="translate(100,206)"/>
<path d="M0 0 C0.66 0 1.32 0 2 0 C2.33 1.65 2.66 3.3 3 5 C3.66 5 4.32 5 5 5 C4.34 6.98 3.68 8.96 3 11 C2.34 10.67 1.68 10.34 1 10 C1 8.35 1 6.7 1 5 C0.34 4.67 -0.32 4.34 -1 4 C-0.67 2.68 -0.34 1.36 0 0 Z " fill="#F2E7D8" transform="translate(173,180)"/>
<path d="M0 0 C0.66 0 1.32 0 2 0 C2.84454356 3.37817425 3.10844919 5.67465243 2 9 C-2.75 8.25 -2.75 8.25 -5 6 C-2.03 6.495 -2.03 6.495 1 7 C1 6.34 1 5.68 1 5 C0.34 4.67 -0.32 4.34 -1 4 C-0.67 2.68 -0.34 1.36 0 0 Z " fill="#F8F0E1" transform="translate(12,145)"/>
<path d="M0 0 C2.475 0.99 2.475 0.99 5 2 C3.35 3.65 1.7 5.3 0 7 C-1.5 5.625 -1.5 5.625 -3 4 C-3 3.34 -3 2.68 -3 2 C-2.01 2.33 -1.02 2.66 0 3 C0 2.01 0 1.02 0 0 Z " fill="#E4D4C3" transform="translate(150,191)"/>
<path d="M0 0 C0.33 0.66 0.66 1.32 1 2 C2.32 1.67 3.64 1.34 5 1 C5.33 2.32 5.66 3.64 6 5 C5.34 5 4.68 5 4 5 C3.67 5.99 3.34 6.98 3 8 C2.67 7.01 2.34 6.02 2 5 C1.01 4.34 0.02 3.68 -1 3 C-0.67 2.01 -0.34 1.02 0 0 Z " fill="#F3E8D9" transform="translate(54,31)"/>
<path d="M0 0 C0.103125 0.639375 0.20625 1.27875 0.3125 1.9375 C0.539375 2.618125 0.76625 3.29875 1 4 C1.99 4.33 2.98 4.66 4 5 C2.68 5.99 1.36 6.98 0 8 C0 7.34 0 6.68 0 6 C-0.99 5.67 -1.98 5.34 -3 5 C-1.125 1.125 -1.125 1.125 0 0 Z " fill="#FEFCF3" transform="translate(213,86)"/>
<path d="M0 0 C0.99 0 1.98 0 3 0 C2.6875 1.9375 2.6875 1.9375 2 4 C-1 5 -1 5 -4 4 C-4.33 4.66 -4.66 5.32 -5 6 C-5 5.01 -5 4.02 -5 3 C-3.35 2.67 -1.7 2.34 0 2 C0 1.34 0 0.68 0 0 Z " fill="#F5EEE0" transform="translate(172,187)"/>
<path d="M0 0 C1.32 0.66 2.64 1.32 4 2 C4 2.99 4 3.98 4 5 C3.34 5 2.68 5 2 5 C2.33 5.99 2.66 6.98 3 8 C2.01 7.67 1.02 7.34 0 7 C-0.38133299 5.0085944 -0.71325582 3.00720923 -1 1 C-0.67 0.67 -0.34 0.34 0 0 Z " fill="#54402C" transform="translate(92,132)"/>
<path d="M0 0 C0.99 0.99 1.98 1.98 3 3 C2.01 4.485 2.01 4.485 1 6 C-0.32 5.67 -1.64 5.34 -3 5 C-1.125 1.125 -1.125 1.125 0 0 Z " fill="#F2E6D8" transform="translate(169,38)"/>
<path d="M0 0 C1.65 0 3.3 0 5 0 C5 2.64 5 5.28 5 8 C4.67 7.34 4.34 6.68 4 6 C3.34 5.67 2.68 5.34 2 5 C2 4.34 2 3.68 2 3 C1.34 2.67 0.68 2.34 0 2 C0 1.34 0 0.68 0 0 Z " fill="#EFE4D3" transform="translate(134,192)"/>
<path d="M0 0 C2.31 0.66 4.62 1.32 7 2 C6.67 3.32 6.34 4.64 6 6 C3.69 5.01 1.38 4.02 -1 3 C-0.67 2.01 -0.34 1.02 0 0 Z " fill="#FEFDEF" transform="translate(164,23)"/>
<path d="M0 0 C0.66 0 1.32 0 2 0 C2 0.66 2 1.32 2 2 C2.66 2 3.32 2 4 2 C4.33 1.34 4.66 0.68 5 0 C5.6875 1.8125 5.6875 1.8125 6 4 C4.5625 5.75 4.5625 5.75 3 7 C0 3.375 0 3.375 0 0 Z " fill="#FEFCF3" transform="translate(57,18)"/>
<path d="M0 0 C2.31 0.66 4.62 1.32 7 2 C5 4 5 4 1.375 4.125 C0.26125 4.08375 -0.8525 4.0425 -2 4 C-1.01 3.67 -0.02 3.34 1 3 C0.67 2.01 0.34 1.02 0 0 Z " fill="#7B6853" transform="translate(143,103)"/>
<path d="M0 0 C1.32 0.99 2.64 1.98 4 3 C3.01 4.485 3.01 4.485 2 6 C1.67 6.66 1.34 7.32 1 8 C0.87625 7.360625 0.7525 6.72125 0.625 6.0625 C0.315625 5.0415625 0.315625 5.0415625 0 4 C-0.66 3.67 -1.32 3.34 -2 3 C-1.34 2.01 -0.68 1.02 0 0 Z " fill="#F6ECDC" transform="translate(50,197)"/>
<path d="M0 0 C3 1 3 1 5 4 C5 5.32 5 6.64 5 8 C2.48627802 6.74313901 1.51700333 5.34445969 0 3 C0 2.01 0 1.02 0 0 Z " fill="#FEFCEF" transform="translate(38,199)"/>
<path d="M0 0 C0.99 0.33 1.98 0.66 3 1 C2.34 2.98 1.68 4.96 1 7 C0.34 7 -0.32 7 -1 7 C-1.04254356 5.00045254 -1.04080783 2.99958364 -1 1 C-0.67 0.67 -0.34 0.34 0 0 Z " fill="#E8D9C7" transform="translate(34,174)"/>
<path d="M0 0 C1.32 0.33 2.64 0.66 4 1 C3.34 2.65 2.68 4.3 2 6 C0.68 5.34 -0.64 4.68 -2 4 C-1.34 4 -0.68 4 0 4 C0 2.68 0 1.36 0 0 Z " fill="#594732" transform="translate(103,141)"/>
<path d="M0 0 C1.32 0.66 2.64 1.32 4 2 C4 2.66 4 3.32 4 4 C3.01 4 2.02 4 1 4 C1 4.66 1 5.32 1 6 C0.34 6 -0.32 6 -1 6 C-1.33 4.68 -1.66 3.36 -2 2 C-1.34 2 -0.68 2 0 2 C0 1.34 0 0.68 0 0 Z " fill="#614E3A" transform="translate(59,109)"/>
<path d="M0 0 C0.66 1.32 1.32 2.64 2 4 C-0.31 4.33 -2.62 4.66 -5 5 C-5 4.34 -5 3.68 -5 3 C-4.34 3 -3.68 3 -3 3 C-3 2.34 -3 1.68 -3 1 C-2.01 0.67 -1.02 0.34 0 0 Z " fill="#E4D2BE" transform="translate(91,197)"/>
<path d="M0 0 C0.33 0 0.66 0 1 0 C0.67 2.31 0.34 4.62 0 7 C-1.32 6.34 -2.64 5.68 -4 5 C-3.34 4.01 -2.68 3.02 -2 2 C-1.34 2 -0.68 2 0 2 C0 1.34 0 0.68 0 0 Z " fill="#FBE2D4" transform="translate(38,131)"/>
<path d="M0 0 C0.66 0.33 1.32 0.66 2 1 C1.67 1.66 1.34 2.32 1 3 C1.99 2.67 2.98 2.34 4 2 C4 3.32 4 4.64 4 6 C3.01 6 2.02 6 1 6 C1 5.34 1 4.68 1 4 C0.34 3.67 -0.32 3.34 -1 3 C-0.67 2.01 -0.34 1.02 0 0 Z " fill="#F4EADB" transform="translate(34,50)"/>
<path d="M0 0 C0.66 0.33 1.32 0.66 2 1 C2.625 3.0625 2.625 3.0625 3 5 C2.01 5.495 2.01 5.495 1 6 C0.01 5.34 -0.98 4.68 -2 4 C-1.34 2.68 -0.68 1.36 0 0 Z " fill="#F0E2D3" transform="translate(185,164)"/>
<path d="M0 0 C0.66 0 1.32 0 2 0 C1.67 2.31 1.34 4.62 1 7 C-0.65 7.33 -2.3 7.66 -4 8 C-3.34 7.01 -2.68 6.02 -2 5 C-1.34 5 -0.68 5 0 5 C0 3.35 0 1.7 0 0 Z " fill="#FEFDF4" transform="translate(21,50)"/>
<path d="M0 0 C1.32 0.33 2.64 0.66 4 1 C4 2.65 4 4.3 4 6 C0 1.125 0 1.125 0 0 Z " fill="#FFFFFF" transform="translate(207,160)"/>
<path d="M0 0 C0.33 0.66 0.66 1.32 1 2 C0.34 2.66 -0.32 3.32 -1 4 C-0.67 2.68 -0.34 1.36 0 0 Z " fill="#FFFFFF" transform="translate(194,46)"/>
<path d="M0 0 C0.99 1.485 0.99 1.485 2 3 C1.01 3.495 1.01 3.495 0 4 C0 2.68 0 1.36 0 0 Z " fill="#FFFFFF" transform="translate(162,18)"/>
<path d="M0 0 C0.66 0.66 1.32 1.32 2 2 C1.01 2.495 1.01 2.495 0 3 C0 2.01 0 1.02 0 0 Z " fill="#FFFFFF" transform="translate(51,212)"/>
<path d="M0 0 C0.99 0.33 1.98 0.66 3 1 C2.01 1 1.02 1 0 1 C0 0.67 0 0.34 0 0 Z " fill="#FFFFFF" transform="translate(27,196)"/>
<path d="M0 0 C0.66 0.66 1.32 1.32 2 2 C1.34 2 0.68 2 0 2 C0 1.34 0 0.68 0 0 Z " fill="#FFFFFF" transform="translate(70,213)"/>
<path d="M0 0 C0.66 0.66 1.32 1.32 2 2 C1.34 2 0.68 2 0 2 C0 1.34 0 0.68 0 0 Z " fill="#FFFFFF" transform="translate(46,23)"/>
<path d="M0 0 C2 1 2 1 2 1 Z " fill="#FFFFEF" transform="translate(147,215)"/>
<path d="" fill="#FFFFFF" transform="translate(0,0)"/>
<path d="M0 0 C2 1 2 1 2 1 Z " fill="#FFFFFF" transform="translate(207,165)"/>
<path d="" fill="#FFFFFF" transform="translate(0,0)"/>
<path d="" fill="#FFFFFF" transform="translate(0,0)"/>
<path d="" fill="#FFFFFF" transform="translate(0,0)"/>
<path d="" fill="#FFFFFF" transform="translate(0,0)"/>
<path d="" fill="#FFFFFF" transform="translate(0,0)"/>
<path d="M0 0 C2 1 2 1 2 1 Z " fill="#FFFFFF" transform="translate(50,23)"/>
<path d="M0 0 C2 1 2 1 2 1 Z " fill="#FFFFFF" transform="translate(76,10)"/>
<path d="M0 0 C2 1 2 1 2 1 Z " fill="#FFFFFF" transform="translate(129,7)"/>
<path d="" fill="#FFFFFF" transform="translate(0,0)"/>
<path d="" fill="#FFFFFF" transform="translate(0,0)"/>
<path d="" fill="#FFFFFF" transform="translate(0,0)"/>
<path d="" fill="#FFFFFF" transform="translate(0,0)"/>
<path d="" fill="#FFFFFF" transform="translate(0,0)"/>
<path d="" fill="#FFFFFF" transform="translate(0,0)"/>
<path d="" fill="#FFFFFF" transform="translate(0,0)"/>
<path d="" fill="#FFFFFF" transform="translate(0,0)"/>
<path d="" fill="#FFFFFF" transform="translate(0,0)"/>
<path d="" fill="#FFFFFF" transform="translate(0,0)"/>
<path d="" fill="#FFFFFF" transform="translate(0,0)"/>
<path d="" fill="#FFFFFF" transform="translate(0,0)"/>
<path d="" fill="#FFFFFF" transform="translate(0,0)"/>
<path d="" fill="#FFFFFF" transform="translate(0,0)"/>
<path d="" fill="#FFFFFF" transform="translate(0,0)"/>
<path d="" fill="#FFFFFF" transform="translate(0,0)"/>
<path d="" fill="#FFFFFF" transform="translate(0,0)"/>
<path d="" fill="#FFFFFF" transform="translate(0,0)"/>
<path d="" fill="#FFFFFF" transform="translate(0,0)"/>
<path d="" fill="#FFFFFF" transform="translate(0,0)"/>
<path d="" fill="#FFFFFF" transform="translate(0,0)"/>
<path d="" fill="#FFFFFF" transform="translate(0,0)"/>
<path d="" fill="#FFFFFF" transform="translate(0,0)"/>
<path d="" fill="#FFFFFF" transform="translate(0,0)"/>
<path d="" fill="#FFFFFF" transform="translate(0,0)"/>
<path d="" fill="#FFFFFF" transform="translate(0,0)"/>
<path d="" fill="#FFFFFF" transform="translate(0,0)"/>
<path d="" fill="#FFFFFF" transform="translate(0,0)"/>
<path d="" fill="#FFFFFF" transform="translate(0,0)"/>
<path d="" fill="#FFFFFF" transform="translate(0,0)"/>
<path d="" fill="#FFFFFF" transform="translate(0,0)"/>
<path d="" fill="#FFFFFF" transform="translate(0,0)"/>
<path d="" fill="#FFFFFF" transform="translate(0,0)"/>
<path d="" fill="#FFFFFF" transform="translate(0,0)"/>
<path d="" fill="#FFFFFF" transform="translate(0,0)"/>
<path d="" fill="#FFFFFF" transform="translate(0,0)"/>
<path d="" fill="#FFFFFF" transform="translate(0,0)"/>
<path d="" fill="#FFFFBF" transform="translate(0,0)"/>
<path d="" fill="#FFFFFF" transform="translate(0,0)"/>
<path d="" fill="#FFFFFF" transform="translate(0,0)"/>
<path d="" fill="#FFFFFF" transform="translate(0,0)"/>
<path d="" fill="#FFFFFF" transform="translate(0,0)"/>
<path d="" fill="#FFFFFF" transform="translate(0,0)"/>
<path d="" fill="#FFFFFF" transform="translate(0,0)"/>
<path d="" fill="#FFFFFF" transform="translate(0,0)"/>
<path d="" fill="#FFFFFF" transform="translate(0,0)"/>
<path d="" fill="#FFFFFF" transform="translate(0,0)"/>
<path d="" fill="#FFFFFF" transform="translate(0,0)"/>
<path d="" fill="#FFFFFF" transform="translate(0,0)"/>
<path d="" fill="#FFFFFF" transform="translate(0,0)"/>
<path d="" fill="#FFFFFF" transform="translate(0,0)"/>
<path d="" fill="#FFFFFF" transform="translate(0,0)"/>
<path d="" fill="#FFFFFF" transform="translate(0,0)"/>
<path d="" fill="#FFFFFF" transform="translate(0,0)"/>
<path d="" fill="#FFFFFF" transform="translate(0,0)"/>
<path d="" fill="#FFFFFF" transform="translate(0,0)"/>
<path d="" fill="#FFFFFF" transform="translate(0,0)"/>
<path d="" fill="#FFFFFF" transform="translate(0,0)"/>
<path d="" fill="#FFFFFF" transform="translate(0,0)"/>
<path d="" fill="#FFFFFF" transform="translate(0,0)"/>
<path d="" fill="#FFFFFF" transform="translate(0,0)"/>
<path d="" fill="#FFFFFF" transform="translate(0,0)"/>
<path d="" fill="#FFFFFF" transform="translate(0,0)"/>
<path d="" fill="#FFFFFF" transform="translate(0,0)"/>
<path d="" fill="#FFFFFF" transform="translate(0,0)"/>
<path d="" fill="#FFFFFF" transform="translate(0,0)"/>
<path d="" fill="#FFFFFF" transform="translate(0,0)"/>
<path d="" fill="#FFFFFF" transform="translate(0,0)"/>
<path d="" fill="#FFFFFF" transform="translate(0,0)"/>
<path d="" fill="#FFFFFF" transform="translate(0,0)"/>
<path d="" fill="#FFFFFF" transform="translate(0,0)"/>
<path d="" fill="#FFFFFF" transform="translate(0,0)"/>
<path d="" fill="#FFFFFF" transform="translate(0,0)"/>
<path d="" fill="#FFFFFF" transform="translate(0,0)"/>
<path d="" fill="#FFFFFF" transform="translate(0,0)"/>
<path d="" fill="#FFFFFF" transform="translate(0,0)"/>
<path d="" fill="#FFFFFF" transform="translate(0,0)"/>
<path d="" fill="#FFFFFF" transform="translate(0,0)"/>
<path d="" fill="#FFFFFF" transform="translate(0,0)"/>
<path d="" fill="#FFFFFF" transform="translate(0,0)"/>
<path d="" fill="#FFFFFF" transform="translate(0,0)"/>
<path d="" fill="#FFFFFF" transform="translate(0,0)"/>
<path d="" fill="#FFFFFF" transform="translate(0,0)"/>
<path d="" fill="#FFFFFF" transform="translate(0,0)"/>
<path d="" fill="#FFFFFF" transform="translate(0,0)"/>
<path d="" fill="#FFFFFF" transform="translate(0,0)"/>
<path d="" fill="#FFFFFF" transform="translate(0,0)"/>
<path d="" fill="#FFFFFF" transform="translate(0,0)"/>
<path d="" fill="#FFFFFF" transform="translate(0,0)"/>
<path d="" fill="#FFFFFF" transform="translate(0,0)"/>
<path d="" fill="#FFFFFF" transform="translate(0,0)"/>
<path d="" fill="#FFFFFF" transform="translate(0,0)"/>
<path d="" fill="#FFFFFF" transform="translate(0,0)"/>
<path d="" fill="#FFFFFF" transform="translate(0,0)"/>
<path d="" fill="#FFFFFF" transform="translate(0,0)"/>
<path d="" fill="#FFFFFF" transform="translate(0,0)"/>
<path d="" fill="#FFFFFF" transform="translate(0,0)"/>
<path d="" fill="#FFFFFF" transform="translate(0,0)"/>
<path d="" fill="#FFFFFF" transform="translate(0,0)"/>
<path d="" fill="#FFFFFF" transform="translate(0,0)"/>
<path d="" fill="#FFFFFF" transform="translate(0,0)"/>
<path d="" fill="#FFFFFF" transform="translate(0,0)"/>
<path d="" fill="#FFFFFF" transform="translate(0,0)"/>
<path d="" fill="#FFFFFF" transform="translate(0,0)"/>
<path d="" fill="#FFFFFF" transform="translate(0,0)"/>
<path d="" fill="#FFFFFF" transform="translate(0,0)"/>
<path d="" fill="#FFFFFF" transform="translate(0,0)"/>
<path d="" fill="#FFFFFF" transform="translate(0,0)"/>
<path d="" fill="#FFFFFF" transform="translate(0,0)"/>
<path d="" fill="#FFFFFF" transform="translate(0,0)"/>
<path d="" fill="#FFFFFF" transform="translate(0,0)"/>
<path d="" fill="#FFFFFF" transform="translate(0,0)"/>
<path d="" fill="#FFFFFF" transform="translate(0,0)"/>
<path d="" fill="#FFFFFF" transform="translate(0,0)"/>
<path d="" fill="#FFFFFF" transform="translate(0,0)"/>
<path d="" fill="#FFFFFF" transform="translate(0,0)"/>
</svg>
