<?xml version="1.0" encoding="UTF-8"?>
<svg version="1.1" xmlns="http://www.w3.org/2000/svg" width="220" height="220">
<path d="M0 0 C0 0.66 0 1.32 0 2 C-1.32 1.67 -2.64 1.34 -4 1 C-4 1.66 -4 2.32 -4 3 C-3.34 3 -2.68 3 -2 3 C-1.01 4.485 -1.01 4.485 0 6 C1.65 5.67 3.3 5.34 5 5 C5.33 5.66 5.66 6.32 6 7 C8.11675058 7.54322109 8.11675058 7.54322109 10.625 7.875 C15.54814179 8.74834704 18.76806633 10.4090202 23 13 C23.99 13 24.98 13 26 13 C28.87321984 14.47344607 30.8219044 15.7931793 32.9375 18.25 C34.96475956 20.38605729 34.96475956 20.38605729 38.25 19.75 C39.1575 19.5025 40.065 19.255 41 19 C41 20.65 41 22.3 41 24 C41.66 24 42.32 24 43 24 C43 24.99 43 25.98 43 27 C44.134375 27.433125 45.26875 27.86625 46.4375 28.3125 C47.613125 28.869375 48.78875 29.42625 50 30 C50.33 30.99 50.66 31.98 51 33 C51.99 33.33 52.98 33.66 54 34 C57 39.22222222 57 39.22222222 57 42 C57.99 42.33 58.98 42.66 60 43 C60.33 42.34 60.66 41.68 61 41 C61.99 41 62.98 41 64 41 C63.67 41.99 63.34 42.98 63 44 C63.84164327 47.02496878 63.84164327 47.02496878 65 50 C65.33 50.99 65.66 51.98 66 53 C66.66 53 67.32 53 68 53 C68.33 53.66 68.66 54.32 69 55 C69.99 55.33 70.98 55.66 72 56 C72.66015625 57.8125 72.66015625 57.8125 73.0625 60 C73.42700873 62.14055297 73.42700873 62.14055297 74 64 C74.66 64.33 75.32 64.66 76 65 C76 65.99 76 66.98 76 68 C76.99 68.33 77.98 68.66 79 69 C78.67 70.32 78.34 71.64 78 73 C78.66 73.33 79.32 73.66 80 74 C80.52734375 76.0390625 80.52734375 76.0390625 80.9375 78.625 C81.9600257 84.22492592 83.55150648 88.71583713 86.625 93.5625 C89.50912888 98.67527392 89.14568666 103.37572001 88 109 C86.9375 111.4375 86.9375 111.4375 86 113 C86.99 113.33 87.98 113.66 89 114 C89 115.32 89 116.64 89 118 C88.01 118.495 88.01 118.495 87 119 C87.66 119.66 88.32 120.32 89 121 C88.34 121.99 87.68 122.98 87 124 C87.165 124.66 87.33 125.32 87.5 126 C87.665 126.66 87.83 127.32 88 128 C87.34 128.99 86.68 129.98 86 131 C85.83286431 133.62531524 85.83286431 133.62531524 86 136 C85.34 136 84.68 136 84 136 C83.3511194 139.60489221 82.86272744 142.40099244 83.6875 146 C84.14278101 150.37069769 82.27183603 152.28245014 80 156 C80 157.32 80 158.64 80 160 C78.68 160 77.36 160 76 160 C76 162.31 76 164.62 76 167 C75.34 167.33 74.68 167.66 74 168 C73.31527335 169.88764903 73.31527335 169.88764903 72.875 172.0625 C72.70742187 172.79597656 72.53984375 173.52945313 72.3671875 174.28515625 C72.24601563 174.85105469 72.12484375 175.41695312 72 176 C70.35 175.67 68.7 175.34 67 175 C66.34 176.32 65.68 177.64 65 179 C64.67 178.34 64.34 177.68 64 177 C63.66226563 177.5775 63.32453125 178.155 62.9765625 178.75 C62.53054687 179.4925 62.08453125 180.235 61.625 181 C61.18414062 181.7425 60.74328125 182.485 60.2890625 183.25 C59.86367187 183.8275 59.43828125 184.405 59 185 C58.34 185 57.68 185 57 185 C56.67 185.99 56.34 186.98 56 188 C52.46041343 191.65376678 48.40388623 194.48349358 44 197 C43.34 197.66 42.68 198.32 42 199 C40.1875 199.5625 40.1875 199.5625 38 200 C37.0925 200.185625 36.185 200.37125 35.25 200.5625 C34.13625 200.7790625 34.13625 200.7790625 33 201 C32.67 201.99 32.34 202.98 32 204 C29.69 204 27.38 204 25 204 C24.67 204.66 24.34 205.32 24 206 C18.38475265 208.04190813 12.60356972 208.6838271 6.6953125 209.4375 C5.80585938 209.623125 4.91640625 209.80875 4 210 C3.67 210.66 3.34 211.32 3 212 C3 211.34 3 210.68 3 210 C2.34 210 1.68 210 1 210 C0.67 210.66 0.34 211.32 0 212 C-1.98 212 -3.96 212 -6 212 C-6.33 212.99 -6.66 213.98 -7 215 C-7.33 214.34 -7.66 213.68 -8 213 C-7.67 212.34 -7.34 211.68 -7 211 C-8.98 211.33 -10.96 211.66 -13 212 C-13.33 212.99 -13.66 213.98 -14 215 C-14.66 215 -15.32 215 -16 215 C-16.33 214.01 -16.66 213.02 -17 212 C-18.97536745 212.34786708 -18.97536745 212.34786708 -21 213 C-21.33 213.66 -21.66 214.32 -22 215 C-22.66 215 -23.32 215 -24 215 C-24.33 213.68 -24.66 212.36 -25 211 C-25.99 211.66 -26.98 212.32 -28 213 C-28 212.34 -28 211.68 -28 211 C-28.66 211 -29.32 211 -30 211 C-30 211.99 -30 212.98 -30 214 C-32 213 -32 213 -35 211 C-35 211.66 -35 212.32 -35 213 C-36.65 213.66 -38.3 214.32 -40 215 C-40 214.01 -40 213.02 -40 212 C-40.99 211.67 -41.98 211.34 -43 211 C-43.33 211.99 -43.66 212.98 -44 214 C-45.485 213.01 -45.485 213.01 -47 212 C-48.99172182 211.30899447 -50.99161804 210.64097297 -53 210 C-53.66 209.67 -54.32 209.34 -55 209 C-55.99 209 -56.98 209 -58 209 C-59.67099977 208.68911632 -61.33871537 208.35919668 -63 208 C-63.33 206.68 -63.66 205.36 -64 204 C-65.98 204.33 -67.96 204.66 -70 205 C-70.22429687 204.35546875 -70.44859375 203.7109375 -70.6796875 203.046875 C-71.82889456 200.75611148 -71.82889456 200.75611148 -74.3828125 200.390625 C-75.28773437 200.34421875 -76.19265625 200.2978125 -77.125 200.25 C-78.03507812 200.19328125 -78.94515625 200.1365625 -79.8828125 200.078125 C-80.58148438 200.05234375 -81.28015625 200.0265625 -82 200 C-82.4021875 198.7934375 -82.4021875 198.7934375 -82.8125 197.5625 C-83.204375 196.716875 -83.59625 195.87125 -84 195 C-84.99 194.67 -85.98 194.34 -87 194 C-87.33 193.34 -87.66 192.68 -88 192 C-89.65 192 -91.3 192 -93 192 C-92.67 190.35 -92.34 188.7 -92 187 C-92.61875 186.690625 -93.2375 186.38125 -93.875 186.0625 C-95.25 185.375 -96.625 184.6875 -98 184 C-98 183.34 -98 182.68 -98 182 C-98.66 182 -99.32 182 -100 182 C-100.495 180.02 -100.495 180.02 -101 178 C-101.66 178 -102.32 178 -103 178 C-103 177.34 -103 176.68 -103 176 C-105.64 175.67 -108.28 175.34 -111 175 C-110.34 174.67 -109.68 174.34 -109 174 C-109 173.34 -109 172.68 -109 172 C-109.66 172 -110.32 172 -111 172 C-111 170.68 -111 169.36 -111 168 C-111.66 167.67 -112.32 167.34 -113 167 C-113.72159424 165.35636866 -114.39351421 163.68949614 -115 162 C-116.32 162 -117.64 162 -119 162 C-119 161.34 -119 160.68 -119 160 C-118.34 159.67 -117.68 159.34 -117 159 C-117.309375 158.278125 -117.61875 157.55625 -117.9375 156.8125 C-118.92560539 154.19692691 -119.5287754 151.74881018 -120 149 C-120.99 149 -121.98 149 -123 149 C-123 145.7 -123 142.4 -123 139 C-123.99 138.67 -124.98 138.34 -126 138 C-125.79375 137.29875 -125.5875 136.5975 -125.375 135.875 C-124.91931234 132.38139459 -125.79092467 130.27161559 -127 127 C-127 126.01 -127 125.02 -127 124 C-127.02320312 123.04609375 -127.04640625 122.0921875 -127.0703125 121.109375 C-127.16982571 114.99642047 -127.14115275 109.75434801 -125 104 C-125.66 104 -126.32 104 -127 104 C-126.67 103.01 -126.34 102.02 -126 101 C-126 100.01 -126 99.02 -126 98 C-124.5 95.8125 -124.5 95.8125 -123 94 C-123.66 93.67 -124.32 93.34 -125 93 C-124.34 93 -123.68 93 -123 93 C-123.33 92.01 -123.66 91.02 -124 90 C-123.94921875 88.0625 -123.94921875 88.0625 -123.6875 86 C-123.60886719 85.319375 -123.53023438 84.63875 -123.44921875 83.9375 C-123 82 -123 82 -121 79 C-121.66 78.67 -122.32 78.34 -123 78 C-121.515 77.505 -121.515 77.505 -120 77 C-120 76.01 -120 75.02 -120 74 C-119.33333333 72.66666667 -118.66666667 71.33333333 -118 70 C-118 69.01 -118 68.02 -118 67 C-117.34 67.33 -116.68 67.66 -116 68 C-115.67 66.02 -115.34 64.04 -115 62 C-113.515 61.505 -113.515 61.505 -112 61 C-111.37777447 59.19260404 -111.37777447 59.19260404 -111 57 C-110.35786707 55.2822944 -109.68979461 53.57412643 -109 51.875 C-108.4740625 50.57175781 -108.4740625 50.57175781 -107.9375 49.2421875 C-107.33781649 47.80794445 -106.69522276 46.39044553 -106 45 C-105.34 45 -104.68 45 -104 45 C-104 44.34 -104 43.68 -104 43 C-103.01 43 -102.02 43 -101 43 C-101.33 41.68 -101.66 40.36 -102 39 C-101.01 39 -100.02 39 -99 39 C-98.67 38.01 -98.34 37.02 -98 36 C-96.40625 34.46484375 -96.40625 34.46484375 -94.5 32.9375 C-91.81893599 30.82278233 -91.81893599 30.82278233 -90 28 C-89.01 28 -88.02 28 -87 28 C-86.896875 27.360625 -86.79375 26.72125 -86.6875 26.0625 C-86.460625 25.381875 -86.23375 24.70125 -86 24 C-85.01 23.67 -84.02 23.34 -83 23 C-82.34 23.33 -81.68 23.66 -81 24 C-80.67322266 22.84564453 -80.67322266 22.84564453 -80.33984375 21.66796875 C-78.61096172 18.22532611 -77.09211438 17.72340827 -73.5625 16.3125 C-68.40048101 14.30609063 -68.40048101 14.30609063 -64 11 C-63.05125 10.855625 -62.1025 10.71125 -61.125 10.5625 C-57.84890342 10.18709362 -57.84890342 10.18709362 -55 8 C-53.03595665 7.55249645 -51.05288362 7.18499794 -49.0625 6.875 C-48.02222656 6.70742187 -46.98195313 6.53984375 -45.91015625 6.3671875 C-43 6 -43 6 -39 6 C-38.67 5.34 -38.34 4.68 -38 4 C-38 4.66 -38 5.32 -38 6 C-37.4337793 5.68305176 -36.86755859 5.36610352 -36.28417969 5.03955078 C-33.8910978 3.95043762 -32.0594679 3.61373345 -29.453125 3.3671875 C-28.60878906 3.28339844 -27.76445313 3.19960937 -26.89453125 3.11328125 C-26.02183594 3.03464844 -25.14914063 2.95601563 -24.25 2.875 C-23.36183594 2.78863281 -22.47367187 2.70226562 -21.55859375 2.61328125 C-19.37297064 2.40176934 -17.18691762 2.19759773 -15 2 C-15 2.66 -15 3.32 -15 4 C-14.071875 4 -13.14375 4 -12.1875 4 C-10.125 4 -8.0625 4 -6 4 C-6.495 2.515 -6.495 2.515 -7 1 C-4.53721199 -0.231394 -2.7204945 -0.07159196 0 0 Z M80 150 C81 152 81 152 81 152 Z M77 156 C78 158 78 158 78 158 Z " fill="#FAF2E4" transform="translate(129,3)"/>
<path d="M0 0 C0.99 0.495 0.99 0.495 2 1 C1.34 1.99 0.68 2.98 0 4 C0.99 4.33 1.98 4.66 3 5 C2.67 6.32 2.34 7.64 2 9 C2.99 9.495 2.99 9.495 4 10 C4 10.66 4 11.32 4 12 C3.34 12.33 2.68 12.66 2 13 C2.11859375 13.70125 2.2371875 14.4025 2.359375 15.125 C3.18684961 21.21521315 3.20649656 25.0696055 -0.08984375 30.34375 C-1.24080067 32.12321953 -1.24080067 32.12321953 -1 35 C-1.66 35 -2.32 35 -3 35 C-3.33 37.97 -3.66 40.94 -4 44 C-4.99 44.33 -5.98 44.66 -7 45 C-7 46.32 -7 47.64 -7 49 C-8.32 49 -9.64 49 -11 49 C-11.28875 49.763125 -11.5775 50.52625 -11.875 51.3125 C-13 54 -13 54 -15 57 C-17.5625 57.75 -17.5625 57.75 -20 58 C-20.33 57.67 -20.66 57.34 -21 57 C-20.01 57.99 -19.02 58.98 -18 60 C-19.32 60.66 -20.64 61.32 -22 62 C-21.67 62.99 -21.34 63.98 -21 65 C-21.66 65 -22.32 65 -23 65 C-23.33 65.66 -23.66 66.32 -24 67 C-25.32 67 -26.64 67 -28 67 C-28 67.66 -28 68.32 -28 69 C-27.01 69.33 -26.02 69.66 -25 70 C-25.33 70.99 -25.66 71.98 -26 73 C-26.66 73 -27.32 73 -28 73 C-28.33 73.99 -28.66 74.98 -29 76 C-29.66 76 -30.32 76 -31 76 C-31 75.34 -31 74.68 -31 74 C-31.66 74 -32.32 74 -33 74 C-33.33 75.32 -33.66 76.64 -34 78 C-34.99 78 -35.98 78 -37 78 C-37.185625 78.9590625 -37.185625 78.9590625 -37.375 79.9375 C-37.58125 80.618125 -37.7875 81.29875 -38 82 C-38.99 82.495 -38.99 82.495 -40 83 C-38.90931332 79.22454612 -38.0916909 76.52956528 -35 74 C-36.32 74 -37.64 74 -39 74 C-39.33 73.01 -39.66 72.02 -40 71 C-40.1546875 71.9590625 -40.1546875 71.9590625 -40.3125 72.9375 C-40.6528125 73.9584375 -40.6528125 73.9584375 -41 75 C-41.99 75.33 -42.98 75.66 -44 76 C-43.34 76.33 -42.68 76.66 -42 77 C-42 77.66 -42 78.32 -42 79 C-43.32 79.33 -44.64 79.66 -46 80 C-46 80.66 -46 81.32 -46 82 C-47.32 82.33 -48.64 82.66 -50 83 C-50 82.34 -50 81.68 -50 81 C-51.98 81.99 -51.98 81.99 -54 83 C-54 84.65 -54 86.3 -54 88 C-54.99 88.495 -54.99 88.495 -56 89 C-56.66 88.67 -57.32 88.34 -58 88 C-58 87.01 -58 86.02 -58 85 C-59.98 86.485 -59.98 86.485 -62 88 C-62.37125 87.484375 -62.7425 86.96875 -63.125 86.4375 C-63.74375 85.963125 -64.3625 85.48875 -65 85 C-67.00980131 85.26797351 -69.0103005 85.60986284 -71 86 C-74.375 85.5625 -74.375 85.5625 -77 85 C-77 85.66 -77 86.32 -77 87 C-77.99 87 -78.98 87 -80 87 C-79.67 88.32 -79.34 89.64 -79 91 C-79.99 91.66 -80.98 92.32 -82 93 C-84 92 -84 92 -85 89 C-86.485 89.495 -86.485 89.495 -88 90 C-88.33 89.01 -88.66 88.02 -89 87 C-89.33 87.66 -89.66 88.32 -90 89 C-90.66 89 -91.32 89 -92 89 C-92.495 90.98 -92.495 90.98 -93 93 C-93.66 92.67 -94.32 92.34 -95 92 C-94.505 90.02 -94.505 90.02 -94 88 C-94.94875 87.71125 -95.8975 87.4225 -96.875 87.125 C-100 86 -100 86 -102 84 C-105.2234444 85.65063471 -105.2234444 85.65063471 -105.5625 88.5 C-105.706875 89.325 -105.85125 90.15 -106 91 C-106.66 91.66 -107.32 92.32 -108 93 C-108.66 92.34 -109.32 91.68 -110 91 C-109.625 87.875 -109.625 87.875 -109 85 C-110.98 85.66 -112.96 86.32 -115 87 C-115 86.34 -115 85.68 -115 85 C-121.27 85 -127.54 85 -134 85 C-134.33 85.66 -134.66 86.32 -135 87 C-135 86.34 -135 85.68 -135 85 C-137.6305595 83.5907717 -140.04100817 82.47725675 -143 82 C-146.11785113 82.64644661 -146.11785113 82.64644661 -147 85 C-148.32 85 -149.64 85 -151 85 C-151.66666667 83.66666667 -152.33333333 82.33333333 -153 81 C-150 80 -150 80 -147 81 C-147 80.34 -147 79.68 -147 79 C-147.66 79 -148.32 79 -149 79 C-149 78.34 -149 77.68 -149 77 C-150.55705194 75.42159428 -150.55705194 75.42159428 -152.5 73.875 C-153.1496875 73.33617187 -153.799375 72.79734375 -154.46875 72.2421875 C-154.9740625 71.83226562 -155.479375 71.42234375 -156 71 C-157.485 71.99 -157.485 71.99 -159 73 C-159 71.68 -159 70.36 -159 69 C-160.32 69 -161.64 69 -163 69 C-163.33 67.68 -163.66 66.36 -164 65 C-164 65.66 -164 66.32 -164 67 C-164.66 67 -165.32 67 -166 67 C-166 66.34 -166 65.68 -166 65 C-167.32 64.67 -168.64 64.34 -170 64 C-169.9690625 62.6078125 -169.9690625 62.6078125 -169.9375 61.1875 C-169.84230396 57.97713989 -169.84230396 57.97713989 -171 55 C-171.66 55 -172.32 55 -173 55 C-173 54.34 -173 53.68 -173 53 C-173.66 53 -174.32 53 -175 53 C-175 52.34 -175 51.68 -175 51 C-175.66 51 -176.32 51 -177 51 C-177.495 49.515 -177.495 49.515 -178 48 C-178.66 47.67 -179.32 47.34 -180 47 C-179.67 45.68 -179.34 44.36 -179 43 C-179.66 43 -180.32 43 -181 43 C-181 42.34 -181 41.68 -181 41 C-180.34 41 -179.68 41 -179 41 C-178.34 39.35 -177.68 37.7 -177 36 C-174.625 36.1875 -174.625 36.1875 -172 37 C-170.8125 39.5 -170.8125 39.5 -170 42 C-169.34 42.33 -168.68 42.66 -168 43 C-168 44.32 -168 45.64 -168 47 C-167.01 47.66 -166.02 48.32 -165 49 C-163.6875 53.375 -163.6875 53.375 -165 56 C-163.515 55.505 -163.515 55.505 -162 55 C-159.64811553 55.59793673 -157.31074405 56.25881795 -155 57 C-155 57.66 -155 58.32 -155 59 C-151.39007621 58.34414811 -151.39007621 58.34414811 -148 57 C-147.01 57.66 -146.02 58.32 -145 59 C-145 59.66 -145 60.32 -145 61 C-144.34 61 -143.68 61 -143 61 C-143 60.34 -143 59.68 -143 59 C-142.34 59 -141.68 59 -141 59 C-140.8453125 59.9590625 -140.8453125 59.9590625 -140.6875 60.9375 C-140.460625 61.618125 -140.23375 62.29875 -140 63 C-139.01 63.33 -138.02 63.66 -137 64 C-137 64.66 -137 65.32 -137 66 C-135.35 66.33 -133.7 66.66 -132 67 C-131.505 65.515 -131.505 65.515 -131 64 C-130.06576355 67.01031744 -129.95550089 67.86650268 -131 71 C-130.01 71 -129.02 71 -128 71 C-127.67 70.34 -127.34 69.68 -127 69 C-127 69.66 -127 70.32 -127 71 C-126.443125 70.773125 -125.88625 70.54625 -125.3125 70.3125 C-121.96474516 69.8601007 -120.693624 71.02905561 -118 73 C-116.33333333 74.66666667 -114.66666667 76.33333333 -113 78 C-110.60521962 78.2133948 -110.60521962 78.2133948 -108 75.5 C-104.4350044 72.52917033 -104.35617834 73 -100 73 C-99.67 73.99 -99.34 74.98 -99 76 C-96.98491642 76.73323796 -96.98491642 76.73323796 -95 77 C-94.505 75.515 -94.505 75.515 -94 74 C-93.38125 74.165 -92.7625 74.33 -92.125 74.5 C-90.03936614 75.07634644 -90.03936614 75.07634644 -88 75 C-88 75.66 -88 76.32 -88 77 C-81.88593722 75.4498971 -81.88593722 75.4498971 -76.9375 71.8125 C-76.628125 71.214375 -76.31875 70.61625 -76 70 C-75.01 70.99 -74.02 71.98 -73 73 C-70.38472619 70.63379989 -68.73559438 68.057952 -67 65 C-66.071875 65.165 -65.14375 65.33 -64.1875 65.5 C-59.96152185 66.2271891 -59.96152185 66.2271891 -56 65 C-55.67 65.33 -55.34 65.66 -55 66 C-54.01 65.67 -53.02 65.34 -52 65 C-51.67 64.01 -51.34 63.02 -51 62 C-49.68 62.66 -48.36 63.32 -47 64 C-47 63.34 -47 62.68 -47 62 C-45 63 -45 63 -44 65 C-43.34 65 -42.68 65 -42 65 C-42.33 65.99 -42.66 66.98 -43 68 C-41.01508358 67.73323796 -41.01508358 67.73323796 -39 67 C-38.67 66.01 -38.34 65.02 -38 64 C-36.73371096 61.62507237 -35.3593256 59.32400828 -34 57 C-34.99 57 -35.98 57 -37 57 C-37 56.01 -37 55.02 -37 54 C-34.08517222 53.19032562 -32.53886783 52.78154007 -29.6875 53.9375 C-29.130625 54.288125 -28.57375 54.63875 -28 55 C-28 54.34 -28 53.68 -28 53 C-28.99 52.67 -29.98 52.34 -31 52 C-28.69 51.34 -26.38 50.68 -24 50 C-24 50.66 -24 51.32 -24 52 C-23.34 52 -22.68 52 -22 52 C-22.33 50.35 -22.66 48.7 -23 47 C-23.99 47.33 -24.98 47.66 -26 48 C-25.44687265 43.97007218 -24.8441938 39.97977076 -24 36 C-21.525 35.505 -21.525 35.505 -19 35 C-18.61781233 36.65614657 -18.28604898 38.32457024 -18 40 C-18.33 40.33 -18.66 40.66 -19 41 C-18.01 41 -17.02 41 -16 41 C-15.731875 40.030625 -15.46375 39.06125 -15.1875 38.0625 C-13.93371745 33.66073104 -12.4735493 29.33223494 -11 25 C-9.35 25 -7.7 25 -6 25 C-6.474375 24.566875 -6.94875 24.13375 -7.4375 23.6875 C-9 22 -9 22 -10 19 C-8.68 17.68 -7.36 16.36 -6 15 C-6.99 14.67 -7.98 14.34 -9 14 C-3.25 12 -3.25 12 -1 12 C-1.33 10.35 -1.66 8.7 -2 7 C-1.34 7 -0.68 7 0 7 C0 6.34 0 5.68 0 5 C-1.98 4.505 -1.98 4.505 -4 4 C-4 3.34 -4 2.68 -4 2 C-2.125 0.9375 -2.125 0.9375 0 0 Z M2 2 C2.66 2 3.32 2 4 2 C4 2.66 4 3.32 4 4 C3.34 4 2.68 4 2 4 C2 3.34 2 2.68 2 2 Z " fill="#F1E4D4" transform="translate(204,118)"/>
<path d="M0 0 C2.78083698 1.39041849 3.09505724 3.39650052 4.20703125 6.16796875 C5.02270083 8.18312934 5.02270083 8.18312934 6.625 10.5625 C9.50912888 15.67527392 9.14568666 20.37572001 8 26 C6.9375 28.4375 6.9375 28.4375 6 30 C6.99 30.33 7.98 30.66 9 31 C9 32.32 9 33.64 9 35 C8.01 35.495 8.01 35.495 7 36 C7.66 36.66 8.32 37.32 9 38 C8.34 38.99 7.68 39.98 7 41 C7.165 41.66 7.33 42.32 7.5 43 C7.665 43.66 7.83 44.32 8 45 C7.34 45.99 6.68 46.98 6 48 C5.83286431 50.62531524 5.83286431 50.62531524 6 53 C5.34 53 4.68 53 4 53 C3.3511194 56.60489221 2.86272744 59.40099244 3.6875 63 C4.14278101 67.37069769 2.27183603 69.28245014 0 73 C0 74.32 0 75.64 0 77 C-1.32 77 -2.64 77 -4 77 C-4 79.31 -4 81.62 -4 84 C-4.99 84.495 -4.99 84.495 -6 85 C-6.68472665 86.88764903 -6.68472665 86.88764903 -7.125 89.0625 C-7.37636719 90.16271484 -7.37636719 90.16271484 -7.6328125 91.28515625 C-7.75398437 91.85105469 -7.87515625 92.41695313 -8 93 C-9.65 92.67 -11.3 92.34 -13 92 C-13.99 93.98 -13.99 93.98 -15 96 C-15.33 95.34 -15.66 94.68 -16 94 C-16.33773437 94.5775 -16.67546875 95.155 -17.0234375 95.75 C-17.46945313 96.4925 -17.91546875 97.235 -18.375 98 C-18.81585938 98.7425 -19.25671875 99.485 -19.7109375 100.25 C-20.34902344 101.11625 -20.34902344 101.11625 -21 102 C-21.66 102 -22.32 102 -23 102 C-23.33 102.99 -23.66 103.98 -24 105 C-27.53958657 108.65376678 -31.59611377 111.48349358 -36 114 C-36.66 114.66 -37.32 115.32 -38 116 C-39.8125 116.5625 -39.8125 116.5625 -42 117 C-42.9075 117.185625 -43.815 117.37125 -44.75 117.5625 C-45.4925 117.706875 -46.235 117.85125 -47 118 C-47.495 119.485 -47.495 119.485 -48 121 C-50.31 121 -52.62 121 -55 121 C-55.33 121.66 -55.66 122.32 -56 123 C-61.61524735 125.04190813 -67.39643028 125.6838271 -73.3046875 126.4375 C-74.19414062 126.623125 -75.08359375 126.80875 -76 127 C-76.33 127.66 -76.66 128.32 -77 129 C-77 128.34 -77 127.68 -77 127 C-77.66 127 -78.32 127 -79 127 C-79.33 127.66 -79.66 128.32 -80 129 C-81.98 129 -83.96 129 -86 129 C-86.33 129.99 -86.66 130.98 -87 132 C-87.33 131.34 -87.66 130.68 -88 130 C-87.67 129.34 -87.34 128.68 -87 128 C-88.98 128.33 -90.96 128.66 -93 129 C-93.33 129.99 -93.66 130.98 -94 132 C-94.66 132 -95.32 132 -96 132 C-96.33 131.01 -96.66 130.02 -97 129 C-98.97536745 129.34786708 -98.97536745 129.34786708 -101 130 C-101.33 130.66 -101.66 131.32 -102 132 C-102.66 132 -103.32 132 -104 132 C-104.33 130.68 -104.66 129.36 -105 128 C-105.99 128.66 -106.98 129.32 -108 130 C-108 129.34 -108 128.68 -108 128 C-108.66 128 -109.32 128 -110 128 C-110 128.99 -110 129.98 -110 131 C-112 130 -112 130 -115 128 C-115 128.66 -115 129.32 -115 130 C-117.475 130.99 -117.475 130.99 -120 132 C-120 131.01 -120 130.02 -120 129 C-120.99 128.67 -121.98 128.34 -123 128 C-123.33 128.99 -123.66 129.98 -124 131 C-125.485 130.01 -125.485 130.01 -127 129 C-128.99172182 128.30899447 -130.99161804 127.64097297 -133 127 C-133.66 126.67 -134.32 126.34 -135 126 C-135.99 126 -136.98 126 -138 126 C-139.67099977 125.68911632 -141.33871537 125.35919668 -143 125 C-143.33 123.68 -143.66 122.36 -144 121 C-146.97 121.495 -146.97 121.495 -150 122 C-151.42944945 119.64561267 -152.08661261 118.51967567 -151.625 115.75 C-151.41875 115.1725 -151.2125 114.595 -151 114 C-148.3125 113.25 -148.3125 113.25 -145 113 C-144.24847656 113.66257812 -143.49695313 114.32515625 -142.72265625 115.0078125 C-139.15971705 117.61484118 -137.43315168 117.20004869 -133.125 116.625 C-127.61576415 116.03780872 -124.16132658 116.24295265 -119 118 C-116.17855097 117.72265062 -116.17855097 117.72265062 -114 117 C-114 118.98 -114 120.96 -114 123 C-113.34 123 -112.68 123 -112 123 C-111.7525 122.05125 -111.505 121.1025 -111.25 120.125 C-110 117 -110 117 -107.875 115.625 C-106.946875 115.315625 -106.946875 115.315625 -106 115 C-105.67 115.66 -105.34 116.32 -105 117 C-102.6859378 117.73075648 -100.35171131 118.40138258 -98 119 C-98.33 120.65 -98.66 122.3 -99 124 C-97.84188612 122.94729537 -97.84188612 122.94729537 -97 121 C-96.34 121 -95.68 121 -95 121 C-94.505 119.515 -94.505 119.515 -94 118 C-93.01 119.485 -93.01 119.485 -92 121 C-89.525 120.505 -89.525 120.505 -87 120 C-87.99 120.495 -87.99 120.495 -89 121 C-89 121.99 -89 122.98 -89 124 C-87.68 123.67 -86.36 123.34 -85 123 C-85.33 122.34 -85.66 121.68 -86 121 C-85.67 120.34 -85.34 119.68 -85 119 C-85.66 118.67 -86.32 118.34 -87 118 C-86.38125 117.855625 -85.7625 117.71125 -85.125 117.5625 C-82.96741678 117.06847775 -82.96741678 117.06847775 -81 116 C-80.071875 116.165 -79.14375 116.33 -78.1875 116.5 C-75.07424671 117.18108113 -75.07424671 117.18108113 -72.3125 116.4375 C-70 116 -70 116 -67 118 C-64.84725052 117.69159401 -64.84725052 117.69159401 -63 117 C-63 117.99 -63 118.98 -63 120 C-62.01 120 -61.02 120 -60 120 C-60 118.02 -60 116.04 -60 114 C-57.50935112 113.31292445 -55.62113708 113 -53 113 C-53 113.33 -53 113.66 -53 114 C-52.34 114 -51.68 114 -51 114 C-51.33 112.68 -51.66 111.36 -52 110 C-50.35 110.33 -48.7 110.66 -47 111 C-47 110.34 -47 109.68 -47 109 C-48.485 108.505 -48.485 108.505 -50 108 C-48.68 107.67 -47.36 107.34 -46 107 C-45.67 105.35 -45.34 103.7 -45 102 C-44.67 103.32 -44.34 104.64 -44 106 C-42.68 106 -41.36 106 -40 106 C-40.97608217 108.92824652 -42.10786631 110.61426621 -44 113 C-43.01 111.515 -43.01 111.515 -42 110 C-41.01 110 -40.02 110 -39 110 C-38.505 108.02 -38.505 108.02 -38 106 C-37.34 106 -36.68 106 -36 106 C-36 106.66 -36 107.32 -36 108 C-34.2925002 106.71937515 -32.62626404 105.38232443 -31 104 C-31 103.34 -31 102.68 -31 102 C-31.66 101.67 -32.32 101.34 -33 101 C-33 100.34 -33 99.68 -33 99 C-31.68 99 -30.36 99 -29 99 C-28.505 97.515 -28.505 97.515 -28 96 C-26.70644173 94.62804426 -25.37701298 93.28817344 -24 92 C-24.99 91.01 -25.98 90.02 -27 89 C-26.67 88.34 -26.34 87.68 -26 87 C-25.34 87.33 -24.68 87.66 -24 88 C-24.33 88.66 -24.66 89.32 -25 90 C-22.55519921 89.81171228 -22.55519921 89.81171228 -20 89 C-18.72510734 87.20072961 -18.72510734 87.20072961 -18 85 C-17.0625 82.8125 -17.0625 82.8125 -16 81 C-15.01 80.67 -14.02 80.34 -13 80 C-12.26676204 77.98491642 -12.26676204 77.98491642 -12 76 C-11.01 76 -10.02 76 -9 76 C-8.9175 74.700625 -8.835 73.40125 -8.75 72.0625 C-8.18922496 66.85059078 -6.35330322 62.63796842 -4 58 C-1.95869402 53.91738804 -2.98902742 49.29663347 -4 45 C-3.01 44.67 -2.02 44.34 -1 44 C-1 43.34 -1 42.68 -1 42 C-1.99 41.67 -2.98 41.34 -4 41 C-3.67 39.68 -3.34 38.36 -3 37 C-3.66 36.67 -4.32 36.34 -5 36 C-5 35.01 -5 34.02 -5 33 C-5.66 32.67 -6.32 32.34 -7 32 C-6.67 30.35 -6.34 28.7 -6 27 C-4.35 26.67 -2.7 26.34 -1 26 C-0.3041673 21.97963329 0.16186594 18.92129754 -1 15 C-0.67 14.34 -0.34 13.68 0 13 C-0.66 13 -1.32 13 -2 13 C-2.33 11.68 -2.66 10.36 -3 9 C-1.68 8.34 -0.36 7.68 1 7 C0.67 4.69 0.34 2.38 0 0 Z M-3 34 C-3 34.66 -3 35.32 -3 36 C-2.34 36 -1.68 36 -1 36 C-1 35.34 -1 34.68 -1 34 C-1.66 34 -2.32 34 -3 34 Z M0 67 C1 69 1 69 1 69 Z M-3 73 C-2 75 -2 75 -2 75 Z " fill="#FAF4E6" transform="translate(209,86)"/>
<path d="M0 0 C1.5625 1.8125 1.5625 1.8125 3 4 C2.67 4.99 2.34 5.98 2 7 C1.34 7 0.68 7 0 7 C-0.33 7.66 -0.66 8.32 -1 9 C-2.32 9 -3.64 9 -5 9 C-5.33 9.66 -5.66 10.32 -6 11 C-6.99 10.505 -6.99 10.505 -8 10 C-8 10.66 -8 11.32 -8 12 C-12.455 12.495 -12.455 12.495 -17 13 C-17 13.99 -17 14.98 -17 16 C-18.8125 17.0625 -18.8125 17.0625 -21 18 C-22.485 17.505 -22.485 17.505 -24 17 C-23.01 19.475 -23.01 19.475 -22 22 C-25.96 22.495 -25.96 22.495 -30 23 C-29.505 21.515 -29.505 21.515 -29 20 C-30.32 20 -31.64 20 -33 20 C-33.33 21.32 -33.66 22.64 -34 24 C-34.66 23.67 -35.32 23.34 -36 23 C-36 22.67 -36 22.34 -36 22 C-37.32 22 -38.64 22 -40 22 C-39.505 23.98 -39.505 23.98 -39 26 C-39.763125 26.28875 -40.52625 26.5775 -41.3125 26.875 C-44.15029308 27.96269013 -44.15029308 27.96269013 -47 30 C-46.34 31.65 -45.68 33.3 -45 35 C-47.97 36.32 -50.94 37.64 -54 39 C-53.34 39.99 -52.68 40.98 -52 42 C-52 42.99 -52 43.98 -52 45 C-55.465 45.495 -55.465 45.495 -59 46 C-59.33 46.99 -59.66 47.98 -60 49 C-60.66 49 -61.32 49 -62 49 C-62 49.66 -62 50.32 -62 51 C-62.99 51.495 -62.99 51.495 -64 52 C-64.165 53.155 -64.33 54.31 -64.5 55.5 C-64.665 56.655 -64.83 57.81 -65 59 C-65.99 59.495 -65.99 59.495 -67 60 C-67 59.34 -67 58.68 -67 58 C-67.66 58 -68.32 58 -69 58 C-69 60.31 -69 62.62 -69 65 C-69.66 65 -70.32 65 -71 65 C-71.20496094 65.84304687 -71.40992187 66.68609375 -71.62109375 67.5546875 C-71.89050781 68.65039062 -72.15992188 69.74609375 -72.4375 70.875 C-72.70433594 71.96554688 -72.97117187 73.05609375 -73.24609375 74.1796875 C-74 77 -74 77 -75 79 C-75.66 79 -76.32 79 -77 79 C-77.33 80.32 -77.66 81.64 -78 83 C-77.01 83.66 -76.02 84.32 -75 85 C-75 85.66 -75 86.32 -75 87 C-74.34 87.33 -73.68 87.66 -73 88 C-73.99 88.99 -73.99 88.99 -75 90 C-75.99 90 -76.98 90 -78 90 C-79.13346173 95.52562593 -79.88292228 101.621596 -78.4375 107.15234375 C-77.83286819 109.70583346 -78.76502292 110.73587535 -80 113 C-80.92486172 116.88441923 -81.27551112 119.17346663 -80 123 C-79.75268446 124.84937066 -79.54816205 126.70471861 -79.375 128.5625 C-79.27960938 129.53316406 -79.18421875 130.50382813 -79.0859375 131.50390625 C-79 134 -79 134 -80 136 C-79.60061233 138.09821215 -79.60061233 138.09821215 -79 140 C-77.68 140 -76.36 140 -75 140 C-75.33 142.64 -75.66 145.28 -76 148 C-74.02 147.67 -72.04 147.34 -70 147 C-69.87625 148.175625 -69.87625 148.175625 -69.75 149.375 C-69.27193661 152.14749104 -69.27193661 152.14749104 -66.9375 153.3125 C-65.9784375 153.6528125 -65.9784375 153.6528125 -65 154 C-65.33 155.32 -65.66 156.64 -66 158 C-65.01 158.33 -64.02 158.66 -63 159 C-63 159.99 -63 160.98 -63 162 C-62.34 162 -61.68 162 -61 162 C-61 162.66 -61 163.32 -61 164 C-60.34 164 -59.68 164 -59 164 C-59 164.66 -59 165.32 -59 166 C-58.34 166 -57.68 166 -57 166 C-57 166.66 -57 167.32 -57 168 C-56.34 168.33 -55.68 168.66 -55 169 C-55.495 171.97 -55.495 171.97 -56 175 C-54.35 175 -52.7 175 -51 175 C-51.33 175.99 -51.66 176.98 -52 178 C-51.34 178 -50.68 178 -50 178 C-50 177.34 -50 176.68 -50 176 C-48 177 -48 177 -47 179 C-46.34 179.33 -45.68 179.66 -45 180 C-44.67 180.99 -44.34 181.98 -44 183 C-43.34 182.34 -42.68 181.68 -42 181 C-39 183 -39 183 -38 185.0625 C-37.10301684 187.35342991 -37.10301684 187.35342991 -34 188 C-34.33 188.66 -34.66 189.32 -35 190 C-34.34 190 -33.68 190 -33 190 C-33 190.66 -33 191.32 -33 192 C-34.98 192 -36.96 192 -39 192 C-37.68 192.66 -36.36 193.32 -35 194 C-35.66 194 -36.32 194 -37 194 C-37 194.66 -37 195.32 -37 196 C-38.98 196 -40.96 196 -43 196 C-43.4021875 194.7934375 -43.4021875 194.7934375 -43.8125 193.5625 C-44.204375 192.716875 -44.59625 191.87125 -45 191 C-45.99 190.67 -46.98 190.34 -48 190 C-48.33 189.34 -48.66 188.68 -49 188 C-50.65 188 -52.3 188 -54 188 C-53.67 186.35 -53.34 184.7 -53 183 C-53.61875 182.690625 -54.2375 182.38125 -54.875 182.0625 C-56.25 181.375 -57.625 180.6875 -59 180 C-59 179.34 -59 178.68 -59 178 C-59.66 178 -60.32 178 -61 178 C-61.495 176.02 -61.495 176.02 -62 174 C-62.66 174 -63.32 174 -64 174 C-64 173.34 -64 172.68 -64 172 C-66.64 171.67 -69.28 171.34 -72 171 C-71.34 170.67 -70.68 170.34 -70 170 C-70 169.34 -70 168.68 -70 168 C-70.66 168 -71.32 168 -72 168 C-72 166.68 -72 165.36 -72 164 C-72.66 163.67 -73.32 163.34 -74 163 C-74.72159424 161.35636866 -75.39351421 159.68949614 -76 158 C-77.32 158 -78.64 158 -80 158 C-80 157.34 -80 156.68 -80 156 C-79.34 155.67 -78.68 155.34 -78 155 C-78.309375 154.278125 -78.61875 153.55625 -78.9375 152.8125 C-79.92560539 150.19692691 -80.5287754 147.74881018 -81 145 C-81.99 145 -82.98 145 -84 145 C-84 141.7 -84 138.4 -84 135 C-84.99 134.67 -85.98 134.34 -87 134 C-86.79375 133.29875 -86.5875 132.5975 -86.375 131.875 C-85.91931234 128.38139459 -86.79092467 126.27161559 -88 123 C-88 122.01 -88 121.02 -88 120 C-88.02320312 119.04609375 -88.04640625 118.0921875 -88.0703125 117.109375 C-88.16982571 110.99642047 -88.14115275 105.75434801 -86 100 C-86.66 100 -87.32 100 -88 100 C-87.67 99.01 -87.34 98.02 -87 97 C-87 96.01 -87 95.02 -87 94 C-85.5 91.8125 -85.5 91.8125 -84 90 C-84.66 89.67 -85.32 89.34 -86 89 C-85.34 89 -84.68 89 -84 89 C-84.33 88.01 -84.66 87.02 -85 86 C-84.94921875 84.0625 -84.94921875 84.0625 -84.6875 82 C-84.60886719 81.319375 -84.53023438 80.63875 -84.44921875 79.9375 C-84 78 -84 78 -82 75 C-82.66 74.67 -83.32 74.34 -84 74 C-82.515 73.505 -82.515 73.505 -81 73 C-81 72.01 -81 71.02 -81 70 C-80.33333333 68.66666667 -79.66666667 67.33333333 -79 66 C-79 65.01 -79 64.02 -79 63 C-78.34 63.33 -77.68 63.66 -77 64 C-76.505 61.03 -76.505 61.03 -76 58 C-74.515 57.505 -74.515 57.505 -73 57 C-72.37777447 55.19260404 -72.37777447 55.19260404 -72 53 C-71.35786707 51.2822944 -70.68979461 49.57412643 -70 47.875 C-69.4740625 46.57175781 -69.4740625 46.57175781 -68.9375 45.2421875 C-68.33781649 43.80794445 -67.69522276 42.39044553 -67 41 C-66.34 41 -65.68 41 -65 41 C-65 40.34 -65 39.68 -65 39 C-64.01 39 -63.02 39 -62 39 C-62.33 37.68 -62.66 36.36 -63 35 C-62.01 35 -61.02 35 -60 35 C-59.67 34.01 -59.34 33.02 -59 32 C-57.40625 30.46484375 -57.40625 30.46484375 -55.5 28.9375 C-52.81893599 26.82278233 -52.81893599 26.82278233 -51 24 C-50.01 24 -49.02 24 -48 24 C-47.896875 23.360625 -47.79375 22.72125 -47.6875 22.0625 C-47.460625 21.381875 -47.23375 20.70125 -47 20 C-46.01 19.67 -45.02 19.34 -44 19 C-43.34 19.33 -42.68 19.66 -42 20 C-41.67322266 18.84564453 -41.67322266 18.84564453 -41.33984375 17.66796875 C-39.61096172 14.22532611 -38.09211438 13.72340827 -34.5625 12.3125 C-29.40048101 10.30609063 -29.40048101 10.30609063 -25 7 C-24.05125 6.855625 -23.1025 6.71125 -22.125 6.5625 C-18.84890342 6.18709362 -18.84890342 6.18709362 -16 4 C-14.03595665 3.55249645 -12.05288362 3.18499794 -10.0625 2.875 C-9.02222656 2.70742187 -7.98195313 2.53984375 -6.91015625 2.3671875 C-4 2 -4 2 0 2 C0 1.34 0 0.68 0 0 Z " fill="#FBF5E8" transform="translate(90,7)"/>
<path d="M0 0 C4.51884505 1.15186246 8.03995776 2.57997419 12 5 C12.99 5 13.98 5 15 5 C17.87321984 6.47344607 19.8219044 7.7931793 21.9375 10.25 C23.96475956 12.38605729 23.96475956 12.38605729 27.25 11.75 C28.1575 11.5025 29.065 11.255 30 11 C30 12.65 30 14.3 30 16 C30.66 16 31.32 16 32 16 C32 16.99 32 17.98 32 19 C33.7015625 19.6496875 33.7015625 19.6496875 35.4375 20.3125 C36.613125 20.869375 37.78875 21.42625 39 22 C39.495 23.485 39.495 23.485 40 25 C40.99 25.33 41.98 25.66 43 26 C46 31.22222222 46 31.22222222 46 34 C46.99 34.33 47.98 34.66 49 35 C49.495 34.01 49.495 34.01 50 33 C50.99 33 51.98 33 53 33 C52.67 33.99 52.34 34.98 52 36 C52.38932856 38.14255793 52.38932856 38.14255793 53 40 C51.25 41.125 51.25 41.125 49 42 C46.8125 41.3125 46.8125 41.3125 45 40 C44.67 39.01 44.34 38.02 44 37 C43.01 36.505 43.01 36.505 42 36 C42.2784375 34.7934375 42.2784375 34.7934375 42.5625 33.5625 C42.706875 32.716875 42.85125 31.87125 43 31 C42.67 30.67 42.34 30.34 42 30 C41.67 30.66 41.34 31.32 41 32 C33.25 32.125 33.25 32.125 31 31 C31 30.34 31 29.68 31 29 C29.02 28.67 27.04 28.34 25 28 C24.67 26.02 24.34 24.04 24 22 C22.35 22.33 20.7 22.66 19 23 C18.67 23.99 18.34 24.98 18 26 C16.35 25.34 14.7 24.68 13 24 C13 23.01 13 22.02 13 21 C10.83125748 21.50603992 9.00032373 21.99983813 7 23 C7 20.36 7 17.72 7 15 C6.01 15 5.02 15 4 15 C3.67 14.01 3.34 13.02 3 12 C3.33 11.34 3.66 10.68 4 10 C2.5459375 10.0309375 2.5459375 10.0309375 1.0625 10.0625 C-2 10 -2 10 -3 9 C-3.34229288 5.83379087 -3.25632099 4.39516153 -1.5 1.6875 C-1.005 1.130625 -0.51 0.57375 0 0 Z " fill="#FBF5E8" transform="translate(140,11)"/>
<path d="M0 0 C1.32 0.66 2.64 1.32 4 2 C4 2.66 4 3.32 4 4 C4.845625 4.12375 5.69125 4.2475 6.5625 4.375 C10 5 10 5 13.75 6.125 C16.85813064 7.34775295 16.85813064 7.34775295 19 6 C19.969375 5.896875 20.93875 5.79375 21.9375 5.6875 C25.1013947 5.28531997 25.1013947 5.28531997 26.875 2.9375 C27.24625 2.298125 27.6175 1.65875 28 1 C29.98 1.66 31.96 2.32 34 3 C33.625 4.9375 33.625 4.9375 33 7 C32.34 7.33 31.68 7.66 31 8 C29.27512459 12.79132057 28.79294545 16.92716361 29 22 C28.01 22.33 27.02 22.66 26 23 C26.33 20.69 26.66 18.38 27 16 C26.01 15.67 25.02 15.34 24 15 C24.66 15 25.32 15 26 15 C26 14.34 26 13.68 26 13 C22.7 12.67 19.4 12.34 16 12 C15.690625 12.78375 15.38125 13.5675 15.0625 14.375 C14 17 14 17 13 19 C12.34 19 11.68 19 11 19 C11.54723683 22.37462715 12.0549 24.08235 14 27 C17.56769552 27.73606499 17.56769552 27.73606499 21 28 C21.33 26.68 21.66 25.36 22 24 C23.98 24 25.96 24 28 24 C27.00344362 27.68725859 26.3417689 28.79351462 23 30.8125 C18.41810995 32.62616481 14.36433364 31.85378715 9.75 30.1875 C7.53878862 28.68703514 7.01008337 27.46234917 6 25 C5.76171875 22.73828125 5.76171875 22.73828125 5.6875 20.3125 C5.30501636 15.41959604 3.79635165 12.19609137 1.15625 8.10546875 C-0.15151607 5.72409743 -0.67126193 3.68926001 -1 1 C-0.67 0.67 -0.34 0.34 0 0 Z " fill="#6C5340" transform="translate(90,131)"/>
<path d="M0 0 C2.97687774 0.1863975 3.75511064 0.3472942 6.0625 2.375 C7.4678413 7.15316042 6.99885081 11.71093893 6 16.5625 C5.34 17.5525 4.68 18.5425 4 19.5625 C3.01 19.5625 2.02 19.5625 1 19.5625 C0.67 20.2225 0.34 20.8825 0 21.5625 C-1.32 20.9025 -2.64 20.2425 -4 19.5625 C-4 18.9025 -4 18.2425 -4 17.5625 C-4.99 17.2325 -5.98 16.9025 -7 16.5625 C-7.08133791 14.64654032 -7.13934367 12.72958068 -7.1875 10.8125 C-7.22230469 9.74515625 -7.25710937 8.6778125 -7.29296875 7.578125 C-6.82355768 2.74632035 -5.05407404 -0.00957211 0 0 Z " fill="#665440" transform="translate(146,98.4375)"/>
<path d="M0 0 C0.99 0.33 1.98 0.66 3 1 C3.66 1 4.32 1 5 1 C5 4.12889911 4.95852283 6.1244315 4 9 C3.34 9.66 2.68 10.32 2 11 C1.60828247 12.65391846 1.27942455 14.32345271 1 16 C0.43549635 18.39914051 -0.21856944 20.65570833 -1 23 C-1.66 23 -2.32 23 -3 23 C-3 23.66 -3 24.32 -3 25 C-4.32 25 -5.64 25 -7 25 C-6.65213292 26.97536745 -6.65213292 26.97536745 -6 29 C-5.34 29.33 -4.68 29.66 -4 30 C-4.33 31.32 -4.66 32.64 -5 34 C-8.28696233 34.79953138 -9.71023192 35.09658936 -13 34 C-13.66 33.34 -14.32 32.68 -15 32 C-14.34 30.68 -13.68 29.36 -13 28 C-12.34 28 -11.68 28 -11 28 C-10.69255859 26.73542969 -10.69255859 26.73542969 -10.37890625 25.4453125 C-9.97478516 23.80175781 -9.97478516 23.80175781 -9.5625 22.125 C-9.29566406 21.03445312 -9.02882813 19.94390625 -8.75390625 18.8203125 C-8 16 -8 16 -7 14 C-6.34 14 -5.68 14 -5 14 C-5 11.69 -5 9.38 -5 7 C-4.01 7.33 -3.02 7.66 -2 8 C-1.855625 6.865625 -1.71125 5.73125 -1.5625 4.5625 C-1 1 -1 1 0 0 Z " fill="#F4EADB" transform="translate(26,58)"/>
<path d="M0 0 C1.41569064 -0.08167446 2.83276805 -0.13949698 4.25 -0.1875 C5.43335937 -0.23970703 5.43335937 -0.23970703 6.640625 -0.29296875 C9.63897777 0.07934327 10.898592 0.83774945 13 3 C13.64453125 5.41015625 13.64453125 5.41015625 13.8125 8.0625 C13.91498047 9.37927734 13.91498047 9.37927734 14.01953125 10.72265625 C14 13 14 13 13 15 C12.01 15 11.02 15 10 15 C10 15.66 10 16.32 10 17 C6.05272412 17.17942163 3.4019487 17.09350689 0 15 C0 14.34 0 13.68 0 13 C-0.99 13 -1.98 13 -3 13 C-3.33 12.01 -3.66 11.02 -4 10 C-3.34 9.67 -2.68 9.34 -2 9 C-2 7.02 -2 5.04 -2 3 C-1.34 3 -0.68 3 0 3 C0 2.01 0 1.02 0 0 Z " fill="#6A5743" transform="translate(60,99)"/>
<path d="M0 0 C3 1 3 1 4.6875 3.25 C6.06511203 6.1364252 6.26985151 7.85173236 6 11 C6.66 11 7.32 11 8 11 C7.67 12.32 7.34 13.64 7 15 C6.34 14.67 5.68 14.34 5 14 C4.93941406 14.78246094 4.87882812 15.56492187 4.81640625 16.37109375 C4.73261719 17.38300781 4.64882813 18.39492187 4.5625 19.4375 C4.48128906 20.44683594 4.40007813 21.45617187 4.31640625 22.49609375 C4 25 4 25 3 26 C3.99 26.66 4.98 27.32 6 28 C5.01 28.99 4.02 29.98 3 31 C3.33 31.99 3.66 32.98 4 34 C3.72230092 36.3406065 3.39460023 38.67624308 3 41 C2.34 41 1.68 41 1 41 C0.06576355 37.98968256 -0.04449911 37.13349732 1 34 C0.34 33.67 -0.32 33.34 -1 33 C-0.34 31.35 0.32 29.7 1 28 C0.01 28.33 -0.98 28.66 -2 29 C-1.83757813 28.43539062 -1.67515625 27.87078125 -1.5078125 27.2890625 C-0.98045869 24.91191379 -0.86686766 22.80656882 -0.875 20.375 C-0.87113281 19.21097656 -0.87113281 19.21097656 -0.8671875 18.0234375 C-0.87326631 15.93040752 -0.87326631 15.93040752 -2 14 C-2.42484112 8.97106679 -2.35785972 4.5683532 0 0 Z " fill="#F4E9DA" transform="translate(12,98)"/>
<path d="M0 0 C0.06058594 0.62648437 0.12117188 1.25296875 0.18359375 1.8984375 C0.30927734 3.12433594 0.30927734 3.12433594 0.4375 4.375 C0.55931641 5.59316406 0.55931641 5.59316406 0.68359375 6.8359375 C0.89090114 9.04272805 0.89090114 9.04272805 2 11 C0.824375 11.2165625 0.824375 11.2165625 -0.375 11.4375 C-2.96421018 11.87798925 -2.96421018 11.87798925 -5 13 C-5 13.66 -5 14.32 -5 15 C-8.25 15.3125 -8.25 15.3125 -12 15 C-14.84248268 12.449054 -15.91018797 11.0103853 -16.25 7.1875 C-16.1675 6.465625 -16.085 5.74375 -16 5 C-15.38125 4.7525 -14.7625 4.505 -14.125 4.25 C-11.61289704 2.77229238 -11.23892656 1.56044823 -10 -1 C-6.06329512 -2.31223496 -3.87511856 -1.24296256 0 0 Z " fill="#EEBCA9" transform="translate(116,144)"/>
<path d="M0 0 C0.99 0.66 1.98 1.32 3 2 C3 2.66 3 3.32 3 4 C5.31 4.66 7.62 5.32 10 6 C9.49396008 8.16874252 9.00016187 9.99967627 8 12 C7.34 12 6.68 12 6 12 C6.54723683 15.37462715 7.0549 17.08235 9 20 C12.56769552 20.73606499 12.56769552 20.73606499 16 21 C16.33 19.68 16.66 18.36 17 17 C18.98 17 20.96 17 23 17 C22.00344362 20.68725859 21.3417689 21.79351462 18 23.8125 C13.41810995 25.62616481 9.36433364 24.85378715 4.75 23.1875 C2.53543135 21.68475699 2.01726854 20.46558306 1 18 C0.65625 15.59765625 0.65625 15.59765625 0.5 13.0625 C0.19908991 9.35857029 -0.31631491 6.36737018 -2 3 C-1.67 2.67 -1.34 2.34 -1 2 C-0.67 1.34 -0.34 0.68 0 0 Z " fill="#8D6C57" transform="translate(95,138)"/>
<path d="M0 0 C1 1 1 1 1 5 C0.071875 5.4125 -0.85625 5.825 -1.8125 6.25 C-6.12514228 8.61772517 -8.11799148 11.51213353 -10 16 C-10 16.99 -10 17.98 -10 19 C-10.8125 21.125 -10.8125 21.125 -12 23 C-12.99 23.33 -13.98 23.66 -15 24 C-16.37195574 25.29355827 -17.71182656 26.62298702 -19 28 C-19.66 27.67 -20.32 27.34 -21 27 C-20.34 25.35 -19.68 23.7 -19 22 C-19.33 21.67 -19.66 21.34 -20 21 C-19.67 20.01 -19.34 19.02 -19 18 C-19.66 17.67 -20.32 17.34 -21 17 C-18.0534615 15.19933758 -15.11198065 13.49836105 -12 12 C-12.66 11.34 -13.32 10.68 -14 10 C-14 9.01 -14 8.02 -14 7 C-11.36 5.68 -8.72 4.36 -6 3 C-6 2.01 -6 1.02 -6 0 C-2.25 -1.125 -2.25 -1.125 0 0 Z " fill="#F4EADB" transform="translate(56,29)"/>
<path d="M0 0 C0.33 0.99 0.66 1.98 1 3 C1.99 2.67 2.98 2.34 4 2 C4.33 2.99 4.66 3.98 5 5 C3.68 5.33 2.36 5.66 1 6 C1.66 6 2.32 6 3 6 C3 6.66 3 7.32 3 8 C2.071875 7.938125 1.14375 7.87625 0.1875 7.8125 C-2.96371433 7.67660221 -2.96371433 7.67660221 -4.6875 9.4375 C-5.3371875 10.2109375 -5.3371875 10.2109375 -6 11 C-12.05519116 13.01839705 -16.7829746 12.96471084 -23 12 C-23 11.34 -23 10.68 -23 10 C-22.34 9.67 -21.68 9.34 -21 9 C-21.495 8.54625 -21.99 8.0925 -22.5 7.625 C-24 6 -24 6 -24 4 C-23.34 4 -22.68 4 -22 4 C-21.67 4.66 -21.34 5.32 -21 6 C-20.34 6 -19.68 6 -19 6 C-18.5875 5.525625 -18.175 5.05125 -17.75 4.5625 C-15.34211572 2.41260332 -13.14591416 2.34954602 -10 2 C-9.67 2.66 -9.34 3.32 -9 4 C-8.030625 3.979375 -7.06125 3.95875 -6.0625 3.9375 C-3 4 -3 4 -2 5 C-1.34 3.35 -0.68 1.7 0 0 Z " fill="#EBDCCA" transform="translate(148,191)"/>
<path d="M0 0 C1.32 0.66 2.64 1.32 4 2 C4 2.99 4 3.98 4 5 C3.01 5.33 2.02 5.66 1 6 C1.66 6.33 2.32 6.66 3 7 C3 7.66 3 8.32 3 9 C1.68 9.33 0.36 9.66 -1 10 C-1 10.66 -1 11.32 -1 12 C-2.32 12.33 -3.64 12.66 -5 13 C-5 12.34 -5 11.68 -5 11 C-6.98 11.99 -6.98 11.99 -9 13 C-9 14.65 -9 16.3 -9 18 C-9.66 18.33 -10.32 18.66 -11 19 C-11.66 18.67 -12.32 18.34 -13 18 C-13 17.01 -13 16.02 -13 15 C-14.32 15.99 -15.64 16.98 -17 18 C-17.66 17.34 -18.32 16.68 -19 16 C-18.34 16 -17.68 16 -17 16 C-17 15.34 -17 14.68 -17 14 C-17.66 13.67 -18.32 13.34 -19 13 C-18.34 13 -17.68 13 -17 13 C-16.67 12.34 -16.34 11.68 -16 11 C-12.71585695 10.04932701 -11.30306592 9.89897803 -8 11 C-8 10.34 -8 9.68 -8 9 C-8.66 9 -9.32 9 -10 9 C-9.67 8.34 -9.34 7.68 -9 7 C-9.33 6.67 -9.66 6.34 -10 6 C-10.36162029 4.67405895 -10.69728039 3.34061543 -11 2 C-7.20442119 2 -5.37097383 2.50178941 -2 4 C-2 3.34 -2 2.68 -2 2 C-1.34 2 -0.68 2 0 2 C0 1.34 0 0.68 0 0 Z " fill="#F5EBDD" transform="translate(159,188)"/>
<path d="M0 0 C0.66 0 1.32 0 2 0 C2 0.99 2 1.98 2 3 C2.90833725 5.06669397 2.90833725 5.06669397 4 7 C4.33 7.66 4.66 8.32 5 9 C4.05125 9.12375 3.1025 9.2475 2.125 9.375 C-1.08667191 9.71687177 -1.08667191 9.71687177 -3 12 C-3.33 11.34 -3.66 10.68 -4 10 C-4.99 10 -5.98 10 -7 10 C-7.66 9.67 -8.32 9.34 -9 9 C-9 9.66 -9 10.32 -9 11 C-9.66 11 -10.32 11 -11 11 C-11 11.66 -11 12.32 -11 13 C-13.475 12.01 -13.475 12.01 -16 11 C-16.33 11.66 -16.66 12.32 -17 13 C-17.99 12.67 -18.98 12.34 -20 12 C-23.15020361 12.88319294 -23.15020361 12.88319294 -26 14 C-25.67 13.01 -25.34 12.02 -25 11 C-23.66666667 10.66666667 -22.33333333 10.33333333 -21 10 C-20.67 9.01 -20.34 8.02 -20 7 C-19.01 7.33 -18.02 7.66 -17 8 C-16.01 8 -15.02 8 -14 8 C-13.67 7.34 -13.34 6.68 -13 6 C-14.05270463 4.84188612 -14.05270463 4.84188612 -16 4 C-15.67 3.01 -15.34 2.02 -15 1 C-13.68 1.66 -12.36 2.32 -11 3 C-11 2.34 -11 1.68 -11 1 C-9 2 -9 2 -8 4 C-7.34 4 -6.68 4 -6 4 C-6.33 4.99 -6.66 5.98 -7 7 C-5.01508358 6.73323796 -5.01508358 6.73323796 -3 6 C-2.67 5.01 -2.34 4.02 -2 3 C-1.34 2.01 -0.68 1.02 0 0 Z " fill="#EBDCCA" transform="translate(168,179)"/>
<path d="M0 0 C0.99 0.33 1.98 0.66 3 1 C2.01 1.33 1.02 1.66 0 2 C0 1.34 0 0.68 0 0 Z M-1 2 C1.03833424 3.2739589 3.03852126 4.61061923 5 6 C5 6.66 5 7.32 5 8 C5.66 8 6.32 8 7 8 C6.979375 8.763125 6.95875 9.52625 6.9375 10.3125 C6.87057159 13.10185786 6.87057159 13.10185786 8 16 C7.25 19.125 7.25 19.125 6 22 C5.01 22.33 4.02 22.66 3 23 C2.34 22.67 1.68 22.34 1 22 C1 22.66 1 23.32 1 24 C0.34 24 -0.32 24 -1 24 C-2 21 -2 21 -1 18 C-0.34 18 0.32 18 1 18 C1 16.35 1 14.7 1 13 C0.34 12.67 -0.32 12.34 -1 12 C-1 10.35 -1 8.7 -1 7 C-1.99 7.495 -1.99 7.495 -3 8 C-3.99 7.67 -4.98 7.34 -6 7 C-4.625 5.5 -4.625 5.5 -3 4 C-2.34 4 -1.68 4 -1 4 C-1 3.34 -1 2.68 -1 2 Z " fill="#F4EADB" transform="translate(202,91)"/>
<path d="M0 0 C1.32 0.33 2.64 0.66 4 1 C3.67 1.66 3.34 2.32 3 3 C3.66 3 4.32 3 5 3 C5 3.99 5 4.98 5 6 C5.33 6.99 5.66 7.98 6 9 C7.98 8.67 9.96 8.34 12 8 C13.43088528 10.86177057 12.59991697 12.93375773 12 16 C11.01 16.33 10.02 16.66 9 17 C8.67 16.01 8.34 15.02 8 14 C6.68 14 5.36 14 4 14 C3.67 12.02 3.34 10.04 3 8 C0.69 8.33 -1.62 8.66 -4 9 C-4 7.68 -4 6.36 -4 5 C-3.01 5.495 -3.01 5.495 -2 6 C-2 5.01 -2 4.02 -2 3 C-1.01 3 -0.02 3 1 3 C1.33 2.34 1.66 1.68 2 1 C1.34 0.67 0.68 0.34 0 0 Z " fill="#ECDDCB" transform="translate(54,179)"/>
<path d="M0 0 C0.33 0.66 0.66 1.32 1 2 C0.0625 4.125 0.0625 4.125 -1 6 C0.98 6 2.96 6 5 6 C5.33 7.98 5.66 9.96 6 12 C6.33 10.02 6.66 8.04 7 6 C7.33 6 7.66 6 8 6 C8 7.65 8 9.3 8 11 C9.32 11.33 10.64 11.66 12 12 C11.01 13.485 11.01 13.485 10 15 C6.05273438 15.42905061 3.38757921 15.08466413 0 13 C0 12.34 0 11.68 0 11 C-0.99 11 -1.98 11 -3 11 C-3.33 10.01 -3.66 9.02 -4 8 C-3.34 7.67 -2.68 7.34 -2 7 C-2 5.02 -2 3.04 -2 1 C-1.34 0.67 -0.68 0.34 0 0 Z " fill="#66533E" transform="translate(60,101)"/>
<path d="M0 0 C1.1875 1.625 1.1875 1.625 2 4 C0.625 7.25 0.625 7.25 -1 10 C-0.34 9.67 0.32 9.34 1 9 C1.33 8.01 1.66 7.02 2 6 C2.66 6 3.32 6 4 6 C5.38938077 7.96147874 6.7260411 9.96166576 8 12 C7.34 12 6.68 12 6 12 C6 12.66 6 13.32 6 14 C2.75 14.3125 2.75 14.3125 -1 14 C-3.84248268 11.449054 -4.91018797 10.0103853 -5.25 6.1875 C-5.1675 5.465625 -5.085 4.74375 -5 4 C-4.360625 3.71125 -3.72125 3.4225 -3.0625 3.125 C-0.84793921 2.17176549 -0.84793921 2.17176549 0 0 Z " fill="#F1BFAD" transform="translate(105,145)"/>
<path d="M0 0 C1.32 0.66 2.64 1.32 4 2 C4 2.66 4 3.32 4 4 C4.86625 4.12375 5.7325 4.2475 6.625 4.375 C9.89513853 4.98058121 12.87256899 5.88306035 16 7 C14.02 7.99 14.02 7.99 12 9 C12 9.99 12 10.98 12 12 C9.13275314 11.42655063 8.1385485 11.1385485 6 9 C5.67 9.66 5.34 10.32 5 11 C2 10 2 10 0.25 7.75 C-1.18671298 4.58923143 -1.02214896 3.25229215 0 0 Z " fill="#695340" transform="translate(90,131)"/>
<path d="M0 0 C2.4294516 3.6441774 2.16179575 5.71241272 2 10 C2.680625 9.071875 2.680625 9.071875 3.375 8.125 C5 6 5 6 7 4 C7.33 4.99 7.66 5.98 8 7 C9.65 6.67 11.3 6.34 13 6 C12.67 6.66 12.34 7.32 12 8 C11.34 8 10.68 8 10 8 C9.67 8.99 9.34 9.98 9 11 C7.08373387 13.62225892 6.0677766 13.98538152 2.8125 14.6875 C1.4203125 14.8421875 1.4203125 14.8421875 0 15 C-0.125 9.25 -0.125 9.25 1 7 C-0.32 6.67 -1.64 6.34 -3 6 C-2.01 5.67 -1.02 5.34 0 5 C-0.66 3.68 -1.32 2.36 -2 1 C-1.34 0.67 -0.68 0.34 0 0 Z " fill="#F4E8D9" transform="translate(14,140)"/>
<path d="M0 0 C1.65 0.33 3.3 0.66 5 1 C5 2.65 5 4.3 5 6 C5.99 5.67 6.98 5.34 8 5 C8.99 5.66 9.98 6.32 11 7 C10.01 7 9.02 7 8 7 C8.33 7.99 8.66 8.98 9 10 C7.02 10.66 5.04 11.32 3 12 C2.34 11.01 1.68 10.02 1 9 C0.34 9 -0.32 9 -1 9 C-2.25541557 5.23375329 -1.37061958 3.62811066 0 0 Z " fill="#F6EDDF" transform="translate(139,20)"/>
<path d="M0 0 C1.32 0.66 2.64 1.32 4 2 C4 2.99 4 3.98 4 5 C3.01 5.33 2.02 5.66 1 6 C1.66 6.33 2.32 6.66 3 7 C3 7.66 3 8.32 3 9 C1.58249437 8.88490339 0.16598831 8.75746342 -1.25 8.625 C-2.43335938 8.52058594 -2.43335938 8.52058594 -3.640625 8.4140625 C-6.12289562 7.97843223 -7.86644748 7.33347033 -10 6 C-10.75 3.875 -10.75 3.875 -11 2 C-7.20442119 2 -5.37097383 2.50178941 -2 4 C-2 3.34 -2 2.68 -2 2 C-1.34 2 -0.68 2 0 2 C0 1.34 0 0.68 0 0 Z " fill="#F1E5D5" transform="translate(159,188)"/>
<path d="M0 0 C0.66 0 1.32 0 2 0 C2 0.66 2 1.32 2 2 C2.99 2 3.98 2 5 2 C5.33 2.66 5.66 3.32 6 4 C6.99 4 7.98 4 9 4 C7.52307692 8.67692308 7.52307692 8.67692308 4.875 10.3125 C3.946875 10.6528125 3.946875 10.6528125 3 11 C3 10.34 3 9.68 3 9 C1.68 9.33 0.36 9.66 -1 10 C-0.67 8.68 -0.34 7.36 0 6 C-0.66 6 -1.32 6 -2 6 C-1.125 1.125 -1.125 1.125 0 0 Z " fill="#ECDECC" transform="translate(114,193)"/>
<path d="M0 0 C0.99 0.33 1.98 0.66 3 1 C3 1.66 3 2.32 3 3 C4.32 3.33 5.64 3.66 7 4 C6.67 6.31 6.34 8.62 6 11 C5.236875 10.62875 4.47375 10.2575 3.6875 9.875 C2.800625 9.58625 1.91375 9.2975 1 9 C0.01 9.66 -0.98 10.32 -2 11 C-2.28571429 3.57142857 -2.28571429 3.57142857 0 0 Z " fill="#796751" transform="translate(67,103)"/>
<path d="M0 0 C0.33 0.66 0.66 1.32 1 2 C-1.97 1.505 -1.97 1.505 -5 1 C-5.33 2.65 -5.66 4.3 -6 6 C-5.01 6.33 -4.02 6.66 -3 7 C-3.804375 7.28875 -4.60875 7.5775 -5.4375 7.875 C-8.1326468 8.73262568 -8.1326468 8.73262568 -9 11 C-9.66 10.67 -10.32 10.34 -11 10 C-11.2145758 6.85288821 -11.23318878 4.55382336 -10 1.625 C-6.82368122 -0.95575901 -4.00554268 -0.26265854 0 0 Z " fill="#55432F" transform="translate(150,99)"/>
<path d="M0 0 C0 1.65 0 3.3 0 5 C-0.66 5 -1.32 5 -2 5 C-2.33 5.99 -2.66 6.98 -3 8 C-6.3 7.67 -9.6 7.34 -13 7 C-13 6.01 -13 5.02 -13 4 C-10.08517222 3.19032562 -8.53886783 2.78154007 -5.6875 3.9375 C-5.130625 4.288125 -4.57375 4.63875 -4 5 C-4 4.34 -4 3.68 -4 3 C-4.99 2.67 -5.98 2.34 -7 2 C-2.25 0 -2.25 0 0 0 Z " fill="#F2E7D7" transform="translate(180,168)"/>
<path d="M0 0 C0.99 0 1.98 0 3 0 C3 0.99 3 1.98 3 3 C3.99 3.33 4.98 3.66 6 4 C5.67 5.32 5.34 6.64 5 8 C5.66 8.33 6.32 8.66 7 9 C6.34 9.66 5.68 10.32 5 11 C4.67 10.67 4.34 10.34 4 10 C3.34 10.66 2.68 11.32 2 12 C2 11.01 2 10.02 2 9 C0.68 9.99 -0.64 10.98 -2 12 C-2 10.35 -2 8.7 -2 7 C-1.01 7 -0.02 7 1 7 C0.67 4.69 0.34 2.38 0 0 Z " fill="#FDFAF1" transform="translate(202,68)"/>
<path d="M0 0 C1.4540625 0.0309375 1.4540625 0.0309375 2.9375 0.0625 C3.2675 2.3725 3.5975 4.6825 3.9375 7.0625 C1.9575 8.0525 1.9575 8.0525 -0.0625 9.0625 C-1.0525 8.4025 -2.0425 7.7425 -3.0625 7.0625 C-2.7325 5.4125 -2.4025 3.7625 -2.0625 2.0625 C-2.7225 1.7325 -3.3825 1.4025 -4.0625 1.0625 C-3.0625 0.0625 -3.0625 0.0625 0 0 Z " fill="#FDF8EC" transform="translate(198.0625,58.9375)"/>
<path d="M0 0 C2.5 1.375 2.5 1.375 5 3 C5 3.66 5 4.32 5 5 C6.32 5.33 7.64 5.66 9 6 C9 7.32 9 8.64 9 10 C8.34 10 7.68 10 7 10 C6.67 9.01 6.34 8.02 6 7 C4.02463255 7.34786708 4.02463255 7.34786708 2 8 C1.67 8.66 1.34 9.32 1 10 C0.34 10 -0.32 10 -1 10 C-0.67 7.69 -0.34 5.38 0 3 C-0.66 2.67 -1.32 2.34 -2 2 C-1.34 2 -0.68 2 0 2 C0 1.34 0 0.68 0 0 Z " fill="#FDF8EF" transform="translate(106,208)"/>
<path d="M0 0 C1.32 0.33 2.64 0.66 4 1 C4 1.66 4 2.32 4 3 C4.66 3.33 5.32 3.66 6 4 C5.01 4 4.02 4 3 4 C3.99 4.66 4.98 5.32 6 6 C5.195625 6.144375 4.39125 6.28875 3.5625 6.4375 C-0.04270438 7.22888633 -0.83398437 9.08058763 -3 12 C-5 9 -5 9 -5 6 C-4.34 5.67 -3.68 5.34 -3 5 C-1.35405861 3.60411246 -1.35405861 3.60411246 0 2 C0 1.34 0 0.68 0 0 Z " fill="#796852" transform="translate(144,103)"/>
<path d="M0 0 C0.66 1.32 1.32 2.64 2 4 C1.525625 4.391875 1.05125 4.78375 0.5625 5.1875 C-1.35179633 7.40808374 -1.61266988 9.13375709 -2 12 C-2.598125 11.690625 -3.19625 11.38125 -3.8125 11.0625 C-6.08956772 9.89790296 -6.08956772 9.89790296 -9 9 C-8.525625 8.566875 -8.05125 8.13375 -7.5625 7.6875 C-5.76313043 5.97690387 -5.76313043 5.97690387 -5 3 C-4.01 3 -3.02 3 -2 3 C-1.34 2.01 -0.68 1.02 0 0 Z " fill="#FCF7EA" transform="translate(88,205)"/>
<path d="M0 0 C0.99 0 1.98 0 3 0 C2.979375 0.94875 2.95875 1.8975 2.9375 2.875 C2.77448174 5.90666283 2.77448174 5.90666283 4 8 C1.69 8 -0.62 8 -3 8 C-3.66 6.68 -4.32 5.36 -5 4 C-4.360625 3.71125 -3.72125 3.4225 -3.0625 3.125 C-0.84793921 2.17176549 -0.84793921 2.17176549 0 0 Z " fill="#CD9B87" transform="translate(114,147)"/>
<path d="M0 0 C2.97 0.495 2.97 0.495 6 1 C6 2.32 6 3.64 6 5 C4.35 5.33 2.7 5.66 1 6 C1 5.34 1 4.68 1 4 C-1.16666667 4.83333333 -1.16666667 4.83333333 -2 7 C-2.66 7 -3.32 7 -4 7 C-4 6.01 -4 5.02 -4 4 C-5.98 4.99 -5.98 4.99 -8 6 C-7.67 5.01 -7.34 4.02 -7 3 C-4 2 -4 2 -1 3 C-0.67 2.01 -0.34 1.02 0 0 Z " fill="#EDDECD" transform="translate(103,194)"/>
<path d="M0 0 C0.33 0.66 0.66 1.32 1 2 C-1.31 3.65 -3.62 5.3 -6 7 C-8.7839183 5.60804085 -8.97898997 3.84424221 -10 1 C-6.59437148 0.22157062 -3.49234244 -0.09978121 0 0 Z " fill="#F2E7D8" transform="translate(76,23)"/>
<path d="M0 0 C0.66 0.33 1.32 0.66 2 1 C1.47731534 3.76276177 0.89130413 6.3260876 0 9 C0.66 9.66 1.32 10.32 2 11 C0.02 11.66 -1.96 12.32 -4 13 C-2.73303167 3.76923077 -2.73303167 3.76923077 -2 1 C-1.34 0.67 -0.68 0.34 0 0 Z " fill="#F4E7D8" transform="translate(182,153)"/>
<path d="M0 0 C0.66 0.66 1.32 1.32 2 2 C2.5775 1.62875 3.155 1.2575 3.75 0.875 C6 0 6 0 8.25 0.875 C8.8275 1.24625 9.405 1.6175 10 2 C9.01 2 8.02 2 7 2 C7 2.66 7 3.32 7 4 C7.66 4 8.32 4 9 4 C8.34 5.32 7.68 6.64 7 8 C5.68 7.34 4.36 6.68 3 6 C3 5.34 3 4.68 3 4 C2.01 3.67 1.02 3.34 0 3 C0 2.01 0 1.02 0 0 Z " fill="#604F39" transform="translate(139,112)"/>
<path d="M0 0 C1.32 0.33 2.64 0.66 4 1 C3.67 5.29 3.34 9.58 3 14 C2.01 14.33 1.02 14.66 0 15 C0.33 12.69 0.66 10.38 1 8 C0.01 7.67 -0.98 7.34 -2 7 C-1.34 7 -0.68 7 0 7 C-0.2784375 5.824375 -0.2784375 5.824375 -0.5625 4.625 C-1 2 -1 2 0 0 Z " fill="#7D5F4B" transform="translate(116,139)"/>
<path d="M0 0 C0.33 0.66 0.66 1.32 1 2 C2.65 1.67 4.3 1.34 6 1 C5.67 1.99 5.34 2.98 5 4 C5.66 4.33 6.32 4.66 7 5 C6.67 6.32 6.34 7.64 6 9 C5.34 8.67 4.68 8.34 4 8 C4 7.34 4 6.68 4 6 C1.03 5.505 1.03 5.505 -2 5 C-1.34 3.35 -0.68 1.7 0 0 Z " fill="#F4E9DA" transform="translate(166,38)"/>
<path d="M0 0 C1.98 0 3.96 0 6 0 C6 0.99 6 1.98 6 3 C6.66 3.33 7.32 3.66 8 4 C7.01 4.66 6.02 5.32 5 6 C2.3125 5.125 2.3125 5.125 0 4 C0 2.68 0 1.36 0 0 Z M-4 2 C-2.02 2.99 -2.02 2.99 0 4 C0 4.66 0 5.32 0 6 C-1.32 5.67 -2.64 5.34 -4 5 C-4 4.01 -4 3.02 -4 2 Z " fill="#F4EADA" transform="translate(158,33)"/>
<path d="M0 0 C0 0.66 0 1.32 0 2 C-1.32 1.67 -2.64 1.34 -4 1 C-4 1.66 -4 2.32 -4 3 C-3.34 3 -2.68 3 -2 3 C-1.67 3.99 -1.34 4.98 -1 6 C-4.11771927 7.60339848 -5.39011689 8.18974141 -8.8125 7.125 C-9.534375 6.75375 -10.25625 6.3825 -11 6 C-11 5.34 -11 4.68 -11 4 C-10.01 4.33 -9.02 4.66 -8 5 C-7.34 4.34 -6.68 3.68 -6 3 C-6.33 2.34 -6.66 1.68 -7 1 C-4.53721199 -0.231394 -2.7204945 -0.07159196 0 0 Z " fill="#FEFEF6" transform="translate(129,3)"/>
<path d="M0 0 C0.33 0.66 0.66 1.32 1 2 C1.99 2 2.98 2 4 2 C3.67 2.99 3.34 3.98 3 5 C2.01 5 1.02 5 0 5 C0 4.34 0 3.68 0 3 C-2.31 3.66 -4.62 4.32 -7 5 C-7.99 4.01 -8.98 3.02 -10 2 C-6.7 1.34 -3.4 0.68 0 0 Z " fill="#FEFEEF" transform="translate(113,5)"/>
<path d="M0 0 C1.98 0 3.96 0 6 0 C4.9802693 3.77300358 4.34127338 4.80206144 0.875 6.8125 C-0.07375 7.204375 -1.0225 7.59625 -2 8 C-2 7.34 -2 6.68 -2 6 C-1.34 6 -0.68 6 0 6 C-0.2784375 5.071875 -0.2784375 5.071875 -0.5625 4.125 C-1 2 -1 2 0 0 Z " fill="#876853" transform="translate(112,155)"/>
<path d="M0 0 C1.32 0.66 2.64 1.32 4 2 C3.814375 2.598125 3.62875 3.19625 3.4375 3.8125 C2.77906313 6.16408762 2.77906313 6.16408762 4 9 C4.66 9 5.32 9 6 9 C5.67 9.66 5.34 10.32 5 11 C2 10 2 10 0.25 7.75 C-1.18671298 4.58923143 -1.02214896 3.25229215 0 0 Z " fill="#594431" transform="translate(90,131)"/>
<path d="M0 0 C1.32 0.66 2.64 1.32 4 2 C4 3.32 4 4.64 4 6 C2.02 6.33 0.04 6.66 -2 7 C-2 3.89448334 -1.4606285 2.64738916 0 0 Z " fill="#F2E6D5" transform="translate(82,189)"/>
<path d="M0 0 C0.99 0.66 1.98 1.32 3 2 C3 2.66 3 3.32 3 4 C4.32 4.33 5.64 4.66 7 5 C7 5.66 7 6.32 7 7 C4.69 7 2.38 7 0 7 C-0.66 5.68 -1.32 4.36 -2 3 C-1.67 2.67 -1.34 2.34 -1 2 C-0.67 1.34 -0.34 0.68 0 0 Z " fill="#886B56" transform="translate(95,138)"/>
<path d="M0 0 C0.99 0.33 1.98 0.66 3 1 C3 1.66 3 2.32 3 3 C3.66 3 4.32 3 5 3 C6.125 6.75 6.125 6.75 5 9 C4.34 9 3.68 9 3 9 C2.67 8.34 2.34 7.68 2 7 C1.34 7 0.68 7 0 7 C-1.04449911 3.86650268 -0.93423645 3.01031744 0 0 Z " fill="#F2E7D8" transform="translate(138,22)"/>
<path d="M0 0 C0.66 0 1.32 0 2 0 C2 0.66 2 1.32 2 2 C2.99 2 3.98 2 5 2 C5 2.66 5 3.32 5 4 C3.68 4.33 2.36 4.66 1 5 C1 6.32 1 7.64 1 9 C0.01 8.67 -0.98 8.34 -2 8 C-2.33 7.01 -2.66 6.02 -3 5 C-1.68 4.67 -0.36 4.34 1 4 C0.67 2.68 0.34 1.36 0 0 Z " fill="#ECDDCC" transform="translate(70,190)"/>
<path d="M0 0 C-0.50603992 2.16874252 -0.99983813 3.99967627 -2 6 C-4.0625 6.625 -4.0625 6.625 -6 7 C-6.33 5.02 -6.66 3.04 -7 1 C-4.50935112 0.31292445 -2.62113708 0 0 0 Z " fill="#CD957F" transform="translate(105,144)"/>
<path d="M0 0 C1.485 0.99 1.485 0.99 3 2 C3 3.32 3 4.64 3 6 C3.66 6 4.32 6 5 6 C4.67 6.99 4.34 7.98 4 9 C2.35 8.67 0.7 8.34 -1 8 C-0.67 5.36 -0.34 2.72 0 0 Z " fill="#796750" transform="translate(60,99)"/>
<path d="M0 0 C1.32 0.99 2.64 1.98 4 3 C5.32 2.34 6.64 1.68 8 1 C6.625 3.5 6.625 3.5 5 6 C4.34 6 3.68 6 3 6 C3 6.66 3 7.32 3 8 C2.34 8 1.68 8 1 8 C1 6.35 1 4.7 1 3 C0.34 2.67 -0.32 2.34 -1 2 C-0.67 1.34 -0.34 0.68 0 0 Z " fill="#EADAC8" transform="translate(88,194)"/>
<path d="M0 0 C1.32 0 2.64 0 4 0 C4.33 2.31 4.66 4.62 5 7 C3.68 7 2.36 7 1 7 C0.67 4.69 0.34 2.38 0 0 Z " fill="#EBDDCB" transform="translate(191,156)"/>
<path d="M0 0 C0.33 0 0.66 0 1 0 C1 1.65 1 3.3 1 5 C2.32 5.33 3.64 5.66 5 6 C4.01 7.485 4.01 7.485 3 9 C-0.125 9.1875 -0.125 9.1875 -3 9 C-3 8.34 -3 7.68 -3 7 C-2.34 6.67 -1.68 6.34 -1 6 C-0.34227572 2.97065509 -0.34227572 2.97065509 0 0 Z " fill="#5E4B36" transform="translate(67,107)"/>
<path d="M0 0 C1.65 0 3.3 0 5 0 C4.67 2.31 4.34 4.62 4 7 C2 6 2 6 0 4 C0 2.68 0 1.36 0 0 Z " fill="#826F5B" transform="translate(69,107)"/>
<path d="M0 0 C1.0828125 0.37125 1.0828125 0.37125 2.1875 0.75 C2.1875 1.41 2.1875 2.07 2.1875 2.75 C-0.57174185 4.55411967 -1.70222103 4.7627245 -5.0625 4.375 C-5.97 4.16875 -6.8775 3.9625 -7.8125 3.75 C-3.50480769 -0.31153846 -3.50480769 -0.31153846 0 0 Z " fill="#A68471" transform="translate(109.8125,158.25)"/>
<path d="M0 0 C1.98 0.66 3.96 1.32 6 2 C5.01 2.33 4.02 2.66 3 3 C2.67 3.99 2.34 4.98 2 6 C-0.0625 6.6875 -0.0625 6.6875 -2 7 C-1.125 1.125 -1.125 1.125 0 0 Z " fill="#F7F0E2" transform="translate(203,149)"/>
<path d="M0 0 C1 3 1 3 0 6 C-0.66 6 -1.32 6 -2 6 C-2 6.66 -2 7.32 -2 8 C-2.66 8 -3.32 8 -4 8 C-4 7.34 -4 6.68 -4 6 C-4.66 5.67 -5.32 5.34 -6 5 C-6 4.34 -6 3.68 -6 3 C-4.02 2.01 -2.04 1.02 0 0 Z " fill="#FDF9F2" transform="translate(60,17)"/>
<path d="M0 0 C2.31 0.66 4.62 1.32 7 2 C7 2.66 7 3.32 7 4 C5.68 4 4.36 4 3 4 C3 4.66 3 5.32 3 6 C2.01 6 1.02 6 0 6 C-0.38218767 4.34385343 -0.71395102 2.67542976 -1 1 C-0.67 0.67 -0.34 0.34 0 0 Z " fill="#C18F7B" transform="translate(109,142)"/>
<path d="M0 0 C0.20140476 3.62528568 -0.14223235 5.86501708 -2 9 C-2.66 8.67 -3.32 8.34 -4 8 C-4.1875 5.125 -4.1875 5.125 -4 2 C-1 0 -1 0 0 0 Z " fill="#675640" transform="translate(143,101)"/>
<path d="M0 0 C0.598125 0.33 1.19625 0.66 1.8125 1 C4.05386471 2.20787988 4.05386471 2.20787988 7 2 C5 5 5 5 2.375 5.6875 C1.199375 5.8421875 1.199375 5.8421875 0 6 C0 4.02 0 2.04 0 0 Z " fill="#F1E5D5" transform="translate(184,170)"/>
<path d="M0 0 C0.66 0.33 1.32 0.66 2 1 C0.10595266 4.34243648 -0.94091591 4.97997149 -4.6875 6.25 C-6.3271875 6.62125 -6.3271875 6.62125 -8 7 C-8 6.34 -8 5.68 -8 5 C-6.3203125 3.67578125 -6.3203125 3.67578125 -4.125 2.3125 C-3.40570313 1.85488281 -2.68640625 1.39726562 -1.9453125 0.92578125 C-1.30335937 0.62027344 -0.66140625 0.31476563 0 0 Z " fill="#FBF9F0" transform="translate(116,159)"/>
<path d="M0 0 C1.32 0.33 2.64 0.66 4 1 C3.8125 2.8125 3.8125 2.8125 3 5 C0.4375 6.75 0.4375 6.75 -2 8 C-1.34 5.36 -0.68 2.72 0 0 Z " fill="#644F3C" transform="translate(120,133)"/>
<path d="M0 0 C0.33 0.99 0.66 1.98 1 3 C0.01 3.33 -0.98 3.66 -2 4 C-1.34 2.68 -0.68 1.36 0 0 Z M-8 2 C-7.34 2.33 -6.68 2.66 -6 3 C-6.33 3.66 -6.66 4.32 -7 5 C-5.35 4.67 -3.7 4.34 -2 4 C-2.33 4.99 -2.66 5.98 -3 7 C-4.98 6.34 -6.96 5.68 -9 5 C-8.67 4.01 -8.34 3.02 -8 2 Z " fill="#F6EDDF" transform="translate(191,171)"/>
<path d="M0 0 C2.375 0.1875 2.375 0.1875 5 1 C6.3125 3.5625 6.3125 3.5625 7 6 C6.05125 5.835 5.1025 5.67 4.125 5.5 C1.19831099 4.9473365 1.19831099 4.9473365 -1 5 C-0.67 3.35 -0.34 1.7 0 0 Z " fill="#F3E8D8" transform="translate(192,74)"/>
<path d="M0 0 C0.66 0.33 1.32 0.66 2 1 C2.625 3.5625 2.625 3.5625 3 6 C2.34 6 1.68 6 1 6 C0.67 7.32 0.34 8.64 0 10 C-0.66 10 -1.32 10 -2 10 C-1.67 9.0925 -1.34 8.185 -1 7.25 C0.19605723 3.92954193 0.19605723 3.92954193 0 0 Z " fill="#DFA28C" transform="translate(106,145)"/>
<path d="M0 0 C0.99 0.33 1.98 0.66 3 1 C3 2.65 3 4.3 3 6 C2.01 6.495 2.01 6.495 1 7 C0.34 6.67 -0.32 6.34 -1 6 C-0.67 4.02 -0.34 2.04 0 0 Z " fill="#85705C" transform="translate(117,132)"/>
<path d="M0 0 C0.66 0 1.32 0 2 0 C2.33 1.32 2.66 2.64 3 4 C1.02 4.66 -0.96 5.32 -3 6 C-3.66 5.34 -4.32 4.68 -5 4 C-3.35 3.67 -1.7 3.34 0 3 C0 2.01 0 1.02 0 0 Z " fill="#F1E6D6" transform="translate(136,198)"/>
<path d="M0 0 C-0.66 1.65 -1.32 3.3 -2 5 C-2.66 5 -3.32 5 -4 5 C-4.66 3.35 -5.32 1.7 -6 0 C-3 -1 -3 -1 0 0 Z " fill="#E8D8C5" transform="translate(86,196)"/>
<path d="M0 0 C0.33 0.66 0.66 1.32 1 2 C1.66 2.33 2.32 2.66 3 3 C2.34 3 1.68 3 1 3 C1 3.66 1 4.32 1 5 C0.34 5 -0.32 5 -1 5 C-1 4.34 -1 3.68 -1 3 C-2.65 3.33 -4.3 3.66 -6 4 C-4.60804085 1.2160817 -2.84424221 1.02101003 0 0 Z " fill="#57412E" transform="translate(115,136)"/>
<path d="M0 0 C0.7425 0.2475 1.485 0.495 2.25 0.75 C1.63125 0.8325 1.0125 0.915 0.375 1 C-1.93437567 1.56258459 -1.93437567 1.56258459 -3 3.8125 C-3.2475 4.451875 -3.495 5.09125 -3.75 5.75 C-4.74 5.75 -5.73 5.75 -6.75 5.75 C-6.75 3.75 -6.75 3.75 -5.0625 1.5625 C-2.75 -0.25 -2.75 -0.25 0 0 Z " fill="#F2E4D3" transform="translate(138.75,179.25)"/>
<path d="M0 0 C0.66 0.66 1.32 1.32 2 2 C1.75 4.0625 1.75 4.0625 1 6 C0.01 6.495 0.01 6.495 -1 7 C-1.33 5.02 -1.66 3.04 -2 1 C-1.34 0.67 -0.68 0.34 0 0 Z " fill="#9D7863" transform="translate(97,144)"/>
<path d="M0 0 C0.66 0 1.32 0 2 0 C2 1.65 2 3.3 2 5 C1.01 5.495 1.01 5.495 0 6 C-0.66 5.67 -1.32 5.34 -2 5 C-1.125 1.125 -1.125 1.125 0 0 Z " fill="#F4EADB" transform="translate(205,137)"/>
<path d="M0 0 C1.32 0 2.64 0 4 0 C4.33 0.99 4.66 1.98 5 3 C4.01 3.99 3.02 4.98 2 6 C0 3 0 3 0 0 Z " fill="#81715A" transform="translate(139,109)"/>
<path d="M0 0 C2.625 0.375 2.625 0.375 5 1 C4.67 1.99 4.34 2.98 4 4 C2.68 4 1.36 4 0 4 C-0.66 3.34 -1.32 2.68 -2 2 C-1.34 1.34 -0.68 0.68 0 0 Z " fill="#F4E9DA" transform="translate(193,79)"/>
<path d="M0 0 C1.32 0.66 2.64 1.32 4 2 C4 2.99 4 3.98 4 5 C3.01 5.33 2.02 5.66 1 6 C0.34 4.35 -0.32 2.7 -1 1 C-0.67 0.67 -0.34 0.34 0 0 Z " fill="#F6EADB" transform="translate(42,169)"/>
<path d="M0 0 C0.66 0 1.32 0 2 0 C2.33 1.32 2.66 2.64 3 4 C1.02 4.99 1.02 4.99 -1 6 C-1.042721 4.33388095 -1.04063832 2.66617115 -1 1 C-0.67 0.67 -0.34 0.34 0 0 Z " fill="#F3E7D7" transform="translate(21,153)"/>
<path d="M0 0 C0.75 1.6875 0.75 1.6875 1 4 C-0.9375 6.75 -0.9375 6.75 -3 9 C-2.4140625 2.84765625 -2.4140625 2.84765625 -2 1 C-1.34 0.67 -0.68 0.34 0 0 Z " fill="#E8DCCF" transform="translate(121,142)"/>
<path d="M0 0 C0.99 0 1.98 0 3 0 C2.67 0.99 2.34 1.98 2 3 C2.38932856 5.14255793 2.38932856 5.14255793 3 7 C2.34 7 1.68 7 1 7 C1 6.34 1 5.68 1 5 C0.34 5 -0.32 5 -1 5 C-0.67 3.35 -0.34 1.7 0 0 Z " fill="#FFFFFD" transform="translate(190,44)"/>
<path d="M0 0 C1.98 0.66 3.96 1.32 6 2 C5.67 2.66 5.34 3.32 5 4 C2.69 4 0.38 4 -2 4 C-1.34 2.68 -0.68 1.36 0 0 Z " fill="#FEFDF0" transform="translate(172,30)"/>
<path d="M0 0 C0.99 0.33 1.98 0.66 3 1 C3 1.66 3 2.32 3 3 C2.01 2.67 1.02 2.34 0 2 C0 1.34 0 0.68 0 0 Z " fill="#FFFFFF" transform="translate(126,216)"/>
<path d="M0 0 C1.485 0.99 1.485 0.99 3 2 C1.68 1.67 0.36 1.34 -1 1 C-0.67 0.67 -0.34 0.34 0 0 Z " fill="#FFFFFF" transform="translate(107,3)"/>
<path d="M0 0 C0.99 1.485 0.99 1.485 2 3 C1.34 3 0.68 3 0 3 C0 2.01 0 1.02 0 0 Z " fill="#FFFFFF" transform="translate(58,208)"/>
<path d="M0 0 C0.66 0.33 1.32 0.66 2 1 C1.01 1 0.02 1 -1 1 C-0.67 0.67 -0.34 0.34 0 0 Z " fill="#FFFFFF" transform="translate(11,67)"/>
<path d="M0 0 C0.33 0.66 0.66 1.32 1 2 C0.34 1.67 -0.32 1.34 -1 1 C-0.67 0.67 -0.34 0.34 0 0 Z " fill="#FFFFEE" transform="translate(108,217)"/>
<path d="" fill="#FFFFFF" transform="translate(0,0)"/>
<path d="M0 0 C0.66 0 1.32 0 2 0 C1.67 0.66 1.34 1.32 1 2 C0.67 1.34 0.34 0.68 0 0 Z " fill="#FFFFFF" transform="translate(83,217)"/>
<path d="" fill="#FFFFEE" transform="translate(0,0)"/>
<path d="" fill="#FFFFFF" transform="translate(0,0)"/>
<path d="M0 0 C0.99 0.495 0.99 0.495 2 1 C1.01 1.495 1.01 1.495 0 2 C0 1.34 0 0.68 0 0 Z " fill="#FFFFFF" transform="translate(18,52)"/>
<path d="" fill="#FFFFFF" transform="translate(0,0)"/>
<path d="M0 0 C2 1 2 1 2 1 Z " fill="#FFFFFF" transform="translate(81,216)"/>
<path d="M0 0 C2 1 2 1 2 1 Z " fill="#FFFFFF" transform="translate(17,216)"/>
<path d="M0 0 C2 1 2 1 2 1 Z " fill="#FFFFFF" transform="translate(149,210)"/>
<path d="" fill="#FFFFFF" transform="translate(0,0)"/>
<path d="" fill="#FFFFFF" transform="translate(0,0)"/>
<path d="" fill="#FFFFFF" transform="translate(0,0)"/>
<path d="" fill="#FFFFFF" transform="translate(0,0)"/>
<path d="M0 0 C2 1 2 1 2 1 Z " fill="#FFFFE5" transform="translate(216,134)"/>
<path d="M0 0 C2 1 2 1 2 1 Z " fill="#FFFFFF" transform="translate(216,94)"/>
<path d="" fill="#FFFFFF" transform="translate(0,0)"/>
<path d="M0 0 C2 1 2 1 2 1 Z " fill="#FEFEEC" transform="translate(32,36)"/>
<path d="" fill="#FFFFFF" transform="translate(0,0)"/>
<path d="M0 0 C2 1 2 1 2 1 Z " fill="#FFFFFF" transform="translate(214,1)"/>
<path d="M0 0 C2 1 2 1 2 1 Z " fill="#FFFFFF" transform="translate(206,1)"/>
<path d="M0 0 C2 1 2 1 2 1 Z " fill="#FFFFFF" transform="translate(190,1)"/>
<path d="M0 0 C2 1 2 1 2 1 Z " fill="#FFFFFF" transform="translate(174,1)"/>
<path d="M0 0 C2 1 2 1 2 1 Z " fill="#FFFFFF" transform="translate(166,1)"/>
<path d="M0 0 C2 1 2 1 2 1 Z " fill="#FFFFFF" transform="translate(158,1)"/>
<path d="M0 0 C2 1 2 1 2 1 Z " fill="#FFFFFF" transform="translate(150,1)"/>
<path d="M0 0 C2 1 2 1 2 1 Z " fill="#FFFFFF" transform="translate(142,1)"/>
<path d="M0 0 C2 1 2 1 2 1 Z " fill="#FFFFFF" transform="translate(134,1)"/>
<path d="M0 0 C2 1 2 1 2 1 Z " fill="#FFFFFF" transform="translate(126,1)"/>
<path d="M0 0 C2 1 2 1 2 1 Z " fill="#FFFFFF" transform="translate(118,1)"/>
<path d="M0 0 C2 1 2 1 2 1 Z " fill="#FFFFFF" transform="translate(110,1)"/>
<path d="M0 0 C2 1 2 1 2 1 Z " fill="#FFFFFF" transform="translate(102,1)"/>
<path d="M0 0 C2 1 2 1 2 1 Z " fill="#FFFFFF" transform="translate(86,1)"/>
<path d="M0 0 C2 1 2 1 2 1 Z " fill="#FFFFFF" transform="translate(78,1)"/>
<path d="M0 0 C2 1 2 1 2 1 Z " fill="#FFFFFF" transform="translate(70,1)"/>
<path d="M0 0 C2 1 2 1 2 1 Z " fill="#FFFFFF" transform="translate(62,1)"/>
<path d="M0 0 C2 1 2 1 2 1 Z " fill="#FFFFFF" transform="translate(54,1)"/>
<path d="M0 0 C2 1 2 1 2 1 Z " fill="#FFFFFF" transform="translate(46,1)"/>
<path d="M0 0 C2 1 2 1 2 1 Z " fill="#FFFFFF" transform="translate(38,1)"/>
<path d="M0 0 C2 1 2 1 2 1 Z " fill="#FFFFFF" transform="translate(30,1)"/>
<path d="M0 0 C2 1 2 1 2 1 Z " fill="#FFFFFF" transform="translate(22,1)"/>
<path d="M0 0 C2 1 2 1 2 1 Z " fill="#FFFFFF" transform="translate(14,1)"/>
<path d="M0 0 C2 1 2 1 2 1 Z " fill="#FFFFFF" transform="translate(6,1)"/>
<path d="" fill="#FFFFFF" transform="translate(0,0)"/>
<path d="" fill="#FFFFFF" transform="translate(0,0)"/>
<path d="" fill="#FFFFFF" transform="translate(0,0)"/>
<path d="" fill="#FFFFFF" transform="translate(0,0)"/>
<path d="" fill="#FFFFFF" transform="translate(0,0)"/>
<path d="" fill="#FFFFFF" transform="translate(0,0)"/>
<path d="" fill="#FFFFFF" transform="translate(0,0)"/>
<path d="" fill="#FFFFFF" transform="translate(0,0)"/>
<path d="" fill="#FFFFFF" transform="translate(0,0)"/>
<path d="" fill="#FFFFFF" transform="translate(0,0)"/>
<path d="" fill="#FFFFFF" transform="translate(0,0)"/>
<path d="" fill="#FFFFFF" transform="translate(0,0)"/>
<path d="" fill="#FFFFFF" transform="translate(0,0)"/>
<path d="" fill="#FFFFFF" transform="translate(0,0)"/>
<path d="" fill="#FFFFFF" transform="translate(0,0)"/>
<path d="" fill="#FFFFFF" transform="translate(0,0)"/>
<path d="" fill="#FFFFFF" transform="translate(0,0)"/>
<path d="" fill="#FFFFD4" transform="translate(0,0)"/>
<path d="" fill="#FFFFFF" transform="translate(0,0)"/>
<path d="" fill="#FFFFFF" transform="translate(0,0)"/>
<path d="" fill="#FFFFFF" transform="translate(0,0)"/>
<path d="" fill="#FFFFFF" transform="translate(0,0)"/>
<path d="" fill="#FFFFFF" transform="translate(0,0)"/>
<path d="" fill="#FFFFFF" transform="translate(0,0)"/>
<path d="" fill="#FFFFFF" transform="translate(0,0)"/>
<path d="" fill="#FFFFFF" transform="translate(0,0)"/>
<path d="" fill="#FFFFCC" transform="translate(0,0)"/>
<path d="" fill="#FFFFFF" transform="translate(0,0)"/>
<path d="" fill="#FFFFFF" transform="translate(0,0)"/>
<path d="" fill="#FFFFFF" transform="translate(0,0)"/>
<path d="" fill="#FFFFFF" transform="translate(0,0)"/>
<path d="" fill="#FFFFFF" transform="translate(0,0)"/>
<path d="" fill="#FFFFFF" transform="translate(0,0)"/>
<path d="" fill="#FFFFFF" transform="translate(0,0)"/>
<path d="" fill="#FFFFFF" transform="translate(0,0)"/>
<path d="" fill="#FFFFFF" transform="translate(0,0)"/>
<path d="" fill="#FFFFFF" transform="translate(0,0)"/>
<path d="" fill="#FFFFFF" transform="translate(0,0)"/>
<path d="" fill="#FFFFFF" transform="translate(0,0)"/>
<path d="" fill="#FFFFFF" transform="translate(0,0)"/>
<path d="" fill="#FFFFFF" transform="translate(0,0)"/>
<path d="" fill="#FFFFFF" transform="translate(0,0)"/>
<path d="" fill="#FFFFFF" transform="translate(0,0)"/>
<path d="" fill="#FFFFFF" transform="translate(0,0)"/>
<path d="" fill="#FFFFFF" transform="translate(0,0)"/>
<path d="" fill="#FFFFFF" transform="translate(0,0)"/>
<path d="" fill="#FFFFFF" transform="translate(0,0)"/>
<path d="" fill="#FFFFCC" transform="translate(0,0)"/>
<path d="" fill="#FFFFFF" transform="translate(0,0)"/>
<path d="" fill="#FFFFFF" transform="translate(0,0)"/>
<path d="" fill="#FFFFFF" transform="translate(0,0)"/>
<path d="" fill="#FFFFFF" transform="translate(0,0)"/>
<path d="" fill="#FFFFFF" transform="translate(0,0)"/>
<path d="" fill="#FFFFFF" transform="translate(0,0)"/>
<path d="" fill="#FFFFFF" transform="translate(0,0)"/>
<path d="" fill="#FFFFFF" transform="translate(0,0)"/>
<path d="" fill="#FFFFFF" transform="translate(0,0)"/>
<path d="" fill="#FFFFCC" transform="translate(0,0)"/>
<path d="" fill="#FFFFFF" transform="translate(0,0)"/>
<path d="" fill="#FFFFFF" transform="translate(0,0)"/>
<path d="" fill="#FFFFFF" transform="translate(0,0)"/>
<path d="" fill="#FFFFFF" transform="translate(0,0)"/>
<path d="" fill="#FFFFFF" transform="translate(0,0)"/>
<path d="" fill="#FFFFD4" transform="translate(0,0)"/>
<path d="" fill="#FFFFFF" transform="translate(0,0)"/>
<path d="" fill="#FFFFFF" transform="translate(0,0)"/>
<path d="" fill="#FFFFCC" transform="translate(0,0)"/>
<path d="" fill="#FFFFFF" transform="translate(0,0)"/>
<path d="" fill="#FFFFFF" transform="translate(0,0)"/>
<path d="" fill="#FFFFFF" transform="translate(0,0)"/>
<path d="" fill="#FFFFFF" transform="translate(0,0)"/>
<path d="" fill="#FFFFFF" transform="translate(0,0)"/>
<path d="" fill="#FFFFFF" transform="translate(0,0)"/>
<path d="" fill="#FFFFFF" transform="translate(0,0)"/>
<path d="" fill="#FFFFFF" transform="translate(0,0)"/>
<path d="" fill="#FFFFFF" transform="translate(0,0)"/>
<path d="" fill="#FFFFFF" transform="translate(0,0)"/>
<path d="" fill="#FFFFFF" transform="translate(0,0)"/>
<path d="" fill="#FFFFFF" transform="translate(0,0)"/>
<path d="" fill="#FFFFFF" transform="translate(0,0)"/>
<path d="" fill="#FFFFFF" transform="translate(0,0)"/>
<path d="" fill="#FFFFFF" transform="translate(0,0)"/>
<path d="" fill="#FFFFFF" transform="translate(0,0)"/>
<path d="" fill="#FFFFFF" transform="translate(0,0)"/>
<path d="" fill="#FFFFFF" transform="translate(0,0)"/>
<path d="" fill="#FFFFFF" transform="translate(0,0)"/>
<path d="" fill="#FFFFFF" transform="translate(0,0)"/>
<path d="" fill="#FFFFFF" transform="translate(0,0)"/>
<path d="" fill="#FFFFFF" transform="translate(0,0)"/>
<path d="" fill="#FFFFFF" transform="translate(0,0)"/>
<path d="" fill="#FFFFFF" transform="translate(0,0)"/>
<path d="" fill="#FFFFFF" transform="translate(0,0)"/>
<path d="" fill="#FFFFFF" transform="translate(0,0)"/>
<path d="" fill="#FFFFFF" transform="translate(0,0)"/>
<path d="" fill="#FFFFFF" transform="translate(0,0)"/>
<path d="" fill="#FFFFFF" transform="translate(0,0)"/>
<path d="" fill="#FFFFFF" transform="translate(0,0)"/>
<path d="" fill="#FFFFFF" transform="translate(0,0)"/>
<path d="" fill="#FFFFFF" transform="translate(0,0)"/>
<path d="" fill="#FFFFFF" transform="translate(0,0)"/>
<path d="" fill="#FFFFFF" transform="translate(0,0)"/>
<path d="" fill="#FFFFFF" transform="translate(0,0)"/>
<path d="" fill="#FFFFFF" transform="translate(0,0)"/>
<path d="" fill="#FFFFFF" transform="translate(0,0)"/>
<path d="" fill="#FFFFDF" transform="translate(0,0)"/>
<path d="" fill="#FFFFFF" transform="translate(0,0)"/>
<path d="" fill="#FFFFFF" transform="translate(0,0)"/>
<path d="" fill="#FFFFFF" transform="translate(0,0)"/>
<path d="" fill="#FFFFFF" transform="translate(0,0)"/>
<path d="" fill="#FFFFFF" transform="translate(0,0)"/>
<path d="" fill="#FFFFFF" transform="translate(0,0)"/>
<path d="" fill="#FFFFFF" transform="translate(0,0)"/>
<path d="" fill="#FFFFFF" transform="translate(0,0)"/>
<path d="" fill="#FFFFFF" transform="translate(0,0)"/>
<path d="" fill="#FFFFFF" transform="translate(0,0)"/>
<path d="" fill="#FFFFFF" transform="translate(0,0)"/>
<path d="" fill="#FFFFFF" transform="translate(0,0)"/>
<path d="" fill="#FFFFFF" transform="translate(0,0)"/>
<path d="" fill="#FFFFFF" transform="translate(0,0)"/>
</svg>
