<?xml version="1.0" encoding="UTF-8"?>
<svg version="1.1" xmlns="http://www.w3.org/2000/svg" width="220" height="220">
<path d="M0 0 C8.33333333 0 16.66666667 0 25 0 C25 0.66 25 1.32 25 2 C25.99 2 26.98 2 28 2 C28 1.34 28 0.68 28 0 C29.37453198 -0.05498128 30.74973578 -0.09322822 32.125 -0.125 C33.27355469 -0.15980469 33.27355469 -0.15980469 34.4453125 -0.1953125 C37 0 37 0 39.79296875 0.94921875 C44.25085789 2.4098426 48.68607536 2.72205545 53.34179688 3.12304688 C58.5701386 3.66899789 58.5701386 3.66899789 60.90234375 5.46484375 C61.26457031 5.97144531 61.62679687 6.47804688 62 7 C63.86766595 9.20724157 64.60834392 9.92166878 67.5 10.5 C70.34488689 11.06897738 71.21711622 11.77139527 73 14 C73.33 14.66 73.66 15.32 74 16 C76.84539199 16.9922353 76.84539199 16.9922353 79.19140625 17.54296875 C81.60435157 18.19887646 83.76790351 18.86678178 86 20 C87.5625 23.1875 87.5625 23.1875 88 26 C89.175625 26.2165625 89.175625 26.2165625 90.375 26.4375 C93 27 93 27 95 28 C95 28.66 95 29.32 95 30 C95.66 30 96.32 30 97 30 C97 29.34 97 28.68 97 28 C99 29 99 29 101 31 C101 32.66666667 101 34.33333333 101 36 C101.66 36 102.32 36 103 36 C103.1546875 36.8971875 103.1546875 36.8971875 103.3125 37.8125 C104.11504125 40.36604035 104.93888584 41.32057364 107 43 C107.70125 43.28875 108.4025 43.5775 109.125 43.875 C110.053125 44.431875 110.053125 44.431875 111 45 C111.625 47.5625 111.625 47.5625 112 50 C112.66 50.33 113.32 50.66 114 51 C114.72159424 52.64363134 115.39351421 54.31050386 116 56 C116.33 55.67 116.66 55.34 117 55 C117 54.01 117 53.02 117 52 C117.66 52 118.32 52 119 52 C119 53.65 119 55.3 119 57 C119.66 57.33 120.32 57.66 121 58 C120.7525 59.0725 120.505 60.145 120.25 61.25 C119.57571378 65.02745496 119.57571378 65.02745496 121.9375 67.4375 C122.618125 67.953125 123.29875 68.46875 124 69 C123.34 70.65 122.68 72.3 122 74 C122.66 74 123.32 74 124 74 C125.625 75.3125 125.625 75.3125 127 77 C127 77.99 127 78.98 127 80 C126.01 80 125.02 80 124 80 C124.99 80.33 125.98 80.66 127 81 C126.97679687 81.65484375 126.95359375 82.3096875 126.9296875 82.984375 C126.82751314 88.15147817 127.07185744 92.92046366 128.0625 98 C129.15739877 103.89560878 128.72767509 109.09242723 128 115 C127.8698328 118.57959793 127.94543773 121.57267261 129 125 C128.34 125 127.68 125 127 125 C127.33 125.99 127.66 126.98 128 128 C127.40265389 130.02178685 126.72351427 132.01985568 126 134 C124.6882354 138.32110691 123.65403825 142.53073866 123 147 C122.34 147 121.68 147 121 147 C120.71125 148.010625 120.4225 149.02125 120.125 150.0625 C119.94066406 150.69671875 119.75632813 151.3309375 119.56640625 151.984375 C119.02363089 153.91590661 118.5415913 155.86419536 118.0625 157.8125 C117 161 117 161 114 163 C112.78247223 164.8413484 112.78247223 164.8413484 111.8125 166.9375 C111.46832031 167.62714844 111.12414062 168.31679687 110.76953125 169.02734375 C109.81828733 171.11290504 109.81828733 171.11290504 110 174 C109.01 174 108.02 174 107 174 C107 174.66 107 175.32 107 176 C105.58599411 177.17833824 104.16724224 178.35154514 102.72265625 179.4921875 C100.28812895 181.62308894 98.37032918 184.09177855 96.39453125 186.64453125 C95 188 95 188 92 188 C91.67 188.99 91.34 189.98 91 191 C90.01 190.67 89.02 190.34 88 190 C87.67 191.98 87.34 193.96 87 196 C86.34 195.67 85.68 195.34 85 195 C82.0745356 194.7763932 82.0745356 194.7763932 80 196 C78.86649466 198.01669827 78.86649466 198.01669827 78 200 C77.21625 199.79375 76.4325 199.5875 75.625 199.375 C74.75875 199.25125 73.8925 199.1275 73 199 C72.34 199.66 71.68 200.32 71 201 C70.67 200.67 70.34 200.34 70 200 C69.54625 200.61875 69.0925 201.2375 68.625 201.875 C65.29284333 204.57246016 62.51183099 204.89299333 58.33984375 205.5078125 C55.74352283 205.90264534 55.74352283 205.90264534 53 208 C51.68 208 50.36 208 49 208 C48.34 209.32 47.68 210.64 47 212 C46.34 210.68 45.68 209.36 45 208 C45.33 208.99 45.66 209.98 46 211 C45.01 210.67 44.02 210.34 43 210 C42.34 210.66 41.68 211.32 41 212 C39.52068663 212 38.04132732 211.97541865 36.5625 211.9375 C33.87839774 211.87775519 33.87839774 211.87775519 31 213 C28.42734182 213.07029121 25.88358569 213.09370832 23.3125 213.0625 C22.61060547 213.05798828 21.90871094 213.05347656 21.18554688 213.04882812 C19.45699462 213.03706927 17.72848635 213.01913454 16 213 C16 212.34 16 211.68 16 211 C15.05125 211.185625 14.1025 211.37125 13.125 211.5625 C9.02799965 212.17411764 5.22140527 211.70671312 1.13671875 211.15625 C-1.05231181 210.81313321 -1.05231181 210.81313321 -3 212 C-4.66666667 211.33333333 -6.33333333 210.66666667 -8 210 C-8.66 210.33 -9.32 210.66 -10 211 C-10 210.34 -10 209.68 -10 209 C-11.32 209 -12.64 209 -14 209 C-14.33 209.66 -14.66 210.32 -15 211 C-16.98 210.01 -16.98 210.01 -19 209 C-19 208.34 -19 207.68 -19 207 C-21.47266765 207.34444881 -21.47266765 207.34444881 -24 208 C-24.33 208.66 -24.66 209.32 -25 210 C-25.12375 209.195625 -25.2475 208.39125 -25.375 207.5625 C-25.58125 206.716875 -25.7875 205.87125 -26 205 C-28.28705831 203.85647084 -29.59264762 203.89665561 -32.125 203.9375 C-34.043125 203.9684375 -34.043125 203.9684375 -36 204 C-36.33 203.01 -36.66 202.02 -37 201 C-37.99 201 -38.98 201 -40 201 C-40.33 201.66 -40.66 202.32 -41 203 C-41.0825 202.236875 -41.165 201.47375 -41.25 200.6875 C-41.8019203 197.9407027 -41.8019203 197.9407027 -43.6875 196.125 C-46.78894173 194.61619051 -48.72078533 195.18019633 -52 196 C-52.33 195.01 -52.66 194.02 -53 193 C-53.66 193.99 -54.32 194.98 -55 196 C-55.66 196 -56.32 196 -57 196 C-57.495 191.545 -57.495 191.545 -58 187 C-58.99 186.67 -59.98 186.34 -61 186 C-61.495 185.01 -61.495 185.01 -62 184 C-62.66 184.33 -63.32 184.66 -64 185 C-63.67 183.68 -63.34 182.36 -63 181 C-63.66 181 -64.32 181 -65 181 C-65.4125 180.030625 -65.825 179.06125 -66.25 178.0625 C-67.64899168 174.87739901 -67.64899168 174.87739901 -70.1875 174.125 C-70.785625 174.08375 -71.38375 174.0425 -72 174 C-72.12375 173.443125 -72.2475 172.88625 -72.375 172.3125 C-73.07075684 169.7381997 -73.83185296 167.40119114 -75 165 C-75.99 164.67 -76.98 164.34 -78 164 C-77.67 163.01 -77.34 162.02 -77 161 C-77.99 160.67 -78.98 160.34 -80 160 C-80.87890625 157.70703125 -80.87890625 157.70703125 -81.5625 154.8125 C-81.80871094 153.82121094 -82.05492188 152.82992187 -82.30859375 151.80859375 C-82.53675781 150.88175781 -82.76492187 149.95492187 -83 149 C-83.95506372 145.1996896 -83.95506372 145.1996896 -86 142 C-86.04063832 140.33382885 -86.042721 138.66611905 -86 137 C-86.66 136.67 -87.32 136.34 -88 136 C-87.34 136 -86.68 136 -86 136 C-86 135.34 -86 134.68 -86 134 C-86.66 134 -87.32 134 -88 134 C-88.09087891 132.93458984 -88.09087891 132.93458984 -88.18359375 131.84765625 C-88.30927734 130.46900391 -88.30927734 130.46900391 -88.4375 129.0625 C-88.51871094 128.14597656 -88.59992188 127.22945313 -88.68359375 126.28515625 C-88.76044976 124.03840268 -88.76044976 124.03840268 -90 123 C-90.14941378 119.86231055 -90.00067913 117.00411108 -89.48828125 113.90234375 C-88.80566294 108.4468582 -88.9909045 103.07518503 -89.12695312 97.58789062 C-89.13791016 96.76869141 -89.14886719 95.94949219 -89.16015625 95.10546875 C-89.17699463 94.36449951 -89.19383301 93.62353027 -89.21118164 92.86010742 C-89 91 -89 91 -87 89 C-87 87.68 -87 86.36 -87 85 C-87.66 84.67 -88.32 84.34 -89 84 C-89 81.33333333 -89 78.66666667 -89 76 C-88.236875 76.020625 -87.47375 76.04125 -86.6875 76.0625 C-83.89814214 76.12942841 -83.89814214 76.12942841 -81 75 C-81.01160156 74.36191406 -81.02320312 73.72382812 -81.03515625 73.06640625 C-81.04417969 72.24011719 -81.05320312 71.41382812 -81.0625 70.5625 C-81.07410156 69.73878906 -81.08570312 68.91507812 -81.09765625 68.06640625 C-81 66 -81 66 -80 65 C-74.90322235 58.66557494 -74.90322235 58.66557494 -73 51 C-73 50.34 -73 49.68 -73 49 C-71.515 48.505 -71.515 48.505 -70 48 C-69.34 47.01 -68.68 46.02 -68 45 C-66.515 44.505 -66.515 44.505 -65 44 C-65 41.36 -65 38.72 -65 36 C-64.195625 35.87625 -63.39125 35.7525 -62.5625 35.625 C-61.716875 35.41875 -60.87125 35.2125 -60 35 C-59.67 34.34 -59.34 33.68 -59 33 C-58.34 33 -57.68 33 -57 33 C-56.67 32.01 -56.34 31.02 -56 30 C-53.64046906 27.64046906 -52.22104383 27.50858587 -49 27 C-48.9071875 26.1028125 -48.9071875 26.1028125 -48.8125 25.1875 C-47.63459654 22.01622145 -45.99658631 21.56072204 -43 20 C-41.43464132 19.15108355 -39.8723283 18.29653587 -38.3125 17.4375 C-37.54550781 17.02371094 -36.77851562 16.60992188 -35.98828125 16.18359375 C-33.8676301 15.03156653 -33.8676301 15.03156653 -32 13 C-31.01 13 -30.02 13 -29 13 C-28.34 12.34 -27.68 11.68 -27 11 C-25.88625 10.71125 -24.7725 10.4225 -23.625 10.125 C-19.99691235 9.3167955 -19.99691235 9.3167955 -18.0625 7 C-14.26297915 3.31561615 -9.14125447 2.89585702 -4 2.875 C-3.01 2.91625 -2.02 2.9575 -1 3 C-0.67 2.01 -0.34 1.02 0 0 Z M58 5 C59 8 59 8 59 8 Z M-83 146 C-82 148 -82 148 -82 148 Z " fill="#F9F1E4" transform="translate(90,0)"/>
<path d="M0 0 C1.65 0 3.3 0 5 0 C5.33 0.66 5.66 1.32 6 2 C5.01 2.495 5.01 2.495 4 3 C4.99 3.33 5.98 3.66 7 4 C7 6 7 8 7 10 C7.66 10 8.32 10 9 10 C9 11.65 9 13.3 9 15 C9.66 15 10.32 15 11 15 C10.85923685 16.9587043 10.7122324 18.91696093 10.5625 20.875 C10.48128906 21.96554688 10.40007813 23.05609375 10.31640625 24.1796875 C10 27 10 27 9 29 C8.01 29.33 7.02 29.66 6 30 C9.66980204 32.91171789 9.66980204 32.91171789 14 34 C14 34.99 14 35.98 14 37 C12.04783565 38.95216435 10.46800047 39.84826645 8 41 C8 40.34 8 39.68 8 39 C7.34 38.67 6.68 38.34 6 38 C6.66 38 7.32 38 8 38 C8 37.34 8 36.68 8 36 C7.401875 36.185625 6.80375 36.37125 6.1875 36.5625 C4 37 4 37 1 36 C1 34.68 1 33.36 1 32 C1.66 31.67 2.32 31.34 3 31 C3 30.34 3 29.68 3 29 C2.34 28.34 1.68 27.68 1 27 C1.99 27 2.98 27 4 27 C3.525625 26.484375 3.05125 25.96875 2.5625 25.4375 C-0.55920143 20.56764577 -0.22082518 14.63104199 0 9 C0.33 8.34 0.66 7.68 1 7 C0.71758117 4.6599583 0.38749213 2.32495277 0 0 Z M4 41 C6.31 41.33 8.62 41.66 11 42 C11.33 42.99 11.66 43.98 12 45 C12.99 45 13.98 45 15 45 C15.33 44.01 15.66 43.02 16 42 C16 42.66 16 43.32 16 44 C16.66 44 17.32 44 18 44 C18.103125 44.598125 18.20625 45.19625 18.3125 45.8125 C19.09385053 48.29861534 20.14895416 49.22943442 22 51 C22 51.66 22 52.32 22 53 C22.99 52.67 23.98 52.34 25 52 C27.125 53.125 27.125 53.125 29 55 C29.6875 57.4375 29.6875 57.4375 30 60 C30.32483418 61.33542939 30.6550855 62.66961551 31 64 C34.12197478 62.6910428 34.12197478 62.6910428 36 60 C36.99 60.33 37.98 60.66 39 61 C39.625 63.3125 39.625 63.3125 40 66 C39.34 66.99 38.68 67.98 38 69 C37.34 69 36.68 69 36 69 C36.3403125 69.86625 36.3403125 69.86625 36.6875 70.75 C37 73 37 73 35.5625 75.25 C35.046875 75.8275 34.53125 76.405 34 77 C35.65 75.68 37.3 74.36 39 73 C39.66 74.32 40.32 75.64 41 77 C42.32 76.34 43.64 75.68 45 75 C45 75.66 45 76.32 45 77 C46.98 76.505 46.98 76.505 49 76 C48.34 77.65 47.68 79.3 47 81 C49.97394902 82.25931967 49.97394902 82.25931967 53.0625 81.4375 C54.031875 81.293125 55.00125 81.14875 56 81 C58 83 58 83 59 85 C60.32 84.34 61.64 83.68 63 83 C63.66 84.32 64.32 85.64 65 87 C67.89932357 84.60490662 68.50168276 82.68754757 69 79 C69.33 79.66 69.66 80.32 70 81 C71.32 80.67 72.64 80.34 74 80 C75.28571429 87.42857143 75.28571429 87.42857143 74 91 C74.66 91 75.32 91 76 91 C76.66 89.68 77.32 88.36 78 87 C78.33 87.66 78.66 88.32 79 89 C80.98 88.34 82.96 87.68 85 87 C85 88.65 85 90.3 85 92 C85.99 91.67 86.98 91.34 88 91 C88 91.66 88 92.32 88 93 C91.24849977 91.27773504 91.24849977 91.27773504 92 88 C92.66 88 93.32 88 94 88 C94 88.99 94 89.98 94 91 C94.99 91 95.98 91 97 91 C97 91.66 97 92.32 97 93 C97.99 93 98.98 93 100 93 C100 93.66 100 94.32 100 95 C101.1446875 93.9790625 101.1446875 93.9790625 102.3125 92.9375 C103.6428125 91.9784375 103.6428125 91.9784375 105 91 C107.50357861 91.8345262 109.66785852 92.79371992 112 94 C113.20628008 91.66785852 114.1654738 89.50357861 115 87 C115.66 87 116.32 87 117 87 C117 86.34 117 85.68 117 85 C117.66 85 118.32 85 119 85 C118.01 87.97 117.02 90.94 116 94 C117.65 94 119.3 94 121 94 C121 95.32 121 96.64 121 98 C121.45375 97.505 121.9075 97.01 122.375 96.5 C124 95 124 95 126 95 C126.33 93.02 126.66 91.04 127 89 C127.66 89 128.32 89 129 89 C129 89.66 129 90.32 129 91 C130.32 91 131.64 91 133 91 C133 90.01 133 89.02 133 88 C133.99 88 134.98 88 136 88 C136.84098656 92.01804691 137.05404945 95.01803543 136 99 C135.34 99 134.68 99 134 99 C134 98.34 134 97.68 134 97 C133.34 97 132.68 97 132 97 C131.34 99.31 130.68 101.62 130 104 C128.68 104.33 127.36 104.66 126 105 C126 104.34 126 103.68 126 103 C126.66 102.67 127.32 102.34 128 102 C126.515 101.505 126.515 101.505 125 101 C124.01 101.99 124.01 101.99 123 103 C122.01 103 121.02 103 120 103 C117.84982472 103.74172877 117.84982472 103.74172877 116 105 C115.505 106.485 115.505 106.485 115 108 C113.35 108 111.7 108 110 108 C110 107.01 110 106.02 110 105 C109.34 105 108.68 105 108 105 C108 105.99 108 106.98 108 108 C107.01 108 106.02 108 105 108 C104.67 108.66 104.34 109.32 104 110 C103.34 110 102.68 110 102 110 C101.01 110.495 101.01 110.495 100 111 C100 110.34 100 109.68 100 109 C97 107.66666667 97 107.66666667 94 109 C94 109.66 94 110.32 94 111 C92.02 110.67 90.04 110.34 88 110 C88 109.34 88 108.68 88 108 C86.02 107.34 84.04 106.68 82 106 C81.67 106.66 81.34 107.32 81 108 C79.515 107.505 79.515 107.505 78 107 C78 105.02 78 103.04 78 101 C77.54625 101.495 77.0925 101.99 76.625 102.5 C75 104 75 104 73 104 C73.33 103.01 73.66 102.02 74 101 C73.071875 101.185625 72.14375 101.37125 71.1875 101.5625 C68 102 68 102 65 101 C65 102.65 65 104.3 65 106 C63 105 63 105 61.875 101.9375 C61.58625 100.968125 61.2975 99.99875 61 99 C60.608125 99.515625 60.21625 100.03125 59.8125 100.5625 C58.9153125 101.2740625 58.9153125 101.2740625 58 102 C55.3125 101.6875 55.3125 101.6875 53 101 C53.33 100.01 53.66 99.02 54 98 C53.01 97.67 52.02 97.34 51 97 C50.67 96.34 50.34 95.68 50 95 C49.34 95.99 48.68 96.98 48 98 C45.125 97.6875 45.125 97.6875 42 97 C41.34 96.01 40.68 95.02 40 94 C41.65 94.33 43.3 94.66 45 95 C45 94.34 45 93.68 45 93 C44.05125 92.9175 43.1025 92.835 42.125 92.75 C39 92 39 92 37.5625 90.0625 C37 88 37 88 38 86 C37.34 86 36.68 86 36 86 C35.505 86.99 35.505 86.99 35 88 C34.01 87.34 33.02 86.68 32 86 C32.99 86 33.98 86 35 86 C34.67 85.34 34.34 84.68 34 84 C33.34 84 32.68 84 32 84 C31.34 84.66 30.68 85.32 30 86 C29.67 85.34 29.34 84.68 29 84 C27.35 84 25.7 84 24 84 C24 83.34 24 82.68 24 82 C23.01 82 22.02 82 21 82 C20.67 82.66 20.34 83.32 20 84 C19.51080078 82.87851563 19.51080078 82.87851563 19.01171875 81.734375 C18.57472656 80.74953125 18.13773438 79.7646875 17.6875 78.75 C17.04361328 77.28820312 17.04361328 77.28820312 16.38671875 75.796875 C15.12500417 73.25212109 13.73244339 71.23292704 12 69 C11.28837557 67.35202764 10.60968047 65.68834592 10 64 C9.34 64.33 8.68 64.66 8 65 C8 63.02 8 61.04 8 59 C7.34 59 6.68 59 6 59 C6.33 57.68 6.66 56.36 7 55 C6.01 54.67 5.02 54.34 4 54 C2.81693272 51.63386544 2.86645392 50.13219264 2.875 47.5 C2.87242188 46.7059375 2.86984375 45.911875 2.8671875 45.09375 C3 43 3 43 4 41 Z M29 64 C28.67 64.66 28.34 65.32 28 66 C28.66 66 29.32 66 30 66 C29.67 65.34 29.34 64.68 29 64 Z " fill="#EEE0D0" transform="translate(9,96)"/>
<path d="M0 0 C3.375 -0.125 3.375 -0.125 7 0 C7.66 0.66 8.32 1.32 9 2 C8.625 4.125 8.625 4.125 8 6 C7.34 6 6.68 6 6 6 C5.34 7.32 4.68 8.64 4 10 C2.35 10 0.7 10 -1 10 C-1 11.98 -1 13.96 -1 16 C-1.66 16 -2.32 16 -3 16 C-3.33 15.34 -3.66 14.68 -4 14 C-4.66 14 -5.32 14 -6 14 C-6.495 14.495 -6.99 14.99 -7.5 15.5 C-7.995 15.995 -8.49 16.49 -9 17 C-9.66 17 -10.32 17 -11 17 C-11.0825 17.721875 -11.165 18.44375 -11.25 19.1875 C-12.14750201 22.55313254 -13.7114278 24.41612816 -16 27 C-15.34 27.99 -14.68 28.98 -14 30 C-14.66 30.33 -15.32 30.66 -16 31 C-16.65555119 33.52733235 -16.65555119 33.52733235 -17 36 C-16.34 36.33 -15.68 36.66 -15 37 C-15.99 37.495 -15.99 37.495 -17 38 C-17 38.66 -17 39.32 -17 40 C-16.34 40 -15.68 40 -15 40 C-15 39.34 -15 38.68 -15 38 C-14.34 38.33 -13.68 38.66 -13 39 C-13.6875 41.875 -13.6875 41.875 -15 45 C-17.625 46.375 -17.625 46.375 -20 47 C-20.12375 48.051875 -20.2475 49.10375 -20.375 50.1875 C-21 54 -21 54 -22 56.375 C-23.44147596 60.15887439 -23.66762494 63.98525916 -24 68 C-24.66 68 -25.32 68 -26 68 C-25.74438677 70.3431213 -25.40729228 72.67843403 -25 75 C-24.34 75.33 -23.68 75.66 -23 76 C-23.99 76.495 -23.99 76.495 -25 77 C-25.31040122 84.7226985 -25.31040122 84.7226985 -23 92 C-22.25 94.625 -22.25 94.625 -22 97 C-22.66 97.99 -23.32 98.98 -24 100 C-23.34 100.66 -22.68 101.32 -22 102 C-22.99 102 -23.98 102 -25 102 C-25 102.66 -25 103.32 -25 104 C-23.515 103.505 -23.515 103.505 -22 103 C-22 103.66 -22 104.32 -22 105 C-20.02 104.505 -20.02 104.505 -18 104 C-18 105.65 -18 107.3 -18 109 C-19.32 109 -20.64 109 -22 109 C-22.08114106 110.77007714 -22.13925505 112.54122098 -22.1875 114.3125 C-22.22230469 115.29863281 -22.25710937 116.28476563 -22.29296875 117.30078125 C-21.9550074 120.41453181 -21.28167798 121.00960006 -19 123 C-19.3125 125.1875 -19.3125 125.1875 -20 127 C-19.34 127 -18.68 127 -18 127 C-17.7525 127.515625 -17.505 128.03125 -17.25 128.5625 C-14.55799979 134.67047484 -14.55799979 134.67047484 -10 139 C-9.21655744 140.99291777 -8.51983635 143.02051823 -7.875 145.0625 C-7.52179687 146.16722656 -7.16859375 147.27195313 -6.8046875 148.41015625 C-6.53914063 149.26480469 -6.27359375 150.11945313 -6 151 C-4.68 150.67 -3.36 150.34 -2 150 C-2 150.66 -2 151.32 -2 152 C-1.30132812 151.91621094 -0.60265625 151.83242187 0.1171875 151.74609375 C1.48230469 151.59333984 1.48230469 151.59333984 2.875 151.4375 C3.77992187 151.33308594 4.68484375 151.22867188 5.6171875 151.12109375 C8 151 8 151 10 152 C10 152.66 10 153.32 10 154 C10.66 154 11.32 154 12 154 C12.495 156.475 12.495 156.475 13 159 C15.97 159.99 15.97 159.99 19 161 C19 161.66 19 162.32 19 163 C17.68 163 16.36 163 15 163 C17.31 163.99 19.62 164.98 22 166 C22.66 164.68 23.32 163.36 24 162 C26.52588702 164.36292656 27.88820837 165.66462511 29 169 C32.00259517 169.33218192 32.00259517 169.33218192 33.6875 167.5 C34.3371875 166.7575 34.3371875 166.7575 35 166 C35.99 167.98 36.98 169.96 38 172 C38.33 170.68 38.66 169.36 39 168 C39.99 168 40.98 168 42 168 C42 168.66 42 169.32 42 170 C42.99 169.34 43.98 168.68 45 168 C47.1875 168.375 47.1875 168.375 49 169 C48.34 169.33 47.68 169.66 47 170 C47 170.66 47 171.32 47 172 C48.98491642 171.73323796 48.98491642 171.73323796 51 171 C51.33 170.01 51.66 169.02 52 168 C52.144375 168.598125 52.28875 169.19625 52.4375 169.8125 C52.8872439 171.56150404 53.42892341 173.28677023 54 175 C55.11375 174.6596875 55.11375 174.6596875 56.25 174.3125 C59 174 59 174 61 175.3125 C61.66 175.869375 62.32 176.42625 63 177 C64.64797236 177.71162443 66.31165408 178.39031953 68 179 C68 178.34 68 177.68 68 177 C69.32 176.34 70.64 175.68 72 175 C73.485 175.99 73.485 175.99 75 177 C75.99 177 76.98 177 78 177 C78 178.32 78 179.64 78 181 C78.66 181.33 79.32 181.66 80 182 C77.23776722 184.76223278 74.79293383 184.57856291 71 185 C71 184.34 71 183.68 71 183 C70.05125 183.185625 69.1025 183.37125 68.125 183.5625 C64.02799965 184.17411764 60.22140527 183.70671312 56.13671875 183.15625 C53.94768819 182.81313321 53.94768819 182.81313321 52 184 C50.33333333 183.33333333 48.66666667 182.66666667 47 182 C46.34 182.33 45.68 182.66 45 183 C45 182.34 45 181.68 45 181 C43.68 181 42.36 181 41 181 C40.67 181.66 40.34 182.32 40 183 C38.02 182.01 38.02 182.01 36 181 C36 180.34 36 179.68 36 179 C33.52733235 179.34444881 33.52733235 179.34444881 31 180 C30.67 180.66 30.34 181.32 30 182 C29.87625 181.195625 29.7525 180.39125 29.625 179.5625 C29.41875 178.716875 29.2125 177.87125 29 177 C26.71294169 175.85647084 25.40735238 175.89665561 22.875 175.9375 C20.956875 175.9684375 20.956875 175.9684375 19 176 C18.67 175.01 18.34 174.02 18 173 C17.01 173 16.02 173 15 173 C14.67 173.66 14.34 174.32 14 175 C13.9175 174.236875 13.835 173.47375 13.75 172.6875 C13.1980797 169.9407027 13.1980797 169.9407027 11.3125 168.125 C8.21105827 166.61619051 6.27921467 167.18019633 3 168 C2.67 167.01 2.34 166.02 2 165 C1.34 165.99 0.68 166.98 0 168 C-0.66 168 -1.32 168 -2 168 C-2.495 163.545 -2.495 163.545 -3 159 C-3.99 158.67 -4.98 158.34 -6 158 C-6.495 157.01 -6.495 157.01 -7 156 C-7.66 156.33 -8.32 156.66 -9 157 C-8.67 155.68 -8.34 154.36 -8 153 C-8.66 153 -9.32 153 -10 153 C-10.4125 152.030625 -10.825 151.06125 -11.25 150.0625 C-12.64899168 146.87739901 -12.64899168 146.87739901 -15.1875 146.125 C-15.785625 146.08375 -16.38375 146.0425 -17 146 C-17.12375 145.443125 -17.2475 144.88625 -17.375 144.3125 C-18.07075684 141.7381997 -18.83185296 139.40119114 -20 137 C-20.99 136.67 -21.98 136.34 -23 136 C-22.67 135.01 -22.34 134.02 -22 133 C-22.99 132.67 -23.98 132.34 -25 132 C-25.87890625 129.70703125 -25.87890625 129.70703125 -26.5625 126.8125 C-26.80871094 125.82121094 -27.05492187 124.82992187 -27.30859375 123.80859375 C-27.53675781 122.88175781 -27.76492187 121.95492187 -28 121 C-28.95506372 117.1996896 -28.95506372 117.1996896 -31 114 C-31.04063832 112.33382885 -31.042721 110.66611905 -31 109 C-31.66 108.67 -32.32 108.34 -33 108 C-32.34 108 -31.68 108 -31 108 C-31 107.34 -31 106.68 -31 106 C-31.66 106 -32.32 106 -33 106 C-33.06058594 105.28972656 -33.12117188 104.57945312 -33.18359375 103.84765625 C-33.30927734 102.46900391 -33.30927734 102.46900391 -33.4375 101.0625 C-33.55931641 99.68771484 -33.55931641 99.68771484 -33.68359375 98.28515625 C-33.76044976 96.03840268 -33.76044976 96.03840268 -35 95 C-35.14941378 91.86231055 -35.00067913 89.00411108 -34.48828125 85.90234375 C-33.80566294 80.4468582 -33.9909045 75.07518503 -34.12695312 69.58789062 C-34.13791016 68.76869141 -34.14886719 67.94949219 -34.16015625 67.10546875 C-34.17699463 66.36449951 -34.19383301 65.62353027 -34.21118164 64.86010742 C-34 63 -34 63 -32 61 C-32 59.68 -32 58.36 -32 57 C-32.66 56.67 -33.32 56.34 -34 56 C-34 53.33333333 -34 50.66666667 -34 48 C-33.236875 48.020625 -32.47375 48.04125 -31.6875 48.0625 C-28.89814214 48.12942841 -28.89814214 48.12942841 -26 47 C-26.01160156 46.36191406 -26.02320313 45.72382812 -26.03515625 45.06640625 C-26.04417969 44.24011719 -26.05320312 43.41382813 -26.0625 42.5625 C-26.07410156 41.73878906 -26.08570313 40.91507813 -26.09765625 40.06640625 C-26 38 -26 38 -25 37 C-19.90322235 30.66557494 -19.90322235 30.66557494 -18 23 C-18 22.34 -18 21.68 -18 21 C-17.01 20.67 -16.02 20.34 -15 20 C-14.34 19.01 -13.68 18.02 -13 17 C-12.01 16.67 -11.02 16.34 -10 16 C-10 13.36 -10 10.72 -10 8 C-9.195625 7.87625 -8.39125 7.7525 -7.5625 7.625 C-6.716875 7.41875 -5.87125 7.2125 -5 7 C-4.67 6.34 -4.34 5.68 -4 5 C-3.34 5 -2.68 5 -2 5 C-1.67 4.01 -1.34 3.02 -1 2 C-0.67 1.34 -0.34 0.68 0 0 Z M-28 118 C-27 120 -27 120 -27 120 Z " fill="#FBF4E7" transform="translate(35,28)"/>
<path d="M0 0 C0.99 0.495 0.99 0.495 2 1 C1.67 4.3 1.34 7.6 1 11 C0.34 11 -0.32 11 -1 11 C-1 11.66 -1 12.32 -1 13 C-0.34 13 0.32 13 1 13 C0.505 14.0209375 0.505 14.0209375 0 15.0625 C-1.17307315 18.50840238 -1.14180493 21.38397422 -1 25 C-2.66666667 25 -4.33333333 25 -6 25 C-5.979375 25.94875 -5.95875 26.8975 -5.9375 27.875 C-6 31 -6 31 -7 33 C-7.66 33 -8.32 33 -9 33 C-10.47840936 35.81540565 -11.62576034 38.60709436 -12.625 41.625 C-12.88539063 42.40101563 -13.14578125 43.17703125 -13.4140625 43.9765625 C-14.09271604 45.96908499 -14.09271604 45.96908499 -14 48 C-14.78375 48.20625 -15.5675 48.4125 -16.375 48.625 C-19.30639054 49.79353796 -19.30639054 49.79353796 -20.1875 53.0625 C-20.455625 54.031875 -20.72375 55.00125 -21 56 C-21.99 56.495 -21.99 56.495 -23 57 C-23.99 56.505 -23.99 56.505 -25 56 C-25 57.32 -25 58.64 -25 60 C-25.99 59.505 -25.99 59.505 -27 59 C-26.67 57.68 -26.34 56.36 -26 55 C-26.66 55 -27.32 55 -28 55 C-28 57.31 -28 59.62 -28 62 C-30.31 62 -32.62 62 -35 62 C-35.33 62.66 -35.66 63.32 -36 64 C-36.99 64 -37.98 64 -39 64 C-39.99 64.99 -39.99 64.99 -41 66 C-43.125 65.625 -43.125 65.625 -45 65 C-45.33 65.99 -45.66 66.98 -46 68 C-47.33333333 68.66666667 -48.66666667 69.33333333 -50 70 C-50 68.68 -50 67.36 -50 66 C-50.33 67.32 -50.66 68.64 -51 70 C-51.66 70 -52.32 70 -53 70 C-53.33 69.34 -53.66 68.68 -54 68 C-56.475 68.495 -56.475 68.495 -59 69 C-59 67 -59 65 -59 63 C-56.69 63 -54.38 63 -52 63 C-52 62.34 -52 61.68 -52 61 C-53.32 61 -54.64 61 -56 61 C-56 60.34 -56 59.68 -56 59 C-58.97 59.495 -58.97 59.495 -62 60 C-62.66 58.35 -63.32 56.7 -64 55 C-62.68 55 -61.36 55 -60 55 C-60 55.66 -60 56.32 -60 57 C-57.73702265 56.14532959 -57.73702265 56.14532959 -57 53.5 C-56 51 -56 51 -54 50 C-53.34 50.99 -52.68 51.98 -52 53 C-51.5359375 51.824375 -51.5359375 51.824375 -51.0625 50.625 C-49.23163842 46.10169492 -49.23163842 46.10169492 -46.4375 44.875 C-45.633125 44.58625 -44.82875 44.2975 -44 44 C-44 44.66 -44 45.32 -44 46 C-43.34 46 -42.68 46 -42 46 C-41.67 45.34 -41.34 44.68 -41 44 C-40.34 44.33 -39.68 44.66 -39 45 C-38.67 44.01 -38.34 43.02 -38 42 C-36.515 42.495 -36.515 42.495 -35 43 C-35 42.34 -35 41.68 -35 41 C-33.02 40.34 -31.04 39.68 -29 39 C-28.01 40.32 -27.02 41.64 -26 43 C-25.67 41.68 -25.34 40.36 -25 39 C-24.401875 38.9175 -23.80375 38.835 -23.1875 38.75 C-20.400657 37.79451097 -19.67123014 36.3549152 -18 34 C-17.34 34 -16.68 34 -16 34 C-15.87625 33.21625 -15.7525 32.4325 -15.625 31.625 C-15 29 -15 29 -13 27 C-13 26.34 -13 25.68 -13 25 C-14.32 24.34 -15.64 23.68 -17 23 C-16.6875 20.625 -16.6875 20.625 -16 18 C-15.01 17.34 -14.02 16.68 -13 16 C-13 17.32 -13 18.64 -13 20 C-12.01 19.67 -11.02 19.34 -10 19 C-10 18.01 -10 17.02 -10 16 C-9.05125 15.938125 -8.1025 15.87625 -7.125 15.8125 C-6.09375 15.544375 -5.0625 15.27625 -4 15 C-2.54708727 12.53744315 -2.54708727 12.53744315 -2 10 C-2.33 10.33 -2.66 10.66 -3 11 C-3.66 11 -4.32 11 -5 11 C-4.67 9.68 -4.34 8.36 -4 7 C-4.66 6.67 -5.32 6.34 -6 6 C-4.98545548 3.4636387 -4.3146444 2.20648539 -2 0.6875 C-1.34 0.460625 -0.68 0.23375 0 0 Z M-30 44 C-30.33 44.66 -30.66 45.32 -31 46 C-30.01 45.67 -29.02 45.34 -28 45 C-28.66 44.67 -29.32 44.34 -30 44 Z " fill="#EBDECD" transform="translate(207,123)"/>
<path d="M0 0 C0.66 0.33 1.32 0.66 2 1 C1.67 4.3 1.34 7.6 1 11 C0.34 11 -0.32 11 -1 11 C-1 11.66 -1 12.32 -1 13 C-0.34 13 0.32 13 1 13 C0.505 14.0209375 0.505 14.0209375 0 15.0625 C-1.17307315 18.50840238 -1.14180493 21.38397422 -1 25 C-2.66666667 25 -4.33333333 25 -6 25 C-5.979375 25.94875 -5.95875 26.8975 -5.9375 27.875 C-6 31 -6 31 -7 33 C-7.66 33 -8.32 33 -9 33 C-10.47840936 35.81540565 -11.62576034 38.60709436 -12.625 41.625 C-12.88539063 42.40101563 -13.14578125 43.17703125 -13.4140625 43.9765625 C-14.09271604 45.96908499 -14.09271604 45.96908499 -14 48 C-14.78375 48.20625 -15.5675 48.4125 -16.375 48.625 C-19.30639054 49.79353796 -19.30639054 49.79353796 -20.1875 53.0625 C-20.455625 54.031875 -20.72375 55.00125 -21 56 C-21.99 56.495 -21.99 56.495 -23 57 C-23.66 56.67 -24.32 56.34 -25 56 C-25 57.32 -25 58.64 -25 60 C-25.66 59.67 -26.32 59.34 -27 59 C-26.67 57.68 -26.34 56.36 -26 55 C-26.66 55 -27.32 55 -28 55 C-28 57.31 -28 59.62 -28 62 C-30.31 62 -32.62 62 -35 62 C-35.33 62.66 -35.66 63.32 -36 64 C-36.66 63.67 -37.32 63.34 -38 63 C-37 60 -37 60 -34.5625 58.75 C-32 58 -32 58 -30 59 C-29.67 57.35 -29.34 55.7 -29 54 C-29.66 54 -30.32 54 -31 54 C-31 52 -31 52 -30 51 C-30.66 50.67 -31.32 50.34 -32 50 C-30.66666667 48.66666667 -29.33333333 47.33333333 -28 46 C-27.5359375 44.824375 -27.5359375 44.824375 -27.0625 43.625 C-26 41 -26 41 -24 38 C-23.01 38 -22.02 38 -21 38 C-19.9739266 36.68662604 -18.97272675 35.35335895 -18 34 C-17.34 34 -16.68 34 -16 34 C-15.87625 33.21625 -15.7525 32.4325 -15.625 31.625 C-15 29 -15 29 -13 27 C-13 26.34 -13 25.68 -13 25 C-14.32 24.34 -15.64 23.68 -17 23 C-16.6875 20.625 -16.6875 20.625 -16 18 C-15.01 17.34 -14.02 16.68 -13 16 C-13 17.32 -13 18.64 -13 20 C-12.01 19.67 -11.02 19.34 -10 19 C-10 18.01 -10 17.02 -10 16 C-8.576875 15.9071875 -8.576875 15.9071875 -7.125 15.8125 C-6.09375 15.544375 -5.0625 15.27625 -4 15 C-2.54708727 12.53744315 -2.54708727 12.53744315 -2 10 C-2.33 10.33 -2.66 10.66 -3 11 C-3.66 11 -4.32 11 -5 11 C-4.67 9.68 -4.34 8.36 -4 7 C-4.66 6.67 -5.32 6.34 -6 6 C-4.98545548 3.4636387 -4.3146444 2.20648539 -2 0.6875 C-1.34 0.460625 -0.68 0.23375 0 0 Z " fill="#EFE3D3" transform="translate(207,123)"/>
<path d="M0 0 C0.66 0 1.32 0 2 0 C2 1.65 2 3.3 2 5 C2.66 5.33 3.32 5.66 4 6 C3.7525 7.0725 3.505 8.145 3.25 9.25 C2.57571378 13.02745496 2.57571378 13.02745496 4.9375 15.4375 C5.618125 15.953125 6.29875 16.46875 7 17 C6.01 19.475 6.01 19.475 5 22 C5.66 22 6.32 22 7 22 C8.625 23.3125 8.625 23.3125 10 25 C10 25.99 10 26.98 10 28 C9.01 28 8.02 28 7 28 C7.99 28.33 8.98 28.66 10 29 C9.96519531 29.98226562 9.96519531 29.98226562 9.9296875 30.984375 C9.82751314 36.15147817 10.07185744 40.92046366 11.0625 46 C12.15739877 51.89560878 11.72767509 57.09242723 11 63 C10.8698328 66.57959793 10.94543773 69.57267261 12 73 C11.34 73 10.68 73 10 73 C9.34 71.68 8.68 70.36 8 69 C8 70.98 8 72.96 8 75 C6.515 75.495 6.515 75.495 5 76 C5.33 71.71 5.66 67.42 6 63 C3.9254644 61.7763932 3.9254644 61.7763932 1 62 C1.66 60.02 2.32 58.04 3 56 C3.99 56 4.98 56 6 56 C6 54.68 6 53.36 6 52 C5.34 52 4.68 52 4 52 C4 51.01 4 50.02 4 49 C3.34 48.67 2.68 48.34 2 48 C3.3125 45.0625 3.3125 45.0625 5 42 C6.485 41.505 6.485 41.505 8 41 C7.34 39.68 6.68 38.36 6 37 C4.02 37.495 4.02 37.495 2 38 C2.20625 37.2575 2.4125 36.515 2.625 35.75 C3.25722358 33.04447912 3.25722358 33.04447912 2 31 C0.66951185 28.3390237 1.22254228 26.79884779 2 24 C1.34 24 0.68 24 0 24 C0 23.34 0 22.68 0 22 C-0.66 21.67 -1.32 21.34 -2 21 C-1.34 21 -0.68 21 0 21 C-0.45036291 17.33625187 -0.45036291 17.33625187 -2.5625 14.4375 C-3.036875 13.963125 -3.51125 13.48875 -4 13 C-4 11.68 -4 10.36 -4 9 C-2.68 9.33 -1.36 9.66 0 10 C0 6.7 0 3.4 0 0 Z " fill="#FCF7EB" transform="translate(207,52)"/>
<path d="M0 0 C4.875 2.75 4.875 2.75 6 5 C7.175625 5.2165625 7.175625 5.2165625 8.375 5.4375 C11.28554883 6.06118904 12.17431102 6.71788877 14 9 C14.33 9.66 14.66 10.32 15 11 C17.84539199 11.9922353 17.84539199 11.9922353 20.19140625 12.54296875 C22.60435157 13.19887646 24.76790351 13.86678178 27 15 C28.5625 18.1875 28.5625 18.1875 29 21 C29.78375 21.144375 30.5675 21.28875 31.375 21.4375 C34 22 34 22 36 23 C36 23.66 36 24.32 36 25 C36.66 25 37.32 25 38 25 C38 24.34 38 23.68 38 23 C40 24 40 24 42 26 C42 27.66666667 42 29.33333333 42 31 C42.66 31 43.32 31 44 31 C44.66 32.98 45.32 34.96 46 37 C41.29048428 39.50193023 38.08982499 38.75095779 33 38 C32.01 38.495 32.01 38.495 31 39 C31.66 37.02 32.32 35.04 33 33 C32.01 32.505 32.01 32.505 31 32 C31.66 31.34 32.32 30.68 33 30 C29.84464712 26.23784849 27.75454542 25.70812379 23 25 C21.125 23.5625 21.125 23.5625 20 22 C20 21.34 20 20.68 20 20 C19.01 20 18.02 20 17 20 C16.4225 19.360625 15.845 18.72125 15.25 18.0625 C12.26245865 15.32392043 9.97266911 15.3547026 6 15 C4.66082739 14.69096017 3.32346746 14.37057089 2 14 C2.33 13.01 2.66 12.02 3 11 C5.0625 10.3125 5.0625 10.3125 7 10 C6.01 9.67 5.02 9.34 4 9 C3.3162955 7.67532254 2.65035814 6.34136367 2 5 C1.01 4.34 0.02 3.68 -1 3 C-0.67 2.01 -0.34 1.02 0 0 Z " fill="#FCF7EB" transform="translate(149,5)"/>
<path d="M0 0 C0 0.66 0 1.32 0 2 C1.11375 2.1546875 1.11375 2.1546875 2.25 2.3125 C5.34631592 3.08657898 6.78170065 3.70520757 9 6 C10.25 9.6875 10.25 9.6875 11 13 C10 14 10 14 7.4375 14.0625 C6.633125 14.041875 5.82875 14.02125 5 14 C4.7525 13.38125 4.505 12.7625 4.25 12.125 C2.79371361 9.64931313 1.62187494 9.04874998 -1 8 C-1 7.34 -1 6.68 -1 6 C-5.73950115 7.25016927 -5.73950115 7.25016927 -10.25 9.125 C-12 10 -12 10 -15 10 C-15.66 11.32 -16.32 12.64 -17 14 C-18.32 13.34 -19.64 12.68 -21 12 C-20.52300119 7.70701074 -18.20196975 5.71471348 -15 3 C-9.71322793 0.10723793 -5.86374251 -0.30861803 0 0 Z " fill="#786551" transform="translate(116,126)"/>
<path d="M0 0 C2.280369 0.25137926 4.48866603 0.60212965 6.73046875 1.0859375 C8.31745794 5.84690506 8.26068452 10.22896771 6.60546875 14.9609375 C4.73046875 18.0859375 4.73046875 18.0859375 1.54296875 19.0234375 C0.61484375 19.0440625 -0.31328125 19.0646875 -1.26953125 19.0859375 C-4.09639994 15.48810462 -6.05725003 12.74880705 -6.64453125 8.1484375 C-6.11394076 3.81528183 -4.90361778 0.18567916 0 0 Z " fill="#604E3A" transform="translate(70.26953125,99.9140625)"/>
<path d="M0 0 C1.875 1.1875 1.875 1.1875 3 3 C3.68201627 8.00145262 2.29679638 11.57654031 0 16 C-3 18 -3 18 -6 18 C-6 17.34 -6 16.68 -6 16 C-7.32 15.34 -8.64 14.68 -10 14 C-10.02694851 12.04174127 -10.04637218 10.08337774 -10.0625 8.125 C-10.07410156 7.03445312 -10.08570313 5.94390625 -10.09765625 4.8203125 C-10 2 -10 2 -9 0 C-5.45026831 -1.1832439 -3.60040463 -0.90010116 0 0 Z " fill="#65543F" transform="translate(152,102)"/>
<path d="M0 0 C0.99 0.33 1.98 0.66 3 1 C3 1.66 3 2.32 3 3 C3.66 3.33 4.32 3.66 5 4 C4.67 4.66 4.34 5.32 4 6 C5.65 5.67 7.3 5.34 9 5 C9 5.99 9 6.98 9 8 C9.66 8 10.32 8 11 8 C10.67 6.68 10.34 5.36 10 4 C10.66 4 11.32 4 12 4 C12 5.32 12 6.64 12 8 C12.66 7.01 13.32 6.02 14 5 C14.66 5 15.32 5 16 5 C16.33 4.34 16.66 3.68 17 3 C19.475 3.495 19.475 3.495 22 4 C21.34 5.32 20.68 6.64 20 8 C20.66 8.33 21.32 8.66 22 9 C21.67 9.66 21.34 10.32 21 11 C21.66 11.33 22.32 11.66 23 12 C20 13 20 13 17.95703125 12.22265625 C17.24933594 11.83980469 16.54164063 11.45695313 15.8125 11.0625 C14.73935547 10.49208984 14.73935547 10.49208984 13.64453125 9.91015625 C13.10183594 9.60980469 12.55914062 9.30945313 12 9 C11.67 10.32 11.34 11.64 11 13 C8.525 12.01 8.525 12.01 6 11 C6 12.32 6 13.64 6 15 C6.66 15.33 7.32 15.66 8 16 C6.00045254 16.04254356 3.99958364 16.04080783 2 16 C1.67 15.67 1.34 15.34 1 15 C1 15.99 1 16.98 1 18 C-0.32 18.33 -1.64 18.66 -3 19 C-3.33 18.01 -3.66 17.02 -4 16 C-3.01 16 -2.02 16 -1 16 C-1 15.01 -1 14.02 -1 13 C-0.34 13 0.32 13 1 13 C1 12.34 1 11.68 1 11 C-0.32 11.33 -1.64 11.66 -3 12 C-3 12.99 -3 13.98 -3 15 C-3.99 14.34 -4.98 13.68 -6 13 C-5.34 11.35 -4.68 9.7 -4 8 C-3.34 8 -2.68 8 -2 8 C-2 8.66 -2 9.32 -2 10 C-1.34 10 -0.68 10 0 10 C0 6.7 0 3.4 0 0 Z " fill="#F2E8D8" transform="translate(145,185)"/>
<path d="M0 0 C2.16874252 0.50603992 3.99967627 0.99983813 6 2 C6 2.99 6 3.98 6 5 C6.66 5 7.32 5 8 5 C8 5.66 8 6.32 8 7 C8.66 7 9.32 7 10 7 C10 7.66 10 8.32 10 9 C9.01 9 8.02 9 7 9 C7 9.66 7 10.32 7 11 C8.32 10.67 9.64 10.34 11 10 C11 12.33333333 11 14.66666667 11 17 C11.66 17 12.32 17 13 17 C13.66 17 14.32 17 15 17 C15.66 18.65 16.32 20.3 17 22 C16.34 22.33 15.68 22.66 15 23 C14.34 22.67 13.68 22.34 13 22 C13 22.66 13 23.32 13 24 C13.66 24 14.32 24 15 24 C15 24.99 15 25.98 15 27 C17.31 26.34 19.62 25.68 22 25 C22 25.66 22 26.32 22 27 C23.98 26.34 25.96 25.68 28 25 C26.625 27 26.625 27 25 29 C24.34 29 23.68 29 23 29 C22.67 29.99 22.34 30.98 22 32 C20.02 31.67 18.04 31.34 16 31 C15.67 31.66 15.34 32.32 15 33 C14.51080078 31.87851563 14.51080078 31.87851563 14.01171875 30.734375 C13.57472656 29.74953125 13.13773438 28.7646875 12.6875 27.75 C12.25824219 26.77546875 11.82898437 25.8009375 11.38671875 24.796875 C10.12500417 22.25212109 8.73244339 20.23292704 7 18 C6.28837557 16.35202764 5.60968047 14.68834592 5 13 C4.01 13.495 4.01 13.495 3 14 C3 12.02 3 10.04 3 8 C2.34 8 1.68 8 1 8 C1.33 6.68 1.66 5.36 2 4 C1.01 3.67 0.02 3.34 -1 3 C-0.67 2.01 -0.34 1.02 0 0 Z " fill="#F2E7D8" transform="translate(14,147)"/>
<path d="M0 0 C3.875 3.75 3.875 3.75 5 6 C4.0625 8.125 4.0625 8.125 3 10 C3.66 10 4.32 10 5 10 C5.12375 9.38125 5.2475 8.7625 5.375 8.125 C6 6 6 6 8 4 C8.99 4 9.98 4 11 4 C11.33 4.66 11.66 5.32 12 6 C9 8 9 8 6 8 C5.896875 8.61875 5.79375 9.2375 5.6875 9.875 C5 12 5 12 2 14 C-0.1875 13.625 -0.1875 13.625 -2 13 C-2.33 13.99 -2.66 14.98 -3 16 C-4.33333333 16.66666667 -5.66666667 17.33333333 -7 18 C-7 16.68 -7 15.36 -7 14 C-7.33 15.32 -7.66 16.64 -8 18 C-8.66 18 -9.32 18 -10 18 C-10.33 17.34 -10.66 16.68 -11 16 C-12.65 16.33 -14.3 16.66 -16 17 C-16 15 -16 13 -16 11 C-13.69 11 -11.38 11 -9 11 C-8.67 10.34 -8.34 9.68 -8 9 C-7.67 9.99 -7.34 10.98 -7 12 C-5.68 11.67 -4.36 11.34 -3 11 C-4.32 10.34 -5.64 9.68 -7 9 C-6 7 -6 7 -5 6 C-5 5.01 -5 4.02 -5 3 C-4.360625 2.87625 -3.72125 2.7525 -3.0625 2.625 C-2.381875 2.41875 -1.70125 2.2125 -1 2 C-0.67 1.34 -0.34 0.68 0 0 Z " fill="#E5D6C4" transform="translate(164,175)"/>
<path d="M0 0 C0.66 0 1.32 0 2 0 C5.69904459 9.4888535 5.69904459 9.4888535 6 13 C5.01 14.485 5.01 14.485 4 16 C4.66 16.66 5.32 17.32 6 18 C5.01 18 4.02 18 3 18 C3 18.66 3 19.32 3 20 C3.99 19.67 4.98 19.34 6 19 C6 19.66 6 20.32 6 21 C7.32 20.67 8.64 20.34 10 20 C10 21.65 10 23.3 10 25 C8.68 25 7.36 25 6 25 C5.67 27.31 5.34 29.62 5 32 C4.67 32 4.34 32 4 32 C3.01 28.04 2.02 24.08 1 20 C-0.65 20 -2.3 20 -4 20 C-2.515 16.535 -2.515 16.535 -1 13 C-2.65 13 -4.3 13 -6 13 C-5.34 11.02 -4.68 9.04 -4 7 C-3.34 8.32 -2.68 9.64 -2 11 C-1.93941406 10.28972656 -1.87882813 9.57945313 -1.81640625 8.84765625 C-1.73261719 7.92855469 -1.64882812 7.00945312 -1.5625 6.0625 C-1.48128906 5.14597656 -1.40007813 4.22945313 -1.31640625 3.28515625 C-1 1 -1 1 0 0 Z " fill="#F8EFE1" transform="translate(7,112)"/>
<path d="M0 0 C-1.65 1.65 -3.3 3.3 -5 5 C-5.66 4.34 -6.32 3.68 -7 3 C-8.32 4.32 -9.64 5.64 -11 7 C-10.67 7.99 -10.34 8.98 -10 10 C-10.55429688 10.25394531 -11.10859375 10.50789062 -11.6796875 10.76953125 C-12.40414062 11.11371094 -13.12859375 11.45789062 -13.875 11.8125 C-14.59429687 12.14894531 -15.31359375 12.48539063 -16.0546875 12.83203125 C-18.30542806 13.99467097 -18.30542806 13.99467097 -20 17 C-24.30606663 18.77308626 -27.35361835 17.36995029 -31.42578125 15.69140625 C-31.94527344 15.46324219 -32.46476562 15.23507813 -33 15 C-31.66666667 14 -30.33333333 13 -29 12 C-28.319375 11.443125 -27.63875 10.88625 -26.9375 10.3125 C-25 9 -25 9 -22 9 C-21.34 8.34 -20.68 7.68 -20 7 C-18.88625 6.71125 -17.7725 6.4225 -16.625 6.125 C-12.77098479 4.92892631 -11.71936567 3.80708715 -9 1 C-3.75 -1.25 -3.75 -1.25 0 0 Z " fill="#FDFAEF" transform="translate(83,4)"/>
<path d="M0 0 C-1.485 1.485 -1.485 1.485 -3 3 C-2.34 3 -1.68 3 -1 3 C-1.350625 3.928125 -1.70125 4.85625 -2.0625 5.8125 C-3.32382628 8.9802953 -3.32382628 8.9802953 -2 12 C-1.34 12 -0.68 12 0 12 C-0.33 12.99 -0.66 13.98 -1 15 C-2.32 14.67 -3.64 14.34 -5 14 C-4.67 15.32 -4.34 16.64 -4 18 C-4.99 18.33 -5.98 18.66 -7 19 C-7.33 19.99 -7.66 20.98 -8 22 C-8.66 21.67 -9.32 21.34 -10 21 C-10.99 20.67 -11.98 20.34 -13 20 C-12.46938237 14.79994727 -11.14985305 10.74759216 -9 6 C-8.814375 4.88625 -8.814375 4.88625 -8.625 3.75 C-8 2 -8 2 -5.625 0.1875 C-3 -1 -3 -1 0 0 Z " fill="#F3E8DA" transform="translate(23,73)"/>
<path d="M0 0 C0.99 0 1.98 0 3 0 C3.84098656 4.01804691 4.05404945 7.01803543 3 11 C2.34 11 1.68 11 1 11 C1 10.34 1 9.68 1 9 C0.34 9 -0.32 9 -1 9 C-1.66 11.31 -2.32 13.62 -3 16 C-4.32 16.33 -5.64 16.66 -7 17 C-7 16.34 -7 15.68 -7 15 C-6.34 14.67 -5.68 14.34 -5 14 C-5.99 13.67 -6.98 13.34 -8 13 C-8.66 13.66 -9.32 14.32 -10 15 C-10.99 14.01 -11.98 13.02 -13 12 C-11.71937515 10.2925002 -10.38232443 8.62626404 -9 7 C-8.34 7 -7.68 7 -7 7 C-6.67 5.02 -6.34 3.04 -6 1 C-5.34 1 -4.68 1 -4 1 C-4 1.66 -4 2.32 -4 3 C-2.68 3 -1.36 3 0 3 C0 2.01 0 1.02 0 0 Z " fill="#E7D8C6" transform="translate(142,184)"/>
<path d="M0 0 C2.0625 0.4375 2.0625 0.4375 4 1 C4 1.66 4 2.32 4 3 C4.78375 2.79375 5.5675 2.5875 6.375 2.375 C7.674375 2.189375 7.674375 2.189375 9 2 C9.66 2.66 10.32 3.32 11 4 C12.32 4 13.64 4 15 4 C15.33 4.66 15.66 5.32 16 6 C16.99 5.34 17.98 4.68 19 4 C19.33 5.65 19.66 7.3 20 9 C18.35 9.33 16.7 9.66 15 10 C15 10.66 15 11.32 15 12 C12.03 11.505 12.03 11.505 9 11 C9 10.34 9 9.68 9 9 C7.02 8.34 5.04 7.68 3 7 C2.67 7.66 2.34 8.32 2 9 C1.01 8.67 0.02 8.34 -1 8 C-1.04241723 5.66705225 -1.04092937 3.33297433 -1 1 C-0.67 0.67 -0.34 0.34 0 0 Z " fill="#F0E5D5" transform="translate(88,195)"/>
<path d="M0 0 C0.99 0 1.98 0 3 0 C3 0.66 3 1.32 3 2 C3.66 2 4.32 2 5 2 C5.33 2.99 5.66 3.98 6 5 C6.66 5.33 7.32 5.66 8 6 C7.39816251 8.02045442 6.72693904 10.02111039 6 12 C5.01 12.495 5.01 12.495 4 13 C3.34 12.67 2.68 12.34 2 12 C2 13.32 2 14.64 2 16 C1.34 15.67 0.68 15.34 0 15 C0.33 13.68 0.66 12.36 1 11 C0.34 11 -0.32 11 -1 11 C-1 13.31 -1 15.62 -1 18 C-3.31 18 -5.62 18 -8 18 C-8.33 18.66 -8.66 19.32 -9 20 C-9.66 19.67 -10.32 19.34 -11 19 C-10 16 -10 16 -7.5625 14.75 C-5 14 -5 14 -3 15 C-2.67 13.35 -2.34 11.7 -2 10 C-2.66 10 -3.32 10 -4 10 C-4 8 -4 8 -3 7 C-3.66 6.67 -4.32 6.34 -5 6 C-3 4 -3 4 -1 2 C-0.67 1.34 -0.34 0.68 0 0 Z " fill="#F1E7D8" transform="translate(180,167)"/>
<path d="M0 0 C0 1.32 0 2.64 0 4 C1.65 4 3.3 4 5 4 C4.67 4.66 4.34 5.32 4 6 C3.113125 5.938125 2.22625 5.87625 1.3125 5.8125 C-2.38455101 6.02176704 -3.94885591 7.02087951 -7 9 C-7.99 9 -8.98 9 -10 9 C-10.66 10.32 -11.32 11.64 -12 13 C-13.32 12.34 -14.64 11.68 -16 11 C-15.52436589 6.71929301 -13.19688467 4.6995915 -10 2 C-6.31667504 0.42143216 -4.04306781 0 0 0 Z " fill="#655340" transform="translate(111,127)"/>
<path d="M0 0 C6.41481258 -0.42765417 11.88595404 1.14256832 18 3 C18.33 4.32 18.66 5.64 19 7 C17.41870971 7.22331199 15.83478911 7.42804644 14.25 7.625 C12.92742187 7.79902344 12.92742187 7.79902344 11.578125 7.9765625 C8.72107029 8.00253572 7.44716546 7.38672709 5 6 C3.00889599 5.61709538 1.00899487 5.27395385 -1 5 C-0.67 3.35 -0.34 1.7 0 0 Z " fill="#75634E" transform="translate(142,86)"/>
<path d="M0 0 C5.875 1.875 5.875 1.875 7 3 C7.49432386 8.19040052 6.19790854 11.42102388 4 16 C3.34 15.34 2.68 14.68 2 14 C1.34 14 0.68 14 0 14 C0 13.34 0 12.68 0 12 C-0.66 12 -1.32 12 -2 12 C-2 12.66 -2 13.32 -2 14 C-2.66 14 -3.32 14 -4 14 C-4 13.01 -4 12.02 -4 11 C-3.01 10.34 -2.02 9.68 -1 9 C-0.27802668 5.91520491 0 3.16680795 0 0 Z " fill="#6A5946" transform="translate(148,102)"/>
<path d="M0 0 C-0.3125 1.875 -0.3125 1.875 -1 4 C-6.35846947 7.57231298 -11.765775 7.12223971 -18 7 C-17.67 5.35 -17.34 3.7 -17 2 C-14.73139163 1.4695592 -12.46001511 0.95094566 -10.1875 0.4375 C-8.29064453 0.00244141 -8.29064453 0.00244141 -6.35546875 -0.44140625 C-3 -1 -3 -1 0 0 Z " fill="#604E3A" transform="translate(79,85)"/>
<path d="M0 0 C0.66 0 1.32 0 2 0 C1.01 2.97 0.02 5.94 -1 9 C0.65 9 2.3 9 4 9 C3.67 10.65 3.34 12.3 3 14 C1.68 13.67 0.36 13.34 -1 13 C-1 13.66 -1 14.32 -1 15 C-5.455 15.495 -5.455 15.495 -10 16 C-10 15.34 -10 14.68 -10 14 C-8.35 13.67 -6.7 13.34 -5 13 C-5.33 12.34 -5.66 11.68 -6 11 C-6.99 11 -7.98 11 -9 11 C-8.38125 10.7525 -7.7625 10.505 -7.125 10.25 C-3.74963396 8.26449057 -3.2020372 5.60611161 -2 2 C-1.34 2 -0.68 2 0 2 C0 1.34 0 0.68 0 0 Z " fill="#E8D9C7" transform="translate(126,181)"/>
<path d="M0 0 C0 1.98 0 3.96 0 6 C-0.66 6 -1.32 6 -2 6 C-2.33 5.34 -2.66 4.68 -3 4 C-3 6.97 -3 9.94 -3 13 C-2.01 13.33 -1.02 13.66 0 14 C-0.33 14.33 -0.66 14.66 -1 15 C-0.34 15.66 0.32 16.32 1 17 C-1.25 16.9375 -1.25 16.9375 -4 16 C-6.60924411 12.40347434 -7.82770823 10.11989648 -8.5 5.75 C-8 3 -8 3 -6.25 1.125 C-4 0 -4 0 0 0 Z " fill="#73604C" transform="translate(72,102)"/>
<path d="M0 0 C1.65 1.65 3.3 3.3 5 5 C4.5359375 6.051875 4.5359375 6.051875 4.0625 7.125 C2.96697322 10.08936657 2.43577008 12.87698108 2 16 C2.99 16.33 3.98 16.66 5 17 C4.01 19.475 4.01 19.475 3 22 C0.39004729 20.69502365 0.03972799 19.70695701 -1 17 C-1.23046875 14.16015625 -1.23046875 14.16015625 -1.1875 11.0625 C-1.18105469 10.04285156 -1.17460938 9.02320312 -1.16796875 7.97265625 C-1.01221966 5.21625952 -0.61837386 2.68621605 0 0 Z " fill="#F7E4D7" transform="translate(66,115)"/>
<path d="M0 0 C2.77134066 0.47637099 5.54205433 0.95597549 8.3125 1.4375 C9.09818359 1.57220703 9.88386719 1.70691406 10.69335938 1.84570312 C11.45068359 1.97783203 12.20800781 2.10996094 12.98828125 2.24609375 C14.03302612 2.42676392 14.03302612 2.42676392 15.09887695 2.61108398 C17 3 17 3 20 4 C19.67 4.99 19.34 5.98 19 7 C16.10775892 8.19678941 13.89224108 8.19678941 11 7 C10.67 6.01 10.34 5.02 10 4 C7.69 3.67 5.38 3.34 3 3 C3 3.66 3 4.32 3 5 C2.01 5 1.02 5 0 5 C0 3.35 0 1.7 0 0 Z M13 8 C13.66 8 14.32 8 15 8 C14.34 9.32 13.68 10.64 13 12 C12.67 11.34 12.34 10.68 12 10 C12.33 9.34 12.66 8.68 13 8 Z " fill="#FEFBED" transform="translate(129,1)"/>
<path d="M0 0 C0 0.66 0 1.32 0 2 C-0.66 2 -1.32 2 -2 2 C-2 2.66 -2 3.32 -2 4 C-2.99 4.495 -2.99 4.495 -4 5 C-4.72693904 6.97888961 -5.39816251 8.97954558 -6 11 C-6.66 10.67 -7.32 10.34 -8 10 C-10.32873375 9.31744011 -12.66182791 8.64949225 -15 8 C-13.59113123 5.18226246 -11.51646834 3.84131829 -9 2 C-8.34 2 -7.68 2 -7 2 C-4 0 -4 0 0 0 Z " fill="#F8EEDD" transform="translate(183,185)"/>
<path d="M0 0 C0.66 0 1.32 0 2 0 C2 0.66 2 1.32 2 2 C3.32 2 4.64 2 6 2 C6.33 1.34 6.66 0.68 7 0 C7.33 2.64 7.66 5.28 8 8 C7.01 8 6.02 8 5 8 C4.01 9.485 4.01 9.485 3 11 C2.01 10.67 1.02 10.34 0 10 C0.66 10 1.32 10 2 10 C2 9.34 2 8.68 2 8 C1.34 8 0.68 8 0 8 C0 7.34 0 6.68 0 6 C-0.66 5.67 -1.32 5.34 -2 5 C-1.125 1.125 -1.125 1.125 0 0 Z " fill="#E9DAC9" transform="translate(183,161)"/>
<path d="M0 0 C0.66 0.33 1.32 0.66 2 1 C1.67 1.66 1.34 2.32 1 3 C1.33 3.66 1.66 4.32 2 5 C1.01 5 0.02 5 -1 5 C-1.33 6.32 -1.66 7.64 -2 9 C-4.98241547 9.77321882 -7.97580475 10.41196203 -11 11 C-11 11.66 -11 12.32 -11 13 C-11.99 13.33 -12.98 13.66 -14 14 C-13.8125 12.1875 -13.8125 12.1875 -13 10 C-10.75 8.5 -10.75 8.5 -8 7 C-5.14341853 4.82355697 -2.47415521 2.60437391 0 0 Z " fill="#F4E9DA" transform="translate(31,55)"/>
<path d="M0 0 C0.66 1.32 1.32 2.64 2 4 C0.35 4.33 -1.3 4.66 -3 5 C-3.33 6.65 -3.66 8.3 -4 10 C-4.66 10 -5.32 10 -6 10 C-6 10.66 -6 11.32 -6 12 C-6.66 12 -7.32 12 -8 12 C-8.185625 11.071875 -8.185625 11.071875 -8.375 10.125 C-8.87197356 7.80879168 -8.87197356 7.80879168 -11 6 C-10.34 6 -9.68 6 -9 6 C-8.67 5.01 -8.34 4.02 -8 3 C-7.01 3.33 -6.02 3.66 -5 4 C-5 3.34 -5 2.68 -5 2 C-3.35 1.34 -1.7 0.68 0 0 Z " fill="#F0E4D5" transform="translate(177,162)"/>
<path d="M0 0 C1.32 0.66 2.64 1.32 4 2 C3.67 2.66 3.34 3.32 3 4 C3.99 4.33 4.98 4.66 6 5 C4.02 7.97 4.02 7.97 2 11 C1.01 10.67 0.02 10.34 -1 10 C-1.99 10.495 -1.99 10.495 -3 11 C-3.32613618 6.32538149 -2.70582788 3.83325617 0 0 Z " fill="#F0E5D6" transform="translate(202,75)"/>
<path d="M0 0 C0.66 0.33 1.32 0.66 2 1 C2.40729228 3.32156597 2.74438677 5.6568787 3 8 C2.34 8 1.68 8 1 8 C1 7.34 1 6.68 1 6 C0.34 6 -0.32 6 -1 6 C-1 6.66 -1 7.32 -1 8 C-2.65 8.66 -4.3 9.32 -6 10 C-6 11.32 -6 12.64 -6 14 C-7.32 14.33 -8.64 14.66 -10 15 C-10 11 -10 11 -8 8 C-5.375 7.3125 -5.375 7.3125 -3 7 C-2.690625 6.030625 -2.38125 5.06125 -2.0625 4.0625 C-1 1 -1 1 0 0 Z " fill="#EEE1D1" transform="translate(92,185)"/>
<path d="M0 0 C4.95 0 9.9 0 15 0 C15.33 0.99 15.66 1.98 16 3 C15.34 3 14.68 3 14 3 C14 2.34 14 1.68 14 1 C12.35 1.33 10.7 1.66 9 2 C9 3.98 9 5.96 9 8 C8.34 7.67 7.68 7.34 7 7 C7 6.34 7 5.68 7 5 C4.69 4.67 2.38 4.34 0 4 C0 2.68 0 1.36 0 0 Z " fill="#FEFCF3" transform="translate(97,0)"/>
<path d="M0 0 C3.4375 1.25 3.4375 1.25 7 3 C7.9375 5.1875 7.9375 5.1875 8 7 C9.98 7 11.96 7 14 7 C13.360625 7.12375 12.72125 7.2475 12.0625 7.375 C11.381875 7.58125 10.70125 7.7875 10 8 C9.67 8.66 9.34 9.32 9 10 C7.68 9.34 6.36 8.68 5 8 C5 7.34 5 6.68 5 6 C2.52733235 6.34444881 2.52733235 6.34444881 0 7 C-0.33 7.66 -0.66 8.32 -1 9 C-1.08886184 5.80097361 -0.91058531 3.07322544 0 0 Z " fill="#FDF8E7" transform="translate(66,201)"/>
<path d="M0 0 C0.94875 0.350625 1.8975 0.70125 2.875 1.0625 C2.545 2.3825 2.215 3.7025 1.875 5.0625 C1.318125 4.85625 0.76125 4.65 0.1875 4.4375 C-2.784538 3.95554789 -4.44479941 4.79684972 -7.125 6.0625 C-6.52316251 4.04204558 -5.85193904 2.04138961 -5.125 0.0625 C-3.125 -0.9375 -3.125 -0.9375 0 0 Z M0.875 5.0625 C0.875 8.0625 0.875 8.0625 0.875 8.0625 Z " fill="#F4EBDC" transform="translate(149.125,19.9375)"/>
<path d="M0 0 C1.5625 1.75 1.5625 1.75 3 4 C2.875 6.1875 2.875 6.1875 2 8 C1.01 8.33 0.02 8.66 -1 9 C-1.33 9.66 -1.66 10.32 -2 11 C-4.125 4.375 -4.125 4.375 -3 1 C-2.01 0.67 -1.02 0.34 0 0 Z " fill="#F9DBCD" transform="translate(53,134)"/>
<path d="M0 0 C0.33 0 0.66 0 1 0 C3.21538462 7.26153846 3.21538462 7.26153846 2.125 11 C1.75375 11.66 1.3825 12.32 1 13 C-1.89900831 11.55049584 -3.78318919 9.33348506 -6 7 C-6 6.67 -6 6.34 -6 6 C-4.35 5.67 -2.7 5.34 -1 5 C-0.67 3.35 -0.34 1.7 0 0 Z " fill="#80705A" transform="translate(75,103)"/>
<path d="M0 0 C0.99 0.33 1.98 0.66 3 1 C3.625 3.375 3.625 3.375 4 6 C3.34 6.66 2.68 7.32 2 8 C2 7.34 2 6.68 2 6 C1.34 6 0.68 6 0 6 C0 6.99 0 7.98 0 9 C-1.32 9.33 -2.64 9.66 -4 10 C-4.33 9.34 -4.66 8.68 -5 8 C-4.67 7.34 -4.34 6.68 -4 6 C-3.34 6 -2.68 6 -2 6 C-2.33 5.01 -2.66 4.02 -3 3 C-2.01 2.01 -1.02 1.02 0 0 Z " fill="#F2E5D4" transform="translate(45,156)"/>
<path d="M0 0 C0.66 0.33 1.32 0.66 2 1 C2.99 1.33 3.98 1.66 5 2 C5.33 4.31 5.66 6.62 6 9 C5.01 9 4.02 9 3 9 C2 8 2 8 1 6 C0.34 6 -0.32 6 -1 6 C-1 6.66 -1 7.32 -1 8 C-1.66 8 -2.32 8 -3 8 C-3 7.01 -3 6.02 -3 5 C-2.01 4.34 -1.02 3.68 0 3 C0 2.01 0 1.02 0 0 Z " fill="#7E6C57" transform="translate(147,108)"/>
<path d="M0 0 C0.66 0.33 1.32 0.66 2 1 C1.34 2.65 0.68 4.3 0 6 C-0.66 6 -1.32 6 -2 6 C-2 7.65 -2 9.3 -2 11 C-3.32 10.34 -4.64 9.68 -6 9 C-6 6.33333333 -6 3.66666667 -6 1 C-4.7934375 1.0309375 -4.7934375 1.0309375 -3.5625 1.0625 C-1.06645115 1.29633621 -1.06645115 1.29633621 0 0 Z " fill="#FEFEFA" transform="translate(7,75)"/>
<path d="M0 0 C0.33 0.99 0.66 1.98 1 3 C-1.33333333 5.33333333 -3.66666667 7.66666667 -6 10 C-8.0625 9.8125 -8.0625 9.8125 -10 9 C-10.33 8.01 -10.66 7.02 -11 6 C-9.5437455 5.32880451 -8.08492133 4.66318193 -6.625 4 C-5.40683594 3.443125 -5.40683594 3.443125 -4.1640625 2.875 C-2 2 -2 2 0 2 C0 1.34 0 0.68 0 0 Z " fill="#F7DECF" transform="translate(180,134)"/>
<path d="M0 0 C1.65 0.99 3.3 1.98 5 3 C4.67 4.65 4.34 6.3 4 8 C2.68 8.33 1.36 8.66 0 9 C0 8.34 0 7.68 0 7 C0.66 6.67 1.32 6.34 2 6 C1.01 5.67 0.02 5.34 -1 5 C-1.66 5.66 -2.32 6.32 -3 7 C-3.33 6.01 -3.66 5.02 -4 4 C-2.68 2.68 -1.36 1.36 0 0 Z " fill="#EBDFCE" transform="translate(135,192)"/>
<path d="M0 0 C1.32 0.33 2.64 0.66 4 1 C3.01 1.495 3.01 1.495 2 2 C2 3.65 2 5.3 2 7 C0.68 7 -0.64 7 -2 7 C-2 6.01 -2 5.02 -2 4 C-2.66 4 -3.32 4 -4 4 C-4.33 4.99 -4.66 5.98 -5 7 C-5 5.68 -5 4.36 -5 3 C-5.66 3 -6.32 3 -7 3 C-7.33 3.66 -7.66 4.32 -8 5 C-8 4.01 -8 3.02 -8 2 C-5.36 2 -2.72 2 0 2 C0 1.34 0 0.68 0 0 Z " fill="#E8D9C7" transform="translate(121,197)"/>
<path d="M0 0 C5.37305699 -0.35233161 5.37305699 -0.35233161 8 0 C10 2 10 2 11 4 C10.34 5.32 9.68 6.64 9 8 C8.34 7.67 7.68 7.34 7 7 C7.33 6.34 7.66 5.68 8 5 C6.35 5 4.7 5 3 5 C3 3.68 3 2.36 3 1 C2.01 0.67 1.02 0.34 0 0 Z " fill="#82705B" transform="translate(108,126)"/>
<path d="M0 0 C0.99 0.33 1.98 0.66 3 1 C2.65660347 3.57547398 2.39993284 4.68894113 0.3125 6.3125 C-2.72203131 7.21465796 -4.94880471 6.69345348 -8 6 C-8 5.34 -8 4.68 -8 4 C-6.02 3.34 -4.04 2.68 -2 2 C-1.67 2.66 -1.34 3.32 -1 4 C-0.67 2.68 -0.34 1.36 0 0 Z " fill="#74624D" transform="translate(76,84)"/>
<path d="M0 0 C0.66 0 1.32 0 2 0 C2 0.66 2 1.32 2 2 C1.34 2 0.68 2 0 2 C0 1.34 0 0.68 0 0 Z M-7 2 C-3.75 1.6875 -3.75 1.6875 0 2 C2.4375 4.5 2.4375 4.5 4 7 C1.69 7 -0.62 7 -3 7 C-3.33 6.01 -3.66 5.02 -4 4 C-4.99 4 -5.98 4 -7 4 C-7.33 4.66 -7.66 5.32 -8 6 C-7.67 4.68 -7.34 3.36 -7 2 Z " fill="#FEFCF2" transform="translate(57,197)"/>
<path d="M0 0 C0.66 0 1.32 0 2 0 C2.28571429 7.42857143 2.28571429 7.42857143 0 11 C-0.99 10.67 -1.98 10.34 -3 10 C-2.25 3.375 -2.25 3.375 0 0 Z " fill="#F3E7D9" transform="translate(35,41)"/>
<path d="M0 0 C2.96175123 0.61277612 4.38058783 1.25372522 7 3 C6.67 3.66 6.34 4.32 6 5 C5.67 5 5.34 5 5 5 C5.33 6.32 5.66 7.64 6 9 C4.02 8.34 2.04 7.68 0 7 C0.185625 6.21625 0.37125 5.4325 0.5625 4.625 C1.25962266 2.02910225 1.25962266 2.02910225 0 0 Z " fill="#5F4C37" transform="translate(117,128)"/>
<path d="M0 0 C-0.33 0.99 -0.66 1.98 -1 3 C-1 2.34 -1 1.68 -1 1 C-1.99 1 -2.98 1 -4 1 C-3.67 1.66 -3.34 2.32 -3 3 C-3.99 4.485 -3.99 4.485 -5 6 C-5 5.01 -5 4.02 -5 3 C-7.12364481 2.77390663 -7.12364481 2.77390663 -8.625 4.5 C-9.07875 4.995 -9.5325 5.49 -10 6 C-9.67 4.02 -9.34 2.04 -9 0 C-5.52176885 -1.15941038 -3.54104422 -0.70820884 0 0 Z " fill="#594836" transform="translate(152,102)"/>
<path d="M0 0 C2.31 0 4.62 0 7 0 C5.515 1.98 5.515 1.98 4 4 C4.99 4.33 5.98 4.66 7 5 C4.13822943 6.43088528 2.06624227 5.59991697 -1 5 C-0.67 3.35 -0.34 1.7 0 0 Z " fill="#705D47" transform="translate(142,86)"/>
<path d="M0 0 C3.62528568 -0.20140476 5.86501708 0.14223235 9 2 C9 2.66 9 3.32 9 4 C4.545 4.495 4.545 4.495 0 5 C0 3.35 0 1.7 0 0 Z " fill="#E6D7C4" transform="translate(107,191)"/>
<path d="M0 0 C1.44207941 2.88415883 1.09394887 5.41721528 1.0625 8.625 C1.05347656 9.81351563 1.04445312 11.00203125 1.03515625 12.2265625 C1.02355469 13.14179687 1.01195312 14.05703125 1 15 C0.34 15 -0.32 15 -1 15 C-1 13.68 -1 12.36 -1 11 C-1.66 11 -2.32 11 -3 11 C-3.33 9.35 -3.66 7.7 -4 6 C-3.34 6 -2.68 6 -2 6 C-1.34 4.02 -0.68 2.04 0 0 Z " fill="#F9F7F0" transform="translate(142,102)"/>
<path d="M0 0 C3.3 0.99 6.6 1.98 10 3 C7.37561021 4.74959319 6.03452373 5.62068453 3 6 C2.01 5.34 1.02 4.68 0 4 C0 2.68 0 1.36 0 0 Z " fill="#E5D6C4" transform="translate(33,168)"/>
<path d="M0 0 C1.32 0.99 2.64 1.98 4 3 C3.34 4.65 2.68 6.3 2 8 C2.66 8.33 3.32 8.66 4 9 C2.35 9.33 0.7 9.66 -1 10 C-1.09978121 6.50765756 -0.77842938 3.40562852 0 0 Z " fill="#F0E5D6" transform="translate(206,98)"/>
<path d="M0 0 C0.99 0.33 1.98 0.66 3 1 C2.01 2.485 2.01 2.485 1 4 C1.66 4.33 2.32 4.66 3 5 C2.34 6.32 1.68 7.64 1 9 C0.34 9 -0.32 9 -1 9 C-1 8.01 -1 7.02 -1 6 C-1.66 5.67 -2.32 5.34 -3 5 C-3 4.01 -3 3.02 -3 2 C-2.01 1.34 -1.02 0.68 0 0 Z " fill="#E6D7C5" transform="translate(62,183)"/>
<path d="M0 0 C0.66 0 1.32 0 2 0 C2.36444983 4.25191465 1.56111503 6.58517997 -1 10 C-1.99 10.33 -2.98 10.66 -4 11 C-4 7.23312136 -3.76462683 6.08809695 -2 3 C-2 3.66 -2 4.32 -2 5 C-1.34 5 -0.68 5 0 5 C0 3.35 0 1.7 0 0 Z " fill="#EADBCA" transform="translate(195,154)"/>
<path d="M0 0 C0.66 0.33 1.32 0.66 2 1 C1.649375 1.598125 1.29875 2.19625 0.9375 2.8125 C-0.33304698 5.10813214 -0.33304698 5.10813214 1 8 C-0.32 8 -1.64 8 -3 8 C-3.75 6.25 -3.75 6.25 -4 4 C-2.0625 1.75 -2.0625 1.75 0 0 Z " fill="#614D38" transform="translate(99,131)"/>
<path d="M0 0 C0 0.66 0 1.32 0 2 C0.66 2 1.32 2 2 2 C2 2.66 2 3.32 2 4 C1.236875 3.814375 0.47375 3.62875 -0.3125 3.4375 C-3.08967375 2.77180827 -3.08967375 2.77180827 -6 4 C-6.99 3.34 -7.98 2.68 -9 2 C-5.5647952 -0.29013653 -4.014669 -0.17842973 0 0 Z " fill="#EDE8DF" transform="translate(115,132)"/>
<path d="M0 0 C0.99 0.33 1.98 0.66 3 1 C3 2.32 3 3.64 3 5 C0.29120665 6.35439668 -2.00933268 6.06501451 -5 6 C-3.74821404 3.49642808 -2.00018842 1.93566621 0 0 Z " fill="#F2E8D7" transform="translate(173,187)"/>
<path d="M0 0 C0.33 0.66 0.66 1.32 1 2 C1.99 2.33 2.98 2.66 4 3 C3.34 4.32 2.68 5.64 2 7 C0.68 6.67 -0.64 6.34 -2 6 C-2 4.68 -2 3.36 -2 2 C-1.34 2 -0.68 2 0 2 C0 1.34 0 0.68 0 0 Z " fill="#F1E6D7" transform="translate(168,25)"/>
<path d="M0 0 C3 1 3 1 4 3 C4.66 2.67 5.32 2.34 6 2 C6.33 3.32 6.66 4.64 7 6 C5.02 6 3.04 6 1 6 C0.67 4.02 0.34 2.04 0 0 Z " fill="#E9D9C8" transform="translate(49,180)"/>
<path d="M0 0 C3.875 2.875 3.875 2.875 5 4 C5 4.99 5 5.98 5 7 C3.35 7 1.7 7 0 7 C-1.04449911 3.86650268 -0.93423645 3.01031744 0 0 Z " fill="#E9D9C8" transform="translate(29,149)"/>
<path d="M0 0 C1.32 1.32 2.64 2.64 4 4 C3.01 4.495 3.01 4.495 2 5 C1.34 4.67 0.68 4.34 0 4 C0 5.65 0 7.3 0 9 C-0.99 8.67 -1.98 8.34 -3 8 C-1.125 1.125 -1.125 1.125 0 0 Z " fill="#84735E" transform="translate(101,129)"/>
<path d="M0 0 C1.32 0 2.64 0 4 0 C3.67 1.65 3.34 3.3 3 5 C0.525 4.01 0.525 4.01 -2 3 C-1.34 2.67 -0.68 2.34 0 2 C0 1.34 0 0.68 0 0 Z " fill="#E4D5C3" transform="translate(126,190)"/>
<path d="M0 0 C0.33 0.66 0.66 1.32 1 2 C1.99 2.33 2.98 2.66 4 3 C3.67 4.32 3.34 5.64 3 7 C1.68 6.34 0.36 5.68 -1 5 C-0.67 3.35 -0.34 1.7 0 0 Z " fill="#E8D8C6" transform="translate(165,167)"/>
<path d="M0 0 C0.99 0 1.98 0 3 0 C3 1.98 3 3.96 3 6 C2.01 6.495 2.01 6.495 1 7 C1 6.34 1 5.68 1 5 C0.34 5 -0.32 5 -1 5 C-0.67 3.35 -0.34 1.7 0 0 Z " fill="#F9EFDE" transform="translate(10,151)"/>
<path d="M0 0 C0.66 0.66 1.32 1.32 2 2 C1.01 3.32 0.02 4.64 -1 6 C-1 5.34 -1 4.68 -1 4 C-2.65 4.33 -4.3 4.66 -6 5 C-5.67 4.01 -5.34 3.02 -5 2 C-2.4375 0.8125 -2.4375 0.8125 0 0 Z " fill="#FEFDF2" transform="translate(49,19)"/>
<path d="M0 0 C1.0625 1.8125 1.0625 1.8125 2 4 C1.67 4.99 1.34 5.98 1 7 C-2.0109362 4.9927092 -2.63016497 4.16115776 -4 1 C-2.68 1.33 -1.36 1.66 0 2 C0 1.34 0 0.68 0 0 Z " fill="#ECDECD" transform="translate(165,182)"/>
<path d="M0 0 C0 0.99 0 1.98 0 3 C-0.66 2.67 -1.32 2.34 -2 2 C-2.12375 2.639375 -2.2475 3.27875 -2.375 3.9375 C-2.58125 4.618125 -2.7875 5.29875 -3 6 C-3.99 6.495 -3.99 6.495 -5 7 C-5.33 6.01 -5.66 5.02 -6 4 C-5.34 4 -4.68 4 -4 4 C-4.33 3.01 -4.66 2.02 -5 1 C-3.35 0.67 -1.7 0.34 0 0 Z " fill="#F5ECDC" transform="translate(38,179)"/>
<path d="M0 0 C0.33 0.66 0.66 1.32 1 2 C0.06553465 4.03144641 -0.93224776 6.03533587 -2 8 C-2.99 8 -3.98 8 -5 8 C-4.67 7.34 -4.34 6.68 -4 6 C-3.690625 5.34 -3.38125 4.68 -3.0625 4 C-2 2 -2 2 0 0 Z " fill="#FEFDF1" transform="translate(14,60)"/>
<path d="M0 0 C1.32 0.33 2.64 0.66 4 1 C3.01 1.495 3.01 1.495 2 2 C2.66 2.33 3.32 2.66 4 3 C4 3.66 4 4.32 4 5 C2.02 5 0.04 5 -2 5 C-1.34 3.35 -0.68 1.7 0 0 Z " fill="#F4E9DB" transform="translate(115,12)"/>
<path d="M0 0 C1.32 0 2.64 0 4 0 C4 1.98 4 3.96 4 6 C3.01 6.495 3.01 6.495 2 7 C0 4 0 4 0 0 Z " fill="#F6F0E4" transform="translate(73,196)"/>
<path d="M0 0 C0.66 0 1.32 0 2 0 C1.25 2.9375 1.25 2.9375 0 6 C-2.125 6.875 -2.125 6.875 -4 7 C-3.34 5.35 -2.68 3.7 -2 2 C-1.34 2 -0.68 2 0 2 C0 1.34 0 0.68 0 0 Z " fill="#EDDFCD" transform="translate(126,181)"/>
<path d="M0 0 C1.65 0.33 3.3 0.66 5 1 C5 1.66 5 2.32 5 3 C3.35 3.33 1.7 3.66 0 4 C-0.33 3.34 -0.66 2.68 -1 2 C-0.67 1.34 -0.34 0.68 0 0 Z " fill="#F3E8D8" transform="translate(41,34)"/>
<path d="M0 0 C0 1.65 0 3.3 0 5 C-1.32 5 -2.64 5 -4 5 C-3.625 3.0625 -3.625 3.0625 -3 1 C-1 0 -1 0 0 0 Z " fill="#FAF1DE" transform="translate(214,135)"/>
<path d="M0 0 C0.66 0.66 1.32 1.32 2 2 C0.1875 4 0.1875 4 -2 6 C-2.99 6 -3.98 6 -5 6 C-4.75 4.125 -4.75 4.125 -4 2 C-1.9375 0.75 -1.9375 0.75 0 0 Z " fill="#FAF8F2" transform="translate(105,134)"/>
<path d="M0 0 C0.99 0.33 1.98 0.66 3 1 C3 1.66 3 2.32 3 3 C2.34 3 1.68 3 1 3 C0.67 2.01 0.34 1.02 0 0 Z " fill="#FFFFF7" transform="translate(167,15)"/>
<path d="M0 0 C0.66 0.66 1.32 1.32 2 2 C1.01 1.67 0.02 1.34 -1 1 C-0.67 0.67 -0.34 0.34 0 0 Z " fill="#FEF9E9" transform="translate(159,202)"/>
<path d="M0 0 C0.99 1.485 0.99 1.485 2 3 C1.34 3 0.68 3 0 3 C0 2.01 0 1.02 0 0 Z " fill="#FFFFFF" transform="translate(65,7)"/>
<path d="M0 0 C0.99 0.495 0.99 0.495 2 1 C1.01 1.495 1.01 1.495 0 2 C0 1.34 0 0.68 0 0 Z " fill="#FFFFFF" transform="translate(41,20)"/>
<path d="M0 0 C3 1 3 1 3 1 Z " fill="#FEFEF2" transform="translate(58,12)"/>
<path d="M0 0 C0.66 0.66 1.32 1.32 2 2 C1.34 2 0.68 2 0 2 C0 1.34 0 0.68 0 0 Z " fill="#FFFFFF" transform="translate(161,8)"/>
<path d="M0 0 C0.33 0.66 0.66 1.32 1 2 C0.34 1.67 -0.32 1.34 -1 1 C-0.67 0.67 -0.34 0.34 0 0 Z " fill="#FFFFFF" transform="translate(152,4)"/>
<path d="M0 0 C0.99 0.495 0.99 0.495 2 1 C1.01 1.495 1.01 1.495 0 2 C0 1.34 0 0.68 0 0 Z " fill="#FFFFFF" transform="translate(71,4)"/>
<path d="M0 0 C2 1 2 1 2 1 Z " fill="#FFFFDF" transform="translate(167,203)"/>
<path d="M0 0 C2 1 2 1 2 1 Z " fill="#FFFFFF" transform="translate(183,189)"/>
<path d="M0 0 C2 1 2 1 2 1 Z " fill="#FFFFFF" transform="translate(24,185)"/>
<path d="M0 0 C2 1 2 1 2 1 Z " fill="#FFFFFF" transform="translate(10,162)"/>
<path d="M0 0 C2 1 2 1 2 1 Z " fill="#FFFFFF" transform="translate(10,57)"/>
<path d="" fill="#FFFFFF" transform="translate(0,0)"/>
<path d="M0 0 C2 1 2 1 2 1 Z " fill="#FFFFFF" transform="translate(167,13)"/>
<path d="" fill="#FFFFFF" transform="translate(0,0)"/>
<path d="" fill="#FFFFFF" transform="translate(0,0)"/>
<path d="" fill="#FFFFFF" transform="translate(0,0)"/>
<path d="" fill="#FFFFFF" transform="translate(0,0)"/>
<path d="" fill="#FFFFFF" transform="translate(0,0)"/>
<path d="" fill="#FFFFFF" transform="translate(0,0)"/>
<path d="" fill="#FFFFFF" transform="translate(0,0)"/>
<path d="" fill="#FFFFFF" transform="translate(0,0)"/>
<path d="" fill="#FFFFFF" transform="translate(0,0)"/>
<path d="" fill="#FFFFD4" transform="translate(0,0)"/>
<path d="" fill="#FFFFFF" transform="translate(0,0)"/>
<path d="" fill="#FFFFFF" transform="translate(0,0)"/>
<path d="" fill="#FFFFFF" transform="translate(0,0)"/>
<path d="" fill="#FFFFFF" transform="translate(0,0)"/>
<path d="" fill="#FFFFFF" transform="translate(0,0)"/>
<path d="" fill="#FFFFFF" transform="translate(0,0)"/>
<path d="" fill="#FFFFFF" transform="translate(0,0)"/>
<path d="" fill="#FFFFFF" transform="translate(0,0)"/>
<path d="" fill="#FFFFFF" transform="translate(0,0)"/>
<path d="" fill="#FFFFFF" transform="translate(0,0)"/>
<path d="" fill="#FFFFFF" transform="translate(0,0)"/>
<path d="" fill="#FFFFD4" transform="translate(0,0)"/>
<path d="" fill="#FFFFFF" transform="translate(0,0)"/>
<path d="" fill="#FFFFFF" transform="translate(0,0)"/>
<path d="" fill="#FFFFFF" transform="translate(0,0)"/>
<path d="" fill="#FFFFFF" transform="translate(0,0)"/>
<path d="" fill="#FFFFFF" transform="translate(0,0)"/>
<path d="" fill="#FFFFFF" transform="translate(0,0)"/>
<path d="" fill="#FFFFFF" transform="translate(0,0)"/>
<path d="" fill="#FFFFFF" transform="translate(0,0)"/>
<path d="" fill="#FFFFFF" transform="translate(0,0)"/>
<path d="" fill="#FFFFFF" transform="translate(0,0)"/>
<path d="" fill="#FFFFFF" transform="translate(0,0)"/>
<path d="" fill="#FFFFFF" transform="translate(0,0)"/>
<path d="" fill="#FFFFFF" transform="translate(0,0)"/>
<path d="" fill="#FFFFFF" transform="translate(0,0)"/>
<path d="" fill="#FFFFCC" transform="translate(0,0)"/>
<path d="" fill="#FFFFBF" transform="translate(0,0)"/>
<path d="" fill="#FFFFFF" transform="translate(0,0)"/>
<path d="" fill="#FFFFFF" transform="translate(0,0)"/>
<path d="" fill="#FFFFFF" transform="translate(0,0)"/>
<path d="" fill="#FFFFFF" transform="translate(0,0)"/>
<path d="" fill="#FFFFFF" transform="translate(0,0)"/>
<path d="" fill="#FFFFFF" transform="translate(0,0)"/>
<path d="" fill="#FFFFFF" transform="translate(0,0)"/>
<path d="" fill="#FFFFFF" transform="translate(0,0)"/>
<path d="" fill="#FFFFFF" transform="translate(0,0)"/>
<path d="" fill="#FFFFFF" transform="translate(0,0)"/>
<path d="" fill="#FFFFFF" transform="translate(0,0)"/>
<path d="" fill="#FFFFFF" transform="translate(0,0)"/>
<path d="" fill="#FFFFFF" transform="translate(0,0)"/>
<path d="" fill="#FFFFFF" transform="translate(0,0)"/>
<path d="" fill="#FFFFFF" transform="translate(0,0)"/>
<path d="" fill="#FFFFFF" transform="translate(0,0)"/>
<path d="" fill="#FFFFFF" transform="translate(0,0)"/>
<path d="" fill="#FFFFFF" transform="translate(0,0)"/>
<path d="" fill="#FFFFFF" transform="translate(0,0)"/>
<path d="" fill="#FFFFFF" transform="translate(0,0)"/>
<path d="" fill="#FFFFFF" transform="translate(0,0)"/>
<path d="" fill="#FFFFFF" transform="translate(0,0)"/>
<path d="" fill="#FFFFFF" transform="translate(0,0)"/>
<path d="" fill="#FFFFFF" transform="translate(0,0)"/>
<path d="" fill="#FFFFFF" transform="translate(0,0)"/>
<path d="" fill="#FFFFFF" transform="translate(0,0)"/>
<path d="" fill="#FFFFFF" transform="translate(0,0)"/>
<path d="" fill="#FFFFFF" transform="translate(0,0)"/>
<path d="" fill="#FFFFFF" transform="translate(0,0)"/>
<path d="" fill="#FFFFFF" transform="translate(0,0)"/>
<path d="" fill="#FFFFFF" transform="translate(0,0)"/>
<path d="" fill="#FFFFFF" transform="translate(0,0)"/>
<path d="" fill="#FFFFFF" transform="translate(0,0)"/>
<path d="" fill="#FFFFFF" transform="translate(0,0)"/>
<path d="" fill="#FFFFFF" transform="translate(0,0)"/>
<path d="" fill="#FFFFFF" transform="translate(0,0)"/>
<path d="" fill="#FFFFFF" transform="translate(0,0)"/>
<path d="" fill="#FFFFFF" transform="translate(0,0)"/>
<path d="" fill="#FFFFFF" transform="translate(0,0)"/>
<path d="" fill="#FFFFFF" transform="translate(0,0)"/>
<path d="" fill="#FFFFFF" transform="translate(0,0)"/>
<path d="" fill="#FFFFFF" transform="translate(0,0)"/>
<path d="" fill="#FFFFFF" transform="translate(0,0)"/>
<path d="" fill="#FFFFFF" transform="translate(0,0)"/>
<path d="" fill="#FFFFFF" transform="translate(0,0)"/>
<path d="" fill="#FFFFFF" transform="translate(0,0)"/>
<path d="" fill="#FFFFFF" transform="translate(0,0)"/>
<path d="" fill="#FFFFFF" transform="translate(0,0)"/>
<path d="" fill="#FFFFFF" transform="translate(0,0)"/>
</svg>
