<?xml version="1.0" encoding="UTF-8"?>
<svg version="1.1" xmlns="http://www.w3.org/2000/svg" width="220" height="220">
<path d="M0 0 C0.556875 0.185625 1.11375 0.37125 1.6875 0.5625 C4.39820835 1.07533672 6.32383562 0.56340303 9 0 C9.99 0.495 9.99 0.495 11 1 C13.09821215 0.60061233 13.09821215 0.60061233 15 0 C15 0.66 15 1.32 15 2 C15.928125 1.835 16.85625 1.67 17.8125 1.5 C21 1 21 1 24 1 C24 1.99 24 2.98 24 4 C26.31 4 28.62 4 31 4 C31.33 3.01 31.66 2.02 32 1 C32 1.99 32 2.98 32 4 C32.9075 3.7525 33.815 3.505 34.75 3.25 C35.8225 3.1675 36.895 3.085 38 3 C40 4.8125 40 4.8125 42 7 C45.05429073 8.21284876 45.05429073 8.21284876 48 9 C48.99 9.495 48.99 9.495 50 10 C50 10.66 50 11.32 50 12 C51.98 12.495 51.98 12.495 54 13 C54.33 12.34 54.66 11.68 55 11 C55.99 12.485 55.99 12.485 57 14 C59.55183404 15.20450304 59.55183404 15.20450304 62 16 C62.66 15.01 63.32 14.02 64 13 C64.99 15.475 64.99 15.475 66 18 C67.98 17.505 67.98 17.505 70 17 C70.50403768 18.29009643 71.00309926 19.58213789 71.5 20.875 C71.7784375 21.59429688 72.056875 22.31359375 72.34375 23.0546875 C73 25 73 25 73 27 C74.32 27.33 75.64 27.66 77 28 C77.33 29.32 77.66 30.64 78 32 C78.99 32 79.98 32 81 32 C83.0625 33.875 83.0625 33.875 85 36 C86.95216435 37.95216435 88.53199953 38.84826645 91 40 C90.34 40 89.68 40 89 40 C89.63979849 42.03241727 89.63979849 42.03241727 91 44 C91.825 44.144375 92.65 44.28875 93.5 44.4375 C94.325 44.623125 95.15 44.80875 96 45 C97.32334173 47.45763465 98 49.20597646 98 52 C98.92469045 54.20503108 99.6892037 55.72805324 101.5 57.3125 C103.7468128 59.8401644 104.10935818 62.77142339 105 66 C105.94726954 67.69719127 106.94228261 69.36935236 108 71 C110.149457 74.58242834 110.43422077 77.87673119 111 82 C111.24658982 83.52030307 111.49813097 85.03980905 111.75390625 86.55859375 C111.88603516 87.35716797 112.01816406 88.15574219 112.15429688 88.97851562 C112.42590698 90.61467412 112.70193355 92.25010573 112.98242188 93.88476562 C115.09628301 106.80743397 115.09628301 106.80743397 113 111 C112.60054439 113.52211027 112.24726038 116.02924625 111.9375 118.5625 C111.84807129 119.28179687 111.75864258 120.00109375 111.66650391 120.7421875 C111.06092212 125.86367915 110.81569311 130.83940719 111 136 C109.02 136.99 109.02 136.99 107 138 C107 138.66 107 139.32 107 140 C106.34 140 105.68 140 105 140 C104.89042969 140.89203125 104.78085938 141.7840625 104.66796875 142.703125 C104.50941406 143.87359375 104.35085937 145.0440625 104.1875 146.25 C103.96126953 147.99023438 103.96126953 147.99023438 103.73046875 149.765625 C102.99385588 153.02720499 102.13185763 154.50527298 100 157 C99.29485154 159.14733927 99.29485154 159.14733927 99 161 C98.34 161 97.68 161 97 161 C96.67 162.65 96.34 164.3 96 166 C95.34 166 94.68 166 94 166 C94 166.66 94 167.32 94 168 C92.8553125 168.5878125 92.8553125 168.5878125 91.6875 169.1875 C88.7002686 170.83928445 88.7002686 170.83928445 87.625 174.375 C85.79145451 178.46521686 84.24339923 179.63053717 80.5234375 181.859375 C78.67840702 183.0149709 78.67840702 183.0149709 78 186 C76.01679982 187.03291676 74.01652194 188.0337499 72 189 C71.67 189.66 71.34 190.32 71 191 C69.865625 191.12375 68.73125 191.2475 67.5625 191.375 C66.386875 191.58125 65.21125 191.7875 64 192 C62.90833725 193.93330603 62.90833725 193.93330603 62 196 C58.875 197.25 58.875 197.25 56 198 C56.33 198.99 56.66 199.98 57 201 C53.25 202.125 53.25 202.125 51 201 C48.90178785 201.39938767 48.90178785 201.39938767 47 202 C47 203.65 47 205.3 47 207 C46.34 206.01 45.68 205.02 45 204 C44.34 204.33 43.68 204.66 43 205 C42.34 204.67 41.68 204.34 41 204 C39.7763932 206.0745356 39.7763932 206.0745356 40 209 C37.36 208.67 34.72 208.34 32 208 C32 207.34 32 206.68 32 206 C29.525 206.99 29.525 206.99 27 208 C26.67 207.67 26.34 207.34 26 207 C25.67 207.66 25.34 208.32 25 209 C24.01 209 23.02 209 22 209 C22 208.34 22 207.68 22 207 C20.989375 207.185625 19.97875 207.37125 18.9375 207.5625 C15.02085773 207.99768247 11.85755337 207.70853021 8 207 C7.67 207.66 7.34 208.32 7 209 C3.31097989 210.12470125 0.59382557 209.93250048 -3.125 209.0625 C-5.90297882 208.4250003 -8.13468322 208 -11 208 C-11.66 208 -12.32 208 -13 208 C-13 207.01 -13 206.02 -13 205 C-13.886875 205.350625 -14.77375 205.70125 -15.6875 206.0625 C-19.19887466 207.05628528 -20.54010946 206.69197811 -24 206 C-27.24236568 206.85771342 -27.24236568 206.85771342 -30 208 C-30.66 207.34 -31.32 206.68 -32 206 C-32.33 206.66 -32.66 207.32 -33 208 C-34.32 205.36 -35.64 202.72 -37 200 C-37.99 200.33 -38.98 200.66 -40 201 C-44.46153846 201 -44.46153846 201 -47 200 C-48.33333333 198.33333333 -49.66666667 196.66666667 -51 195 C-52.8817921 194.23769206 -52.8817921 194.23769206 -55 194 C-57.00382009 193.34490497 -59.00458132 192.68025637 -61 192 C-61 190.68 -61 189.36 -61 188 C-61.66 187.67 -62.32 187.34 -63 187 C-63 186.34 -63 185.68 -63 185 C-64.32 185.33 -65.64 185.66 -67 186 C-67.20625 185.38125 -67.4125 184.7625 -67.625 184.125 C-68.87322724 181.69153884 -68.87322724 181.69153884 -71.9375 181.125 C-75 180 -75 180 -76.75 176.9375 C-77.1625 175.968125 -77.575 174.99875 -78 174 C-78.66 173.67 -79.32 173.34 -80 173 C-80.625 169.9375 -80.625 169.9375 -81 167 C-82.65 166.67 -84.3 166.34 -86 166 C-87.95205479 159.23287671 -87.95205479 159.23287671 -88.4375 156.875 C-88.97176681 154.81434536 -88.97176681 154.81434536 -90.5 152.5 C-91.88991935 150.18346775 -92.43308362 148.59161776 -93 146 C-93.309375 145.236875 -93.61875 144.47375 -93.9375 143.6875 C-96.14736881 138.09783183 -97.45206549 133.95346852 -96 128 C-96.66 127.67 -97.32 127.34 -98 127 C-98 123.66666667 -98 120.33333333 -98 117 C-98.66 116.67 -99.32 116.34 -100 116 C-99.34 113.69 -98.68 111.38 -98 109 C-98.99 108.67 -99.98 108.34 -101 108 C-100.67 106.35 -100.34 104.7 -100 103 C-100.66 102.67 -101.32 102.34 -102 102 C-101.34 102 -100.68 102 -100 102 C-100 100.35 -100 98.7 -100 97 C-100.66 96.67 -101.32 96.34 -102 96 C-101.01 95.01 -101.01 95.01 -100 94 C-100.33 93.34 -100.66 92.68 -101 92 C-100.34 92 -99.68 92 -99 92 C-98.30122618 88.030604 -98.30122618 88.030604 -97.81640625 84.03125 C-97.47243701 80.38096418 -97.06684262 78.12625829 -95.3125 74.8125 C-93.64875311 72.04656348 -93.64875311 72.04656348 -94.8125 69.125 C-95.204375 68.42375 -95.59625 67.7225 -96 67 C-95.34 67 -94.68 67 -94 67 C-93.67 66.01 -93.34 65.02 -93 64 C-92.01 63.34 -91.02 62.68 -90 62 C-89.34 61.01 -88.68 60.02 -88 59 C-87.34 59 -86.68 59 -86 59 C-85.67 56.03 -85.34 53.06 -85 50 C-84.34 50 -83.68 50 -83 50 C-82.71125 49.278125 -82.4225 48.55625 -82.125 47.8125 C-81.75375 46.884375 -81.3825 45.95625 -81 45 C-80.71125 44.113125 -80.4225 43.22625 -80.125 42.3125 C-79 40 -79 40 -76.9375 39 C-76.298125 38.67 -75.65875 38.34 -75 38 C-74.896875 37.21625 -74.79375 36.4325 -74.6875 35.625 C-74 33 -74 33 -70.625 31 C-69.99335937 30.68546875 -69.36171875 30.3709375 -68.7109375 30.046875 C-66.28086244 28.55997976 -65.35853067 26.44535521 -64 24 C-63.01 24 -62.02 24 -61 24 C-61 23.34 -61 22.68 -61 22 C-59.68 22 -58.36 22 -57 22 C-57 20.35 -57 18.7 -57 17 C-54.03 16.01 -51.06 15.02 -48 14 C-48 13.67 -48 13.34 -48 13 C-47.236875 13.0825 -46.47375 13.165 -45.6875 13.25 C-44.800625 13.1675 -43.91375 13.085 -43 13 C-42.566875 12.360625 -42.13375 11.72125 -41.6875 11.0625 C-40 9 -40 9 -36.25 8.375 C-35.54875 8.32085937 -34.8475 8.26671875 -34.125 8.2109375 C-30.9591232 7.89667767 -28.03202509 6.9329308 -25 6 C-22.41338197 5.28149499 -20.72795641 5 -18 5 C-16.948125 4.690625 -15.89625 4.38125 -14.8125 4.0625 C-4.57894737 1.21052632 -4.57894737 1.21052632 -1 3 C-0.67 2.01 -0.34 1.02 0 0 Z M109 127 C110 129 110 129 110 129 Z M-33 203 C-33 203.66 -33 204.32 -33 205 C-32.34 204.67 -31.68 204.34 -31 204 C-31.66 203.67 -32.32 203.34 -33 203 Z M1 206 C2 208 2 208 2 208 Z " fill="#F9F2E5" transform="translate(103,6)"/>
<path d="M0 0 C0.66 0 1.32 0 2 0 C2 0.66 2 1.32 2 2 C2.99 2.495 2.99 2.495 4 3 C3.9278125 3.64066406 3.855625 4.28132813 3.78125 4.94140625 C3.23892456 9.99557809 2.88951733 14.91779721 3 20 C2.34 20 1.68 20 1 20 C0.73067479 24.65052872 0.73067479 24.65052872 2 29 C1.01 29.66 0.02 30.32 -1 31 C0.1490712 32.2981424 0.1490712 32.2981424 3 33 C2.53044382 37.0694869 2.10290342 40.45135047 0 44 C-0.33 44.66 -0.66 45.32 -1 46 C-1.66 46 -2.32 46 -3 46 C-3.33 47.65 -3.66 49.3 -4 51 C-4.66 51 -5.32 51 -6 51 C-6 51.66 -6 52.32 -6 53 C-7.1446875 53.5878125 -7.1446875 53.5878125 -8.3125 54.1875 C-11.2997314 55.83928445 -11.2997314 55.83928445 -12.375 59.375 C-14.20854549 63.46521686 -15.75660077 64.63053717 -19.4765625 66.859375 C-21.32159298 68.0149709 -21.32159298 68.0149709 -22 71 C-23.98320018 72.03291676 -25.98347806 73.0337499 -28 74 C-28.33 74.66 -28.66 75.32 -29 76 C-30.134375 76.12375 -31.26875 76.2475 -32.4375 76.375 C-34.2009375 76.684375 -34.2009375 76.684375 -36 77 C-37.09166275 78.93330603 -37.09166275 78.93330603 -38 81 C-41.125 82.25 -41.125 82.25 -44 83 C-43.67 83.99 -43.34 84.98 -43 86 C-46.75 87.125 -46.75 87.125 -49 86 C-51.09821215 86.39938767 -51.09821215 86.39938767 -53 87 C-53 88.65 -53 90.3 -53 92 C-53.66 91.01 -54.32 90.02 -55 89 C-55.99 89.495 -55.99 89.495 -57 90 C-57.66 89.67 -58.32 89.34 -59 89 C-60.2236068 91.0745356 -60.2236068 91.0745356 -60 94 C-62.64 93.67 -65.28 93.34 -68 93 C-68 92.34 -68 91.68 -68 91 C-69.65 91.66 -71.3 92.32 -73 93 C-73.33 92.67 -73.66 92.34 -74 92 C-74.33 92.66 -74.66 93.32 -75 94 C-75.99 94 -76.98 94 -78 94 C-78 93.34 -78 92.68 -78 92 C-79.5159375 92.2784375 -79.5159375 92.2784375 -81.0625 92.5625 C-84.97914227 92.99768247 -88.14244663 92.70853021 -92 92 C-92.33 92.66 -92.66 93.32 -93 94 C-96.68902011 95.12470125 -99.40617443 94.93250048 -103.125 94.0625 C-105.90297882 93.4250003 -108.13468322 93 -111 93 C-111.66 93 -112.32 93 -113 93 C-113 92.01 -113 91.02 -113 90 C-113.886875 90.350625 -114.77375 90.70125 -115.6875 91.0625 C-119.19887466 92.05628528 -120.54010946 91.69197811 -124 91 C-127.24236568 91.85771342 -127.24236568 91.85771342 -130 93 C-130.99 92.01 -130.99 92.01 -132 91 C-132.33 91.66 -132.66 92.32 -133 93 C-134.32 90.36 -135.64 87.72 -137 85 C-137.99 85.33 -138.98 85.66 -140 86 C-144.46153846 86 -144.46153846 86 -147 85 C-149 82.5 -149 82.5 -151 80 C-152.8817921 79.23769206 -152.8817921 79.23769206 -155 79 C-157.00382009 78.34490497 -159.00458132 77.68025637 -161 77 C-161 75.68 -161 74.36 -161 73 C-161.66 72.67 -162.32 72.34 -163 72 C-163 71.34 -163 70.68 -163 70 C-164.98 70.495 -164.98 70.495 -167 71 C-167.20625 70.38125 -167.4125 69.7625 -167.625 69.125 C-168.87322724 66.69153884 -168.87322724 66.69153884 -171.9375 66.125 C-175 65 -175 65 -176.75 61.9375 C-177.36875 60.4834375 -177.36875 60.4834375 -178 59 C-178.66 58.67 -179.32 58.34 -180 58 C-180.625 54.9375 -180.625 54.9375 -181 52 C-181.99 52 -182.98 52 -184 52 C-184.33 49.36 -184.66 46.72 -185 44 C-184.01 44.33 -183.02 44.66 -182 45 C-181.01 44.01 -180.02 43.02 -179 42 C-178.34 42.66 -177.68 43.32 -177 44 C-176.67 43.01 -176.34 42.02 -176 41 C-175.67 42.32 -175.34 43.64 -175 45 C-174.34 45 -173.68 45 -173 45 C-173.12375 43.6078125 -173.12375 43.6078125 -173.25 42.1875 C-173 39 -173 39 -171.25 37.0625 C-169 36 -169 36 -166.75 36.3125 C-166.1725 36.539375 -165.595 36.76625 -165 37 C-165 38.32 -165 39.64 -165 41 C-163.35 41.66 -161.7 42.32 -160 43 C-160 43.66 -160 44.32 -160 45 C-158.35 45.33 -156.7 45.66 -155 46 C-155.309375 47.0209375 -155.309375 47.0209375 -155.625 48.0625 C-156.10063829 51.78833331 -155.17669149 54.46992554 -154 58 C-153.01 58 -152.02 58 -151 58 C-150.67 58.99 -150.34 59.98 -150 61 C-150.99 61 -151.98 61 -153 61 C-153.33 61.66 -153.66 62.32 -154 63 C-152.02 62.34 -150.04 61.68 -148 61 C-148 62.32 -148 63.64 -148 65 C-146.80161791 62.67145537 -146.80161791 62.67145537 -146 60 C-146.66 59.01 -147.32 58.02 -148 57 C-147.34 56.67 -146.68 56.34 -146 56 C-145.505 55.01 -145.505 55.01 -145 54 C-141.875 60.625 -141.875 60.625 -143 64 C-141.26212435 66.73486777 -141.26212435 66.73486777 -139 69 C-138.34 69 -137.68 69 -137 69 C-137.99 67.02 -138.98 65.04 -140 63 C-139.21625 62.690625 -138.4325 62.38125 -137.625 62.0625 C-135.07669872 61.07124962 -135.07669872 61.07124962 -133 60 C-131 62 -131 62 -131 65 C-129.700625 64.814375 -128.40125 64.62875 -127.0625 64.4375 C-124.84765625 64.12109375 -124.84765625 64.12109375 -123 64 C-122.67 64.33 -122.34 64.66 -122 65 C-120.33382885 65.04063832 -118.66611905 65.042721 -117 65 C-117 65.66 -117 66.32 -117 67 C-116.01 66.67 -115.02 66.34 -114 66 C-113.01 66 -112.02 66 -111 66 C-110.34 66.66 -109.68 67.32 -109 68 C-108.34 68 -107.68 68 -107 68 C-107 68.66 -107 69.32 -107 70 C-105.35 70.33 -103.7 70.66 -102 71 C-102.33 69.68 -102.66 68.36 -103 67 C-102.0925 67.33 -101.185 67.66 -100.25 68 C-96.92954193 69.19605723 -96.92954193 69.19605723 -93 69 C-93 69.66 -93 70.32 -93 71 C-91.948125 70.95875 -90.89625 70.9175 -89.8125 70.875 C-86.25989827 70.99147875 -84.15133359 71.47208068 -81 73 C-80.01 71.515 -80.01 71.515 -79 70 C-80.485 69.505 -80.485 69.505 -82 69 C-81.34 67.35 -80.68 65.7 -80 64 C-79.0925 64.495 -78.185 64.99 -77.25 65.5 C-73.99126962 67.27937212 -73.99126962 67.27937212 -70 67 C-69.67 67.66 -69.34 68.32 -69 69 C-68.236875 68.95875 -67.47375 68.9175 -66.6875 68.875 C-64 69 -64 69 -61 71 C-60.67 69.35 -60.34 67.7 -60 66 C-58.515 66.495 -58.515 66.495 -57 67 C-57 66.34 -57 65.68 -57 65 C-56.01 65 -55.02 65 -54 65 C-54 64.34 -54 63.68 -54 63 C-55.32 63 -56.64 63 -58 63 C-58 62.34 -58 61.68 -58 61 C-56.37373596 59.61767557 -54.7074998 58.28062485 -53 57 C-52.34 57.33 -51.68 57.66 -51 58 C-50.67 57.34 -50.34 56.68 -50 56 C-50 56.66 -50 57.32 -50 58 C-49.44828125 57.67257813 -48.8965625 57.34515625 -48.328125 57.0078125 C-45.61219077 55.83212285 -43.69448241 55.79751362 -40.75 55.875 C-39.41195312 55.90207031 -39.41195312 55.90207031 -38.046875 55.9296875 C-37.37140625 55.95289063 -36.6959375 55.97609375 -36 56 C-36.33 54.35 -36.66 52.7 -37 51 C-35.68 51 -34.36 51 -33 51 C-30.99598989 50.69169075 -28.99488234 50.36270588 -27 50 C-27 49.34 -27 48.68 -27 48 C-26.01 48 -25.02 48 -24 48 C-23.67 47.01 -23.34 46.02 -23 45 C-22.34 45 -21.68 45 -21 45 C-20.67 44.01 -20.34 43.02 -20 42 C-19.67 42.66 -19.34 43.32 -19 44 C-17.68 42.68 -16.36 41.36 -15 40 C-16.70892499 36.68539295 -16.70892499 36.68539295 -20.125 36.3125 C-21.548125 36.1578125 -21.548125 36.1578125 -23 36 C-21.6875 33.5 -21.6875 33.5 -20 31 C-19.01 31 -18.02 31 -17 31 C-16.67 30.01 -16.34 29.02 -16 28 C-15.01 28.33 -14.02 28.66 -13 29 C-13 30.98 -13 32.96 -13 35 C-11.68 35.66 -10.36 36.32 -9 37 C-8.67 35.35 -8.34 33.7 -8 32 C-8.66 31.67 -9.32 31.34 -10 31 C-10.33 30.01 -10.66 29.02 -11 28 C-10.566875 27.5875 -10.13375 27.175 -9.6875 26.75 C-7.87982333 24.87537235 -6.36974018 23.22385977 -5 21 C-5.07123077 18.34770141 -5.56177295 15.94124798 -6.06640625 13.33984375 C-6.03353516 12.18162109 -6.03353516 12.18162109 -6 11 C-4.02734375 9.19140625 -4.02734375 9.19140625 -2 8 C-2.33 7.34 -2.66 6.68 -3 6 C-1.68 5.34 -0.36 4.68 1 4 C0.67 2.68 0.34 1.36 0 0 Z M-133 88 C-133 88.66 -133 89.32 -133 90 C-132.34 89.67 -131.68 89.34 -131 89 C-131.66 88.67 -132.32 88.34 -133 88 Z M-99 91 C-98 93 -98 93 -98 93 Z " fill="#E9DCCB" transform="translate(203,121)"/>
<path d="M0 0 C0.66 0 1.32 0 2 0 C2 0.66 2 1.32 2 2 C2.99 2.495 2.99 2.495 4 3 C3.9278125 3.64066406 3.855625 4.28132813 3.78125 4.94140625 C3.23892456 9.99557809 2.88951733 14.91779721 3 20 C2.34 20 1.68 20 1 20 C0.73067479 24.65052872 0.73067479 24.65052872 2 29 C1.01 29.66 0.02 30.32 -1 31 C0.1490712 32.2981424 0.1490712 32.2981424 3 33 C2.53044382 37.0694869 2.10290342 40.45135047 0 44 C-0.495 44.99 -0.495 44.99 -1 46 C-1.66 46 -2.32 46 -3 46 C-3.33 47.65 -3.66 49.3 -4 51 C-4.66 51 -5.32 51 -6 51 C-6 51.66 -6 52.32 -6 53 C-7.1446875 53.5878125 -7.1446875 53.5878125 -8.3125 54.1875 C-11.2997314 55.83928445 -11.2997314 55.83928445 -12.375 59.375 C-14.20854549 63.46521686 -15.75660077 64.63053717 -19.4765625 66.859375 C-21.32159298 68.0149709 -21.32159298 68.0149709 -22 71 C-23.98320018 72.03291676 -25.98347806 73.0337499 -28 74 C-28.33 74.66 -28.66 75.32 -29 76 C-30.7015625 76.185625 -30.7015625 76.185625 -32.4375 76.375 C-34.2009375 76.684375 -34.2009375 76.684375 -36 77 C-37.09166275 78.93330603 -37.09166275 78.93330603 -38 81 C-41.125 82.25 -41.125 82.25 -44 83 C-43.67 83.99 -43.34 84.98 -43 86 C-46.75 87.125 -46.75 87.125 -49 86 C-51.09821215 86.39938767 -51.09821215 86.39938767 -53 87 C-53 88.65 -53 90.3 -53 92 C-53.66 91.01 -54.32 90.02 -55 89 C-55.99 89.495 -55.99 89.495 -57 90 C-57.99 89.505 -57.99 89.505 -59 89 C-60.2236068 91.0745356 -60.2236068 91.0745356 -60 94 C-62.64 93.67 -65.28 93.34 -68 93 C-68 92.34 -68 91.68 -68 91 C-70.475 91.99 -70.475 91.99 -73 93 C-73.33 92.67 -73.66 92.34 -74 92 C-74.33 92.66 -74.66 93.32 -75 94 C-75.99 94 -76.98 94 -78 94 C-78 93.34 -78 92.68 -78 92 C-79.010625 92.185625 -80.02125 92.37125 -81.0625 92.5625 C-84.97914227 92.99768247 -88.14244663 92.70853021 -92 92 C-92.33 92.66 -92.66 93.32 -93 94 C-96.68902011 95.12470125 -99.40617443 94.93250048 -103.125 94.0625 C-105.90297882 93.4250003 -108.13468322 93 -111 93 C-111.66 93 -112.32 93 -113 93 C-112.67 92.01 -112.34 91.02 -112 90 C-111.34 90 -110.68 90 -110 90 C-110 88.68 -110 87.36 -110 86 C-111.65 86 -113.3 86 -115 86 C-115 86.66 -115 87.32 -115 88 C-116.65 87.67 -118.3 87.34 -120 87 C-120.33 85.68 -120.66 84.36 -121 83 C-119.02 82.505 -119.02 82.505 -117 82 C-117 81.34 -117 80.68 -117 80 C-113.625 79.375 -113.625 79.375 -110 79 C-109.34 79.66 -108.68 80.32 -108 81 C-106.515 80.505 -106.515 80.505 -105 80 C-104.34 80 -103.68 80 -103 80 C-103 81.32 -103 82.64 -103 84 C-101.68 84 -100.36 84 -99 84 C-98.34 83.01 -97.68 82.02 -97 81 C-95.35 81.33 -93.7 81.66 -92 82 C-91.67 80.68 -91.34 79.36 -91 78 C-90.67 78.99 -90.34 79.98 -90 81 C-87.98491642 81.73323796 -87.98491642 81.73323796 -86 82 C-86.33 82.66 -86.66 83.32 -87 84 C-85.68 84.33 -84.36 84.66 -83 85 C-83 84.01 -83 83.02 -83 82 C-82.01 82.33 -81.02 82.66 -80 83 C-80 83.99 -80 84.98 -80 86 C-79.34 85.34 -78.68 84.68 -78 84 C-77.01 84 -76.02 84 -75 84 C-75.99 83.505 -75.99 83.505 -77 83 C-77.625 80.9375 -77.625 80.9375 -78 79 C-77.01 78.67 -76.02 78.34 -75 78 C-74.67 78.66 -74.34 79.32 -74 80 C-73.071875 79.505 -72.14375 79.01 -71.1875 78.5 C-66.26031562 76.340555 -61.27718611 76.74234354 -56 77 C-56 76.01 -56 75.02 -56 74 C-55.34 74 -54.68 74 -54 74 C-53.01 72.02 -53.01 72.02 -52 70 C-51.67 70.99 -51.34 71.98 -51 73 C-50.34 72.67 -49.68 72.34 -49 72 C-49 71.01 -49 70.02 -49 69 C-47.02 68.67 -45.04 68.34 -43 68 C-42.67 68.99 -42.34 69.98 -42 71 C-40.68 71 -39.36 71 -38 71 C-37.34 69.35 -36.68 67.7 -36 66 C-33.69 66.33 -31.38 66.66 -29 67 C-28.34 64.03 -27.68 61.06 -27 58 C-26.34 58 -25.68 58 -25 58 C-24.67 58.33 -24.34 58.66 -24 59 C-23.34 58.01 -22.68 57.02 -22 56 C-21.67 56.33 -21.34 56.66 -21 57 C-20.67 55.68 -20.34 54.36 -20 53 C-19.67 53.99 -19.34 54.98 -19 56 C-16.13376072 53.26404432 -14.2728734 50.8186202 -13 47 C-16.62528568 46.79859524 -18.86501708 47.14223235 -22 49 C-21.67 46.69 -21.34 44.38 -21 42 C-20.34 42.66 -19.68 43.32 -19 44 C-17.68 42.68 -16.36 41.36 -15 40 C-16.70892499 36.68539295 -16.70892499 36.68539295 -20.125 36.3125 C-21.07375 36.209375 -22.0225 36.10625 -23 36 C-21.6875 33.5 -21.6875 33.5 -20 31 C-19.01 31 -18.02 31 -17 31 C-16.505 29.515 -16.505 29.515 -16 28 C-14.515 28.495 -14.515 28.495 -13 29 C-13 30.98 -13 32.96 -13 35 C-11.68 35.66 -10.36 36.32 -9 37 C-8.67 35.35 -8.34 33.7 -8 32 C-8.66 31.67 -9.32 31.34 -10 31 C-10.495 29.515 -10.495 29.515 -11 28 C-10.566875 27.5875 -10.13375 27.175 -9.6875 26.75 C-7.87982333 24.87537235 -6.36974018 23.22385977 -5 21 C-5.07123077 18.34770141 -5.56177295 15.94124798 -6.06640625 13.33984375 C-6.03353516 12.18162109 -6.03353516 12.18162109 -6 11 C-4.02734375 9.19140625 -4.02734375 9.19140625 -2 8 C-2.495 7.01 -2.495 7.01 -3 6 C-1.68 5.34 -0.36 4.68 1 4 C0.505 2.02 0.505 2.02 0 0 Z M-99 91 C-98 93 -98 93 -98 93 Z " fill="#F2E6D5" transform="translate(203,121)"/>
<path d="M0 0 C0.5775 0.226875 1.155 0.45375 1.75 0.6875 C1.75 2.0075 1.75 3.3275 1.75 4.6875 C3.4 5.3475 5.05 6.0075 6.75 6.6875 C6.75 7.3475 6.75 8.0075 6.75 8.6875 C9.225 9.1825 9.225 9.1825 11.75 9.6875 C11.54375 10.368125 11.3375 11.04875 11.125 11.75 C10.64936171 15.47583331 11.57330851 18.15742554 12.75 21.6875 C13.74 21.6875 14.73 21.6875 15.75 21.6875 C16.245 23.1725 16.245 23.1725 16.75 24.6875 C15.76 24.6875 14.77 24.6875 13.75 24.6875 C13.42 25.3475 13.09 26.0075 12.75 26.6875 C14.73 26.0275 16.71 25.3675 18.75 24.6875 C18.75 26.0075 18.75 27.3275 18.75 28.6875 C19.94838209 26.35895537 19.94838209 26.35895537 20.75 23.6875 C20.09 22.6975 19.43 21.7075 18.75 20.6875 C19.41 20.3575 20.07 20.0275 20.75 19.6875 C21.08 19.0275 21.41 18.3675 21.75 17.6875 C24.875 24.3125 24.875 24.3125 23.75 27.6875 C25.48787565 30.42236777 25.48787565 30.42236777 27.75 32.6875 C28.41 32.6875 29.07 32.6875 29.75 32.6875 C28.76 30.7075 27.77 28.7275 26.75 26.6875 C27.53375 26.378125 28.3175 26.06875 29.125 25.75 C31.67330128 24.75874962 31.67330128 24.75874962 33.75 23.6875 C35.75 25.6875 35.75 25.6875 35.75 28.6875 C39.71 28.1925 39.71 28.1925 43.75 27.6875 C44.245 29.1725 44.245 29.1725 44.75 30.6875 C44.110625 30.81125 43.47125 30.935 42.8125 31.0625 C42.131875 31.26875 41.45125 31.475 40.75 31.6875 C40.255 32.6775 40.255 32.6775 39.75 33.6875 C39.09 33.6875 38.43 33.6875 37.75 33.6875 C37.42 35.0075 37.09 36.3275 36.75 37.6875 C37.41 37.6875 38.07 37.6875 38.75 37.6875 C39.245 36.6975 39.245 36.6975 39.75 35.6875 C39.75 36.6775 39.75 37.6675 39.75 38.6875 C38.75 39.6875 38.75 39.6875 36.1875 39.75 C35.383125 39.729375 34.57875 39.70875 33.75 39.6875 C34.08 40.6775 34.41 41.6675 34.75 42.6875 C35.41 42.0275 36.07 41.3675 36.75 40.6875 C39.375 41.0625 39.375 41.0625 41.75 41.6875 C42.34732819 44.45014289 42.75 46.84782769 42.75 49.6875 C44.18990623 51.85782476 44.18990623 51.85782476 45.75 53.6875 C42.78 54.6775 39.81 55.6675 36.75 56.6875 C36.09 56.0275 35.43 55.3675 34.75 54.6875 C34.255 55.6775 34.255 55.6775 33.75 56.6875 C32.43 54.0475 31.11 51.4075 29.75 48.6875 C28.76 49.0175 27.77 49.3475 26.75 49.6875 C22.28846154 49.6875 22.28846154 49.6875 19.75 48.6875 C18.41666667 47.02083333 17.08333333 45.35416667 15.75 43.6875 C13.8682079 42.92519206 13.8682079 42.92519206 11.75 42.6875 C9.74617991 42.03240497 7.74541868 41.36775637 5.75 40.6875 C5.75 39.3675 5.75 38.0475 5.75 36.6875 C5.09 36.3575 4.43 36.0275 3.75 35.6875 C3.75 35.0275 3.75 34.3675 3.75 33.6875 C1.77 34.1825 1.77 34.1825 -0.25 34.6875 C-0.45625 34.06875 -0.6625 33.45 -0.875 32.8125 C-2.12322724 30.37903884 -2.12322724 30.37903884 -5.1875 29.8125 C-8.25 28.6875 -8.25 28.6875 -10 25.625 C-10.61875 24.1709375 -10.61875 24.1709375 -11.25 22.6875 C-11.91 22.3575 -12.57 22.0275 -13.25 21.6875 C-13.875 18.625 -13.875 18.625 -14.25 15.6875 C-15.24 15.6875 -16.23 15.6875 -17.25 15.6875 C-17.58 13.0475 -17.91 10.4075 -18.25 7.6875 C-17.26 8.0175 -16.27 8.3475 -15.25 8.6875 C-14.26 7.6975 -13.27 6.7075 -12.25 5.6875 C-11.59 6.3475 -10.93 7.0075 -10.25 7.6875 C-9.92 6.6975 -9.59 5.7075 -9.25 4.6875 C-8.92 6.0075 -8.59 7.3275 -8.25 8.6875 C-7.59 8.6875 -6.93 8.6875 -6.25 8.6875 C-6.37375 7.2953125 -6.37375 7.2953125 -6.5 5.875 C-6.25 2.6875 -6.25 2.6875 -4.5 0.75 C-2.25 -0.3125 -2.25 -0.3125 0 0 Z M33.75 51.6875 C33.75 52.3475 33.75 53.0075 33.75 53.6875 C34.41 53.3575 35.07 53.0275 35.75 52.6875 C35.09 52.3575 34.43 52.0275 33.75 51.6875 Z " fill="#EEE2D2" transform="translate(36.25,157.3125)"/>
<path d="M0 0 C0 3 0 3 -1.9375 5.375 C-4.18610685 7.78887371 -4.18610685 7.78887371 -4.375 10.5625 C-5.31969791 14.24682185 -7.86013983 15.07763663 -11 17 C-11.66 17.99 -12.32 18.98 -13 20 C-13.845625 20.33 -14.69125 20.66 -15.5625 21 C-16.366875 21.33 -17.17125 21.66 -18 22 C-18.495 23.485 -18.495 23.485 -19 25 C-21.31 24.67 -23.62 24.34 -26 24 C-26.86625 25.4540625 -26.86625 25.4540625 -27.75 26.9375 C-30 30 -30 30 -32.25 30.875 C-32.8275 30.91625 -33.405 30.9575 -34 31 C-34.2165625 32.7015625 -34.2165625 32.7015625 -34.4375 34.4375 C-35 38 -35 38 -36 39 C-35.34 39.66 -34.68 40.32 -34 41 C-37.75 44 -37.75 44 -40 44 C-40.33 44.66 -40.66 45.32 -41 46 C-41.66 45.01 -42.32 44.02 -43 43 C-43 44.32 -43 45.64 -43 47 C-43.66 47 -44.32 47 -45 47 C-44.6596875 48.051875 -44.6596875 48.051875 -44.3125 49.125 C-43.90467361 52.87700275 -45.13622707 54.79431057 -47 58 C-47.99 58 -48.98 58 -50 58 C-50.144375 58.78375 -50.28875 59.5675 -50.4375 60.375 C-51 63 -51 63 -52 65 C-51.34 65.33 -50.68 65.66 -50 66 C-50.495 66.99 -50.495 66.99 -51 68 C-51.66 68 -52.32 68 -53 68 C-52.2236068 71.0745356 -52.2236068 71.0745356 -50 73 C-50.350625 73.53625 -50.70125 74.0725 -51.0625 74.625 C-52.28924249 77.73274763 -51.72856431 79.79431703 -51 83 C-51.66 83 -52.32 83 -53 83 C-53.12375 82.360625 -53.2475 81.72125 -53.375 81.0625 C-53.58125 80.381875 -53.7875 79.70125 -54 79 C-54.66 78.67 -55.32 78.34 -56 78 C-55.938125 79.27875 -55.87625 80.5575 -55.8125 81.875 C-55.70703125 84.0546875 -55.70703125 84.0546875 -56 86 C-57.485 86.99 -57.485 86.99 -59 88 C-58.01 88.99 -57.02 89.98 -56 91 C-56.66 91 -57.32 91 -58 91 C-58.99 95.95 -58.99 95.95 -60 101 C-59.34 101.33 -58.68 101.66 -58 102 C-59.98 102.495 -59.98 102.495 -62 103 C-62 102.34 -62 101.68 -62 101 C-62.99 100.67 -63.98 100.34 -65 100 C-64.67 98.35 -64.34 96.7 -64 95 C-64.66 94.67 -65.32 94.34 -66 94 C-65.34 94 -64.68 94 -64 94 C-64 92.35 -64 90.7 -64 89 C-64.66 88.67 -65.32 88.34 -66 88 C-65.01 87.01 -65.01 87.01 -64 86 C-64.33 85.34 -64.66 84.68 -65 84 C-64.34 84 -63.68 84 -63 84 C-62.30122618 80.030604 -62.30122618 80.030604 -61.81640625 76.03125 C-61.47243701 72.38096418 -61.06684262 70.12625829 -59.3125 66.8125 C-57.64875311 64.04656348 -57.64875311 64.04656348 -58.8125 61.125 C-59.204375 60.42375 -59.59625 59.7225 -60 59 C-59.34 59 -58.68 59 -58 59 C-57.67 58.01 -57.34 57.02 -57 56 C-56.01 55.34 -55.02 54.68 -54 54 C-53.34 53.01 -52.68 52.02 -52 51 C-51.34 51 -50.68 51 -50 51 C-49.67 48.03 -49.34 45.06 -49 42 C-48.34 42 -47.68 42 -47 42 C-46.71125 41.278125 -46.4225 40.55625 -46.125 39.8125 C-45.75375 38.884375 -45.3825 37.95625 -45 37 C-44.71125 36.113125 -44.4225 35.22625 -44.125 34.3125 C-43 32 -43 32 -40.9375 31 C-40.298125 30.67 -39.65875 30.34 -39 30 C-38.896875 29.21625 -38.79375 28.4325 -38.6875 27.625 C-38 25 -38 25 -34.625 23 C-33.99335937 22.68546875 -33.36171875 22.3709375 -32.7109375 22.046875 C-30.28086244 20.55997976 -29.35853067 18.44535521 -28 16 C-27.01 16 -26.02 16 -25 16 C-25 15.34 -25 14.68 -25 14 C-23.68 14 -22.36 14 -21 14 C-21 12.35 -21 10.7 -21 9 C-18.03 8.01 -15.06 7.02 -12 6 C-12 5.67 -12 5.34 -12 5 C-11.236875 5.0825 -10.47375 5.165 -9.6875 5.25 C-8.3571875 5.12625 -8.3571875 5.12625 -7 5 C-5.95374591 3.70264493 -4.95298777 2.36733028 -4 1 C-1.8125 0.25 -1.8125 0.25 0 0 Z M-44 50 C-42 51 -42 51 -42 51 Z " fill="#FCF7EB" transform="translate(67,14)"/>
<path d="M0 0 C-0.33 1.98 -0.66 3.96 -1 6 C-0.30132812 6.268125 0.39734375 6.53625 1.1171875 6.8125 C8.44858997 9.96936452 8.44858997 9.96936452 10.07421875 13.0078125 C10.5625 15.125 10.5625 15.125 11 19 C11.33 19.99 11.66 20.98 12 22 C12.04165763 23.99956611 12.04165763 26.00043389 12 28 C12 28.99 12 29.98 12 31 C12 31.66 12 32.32 12 33 C4.99008653 37.31035105 0.11367214 38.74357635 -8 37 C-9.78676572 29.08718036 -10.14703348 22.02923433 -9 14 C-8.34 14 -7.68 14 -7 14 C-7.33 12.68 -7.66 11.36 -8 10 C-7.01 9.34 -6.02 8.68 -5 8 C-5.37904208 4.70924004 -5.37904208 4.70924004 -7 2 C-7.9075 2.04125 -8.815 2.0825 -9.75 2.125 C-13.39826814 1.98468199 -15.05903874 1.07597265 -18 -1 C-17.67 -2.32 -17.34 -3.64 -17 -5 C-10.21464243 -6.93867359 -5.70470376 -3.3557081 0 0 Z " fill="#DCE5DE" transform="translate(159,119)"/>
<path d="M0 0 C0 0.66 0 1.32 0 2 C1.32 2.33 2.64 2.66 4 3 C4.05428973 5.22889496 4.09292338 7.45817471 4.125 9.6875 C4.14820312 10.92886719 4.17140625 12.17023438 4.1953125 13.44921875 C4.01032021 16.81237857 3.45767895 18.9985587 2 22 C1.34 22 0.68 22 0 22 C-0.33 23.32 -0.66 24.64 -1 26 C-1.66 26 -2.32 26 -3 26 C-3 26.66 -3 27.32 -3 28 C-6.18762365 30.12508244 -8.26512223 30.5020163 -12 31 C-20.11026566 21.08975192 -20.11026566 21.08975192 -19.4921875 14.10546875 C-18.38554218 9.37148598 -16.34939234 6.07951387 -12.5 3 C-9.76053477 1.90421391 -8.69163159 1.90340935 -6 3 C-6 2.01 -6 1.02 -6 0 C-3.50907189 -1.24546405 -2.58919267 -0.7767578 0 0 Z " fill="#DFE8E2" transform="translate(62,124)"/>
<path d="M0 0 C0.66 0 1.32 0 2 0 C2.495 1.485 2.495 1.485 3 3 C3.66 2.34 4.32 1.68 5 1 C5.66 1.33 6.32 1.66 7 2 C7.33 1.34 7.66 0.68 8 0 C8 0.66 8 1.32 8 2 C8.66 2 9.32 2 10 2 C9.67 4.31 9.34 6.62 9 9 C8.01 9 7.02 9 6 9 C5.34 9.99 4.68 10.98 4 12 C3.505 10.515 3.505 10.515 3 9 C3 10.32 3 11.64 3 13 C2.01 13.33 1.02 13.66 0 14 C-0.33 14.66 -0.66 15.32 -1 16 C-1.66 15.67 -2.32 15.34 -3 15 C-2.67 14.34 -2.34 13.68 -2 13 C-2.66 13 -3.32 13 -4 13 C-4.66 15.97 -5.32 18.94 -6 22 C-7.65 22 -9.3 22 -11 22 C-11.33 20.68 -11.66 19.36 -12 18 C-12.78375 18.165 -13.5675 18.33 -14.375 18.5 C-17 19 -17 19 -19 19 C-19.33 18.34 -19.66 17.68 -20 17 C-21.65 18.32 -23.3 19.64 -25 21 C-25.66 20.67 -26.32 20.34 -27 20 C-26.67 19.01 -26.34 18.02 -26 17 C-27.65 20.3 -29.3 23.6 -31 27 C-31.66 27 -32.32 27 -33 27 C-33.33 26.34 -33.66 25.68 -34 25 C-34.99 25 -35.98 25 -37 25 C-37 25.66 -37 26.32 -37 27 C-38.32 27 -39.64 27 -41 27 C-40.67 26.34 -40.34 25.68 -40 25 C-39.34 25.33 -38.68 25.66 -38 26 C-37.67 24.35 -37.34 22.7 -37 21 C-36.01 21.33 -35.02 21.66 -34 22 C-34 21.34 -34 20.68 -34 20 C-33.01 20 -32.02 20 -31 20 C-31 19.34 -31 18.68 -31 18 C-32.32 18 -33.64 18 -35 18 C-35 17.34 -35 16.68 -35 16 C-33.37373596 14.61767557 -31.7074998 13.28062485 -30 12 C-29.34 12.33 -28.68 12.66 -28 13 C-27.67 12.34 -27.34 11.68 -27 11 C-27 11.66 -27 12.32 -27 13 C-26.44828125 12.67257813 -25.8965625 12.34515625 -25.328125 12.0078125 C-22.61219077 10.83212285 -20.69448241 10.79751362 -17.75 10.875 C-16.85796875 10.89304688 -15.9659375 10.91109375 -15.046875 10.9296875 C-14.03367188 10.96449219 -14.03367188 10.96449219 -13 11 C-13.33 9.35 -13.66 7.7 -14 6 C-12.68 6 -11.36 6 -10 6 C-7.99598989 5.69169075 -5.99488234 5.36270588 -4 5 C-4 4.34 -4 3.68 -4 3 C-3.01 3 -2.02 3 -1 3 C-0.67 2.01 -0.34 1.02 0 0 Z M10 1 C12 2 12 2 12 2 Z " fill="#ECE0D0" transform="translate(180,166)"/>
<path d="M0 0 C1.98 0.66 3.96 1.32 6 2 C5.01 2.495 5.01 2.495 4 3 C4.63979849 5.03241727 4.63979849 5.03241727 6 7 C6.825 7.144375 7.65 7.28875 8.5 7.4375 C9.325 7.623125 10.15 7.80875 11 8 C12.32334173 10.45763465 13 12.20597646 13 15 C13.92469045 17.20503108 14.6892037 18.72805324 16.5 20.3125 C18.7468128 22.8401644 19.10935818 25.77142339 20 29 C20.94726954 30.69719127 21.94228261 32.36935236 23 34 C24.71299576 37.01384216 25.44962331 39.62317381 25.875 43.0625 C25.99617188 43.91972656 26.11734375 44.77695313 26.2421875 45.66015625 C26 48 26 48 24.2578125 49.80859375 C22 51 22 51 18 51 C18.52268466 48.23723823 19.10869587 45.6739124 20 43 C18.515 43.495 18.515 43.495 17 44 C17 43.01 17 42.02 17 41 C16.38125 40.855625 15.7625 40.71125 15.125 40.5625 C13 40 13 40 11 39 C11.185625 38.484375 11.37125 37.96875 11.5625 37.4375 C12.26546184 33.52099833 11.78492916 29.56985832 10 26 C10.33 25.34 10.66 24.68 11 24 C10.34 24 9.68 24 9 24 C9 23.34 9 22.68 9 22 C8.01 22 7.02 22 6 22 C5.67 22.66 5.34 23.32 5 24 C4.87625 23.278125 4.7525 22.55625 4.625 21.8125 C4.00761529 19.0342688 3.10221661 16.61776445 2 14 C1 11 1 11 2 8 C1.34 8 0.68 8 0 8 C-0.38063221 5.6739143 -0.71269945 3.33944736 -1 1 C-0.67 0.67 -0.34 0.34 0 0 Z " fill="#FCF7EB" transform="translate(188,43)"/>
<path d="M0 0 C0.391875 0.45375 0.78375 0.9075 1.1875 1.375 C3.30832487 3.27642919 5.33042235 4.06204028 8 5 C8.66 4.01 9.32 3.02 10 2 C10.66 3.65 11.32 5.3 12 7 C13.32 6.67 14.64 6.34 16 6 C16.50403768 7.29009643 17.00309926 8.58213789 17.5 9.875 C17.7784375 10.59429687 18.056875 11.31359375 18.34375 12.0546875 C19 14 19 14 19 16 C19.61875 16.0825 20.2375 16.165 20.875 16.25 C23 17 23 17 24.3125 18.6875 C25.21465796 21.72203131 24.69345348 23.94880471 24 27 C23.34 27 22.68 27 22 27 C21.67 29.31 21.34 31.62 21 34 C19.515 33.505 19.515 33.505 18 33 C18 31.35 18 29.7 18 28 C18.66 28 19.32 28 20 28 C19.319375 27.443125 19.319375 27.443125 18.625 26.875 C16.54015941 24.46941471 15.97864965 22.00119225 15 19 C14.34 18.67 13.68 18.34 13 18 C12.34 17.34 11.68 16.68 11 16 C9.68 16 8.36 16 7 16 C7 15.01 7 14.02 7 13 C5.88625 12.8453125 5.88625 12.8453125 4.75 12.6875 C1.81835246 11.95458812 0.24071683 10.99174829 -2 9 C-2 8.67 -2 8.34 -2 8 C-2.66 7.67 -3.32 7.34 -4 7 C-4 6.34 -4 5.68 -4 5 C-5.98 5.99 -5.98 5.99 -8 7 C-6.98545548 4.4636387 -6.3146444 3.20648539 -4 1.6875 C-3.34 1.460625 -2.68 1.23375 -2 1 C-1.34 1.33 -0.68 1.66 0 2 C0 1.34 0 0.68 0 0 Z " fill="#FCF7EA" transform="translate(157,17)"/>
<path d="M0 0 C0.53625 0.495 1.0725 0.99 1.625 1.5 C1.625 2.16 1.625 2.82 1.625 3.5 C2.285 3.5 2.945 3.5 3.625 3.5 C3.295 5.15 2.965 6.8 2.625 8.5 C-1.76389325 7.83501617 -5.3561485 6.31242323 -9.375 4.5 C-9.375 3.84 -9.375 3.18 -9.375 2.5 C-18.32964793 2.88104885 -25.44852721 5.46437572 -33.375 9.5 C-35.375 6.5 -35.375 6.5 -35.25 4.5625 C-33.69832876 0.90498921 -31.36700565 -1.09708862 -27.7109375 -2.58203125 C-18.12059807 -4.9479857 -8.69393481 -5.4909062 0 0 Z " fill="#65533F" transform="translate(123.375,142.5)"/>
<path d="M0 0 C0.99 0 1.98 0 3 0 C3.33 0.66 3.66 1.32 4 2 C5.66500443 2.34153937 7.33178677 2.67449498 9 3 C12.16076011 6.16076011 13 7.42747111 13 12 C13.99 12.33 14.98 12.66 16 13 C15.67 14.65 15.34 16.3 15 18 C13.35 17.67 11.7 17.34 10 17 C9.67 16.01 9.34 15.02 9 14 C8.01 14 7.02 14 6 14 C6 13.01 6 12.02 6 11 C5.236875 11.20625 4.47375 11.4125 3.6875 11.625 C1 12 1 12 -2 10 C-2 9.34 -2 8.68 -2 8 C-2.33 7.34 -2.66 6.68 -3 6 C-1.44444444 1.44444444 -1.44444444 1.44444444 0 0 Z " fill="#F3E9DA" transform="translate(161,30)"/>
<path d="M0 0 C1.32 0.66 2.64 1.32 4 2 C4 2.66 4 3.32 4 4 C4.99 4 5.98 4 7 4 C6.67 5.32 6.34 6.64 6 8 C6.99 8.33 7.98 8.66 9 9 C8.773125 10.155 8.54625 11.31 8.3125 12.5 C7.66799582 17.3773289 9.01850229 20.56144512 11 25 C10.34 25 9.68 25 9 25 C9.33 26.32 9.66 27.64 10 29 C8.0625 28.6875 8.0625 28.6875 6 28 C5.67 27.01 5.34 26.02 5 25 C5.66 24.67 6.32 24.34 7 24 C4.525 23.01 4.525 23.01 2 22 C2.33 21.01 2.66 20.02 3 19 C2.61067144 16.85744207 2.61067144 16.85744207 2 15 C1.34 15 0.68 15 0 15 C0.33 12.69 0.66 10.38 1 8 C0.34 8 -0.32 8 -1 8 C-1.33 6.68 -1.66 5.36 -2 4 C-1.34 4 -0.68 4 0 4 C-0.33 3.01 -0.66 2.02 -1 1 C-0.67 0.67 -0.34 0.34 0 0 Z " fill="#F1E5D6" transform="translate(13,125)"/>
<path d="M0 0 C0.66 0 1.32 0 2 0 C2 0.66 2 1.32 2 2 C2.66 2.33 3.32 2.66 4 3 C3.9278125 3.64066406 3.855625 4.28132813 3.78125 4.94140625 C3.23892456 9.99557809 2.88951733 14.91779721 3 20 C2.34 20 1.68 20 1 20 C1 20.99 1 21.98 1 23 C0.34 23 -0.32 23 -1 23 C-1.20625 23.639375 -1.4125 24.27875 -1.625 24.9375 C-3 27 -3 27 -6.125 27.75 C-7.548125 27.87375 -7.548125 27.87375 -9 28 C-7.92598892 25.08482708 -7.22189824 23.22189824 -5 21 C-5.18554554 18.42445122 -5.64508362 15.95072313 -6.1015625 13.41015625 C-6.05128906 12.21712891 -6.05128906 12.21712891 -6 11 C-4.0234375 9.18359375 -4.0234375 9.18359375 -2 8 C-2.33 7.34 -2.66 6.68 -3 6 C-1.68 5.34 -0.36 4.68 1 4 C0.67 2.68 0.34 1.36 0 0 Z " fill="#EEE2D2" transform="translate(203,121)"/>
<path d="M0 0 C0.99 0 1.98 0 3 0 C3.66 1.98 4.32 3.96 5 6 C4.34 6.66 3.68 7.32 3 8 C2.34 7.67 1.68 7.34 1 7 C1.33 7.66 1.66 8.32 2 9 C4.32156597 9.40729228 6.6568787 9.74438677 9 10 C9 9.01 9 8.02 9 7 C15.52307692 6.63076923 15.52307692 6.63076923 17.9375 8.5 C18.288125 8.995 18.63875 9.49 19 10 C18.01 11.485 18.01 11.485 17 13 C16.01 12.67 15.02 12.34 14 12 C14 11.34 14 10.68 14 10 C13.01 10.66 12.02 11.32 11 12 C12.32 13.32 13.64 14.64 15 16 C14.67 16.99 14.34 17.98 14 19 C12.25 18.8125 12.25 18.8125 10 18 C8.66666667 16.33333333 7.33333333 14.66666667 6 13 C4.1182079 12.23769206 4.1182079 12.23769206 2 12 C-0.00382009 11.34490497 -2.00458132 10.68025637 -4 10 C-4 8 -4 6 -4 4 C-3.01 4 -2.02 4 -1 4 C-0.67 2.68 -0.34 1.36 0 0 Z " fill="#F7ECDE" transform="translate(46,188)"/>
<path d="M0 0 C1.65 0 3.3 0 5 0 C5.66 1.32 6.32 2.64 7 4 C7 3.01 7 2.02 7 1 C12.75 -0.125 12.75 -0.125 15 1 C14.67 1.66 14.34 2.32 14 3 C12.35 3 10.7 3 9 3 C8.67 3.66 8.34 4.32 8 5 C5.70703125 5.7109375 5.70703125 5.7109375 2.8125 6.375 C-0.72302068 7.26461221 -3.552237 8.08581957 -6.5 10.25 C-7.325 10.8275 -8.15 11.405 -9 12 C-9.99 11.67 -10.98 11.34 -12 11 C-12.33 9.35 -12.66 7.7 -13 6 C-8.63799813 3.55302334 -4.97306516 2.49730652 0 2 C0 1.34 0 0.68 0 0 Z " fill="#87755F" transform="translate(101,140)"/>
<path d="M0 0 C0.66 1.32 1.32 2.64 2 4 C1.01 5.485 1.01 5.485 0 7 C-3.625 7.1875 -3.625 7.1875 -7 7 C-7 7.66 -7 8.32 -7 9 C-12.41538462 11.21538462 -12.41538462 11.21538462 -15.375 10.125 C-15.91125 9.75375 -16.4475 9.3825 -17 9 C-16.67 7.35 -16.34 5.7 -16 4 C-15.01 4 -14.02 4 -13 4 C-13 3.34 -13 2.68 -13 2 C-11.68 2.33 -10.36 2.66 -9 3 C-9 2.34 -9 1.68 -9 1 C-6.04335481 -0.4783226 -3.25770263 -0.06032783 0 0 Z " fill="#73634F" transform="translate(75,110)"/>
<path d="M0 0 C2.97 0.495 2.97 0.495 6 1 C6.59732819 3.76264289 7 6.16032769 7 9 C8.43990623 11.17032476 8.43990623 11.17032476 10 13 C5.545 14.485 5.545 14.485 1 16 C0.34 15.34 -0.32 14.68 -1 14 C-1.33 14.66 -1.66 15.32 -2 16 C-2.66 14.35 -3.32 12.7 -4 11 C-3.34 11 -2.68 11 -2 11 C-2 10.01 -2 9.02 -2 8 C-1.34 8 -0.68 8 0 8 C0 7.34 0 6.68 0 6 C-0.66 6 -1.32 6 -2 6 C-1.34 4.02 -0.68 2.04 0 0 Z M-2 11 C-2 11.66 -2 12.32 -2 13 C-1.34 12.67 -0.68 12.34 0 12 C-0.66 11.67 -1.32 11.34 -2 11 Z " fill="#F1E2CE" transform="translate(72,198)"/>
<path d="M0 0 C2.4375 0.1875 2.4375 0.1875 5 1 C6.3125 3.0625 6.3125 3.0625 7 5 C6.01 5.495 6.01 5.495 5 6 C5 6.66 5 7.32 5 8 C5.66 8 6.32 8 7 8 C7 11.63 7 15.26 7 19 C2.79005424 16.89502712 2.77867354 16.79450355 1 13 C-1.8684413 10.89767656 -1.8684413 10.89767656 -5 10 C-4.34 10 -3.68 10 -3 10 C-3 9.34 -3 8.68 -3 8 C-2.34 7.67 -1.68 7.34 -1 7 C-1.020625 6.030625 -1.04125 5.06125 -1.0625 4.0625 C-1 1 -1 1 0 0 Z " fill="#F1E6D7" transform="translate(203,102)"/>
<path d="M0 0 C6.40597465 1.50460615 11.77863589 2.90757948 17 7 C16.34 8.32 15.68 9.64 15 11 C9.14340094 9.33846988 3.5409866 7.52958084 -2 5 C-1.125 1.125 -1.125 1.125 0 0 Z " fill="#65523D" transform="translate(144,99)"/>
<path d="M0 0 C-0.33 1.65 -0.66 3.3 -1 5 C-5.875 3.125 -5.875 3.125 -7 2 C-7.9075 2.04125 -8.815 2.0825 -9.75 2.125 C-13.39826814 1.98468199 -15.05903874 1.07597265 -18 -1 C-17.67 -2.32 -17.34 -3.64 -17 -5 C-10.21464243 -6.93867359 -5.70470376 -3.3557081 0 0 Z " fill="#665440" transform="translate(159,119)"/>
<path d="M0 0 C-0.078125 2.3203125 -0.078125 2.3203125 -1 5 C-3.984375 6.6171875 -3.984375 6.6171875 -7.75 7.875 C-9.59851563 8.52082031 -9.59851563 8.52082031 -11.484375 9.1796875 C-14.8879597 9.97385726 -16.70965295 10.0172447 -20 9 C-19.34 7.68 -18.68 6.36 -18 5 C-16.68 5 -15.36 5 -14 5 C-14 4.34 -14 3.68 -14 3 C-4.58997722 -0.44419134 -4.58997722 -0.44419134 0 0 Z " fill="#796753" transform="translate(80,95)"/>
<path d="M0 0 C1.5 1.25 1.5 1.25 3 3 C3 4.32 3 5.64 3 7 C3.99 7 4.98 7 6 7 C6 7.66 6 8.32 6 9 C5.01 9.33 4.02 9.66 3 10 C3.33 12.97 3.66 15.94 4 19 C0.1281583 17.74426756 -2.02838671 16.63191921 -4 13 C-4.1875 10.25 -4.1875 10.25 -4 8 C-3.34 7.67 -2.68 7.34 -2 7 C-2.66 6.67 -3.32 6.34 -4 6 C-2.25 1.125 -2.25 1.125 0 0 Z " fill="#DAE6E0" transform="translate(48,134)"/>
<path d="M0 0 C0.8971875 0.309375 0.8971875 0.309375 1.8125 0.625 C1.4825 1.285 1.1525 1.945 0.8125 2.625 C-0.1775 2.955 -1.1675 3.285 -2.1875 3.625 C-2.1875 4.285 -2.1875 4.945 -2.1875 5.625 C-2.5175 5.955 -2.8475 6.285 -3.1875 6.625 C-1.5375 6.625 0.1125 6.625 1.8125 6.625 C1.1525 7.5325 0.4925 8.44 -0.1875 9.375 C-2.53689828 12.55675815 -2.53689828 12.55675815 -2.1875 16.625 C-3.1775 16.955 -4.1675 17.285 -5.1875 17.625 C-5.1875 15.645 -5.1875 13.665 -5.1875 11.625 C-6.5075 11.295 -7.8275 10.965 -9.1875 10.625 C-9.1875 7.985 -9.1875 5.345 -9.1875 2.625 C-8.5275 2.625 -7.8675 2.625 -7.1875 2.625 C-7.1875 3.615 -7.1875 4.605 -7.1875 5.625 C-6.919375 5.00625 -6.65125 4.3875 -6.375 3.75 C-4.77615771 0.8889138 -3.38774371 -0.58075607 0 0 Z M-8.1875 11.625 C-7.8575 12.285 -7.5275 12.945 -7.1875 13.625 C-8.1775 13.295 -9.1675 12.965 -10.1875 12.625 C-9.5275 12.295 -8.8675 11.965 -8.1875 11.625 Z " fill="#E9DBCA" transform="translate(41.1875,163.375)"/>
<path d="M0 0 C0.66 0 1.32 0 2 0 C2 0.66 2 1.32 2 2 C3.65 2 5.3 2 7 2 C7.33 2.66 7.66 3.32 8 4 C8.99 4.33 9.98 4.66 11 5 C11 4.34 11 3.68 11 3 C11.66 3 12.32 3 13 3 C13 4.98 13 6.96 13 9 C13.66 9.33 14.32 9.66 15 10 C12.03 9.505 12.03 9.505 9 9 C8.67 10.98 8.34 12.96 8 15 C7.01 14.67 6.02 14.34 5 14 C3.74568548 11.49137096 3.03677734 9.18848385 2.5 6.4375 C1.99957071 3.99790722 1.20381189 2.1668614 0 0 Z " fill="#F6EEDF" transform="translate(23,172)"/>
<path d="M0 0 C0 0.66 0 1.32 0 2 C-0.99 2 -1.98 2 -3 2 C-3 2.66 -3 3.32 -3 4 C-2.01 4.33 -1.02 4.66 0 5 C-2.31 5.33 -4.62 5.66 -7 6 C-7 6.99 -7 7.98 -7 9 C-8.3125 10.6875 -8.3125 10.6875 -10 12 C-10.99 12 -11.98 12 -13 12 C-13.66 12.66 -14.32 13.32 -15 14 C-17.125 13.625 -17.125 13.625 -19 13 C-18.67 12.01 -18.34 11.02 -18 10 C-15.4375 8.8125 -15.4375 8.8125 -13 8 C-13 7.34 -13 6.68 -13 6 C-10.91796875 4.4921875 -10.91796875 4.4921875 -8.1875 2.875 C-7.29417969 2.33617187 -6.40085937 1.79734375 -5.48046875 1.2421875 C-3 0 -3 0 0 0 Z " fill="#F4E9DA" transform="translate(67,25)"/>
<path d="M0 0 C1.32 0 2.64 0 4 0 C3.814375 1.093125 3.62875 2.18625 3.4375 3.3125 C2.7421932 6.93624133 2.7421932 6.93624133 4 10 C1.09399739 11.25664978 -0.79604584 12 -4 12 C-5.15837626 7.94568308 -4.83691257 5.78187881 -3 2 C-2.01 2 -1.02 2 0 2 C0 1.34 0 0.68 0 0 Z M-6 12 C-5.34 12 -4.68 12 -4 12 C-4 12.66 -4 13.32 -4 14 C-4.66 14 -5.32 14 -6 14 C-6 13.34 -6 12.68 -6 12 Z " fill="#F4EADA" transform="translate(20,70)"/>
<path d="M0 0 C3.14191424 1.53604696 6.08596738 3.05731159 9 5 C9 5.66 9 6.32 9 7 C9.66 7.33 10.32 7.66 11 8 C8.77810176 10.22189824 6.91517292 10.92598892 4 12 C3.67 11.34 3.34 10.68 3 10 C0.97536745 9.34786708 0.97536745 9.34786708 -1 9 C-0.34 8.01 0.32 7.02 1 6 C0.01 5.67 -0.98 5.34 -2 5 C-1.34 3.35 -0.68 1.7 0 0 Z " fill="#EDE0D0" transform="translate(123,185)"/>
<path d="M0 0 C0.66 0.33 1.32 0.66 2 1 C2 2.32 2 3.64 2 5 C3.98 5 5.96 5 8 5 C7.34 5.66 6.68 6.32 6 7 C5.34 7 4.68 7 4 7 C3.67 8.98 3.34 10.96 3 13 C-2.75 13.125 -2.75 13.125 -5 12 C-5 11.34 -5 10.68 -5 10 C-4.01 9.67 -3.02 9.34 -2 9 C-2.66 6.69 -3.32 4.38 -4 2 C-2.125 0.9375 -2.125 0.9375 0 0 Z " fill="#F0E6D7" transform="translate(52,185)"/>
<path d="M0 0 C2.31 0.33 4.62 0.66 7 1 C6.01 2.98 5.02 4.96 4 7 C4.99 7 5.98 7 7 7 C6.67 8.65 6.34 10.3 6 12 C4.68 12 3.36 12 2 12 C1.3125 9.25 1.3125 9.25 1 6 C2.4375 3.625 2.4375 3.625 4 2 C2.68 2 1.36 2 0 2 C0 1.34 0 0.68 0 0 Z M-1 11 C-0.01 11.33 0.98 11.66 2 12 C1.67 14.31 1.34 16.62 1 19 C0.01 19.33 -0.98 19.66 -2 20 C-1.67 17.03 -1.34 14.06 -1 11 Z " fill="#F2E7D8" transform="translate(15,92)"/>
<path d="M0 0 C0.66 0 1.32 0 2 0 C3.0257259 4.41062136 3.03684712 6.92630576 1 11 C0.34 11 -0.32 11 -1 11 C-1.33 11.99 -1.66 12.98 -2 14 C-5.5625 15.1875 -5.5625 15.1875 -9 16 C-9.33 15.34 -9.66 14.68 -10 14 C-9.195625 13.62875 -8.39125 13.2575 -7.5625 12.875 C-4.68827104 11.1890663 -4.68827104 11.1890663 -4.1875 7.8125 C-4.125625 6.884375 -4.06375 5.95625 -4 5 C-3.01 4.67 -2.02 4.34 -1 4 C-0.26676204 1.98491642 -0.26676204 1.98491642 0 0 Z " fill="#FAF4E5" transform="translate(201,156)"/>
<path d="M0 0 C2.375 1.1875 2.375 1.1875 3.375 3.1875 C4.035 3.1875 4.695 3.1875 5.375 3.1875 C4.715 6.1575 4.055 9.1275 3.375 12.1875 C0.9375 11.375 0.9375 11.375 -1.625 10.1875 C-1.955 9.1975 -2.285 8.2075 -2.625 7.1875 C-1.965 6.5275 -1.305 5.8675 -0.625 5.1875 C-1.8625 4.506875 -1.8625 4.506875 -3.125 3.8125 C-3.95 3.27625 -4.775 2.74 -5.625 2.1875 C-5.625 1.5275 -5.625 0.8675 -5.625 0.1875 C-2.625 -0.8125 -2.625 -0.8125 0 0 Z " fill="#F4EBDD" transform="translate(202.625,82.8125)"/>
<path d="M0 0 C0.99 1.32 1.98 2.64 3 4 C3.99 3.67 4.98 3.34 6 3 C9 2 9 2 12 3 C12 4.32 12 5.64 12 7 C10.66961551 7.3449145 9.33542939 7.67516582 8 8 C7.195625 8.268125 6.39125 8.53625 5.5625 8.8125 C3 9 3 9 0.1875 7.25 C-2 5 -2 5 -2 2 C-1.34 1.34 -0.68 0.68 0 0 Z " fill="#EEE0CC" transform="translate(81,204)"/>
<path d="M0 0 C0.268125 0.804375 0.53625 1.60875 0.8125 2.4375 C1.204375 3.283125 1.59625 4.12875 2 5 C2.99 5.33 3.98 5.66 5 6 C5.99 6.33 6.98 6.66 8 7 C5.11912454 9.40072955 2.43595166 11.47291037 -1 13 C-0.67 11.68 -0.34 10.36 0 9 C-1.65 9 -3.3 9 -5 9 C-4.649375 8.236875 -4.29875 7.47375 -3.9375 6.6875 C-2.67639116 3.95240621 -2.67639116 3.95240621 -4 1 C-2 0 -2 0 0 0 Z " fill="#F5EADB" transform="translate(148,24)"/>
<path d="M0 0 C-0.33 2.31 -0.66 4.62 -1 7 C-2.65 7.33 -4.3 7.66 -6 8 C-6.33 7.34 -6.66 6.68 -7 6 C-7.66 6 -8.32 6 -9 6 C-9 5.01 -9 4.02 -9 3 C-10.32 3.33 -11.64 3.66 -13 4 C-13 3.34 -13 2.68 -13 2 C-8.49646738 0.24252386 -4.82360189 -0.19294408 0 0 Z " fill="#E3D3C2" transform="translate(119,194)"/>
<path d="M0 0 C0.99 0 1.98 0 3 0 C3.33 0.99 3.66 1.98 4 3 C2.8125 4.8125 2.8125 4.8125 1 7 C-0.34216975 8.99408077 -1.6772113 10.99301025 -3 13 C-4.41377341 10.36095629 -5.37240135 7.92879371 -6 5 C-5.34 5 -4.68 5 -4 5 C-4 3.68 -4 2.36 -4 1 C-3.34 1.33 -2.68 1.66 -2 2 C-1.34 1.34 -0.68 0.68 0 0 Z " fill="#F6ECDD" transform="translate(28,56)"/>
<path d="M0 0 C3.34249629 0.59687434 5.46436342 1.73603877 8 4 C8 4.66 8 5.32 8 6 C8.66 6 9.32 6 10 6 C9.67 7.65 9.34 9.3 9 11 C7.68 10.67 6.36 10.34 5 10 C5.33 9.34 5.66 8.68 6 8 C5.34 8 4.68 8 4 8 C3.67 7.34 3.34 6.68 3 6 C0.47266765 5.34444881 0.47266765 5.34444881 -2 5 C-1.34 4.67 -0.68 4.34 0 4 C0 2.68 0 1.36 0 0 Z " fill="#816F5A" transform="translate(117,140)"/>
<path d="M0 0 C-1.98 2.97 -1.98 2.97 -4 6 C-4.99 5.67 -5.98 5.34 -7 5 C-7.33 6.32 -7.66 7.64 -8 9 C-11 8 -11 8 -13 6 C-12.625 3.375 -12.625 3.375 -12 1 C-7.9472484 0.01751476 -4.16138263 -0.08159574 0 0 Z " fill="#F5EBDD" transform="translate(43,47)"/>
<path d="M0 0 C-1.98 0.99 -1.98 0.99 -4 2 C-4 2.66 -4 3.32 -4 4 C-7.66305234 4.74926071 -10.42355152 5.2380014 -14 4 C-14 3.01 -14 2.02 -14 1 C-12.68 1 -11.36 1 -10 1 C-10 0.34 -10 -0.32 -10 -1 C-6.06329512 -2.31223496 -3.87511856 -1.24296256 0 0 Z " fill="#F5F0E6" transform="translate(157,109)"/>
<path d="M0 0 C5.82271337 -0.59720137 9.9209404 1.471757 15 4 C14.67 5.65 14.34 7.3 14 9 C11.525 8.01 11.525 8.01 9 7 C9 6.34 9 5.68 9 5 C6.06279492 3.47700477 3.0831351 2.19899698 0 1 C0 0.67 0 0.34 0 0 Z " fill="#776755" transform="translate(144,115)"/>
<path d="M0 0 C0.99 0.33 1.98 0.66 3 1 C3.98248524 5.0527516 4.08159574 8.83861737 4 13 C2.68 13.33 1.36 13.66 0 14 C-0.77916092 8.97874074 -1.13016601 5.02296004 0 0 Z " fill="#FDFAEE" transform="translate(212,93)"/>
<path d="M0 0 C0.99 0.33 1.98 0.66 3 1 C3 1.66 3 2.32 3 3 C4.32 3 5.64 3 7 3 C7.33 2.34 7.66 1.68 8 1 C8.75 2.6875 8.75 2.6875 9 5 C7.0625 7.75 7.0625 7.75 5 10 C3.68 9.67 2.36 9.34 1 9 C1 8.34 1 7.68 1 7 C1.66 7 2.32 7 3 7 C2.01 4.69 1.02 2.38 0 0 Z M-1 3 C0.485 3.99 0.485 3.99 2 5 C1.01 5.66 0.02 6.32 -1 7 C-1 5.68 -1 4.36 -1 3 Z " fill="#F5ECDD" transform="translate(158,189)"/>
<path d="M0 0 C0.66 0.33 1.32 0.66 2 1 C4.06603621 0.78909214 6.08087967 0.42307844 8.125 0.05859375 C9.053125 0.02958984 9.053125 0.02958984 10 0 C10.66 0.66 11.32 1.32 12 2 C10.75539217 2.67667998 9.50403104 3.34094719 8.25 4 C7.55390625 4.37125 6.8578125 4.7425 6.140625 5.125 C4 6 4 6 0 6 C-0.38218767 4.34385343 -0.71395102 2.67542976 -1 1 C-0.67 0.67 -0.34 0.34 0 0 Z " fill="#675641" transform="translate(89,145)"/>
<path d="M0 0 C1.65 0 3.3 0 5 0 C3.515 1.98 3.515 1.98 2 4 C2.99 4.33 3.98 4.66 5 5 C0.87831311 6.62950412 -1.70700357 7.26264601 -6 6 C-5.34 4.68 -4.68 3.36 -4 2 C-2.68 2 -1.36 2 0 2 C0 1.34 0 0.68 0 0 Z " fill="#574633" transform="translate(66,98)"/>
<path d="M0 0 C2.00720923 0.28674418 4.0085944 0.61866701 6 1 C5.34 2.98 4.68 4.96 4 7 C1.69 7 -0.62 7 -3 7 C-1.125 1.125 -1.125 1.125 0 0 Z " fill="#F6EEE0" transform="translate(41,37)"/>
<path d="M0 0 C0.66 0 1.32 0 2 0 C2 0.66 2 1.32 2 2 C2.66 2.33 3.32 2.66 4 3 C3.9278125 3.67546875 3.855625 4.3509375 3.78125 5.046875 C3.6884375 5.93890625 3.595625 6.8309375 3.5 7.75 C3.4071875 8.63171875 3.314375 9.5134375 3.21875 10.421875 C2.94363687 13.23304835 2.94363687 13.23304835 3 17 C2.01 17 1.02 17 0 17 C-0.85786959 13.56852163 -1.05231375 11.36740401 0 8 C0.8208325 4.63458676 1.1200071 3.36002129 0 0 Z " fill="#F3E8D9" transform="translate(203,121)"/>
<path d="M0 0 C3 0 3 0 6 1 C5.67 3.31 5.34 5.62 5 8 C4.34 7.34 3.68 6.68 3 6 C3 5.01 3 4.02 3 3 C2.34 3 1.68 3 1 3 C0.67 4.65 0.34 6.3 0 8 C-0.99 7.67 -1.98 7.34 -3 7 C-2.01 4.69 -1.02 2.38 0 0 Z " fill="#F8EBDE" transform="translate(200,153)"/>
<path d="M0 0 C0.99 0.33 1.98 0.66 3 1 C2.67 2.98 2.34 4.96 2 7 C0.35 7.33 -1.3 7.66 -3 8 C-3.33 6.35 -3.66 4.7 -4 3 C-2.68 2.67 -1.36 2.34 0 2 C0 1.34 0 0.68 0 0 Z " fill="#685742" transform="translate(62,112)"/>
<path d="M0 0 C1.53202706 0.25195908 3.05257128 0.57596777 4.5625 0.9375 C5.38878906 1.13214844 6.21507812 1.32679687 7.06640625 1.52734375 C8.02353516 1.76130859 8.02353516 1.76130859 9 2 C7 4 7 4 4 5 C3.34 5.66 2.68 6.32 2 7 C0.68 6.34 -0.64 5.68 -2 5 C-1.125 1.125 -1.125 1.125 0 0 Z " fill="#786550" transform="translate(144,99)"/>
<path d="M0 0 C1.32 1.65 2.64 3.3 4 5 C4.66 4.34 5.32 3.68 6 3 C6.66 5.64 7.32 8.28 8 11 C4.1281583 9.74426756 1.97161329 8.63191921 0 5 C-0.1875 2.25 -0.1875 2.25 0 0 Z " fill="#D4DED8" transform="translate(44,142)"/>
<path d="M0 0 C-0.8125 2.4375 -0.8125 2.4375 -2 5 C-2.99 5.33 -3.98 5.66 -5 6 C-5 5.34 -5 4.68 -5 4 C-6.98 4.99 -6.98 4.99 -9 6 C-7.01260984 0.46369883 -5.82303895 -0.15323787 0 0 Z " fill="#7C6B57" transform="translate(73,110)"/>
<path d="M0 0 C0 0.66 0 1.32 0 2 C0.66 2.33 1.32 2.66 2 3 C1.34 3 0.68 3 0 3 C0 3.66 0 4.32 0 5 C-3.01031744 5.93423645 -3.86650268 6.04449911 -7 5 C-6.6875 3.0625 -6.6875 3.0625 -6 1 C-3 0 -3 0 0 0 Z " fill="#F3E9D9" transform="translate(197,65)"/>
<path d="M0 0 C2.31 0 4.62 0 7 0 C9 3.75 9 3.75 9 6 C5.32579134 5.69381595 4.21864487 5.24228216 1.6875 2.4375 C1.130625 1.633125 0.57375 0.82875 0 0 Z " fill="#F2E7D7" transform="translate(184,58)"/>
<path d="M0 0 C0.66 1.32 1.32 2.64 2 4 C-0.97 3.67 -3.94 3.34 -7 3 C-7 2.01 -7 1.02 -7 0 C-3.87438528 -1.04187157 -2.95319818 -1.23843794 0 0 Z " fill="#E6D9C8" transform="translate(61,187)"/>
<path d="M0 0 C-0.33 0.66 -0.66 1.32 -1 2 C-1.66 1.67 -2.32 1.34 -3 1 C-3 1.66 -3 2.32 -3 3 C-8.445 4.485 -8.445 4.485 -14 6 C-14 5.34 -14 4.68 -14 4 C-8.98355213 1.37776588 -5.6520473 0 0 0 Z " fill="#5E4C38" transform="translate(104,139)"/>
<path d="M0 0 C2.33944736 0.28730055 4.6739143 0.61936779 7 1 C6.67 2.32 6.34 3.64 6 5 C4.35 5 2.7 5 1 5 C0.34 3.68 -0.32 2.36 -1 1 C-0.67 0.67 -0.34 0.34 0 0 Z " fill="#E9DBCA" transform="translate(56,191)"/>
<path d="M0 0 C1.08667969 0.29197266 1.08667969 0.29197266 2.1953125 0.58984375 C2.74960938 0.74582031 3.30390625 0.90179688 3.875 1.0625 C2.885 2.3825 1.895 3.7025 0.875 5.0625 C-0.445 4.4025 -1.765 3.7425 -3.125 3.0625 C-3.455 3.7225 -3.785 4.3825 -4.125 5.0625 C-4.785 3.4125 -5.445 1.7625 -6.125 0.0625 C-3.57797384 -1.21101308 -2.6967055 -0.73941925 0 0 Z M-4.125 0.0625 C-4.125 0.7225 -4.125 1.3825 -4.125 2.0625 C-3.465 1.7325 -2.805 1.4025 -2.125 1.0625 C-2.785 0.7325 -3.445 0.4025 -4.125 0.0625 Z " fill="#FFFCF3" transform="translate(74.125,208.9375)"/>
<path d="M0 0 C0.77772405 2.33317216 1.42415568 4.61435923 2 7 C-0.64 6.67 -3.28 6.34 -6 6 C-5.34 5.34 -4.68 4.68 -4 4 C-4 3.01 -4 2.02 -4 1 C-2.68 0.67 -1.36 0.34 0 0 Z " fill="#FBECD1" transform="translate(141,208)"/>
<path d="M0 0 C0.66 0 1.32 0 2 0 C2 0.66 2 1.32 2 2 C2.66 2 3.32 2 4 2 C3.67 3.65 3.34 5.3 3 7 C1.68 6.67 0.36 6.34 -1 6 C-1.042721 4.33388095 -1.04063832 2.66617115 -1 1 C-0.67 0.67 -0.34 0.34 0 0 Z " fill="#7A6854" transform="translate(123,144)"/>
<path d="M0 0 C1.32 0 2.64 0 4 0 C4 0.66 4 1.32 4 2 C4.99 2 5.98 2 7 2 C6.67 2.66 6.34 3.32 6 4 C5.01 4 4.02 4 3 4 C2.34 5.32 1.68 6.64 1 8 C-0.02852708 4.91441876 0 3.22643349 0 0 Z " fill="#F5EDE0" transform="translate(168,187)"/>
<path d="M0 0 C0.66 0.99 1.32 1.98 2 3 C1.34 4.32 0.68 5.64 0 7 C-1.98 7 -3.96 7 -6 7 C-5.1875 5.0625 -5.1875 5.0625 -4 3 C-3.01 2.67 -2.02 2.34 -1 2 C-0.67 1.34 -0.34 0.68 0 0 Z " fill="#F0E6D6" transform="translate(20,84)"/>
<path d="M0 0 C0.99 0 1.98 0 3 0 C3.59732819 2.76264289 4 5.16032769 4 8 C2.68 7.67 1.36 7.34 0 7 C-0.33 5.68 -0.66 4.36 -1 3 C-0.34 2.67 0.32 2.34 1 2 C0.67 1.34 0.34 0.68 0 0 Z " fill="#ECDDCC" transform="translate(200,127)"/>
<path d="M0 0 C2.31 0 4.62 0 7 0 C7 1.32 7 2.64 7 4 C5.02 4 3.04 4 1 4 C0.67 2.68 0.34 1.36 0 0 Z " fill="#FEFAE9" transform="translate(127,10)"/>
<path d="M0 0 C2.33944736 0.28730055 4.6739143 0.61936779 7 1 C7 1.66 7 2.32 7 3 C5.68 3 4.36 3 3 3 C3 3.99 3 4.98 3 6 C2.34 5.67 1.68 5.34 1 5 C1 4.34 1 3.68 1 3 C0.34 2.34 -0.32 1.68 -1 1 C-0.67 0.67 -0.34 0.34 0 0 Z " fill="#6E5A45" transform="translate(105,138)"/>
<path d="M0 0 C1.32 0.66 2.64 1.32 4 2 C3.34 3.65 2.68 5.3 2 7 C0.35 7 -1.3 7 -3 7 C-3 6.34 -3 5.68 -3 5 C-1.68 5.33 -0.36 5.66 1 6 C0.34 4.35 -0.32 2.7 -1 1 C-0.67 0.67 -0.34 0.34 0 0 Z " fill="#F1E6D6" transform="translate(43,37)"/>
<path d="M0 0 C0.33 0.66 0.66 1.32 1 2 C0.0625 4.625 0.0625 4.625 -1 7 C-1.66 7 -2.32 7 -3 7 C-3.33 5.02 -3.66 3.04 -4 1 C-2.68 0.67 -1.36 0.34 0 0 Z " fill="#E4D6C4" transform="translate(164,185)"/>
<path d="M0 0 C2.0625 0.6875 2.0625 0.6875 4 2 C4.75 4.125 4.75 4.125 5 6 C2.0625 5.1875 2.0625 5.1875 -1 4 C-1.33 3.01 -1.66 2.02 -2 1 C-1.34 0.67 -0.68 0.34 0 0 Z " fill="#7A6853" transform="translate(154,102)"/>
<path d="M0 0 C0.33 0.99 0.66 1.98 1 3 C1.66 3 2.32 3 3 3 C3 3.66 3 4.32 3 5 C0.69 5.66 -1.62 6.32 -4 7 C-2.68 4.69 -1.36 2.38 0 0 Z " fill="#E3D4C1" transform="translate(83,198)"/>
<path d="M0 0 C-0.66 0 -1.32 0 -2 0 C-2 1.32 -2 2.64 -2 4 C-3.65 3.67 -5.3 3.34 -7 3 C-6.67 2.01 -6.34 1.02 -6 0 C-3 -1 -3 -1 0 0 Z " fill="#5D4C37" transform="translate(154,103)"/>
<path d="M0 0 C0.99 0.33 1.98 0.66 3 1 C3 2.32 3 3.64 3 5 C1.35 4.67 -0.3 4.34 -2 4 C-1.34 2.68 -0.68 1.36 0 0 Z " fill="#71614B" transform="translate(62,100)"/>
<path d="M0 0 C0.66 0 1.32 0 2 0 C2.12375 0.61875 2.2475 1.2375 2.375 1.875 C2.87197356 4.19120832 2.87197356 4.19120832 5 6 C4.01 6.66 3.02 7.32 2 8 C1.34 7.67 0.68 7.34 0 7 C-0.6875 4 -0.6875 4 -1 1 C-0.67 0.67 -0.34 0.34 0 0 Z " fill="#F5ECDE" transform="translate(46,39)"/>
<path d="M0 0 C0 0.66 0 1.32 0 2 C-0.99 2 -1.98 2 -3 2 C-3.33 2.99 -3.66 3.98 -4 5 C-4.66 4.67 -5.32 4.34 -6 4 C-6 2.68 -6 1.36 -6 0 C-2.25 -1.125 -2.25 -1.125 0 0 Z " fill="#FEFAF2" transform="translate(142,10)"/>
<path d="M0 0 C0.99 0.33 1.98 0.66 3 1 C2.67 2.98 2.34 4.96 2 7 C0.68 6.67 -0.64 6.34 -2 6 C-1.34 4.02 -0.68 2.04 0 0 Z " fill="#F6EEE0" transform="translate(72,198)"/>
<path d="M0 0 C1.32 0 2.64 0 4 0 C4 1.32 4 2.64 4 4 C3.34 4 2.68 4 2 4 C1.67 4.99 1.34 5.98 1 7 C0.34 6.34 -0.32 5.68 -1 5 C-0.34 5 0.32 5 1 5 C1 4.01 1 3.02 1 2 C0.34 1.67 -0.32 1.34 -1 1 C-0.67 0.67 -0.34 0.34 0 0 Z " fill="#F0E4D5" transform="translate(26,153)"/>
<path d="M0 0 C-0.33 0.66 -0.66 1.32 -1 2 C-2.65 2 -4.3 2 -6 2 C-6.33 2.66 -6.66 3.32 -7 4 C-7.99 3.67 -8.98 3.34 -10 3 C-9.34 3 -8.68 3 -8 3 C-8 2.01 -8 1.02 -8 0 C-4.94736336 -0.98120464 -3.05263664 -0.98120464 0 0 Z " fill="#95826C" transform="translate(116,141)"/>
<path d="M0 0 C3.34252724 -0.07427838 5.8035914 -0.06546953 9 1 C9 2.32 9 3.64 9 5 C8.1646875 4.566875 8.1646875 4.566875 7.3125 4.125 C4.91505355 2.9586747 2.48403061 1.9660119 0 1 C0 0.67 0 0.34 0 0 Z " fill="#8C7A65" transform="translate(144,115)"/>
<path d="M0 0 C0.33 0 0.66 0 1 0 C1.1953125 6.0546875 1.1953125 6.0546875 1 8 C0.34 8.66 -0.32 9.32 -1 10 C-1.66 8.35 -2.32 6.7 -3 5 C-2.01 4.67 -1.02 4.34 0 4 C0 2.68 0 1.36 0 0 Z " fill="#FEFBF4" transform="translate(216,107)"/>
<path d="M0 0 C0.99 0.33 1.98 0.66 3 1 C1.515 3.475 1.515 3.475 0 6 C-0.99 5.67 -1.98 5.34 -3 5 C-2.625 3.0625 -2.625 3.0625 -2 1 C-1.34 0.67 -0.68 0.34 0 0 Z " fill="#E3D3C1" transform="translate(89,195)"/>
<path d="M0 0 C0.99 0.33 1.98 0.66 3 1 C2.67 2.98 2.34 4.96 2 7 C1.01 7 0.02 7 -1 7 C-1.33 6.01 -1.66 5.02 -2 4 C-1.01 4 -0.02 4 1 4 C0.67 2.68 0.34 1.36 0 0 Z " fill="#F3E9DC" transform="translate(19,133)"/>
<path d="M0 0 C1.98 0 3.96 0 6 0 C5.34 1.32 4.68 2.64 4 4 C2.68 3.67 1.36 3.34 0 3 C0 2.01 0 1.02 0 0 Z " fill="#E6DCCD" transform="translate(143,110)"/>
<path d="M0 0 C0.33 0.66 0.66 1.32 1 2 C-4.625 5 -4.625 5 -8 5 C-8 4.34 -8 3.68 -8 3 C-5.36 2.01 -2.72 1.02 0 0 Z " fill="#FEFEF1" transform="translate(95,8)"/>
<path d="M0 0 C0 0.99 0 1.98 0 3 C-0.66 2.67 -1.32 2.34 -2 2 C-1.34 1.34 -0.68 0.68 0 0 Z " fill="#FFFFFF" transform="translate(147,211)"/>
<path d="M0 0 C4 1 4 1 4 1 Z " fill="#FFFFE9" transform="translate(114,214)"/>
<path d="M0 0 C0.33 0.66 0.66 1.32 1 2 C0.01 1.67 -0.98 1.34 -2 1 C-1.34 0.67 -0.68 0.34 0 0 Z " fill="#FFFFFF" transform="translate(66,208)"/>
<path d="M0 0 C1.485 0.99 1.485 0.99 3 2 C2.01 2 1.02 2 0 2 C0 1.34 0 0.68 0 0 Z " fill="#FFFFFF" transform="translate(51,206)"/>
<path d="M0 0 C0.99 0.33 1.98 0.66 3 1 C2.01 1 1.02 1 0 1 C0 0.67 0 0.34 0 0 Z " fill="#FFFFFF" transform="translate(37,193)"/>
<path d="M0 0 C1.485 0.99 1.485 0.99 3 2 C2.01 2 1.02 2 0 2 C0 1.34 0 0.68 0 0 Z " fill="#FFFFFF" transform="translate(30,188)"/>
<path d="M0 0 C1 4 1 4 1 4 Z " fill="#FFFFFF" transform="translate(189,185)"/>
<path d="M0 0 C0.99 0.33 1.98 0.66 3 1 C2.01 1.33 1.02 1.66 0 2 C0 1.34 0 0.68 0 0 Z " fill="#FFFFFF" transform="translate(16,54)"/>
<path d="M0 0 C3 1 3 1 3 1 Z " fill="#FFFFFF" transform="translate(63,211)"/>
<path d="M0 0 C2 1 2 1 2 1 Z " fill="#FFFFFF" transform="translate(101,217)"/>
<path d="" fill="#FFFFFF" transform="translate(0,0)"/>
<path d="M0 0 C2 1 2 1 2 1 Z " fill="#FFE5BB" transform="translate(86,213)"/>
<path d="" fill="#FFFFD4" transform="translate(0,0)"/>
<path d="" fill="#FFDFDF" transform="translate(0,0)"/>
<path d="M0 0 C2 1 2 1 2 1 Z " fill="#FFFFFF" transform="translate(172,209)"/>
<path d="M0 0 C2 1 2 1 2 1 Z " fill="#FFFFFF" transform="translate(164,209)"/>
<path d="M0 0 C2 1 2 1 2 1 Z " fill="#FFFFFF" transform="translate(156,209)"/>
<path d="M0 0 C2 1 2 1 2 1 Z " fill="#FFFFFF" transform="translate(152,209)"/>
<path d="M0 0 C2 1 2 1 2 1 Z " fill="#FFFFFF" transform="translate(60,209)"/>
<path d="" fill="#FFFFFF" transform="translate(0,0)"/>
<path d="M0 0 C2 1 2 1 2 1 Z " fill="#FFFFFF" transform="translate(52,209)"/>
<path d="" fill="#FFFFFF" transform="translate(0,0)"/>
<path d="M0 0 C2 1 2 1 2 1 Z " fill="#FFFFFF" transform="translate(44,209)"/>
<path d="M0 0 C2 1 2 1 2 1 Z " fill="#FFFFFF" transform="translate(36,209)"/>
<path d="M0 0 C2 1 2 1 2 1 Z " fill="#FFFFFF" transform="translate(60,207)"/>
<path d="M0 0 C2 1 2 1 2 1 Z " fill="#FFFFFF" transform="translate(43,207)"/>
<path d="" fill="#FFFFFF" transform="translate(0,0)"/>
<path d="M0 0 C2 1 2 1 2 1 Z " fill="#FFFFE9" transform="translate(203,164)"/>
<path d="M0 0 C2 1 2 1 2 1 Z " fill="#FFFFFF" transform="translate(2,116)"/>
<path d="M0 0 C2 1 2 1 2 1 Z " fill="#FFFFFF" transform="translate(203,61)"/>
<path d="" fill="#FFFFFF" transform="translate(0,0)"/>
<path d="" fill="#FFFFFF" transform="translate(0,0)"/>
<path d="M0 0 C2 1 2 1 2 1 Z " fill="#FFFFFF" transform="translate(180,30)"/>
<path d="" fill="#FFFFFF" transform="translate(0,0)"/>
<path d="M0 0 C2 1 2 1 2 1 Z " fill="#FFFFFF" transform="translate(154,15)"/>
<path d="" fill="#FFFFFF" transform="translate(0,0)"/>
<path d="M0 0 C2 1 2 1 2 1 Z " fill="#FEFEDB" transform="translate(105,6)"/>
<path d="" fill="#FFFFFF" transform="translate(0,0)"/>
<path d="" fill="#FFFFFF" transform="translate(0,0)"/>
<path d="" fill="#FFFFFF" transform="translate(0,0)"/>
<path d="" fill="#FFFFFF" transform="translate(0,0)"/>
<path d="" fill="#FFFFFF" transform="translate(0,0)"/>
<path d="" fill="#FFFFFF" transform="translate(0,0)"/>
<path d="" fill="#FFFFFF" transform="translate(0,0)"/>
<path d="" fill="#FFFFFF" transform="translate(0,0)"/>
<path d="" fill="#FFFFFF" transform="translate(0,0)"/>
<path d="" fill="#FFFFFF" transform="translate(0,0)"/>
<path d="" fill="#FFFFAA" transform="translate(0,0)"/>
<path d="" fill="#FFFFBF" transform="translate(0,0)"/>
<path d="" fill="#FFFFFF" transform="translate(0,0)"/>
<path d="" fill="#FFFFFF" transform="translate(0,0)"/>
<path d="" fill="#FFFFFF" transform="translate(0,0)"/>
<path d="" fill="#FFFF7F" transform="translate(0,0)"/>
<path d="" fill="#FFFFFF" transform="translate(0,0)"/>
<path d="" fill="#FFFFFF" transform="translate(0,0)"/>
<path d="" fill="#FFFFFF" transform="translate(0,0)"/>
<path d="" fill="#FFFFFF" transform="translate(0,0)"/>
<path d="" fill="#FFFFFF" transform="translate(0,0)"/>
<path d="" fill="#FFFFFF" transform="translate(0,0)"/>
<path d="" fill="#FFFFFF" transform="translate(0,0)"/>
<path d="" fill="#FFFFFF" transform="translate(0,0)"/>
<path d="" fill="#FFFFFF" transform="translate(0,0)"/>
<path d="" fill="#FFFF7F" transform="translate(0,0)"/>
<path d="" fill="#FFFFFF" transform="translate(0,0)"/>
<path d="" fill="#FFFFFF" transform="translate(0,0)"/>
<path d="" fill="#FFFFFF" transform="translate(0,0)"/>
<path d="" fill="#FFFFFF" transform="translate(0,0)"/>
<path d="" fill="#FFBFBF" transform="translate(0,0)"/>
<path d="" fill="#FFFFFF" transform="translate(0,0)"/>
<path d="" fill="#FFFFFF" transform="translate(0,0)"/>
<path d="" fill="#FFFFFF" transform="translate(0,0)"/>
<path d="" fill="#FFFFFF" transform="translate(0,0)"/>
<path d="" fill="#FFFFFF" transform="translate(0,0)"/>
<path d="" fill="#FFFFFF" transform="translate(0,0)"/>
<path d="" fill="#FFFFFF" transform="translate(0,0)"/>
<path d="" fill="#FFFFFF" transform="translate(0,0)"/>
<path d="" fill="#FFFFFF" transform="translate(0,0)"/>
<path d="" fill="#FFFFFF" transform="translate(0,0)"/>
<path d="" fill="#FFFFFF" transform="translate(0,0)"/>
<path d="" fill="#FFFFFF" transform="translate(0,0)"/>
<path d="" fill="#FFFFFF" transform="translate(0,0)"/>
<path d="" fill="#FFFFFF" transform="translate(0,0)"/>
<path d="" fill="#FFFFFF" transform="translate(0,0)"/>
<path d="" fill="#FFFFFF" transform="translate(0,0)"/>
<path d="" fill="#FFFFFF" transform="translate(0,0)"/>
<path d="" fill="#FFFFFF" transform="translate(0,0)"/>
<path d="" fill="#FFFFFF" transform="translate(0,0)"/>
<path d="" fill="#FFFFFF" transform="translate(0,0)"/>
<path d="" fill="#FFFFFF" transform="translate(0,0)"/>
<path d="" fill="#FFFFFF" transform="translate(0,0)"/>
<path d="" fill="#FFFFFF" transform="translate(0,0)"/>
<path d="" fill="#FFFFFF" transform="translate(0,0)"/>
<path d="" fill="#FFFFFF" transform="translate(0,0)"/>
<path d="" fill="#FFFFFF" transform="translate(0,0)"/>
<path d="" fill="#FFFFFF" transform="translate(0,0)"/>
<path d="" fill="#FFFFBF" transform="translate(0,0)"/>
<path d="" fill="#FFFFFF" transform="translate(0,0)"/>
<path d="" fill="#FFFFFF" transform="translate(0,0)"/>
<path d="" fill="#FFFFFF" transform="translate(0,0)"/>
<path d="" fill="#FFFFFF" transform="translate(0,0)"/>
<path d="" fill="#FFFFFF" transform="translate(0,0)"/>
<path d="" fill="#FFFFFF" transform="translate(0,0)"/>
<path d="" fill="#FFFFFF" transform="translate(0,0)"/>
<path d="" fill="#FFFFFF" transform="translate(0,0)"/>
<path d="" fill="#FFFFFF" transform="translate(0,0)"/>
<path d="" fill="#FFFFFF" transform="translate(0,0)"/>
<path d="" fill="#FFFFFF" transform="translate(0,0)"/>
<path d="" fill="#FFFFFF" transform="translate(0,0)"/>
<path d="" fill="#FFFFFF" transform="translate(0,0)"/>
<path d="" fill="#FFFFFF" transform="translate(0,0)"/>
<path d="" fill="#FFFFFF" transform="translate(0,0)"/>
<path d="" fill="#FFFFFF" transform="translate(0,0)"/>
<path d="" fill="#FFFFFF" transform="translate(0,0)"/>
<path d="" fill="#FFFFFF" transform="translate(0,0)"/>
<path d="" fill="#FFFFFF" transform="translate(0,0)"/>
<path d="" fill="#FFFFFF" transform="translate(0,0)"/>
<path d="" fill="#FFFFFF" transform="translate(0,0)"/>
<path d="" fill="#FFFFFF" transform="translate(0,0)"/>
<path d="" fill="#FFFFFF" transform="translate(0,0)"/>
<path d="" fill="#FFFFFF" transform="translate(0,0)"/>
<path d="" fill="#FFFFFF" transform="translate(0,0)"/>
<path d="" fill="#FFFFFF" transform="translate(0,0)"/>
<path d="" fill="#FFFFFF" transform="translate(0,0)"/>
<path d="" fill="#FFFFFF" transform="translate(0,0)"/>
<path d="" fill="#FFFFFF" transform="translate(0,0)"/>
<path d="" fill="#FFFFFF" transform="translate(0,0)"/>
<path d="" fill="#FFFFFF" transform="translate(0,0)"/>
<path d="" fill="#FFFFFF" transform="translate(0,0)"/>
<path d="" fill="#FFFFFF" transform="translate(0,0)"/>
<path d="" fill="#FFFFFF" transform="translate(0,0)"/>
<path d="" fill="#FFFFFF" transform="translate(0,0)"/>
<path d="" fill="#FFFFFF" transform="translate(0,0)"/>
<path d="" fill="#FFFFFF" transform="translate(0,0)"/>
<path d="" fill="#FFFFFF" transform="translate(0,0)"/>
<path d="" fill="#FFFFFF" transform="translate(0,0)"/>
<path d="" fill="#FFFFFF" transform="translate(0,0)"/>
<path d="" fill="#FFFFFF" transform="translate(0,0)"/>
<path d="" fill="#FFFFFF" transform="translate(0,0)"/>
<path d="" fill="#FFFFFF" transform="translate(0,0)"/>
<path d="" fill="#FFFFFF" transform="translate(0,0)"/>
<path d="" fill="#FFFFFF" transform="translate(0,0)"/>
<path d="" fill="#FFFFFF" transform="translate(0,0)"/>
<path d="" fill="#FFFFFF" transform="translate(0,0)"/>
<path d="" fill="#FFFFFF" transform="translate(0,0)"/>
<path d="" fill="#FFFFFF" transform="translate(0,0)"/>
<path d="" fill="#FFFFFF" transform="translate(0,0)"/>
<path d="" fill="#FFFFFF" transform="translate(0,0)"/>
<path d="" fill="#FFFFFF" transform="translate(0,0)"/>
<path d="" fill="#FFFFFF" transform="translate(0,0)"/>
<path d="" fill="#FFFFFF" transform="translate(0,0)"/>
<path d="" fill="#FFFFFF" transform="translate(0,0)"/>
<path d="" fill="#FFFFFF" transform="translate(0,0)"/>
<path d="" fill="#FFFFFF" transform="translate(0,0)"/>
<path d="" fill="#FFFFFF" transform="translate(0,0)"/>
<path d="" fill="#FFFFFF" transform="translate(0,0)"/>
<path d="" fill="#FFFFFF" transform="translate(0,0)"/>
</svg>
