<?xml version="1.0" encoding="UTF-8"?>
<svg version="1.1" xmlns="http://www.w3.org/2000/svg" width="220" height="220">
<path d="M0 0 C0.99 0.33 1.98 0.66 3 1 C3 1.99 3 2.98 3 4 C4.1446875 3.7525 4.1446875 3.7525 5.3125 3.5 C8.99045967 2.81572843 12.41869189 3.06163867 16.125 3.375 C17.01445313 3.44460938 17.90390625 3.51421875 18.8203125 3.5859375 C19.53960937 3.72257813 20.25890625 3.85921875 21 4 C21.495 4.99 21.495 4.99 22 6 C22.94875 5.79375 23.8975 5.5875 24.875 5.375 C26.421875 5.189375 26.421875 5.189375 28 5 C28.99 5.99 28.99 5.99 30 7 C32.68839385 7.26991906 35.29141936 7.08737357 38 7 C38.33 7.66 38.66 8.32 39 9 C40.32 8.67 41.64 8.34 43 8 C43.99 9.485 43.99 9.485 45 11 C45.99 11.33 46.98 11.66 48 12 C48.99 11.01 49.98 10.02 51 9 C51.33 10.98 51.66 12.96 52 15 C54.64 15 57.28 15 60 15 C59.67 16.65 59.34 18.3 59 20 C62.80427492 22.2013866 62.80427492 22.2013866 67 23 C67 24.32 67 25.64 67 27 C71.14093698 27.20970559 71.14093698 27.20970559 75 26 C75 27.98 75 29.96 75 32 C77.49092811 33.24546405 78.41080733 32.7767578 81 32 C83.29013653 35.4352048 83.17842973 36.985331 83 41 C83.99 41.33 84.98 41.66 86 42 C86.33 42.99 86.66 43.98 87 45 C87.33 45.66 87.66 46.32 88 47 C88.66 47 89.32 47 90 47 C90.2475 47.9075 90.495 48.815 90.75 49.75 C92.05618237 53.14607416 93.39082822 54.55916188 96 57 C96.33 57.99 96.66 58.98 97 60 C97.66 60.66 98.32 61.32 99 62 C100.42104983 65.6315718 101 68.0553602 101 72 C102.32 72.33 103.64 72.66 105 73 C105.34274406 74.66475686 105.67364302 76.33195323 106 78 C106.185625 78.845625 106.37125 79.69125 106.5625 80.5625 C107.08791245 84.6907407 107.00970067 88.70288197 106.96875 92.859375 C106.99758633 95.7574259 107.19679971 98.55709728 107.5 101.4375 C108.36623747 109.98850128 108.46851738 118.51523292 107 127 C106.82551896 128.54080182 106.65930171 130.08255491 106.5 131.625 C105.68338775 139.0624531 103.93055737 146.09225763 101 153 C100.34 153 99.68 153 99 153 C97.90341064 156.28976808 98.20046862 157.71303767 99 161 C98.1028125 161.3403125 98.1028125 161.3403125 97.1875 161.6875 C94.43440566 163.33935661 93.55775381 165.23852733 92 168 C91.34 168.33 90.68 168.66 90 169 C90 169.99 90 170.98 90 172 C84.225 177.5125 84.225 177.5125 80 178 C80 178.99 80 179.98 80 181 C78.42698959 182.8590123 77.18380083 183.90809958 75 185 C74.67 185.99 74.34 186.98 74 188 C73.34 188 72.68 188 72 188 C71.67 189.32 71.34 190.64 71 192 C70.4225 191.79375 69.845 191.5875 69.25 191.375 C66.48032433 190.91338739 65.35438733 191.57055055 63 193 C63.33 193.66 63.66 194.32 64 195 C62.68 195 61.36 195 60 195 C59.67 195.99 59.34 196.98 59 198 C57.39125 198.2165625 57.39125 198.2165625 55.75 198.4375 C53.07687153 198.83846927 50.60137642 199.32556908 48 200 C47.34 200 46.68 200 46 200 C46 200.66 46 201.32 46 202 C44.18804993 204.51659732 43.15403372 204.97050418 40.0625 205.5625 C38.5465625 205.7790625 38.5465625 205.7790625 37 206 C36.38125 206.37125 35.7625 206.7425 35.125 207.125 C32.30652639 208.28554796 30.03665707 207.75758214 27.0859375 207.296875 C22.21508474 206.60364502 17.76775181 206.9783389 13 208 C8.00719597 208.75897937 3.96848456 209.05392097 -1 208 C-1.66 208.66 -2.32 209.32 -3 210 C-4.485 209.01 -4.485 209.01 -6 208 C-8.17545265 207.72527853 -8.17545265 207.72527853 -10.5625 207.8046875 C-11.44164063 207.81113281 -12.32078125 207.81757813 -13.2265625 207.82421875 C-14.14179687 207.84097656 -15.05703125 207.85773438 -16 207.875 C-16.91523437 207.88402344 -17.83046875 207.89304688 -18.7734375 207.90234375 C-20.4727088 207.91978495 -22.17194638 207.94132901 -23.87109375 207.96826172 C-26.58084115 208.00865933 -29.28997346 208 -32 208 C-32.33 207.01 -32.66 206.02 -33 205 C-33.66 204.67 -34.32 204.34 -35 204 C-35.33 204.66 -35.66 205.32 -36 206 C-37.48253267 205.38302681 -38.96095174 204.75616104 -40.4375 204.125 C-41.67306641 203.60292969 -41.67306641 203.60292969 -42.93359375 203.0703125 C-45 202 -45 202 -46 200 C-47.134375 200 -48.26875 200 -49.4375 200 C-51.95833333 200 -54.47916667 200 -57 200 C-57 199.01 -57 198.02 -57 197 C-57.66 197.33 -58.32 197.66 -59 198 C-59 196.68 -59 195.36 -59 194 C-59.70125 193.731875 -60.4025 193.46375 -61.125 193.1875 C-64.1649824 191.9318551 -67.0727774 190.49764877 -70 189 C-70 188.01 -70 187.02 -70 186 C-70.66 186 -71.32 186 -72 186 C-72.99 185.01 -72.99 185.01 -74 184 C-74.66 184.33 -75.32 184.66 -76 185 C-76.66 184.01 -77.32 183.02 -78 182 C-78.99 181.67 -79.98 181.34 -81 181 C-81.33 180.01 -81.66 179.02 -82 178 C-82.99 177.67 -83.98 177.34 -85 177 C-86.23867161 174.38502661 -87.08503983 171.74488051 -88 169 C-88.99 168.67 -89.98 168.34 -91 168 C-90.67 167.01 -90.34 166.02 -90 165 C-90.99 164.67 -91.98 164.34 -93 164 C-93.33 161.69 -93.66 159.38 -94 157 C-94.66 157 -95.32 157 -96 157 C-97.70314189 152.5718311 -98.34196731 148.54613795 -98.65625 143.85546875 C-98.7696875 143.24316406 -98.883125 142.63085938 -99 142 C-99.66 141.67 -100.32 141.34 -101 141 C-101 139.35 -101 137.7 -101 136 C-100.34 136 -99.68 136 -99 136 C-99.66 134.68 -100.32 133.36 -101 132 C-101.66 132.33 -102.32 132.66 -103 133 C-103 131.35 -103 129.7 -103 128 C-102.01 127.505 -102.01 127.505 -101 127 C-101.28875 125.989375 -101.5775 124.97875 -101.875 123.9375 C-102.14763672 122.98230469 -102.14763672 122.98230469 -102.42578125 122.0078125 C-102.96891924 120.10867694 -103.51560242 118.21055632 -104.0625 116.3125 C-104.371875 115.219375 -104.68125 114.12625 -105 113 C-105.226875 112.2575 -105.45375 111.515 -105.6875 110.75 C-106 109 -106 109 -105 106 C-105.33 105.34 -105.66 104.68 -106 104 C-105.01 103.505 -105.01 103.505 -104 103 C-104 101.68 -104 100.36 -104 99 C-103.34 99 -102.68 99 -102 99 C-102.99 97.35 -103.98 95.7 -105 94 C-103.02 93.505 -103.02 93.505 -101 93 C-101.20625 92.13375 -101.4125 91.2675 -101.625 90.375 C-102.04725534 86.57470198 -101.26140581 84.56161642 -100 81 C-99.960008 79.00039988 -99.95653201 76.99952758 -100 75 C-99.5 72.625 -99.5 72.625 -99 71 C-98.01 71 -97.02 71 -96 71 C-95.8659375 70.44441406 -95.731875 69.88882813 -95.59375 69.31640625 C-94.9577728 66.83525835 -94.23971817 64.38966574 -93.5 61.9375 C-93.2421875 61.08027344 -92.984375 60.22304687 -92.71875 59.33984375 C-92.16968382 57.55239461 -91.59130771 55.77392313 -91 54 C-90.01 54 -89.02 54 -88 54 C-87.773125 53.113125 -87.54625 52.22625 -87.3125 51.3125 C-85.82191947 47.55055865 -83.94465002 45.71813848 -81 43 C-80.67 42.34 -80.34 41.68 -80 41 C-79.34 41 -78.68 41 -78 41 C-77.67 38.03 -77.34 35.06 -77 32 C-76.34 32.33 -75.68 32.66 -75 33 C-74.67 32.67 -74.34 32.34 -74 32 C-72.865625 31.525625 -71.73125 31.05125 -70.5625 30.5625 C-67.02674499 29.26910664 -67.02674499 29.26910664 -65 27 C-66.32 26.01 -67.64 25.02 -69 24 C-68.40832031 23.93941406 -67.81664062 23.87882812 -67.20703125 23.81640625 C-64.80245708 23.56143509 -62.40152862 23.28205873 -60 23 C-59.030625 22.896875 -58.06125 22.79375 -57.0625 22.6875 C-56.381875 22.460625 -55.70125 22.23375 -55 22 C-54.690625 21.38125 -54.38125 20.7625 -54.0625 20.125 C-52.48735568 16.97471135 -50.16482261 16.31867609 -47 15 C-46.34 15 -45.68 15 -45 15 C-44.67 14.34 -44.34 13.68 -44 13 C-42.68 13 -41.36 13 -40 13 C-40 12.34 -40 11.68 -40 11 C-39.01 10.67 -38.02 10.34 -37 10 C-36.67 9.34 -36.34 8.68 -36 8 C-34.01432292 8.06510417 -32.02864583 8.13020833 -30.04296875 8.1953125 C-27.68640281 8.13254462 -27.68640281 8.13254462 -25 6 C-24.01 6 -23.02 6 -22 6 C-21.67 5.34 -21.34 4.68 -21 4 C-20.12988281 4.10828125 -20.12988281 4.10828125 -19.2421875 4.21875 C-12.63333866 5.08196126 -12.63333866 5.08196126 -6 5 C-4.12109566 3.62493901 -4.12109566 3.62493901 -3 2 C-2.01 2.495 -2.01 2.495 -1 3 C-0.67 2.01 -0.34 1.02 0 0 Z M80 34 C81 38 81 38 81 38 Z M-80 178 C-79 180 -79 180 -79 180 Z M-58 194 C-57 196 -57 196 -57 196 Z " fill="#FAF2E4" transform="translate(107,7)"/>
<path d="M0 0 C0.66 0 1.32 0 2 0 C4 2 4 2 4.16015625 3.8125 C4.12792969 4.534375 4.09570312 5.25625 4.0625 6 C3.97134465 9.36202373 4.15713356 12.4836572 4.625 15.8125 C5.32678527 22.02135024 4.83033851 29.33932299 2 35 C1.34 35 0.68 35 0 35 C0 35.66 0 36.32 0 37 C-0.99 37 -1.98 37 -3 37 C-3.309375 37.94875 -3.61875 38.8975 -3.9375 39.875 C-5 43 -5 43 -6 45 C-5.34 45 -4.68 45 -4 45 C-4.33 45.99 -4.66 46.98 -5 48 C-5.66 48 -6.32 48 -7 48 C-7.268125 48.61875 -7.53625 49.2375 -7.8125 49.875 C-9 52 -9 52 -12 54 C-12.36442233 55.66014616 -12.69972883 57.32706064 -13 59 C-13.99 59.495 -13.99 59.495 -15 60 C-15 59.34 -15 58.68 -15 58 C-15.66 58 -16.32 58 -17 58 C-17.33 58.99 -17.66 59.98 -18 61 C-19.32 60.67 -20.64 60.34 -22 60 C-22.0825 60.61875 -22.165 61.2375 -22.25 61.875 C-23 64 -23 64 -25 65.125 C-25.66 65.41375 -26.32 65.7025 -27 66 C-27.33 66.66 -27.66 67.32 -28 68 C-28.99 68 -29.98 68 -31 68 C-31 68.66 -31 69.32 -31 70 C-31.66 70 -32.32 70 -33 70 C-33 69.34 -33 68.68 -33 68 C-35.33075929 68.95865509 -35.33075929 68.95865509 -37 72 C-38.32381517 73.67423683 -39.65576661 75.34211215 -41 77 C-42.32 76.67 -43.64 76.34 -45 76 C-44.01 75.67 -43.02 75.34 -42 75 C-42 74.34 -42 73.68 -42 73 C-45.465 73.99 -45.465 73.99 -49 75 C-49 75.99 -49 76.98 -49 78 C-49.66 78 -50.32 78 -51 78 C-51 78.66 -51 79.32 -51 80 C-50.34 80.33 -49.68 80.66 -49 81 C-51.89234315 81.82638376 -53.88742431 82 -57 82 C-57 81.01 -57 80.02 -57 79 C-60.465 79.99 -60.465 79.99 -64 81 C-64 81.99 -64 82.98 -64 84 C-64.33 84.66 -64.66 85.32 -65 86 C-65.66 86 -66.32 86 -67 86 C-67.66 85.34 -68.32 84.68 -69 84 C-69 82.68 -69 81.36 -69 80 C-71.97065509 80.34227572 -71.97065509 80.34227572 -75 81 C-75.33 81.66 -75.66 82.32 -76 83 C-76.33 82.01 -76.66 81.02 -77 80 C-77.66 80 -78.32 80 -79 80 C-78.67 81.32 -78.34 82.64 -78 84 C-79.65 83.67 -81.3 83.34 -83 83 C-83 83.66 -83 84.32 -83 85 C-81.02 85.495 -81.02 85.495 -79 86 C-82.01031744 86.93423645 -82.86650268 87.04449911 -86 86 C-86.495 87.98 -86.495 87.98 -87 90 C-87.66 89.01 -88.32 88.02 -89 87 C-89.495 88.485 -89.495 88.485 -90 90 C-91.98 89.34 -93.96 88.68 -96 88 C-95.505 86.02 -95.505 86.02 -95 84 C-92.36 84.33 -89.72 84.66 -87 85 C-87.66 84.01 -88.32 83.02 -89 82 C-89 82.33 -89 82.66 -89 83 C-90.66611905 83.042721 -92.33382885 83.04063832 -94 83 C-94.33 82.67 -94.66 82.34 -95 82 C-95.66 82.99 -96.32 83.98 -97 85 C-97 84.01 -97 83.02 -97 82 C-98.32 82 -99.64 82 -101 82 C-101.66 82.99 -102.32 83.98 -103 85 C-105.625 85.1875 -105.625 85.1875 -108 85 C-108 85.99 -108 86.98 -108 88 C-108.66 88 -109.32 88 -110 88 C-110 86.35 -110 84.7 -110 83 C-110.99 83.66 -111.98 84.32 -113 85 C-117.20132 85.23340667 -120.90669967 84.88503791 -125 84 C-126.32 84 -127.64 84 -129 84 C-131.41847197 81.49515403 -132 80.53986194 -132 77 C-132.56847656 77.19078125 -133.13695312 77.3815625 -133.72265625 77.578125 C-140.04329285 79.39306573 -140.04329285 79.39306573 -143.015625 78.171875 C-143.60859375 77.78515625 -144.2015625 77.3984375 -144.8125 77 C-145.864375 76.34 -146.91625 75.68 -148 75 C-150.20072961 75.72510734 -150.20072961 75.72510734 -152 77 C-154.25 76.625 -154.25 76.625 -156 76 C-155.67 75.34 -155.34 74.68 -155 74 C-154.34 74 -153.68 74 -153 74 C-151.515 73.01 -151.515 73.01 -150 72 C-150.99 72 -151.98 72 -153 72 C-155.00812926 71.01642648 -157.00854609 70.01691264 -159 69 C-159.66 69 -160.32 69 -161 69 C-161 68.34 -161 67.68 -161 67 C-162.65 66.67 -164.3 66.34 -166 66 C-166 65.67 -166 65.34 -166 65 C-163.525 64.505 -163.525 64.505 -161 64 C-160.67 63.01 -160.34 62.02 -160 61 C-162.97 61.495 -162.97 61.495 -166 62 C-166.33 61.01 -166.66 60.02 -167 59 C-167.66 59 -168.32 59 -169 59 C-169 58.34 -169 57.68 -169 57 C-172.72614153 58.11854586 -172.72614153 58.11854586 -175 61 C-174.01 61.33 -173.02 61.66 -172 62 C-172.99 62.495 -172.99 62.495 -174 63 C-174.99 62.67 -175.98 62.34 -177 62 C-177.92844389 57.66726186 -177.92844389 54.33273814 -177 50 C-176.34 50 -175.68 50 -175 50 C-175 49.34 -175 48.68 -175 48 C-175.99 48 -176.98 48 -178 48 C-181 42.25 -181 42.25 -181 40 C-181.66 40 -182.32 40 -183 40 C-182.67 39.01 -182.34 38.02 -182 37 C-181.01 37 -180.02 37 -179 37 C-179 36.34 -179 35.68 -179 35 C-175 35 -175 35 -172 36 C-171.67 35.34 -171.34 34.68 -171 34 C-169.68 34.99 -168.36 35.98 -167 37 C-168 40 -168 40 -170.0625 41.1875 C-170.701875 41.455625 -171.34125 41.72375 -172 42 C-172 42.99 -172 43.98 -172 45 C-170.68 45 -169.36 45 -168 45 C-167.896875 45.639375 -167.79375 46.27875 -167.6875 46.9375 C-167.460625 47.618125 -167.23375 48.29875 -167 49 C-165.515 49.495 -165.515 49.495 -164 50 C-163.01 49.505 -163.01 49.505 -162 49 C-162.33 50.65 -162.66 52.3 -163 54 C-161.35 54.33 -159.7 54.66 -158 55 C-157.67 53.68 -157.34 52.36 -157 51 C-155.02 50.505 -155.02 50.505 -153 50 C-152.67 50.99 -152.34 51.98 -152 53 C-151.01 52.34 -150.02 51.68 -149 51 C-148 58.625 -148 58.625 -148 62 C-147.071875 61.79375 -146.14375 61.5875 -145.1875 61.375 C-142 61 -142 61 -139 63 C-139 63.99 -139 64.98 -139 66 C-137.35 66.33 -135.7 66.66 -134 67 C-134 67.66 -134 68.32 -134 69 C-133.01 68.34 -132.02 67.68 -131 67 C-130.01 67 -129.02 67 -128 67 C-127.67 65.35 -127.34 63.7 -127 62 C-126.01 62.33 -125.02 62.66 -124 63 C-124 64.98 -124 66.96 -124 69 C-123.34 69 -122.68 69 -122 69 C-122 67.35 -122 65.7 -122 64 C-120.35 64.66 -118.7 65.32 -117 66 C-117 66.99 -117 67.98 -117 69 C-115.35 69.33 -113.7 69.66 -112 70 C-112 70.66 -112 71.32 -112 72 C-111.34 72 -110.68 72 -110 72 C-110 72.66 -110 73.32 -110 74 C-107.66924071 73.04134491 -107.66924071 73.04134491 -106 70 C-104.515 70.99 -104.515 70.99 -103 72 C-101.68 70.68 -100.36 69.36 -99 68 C-98.67 68.99 -98.34 69.98 -98 71 C-99.98 72.485 -99.98 72.485 -102 74 C-100.02 74 -98.04 74 -96 74 C-95.505 72.515 -95.505 72.515 -95 71 C-92 72 -92 72 -90 75 C-89.67 74.67 -89.34 74.34 -89 74 C-87.33382885 73.95936168 -85.66611905 73.957279 -84 74 C-83.505 72.515 -83.505 72.515 -83 71 C-82.34 71.33 -81.68 71.66 -81 72 C-81 72.66 -81 73.32 -81 74 C-80.01 74 -79.02 74 -78 74 C-77.67 74.99 -77.34 75.98 -77 77 C-76.34 76.34 -75.68 75.68 -75 75 C-74.319375 74.67 -73.63875 74.34 -72.9375 74 C-70.83134399 73.15410058 -70.83134399 73.15410058 -70 71 C-69.34 71 -68.68 71 -68 71 C-68 70.01 -68 69.02 -68 68 C-66.35 68.33 -64.7 68.66 -63 69 C-62.505 67.02 -62.505 67.02 -62 65 C-61.34 65.33 -60.68 65.66 -60 66 C-59.67 65.67 -59.34 65.34 -59 65 C-59 63.68 -59 62.36 -59 61 C-57.35 61 -55.7 61 -54 61 C-54 60.34 -54 59.68 -54 59 C-52 57.375 -52 57.375 -50 56 C-50 56.66 -50 57.32 -50 58 C-45.35413108 57.51515724 -45.35413108 57.51515724 -41 56 C-39.32345271 56.27942455 -37.65391846 56.60828247 -36 57 C-35.67 56.01 -35.34 55.02 -35 54 C-34.01 54 -33.02 54 -32 54 C-31.8453125 53.0409375 -31.8453125 53.0409375 -31.6875 52.0625 C-31.3471875 51.0415625 -31.3471875 51.0415625 -31 50 C-30.01 49.67 -29.02 49.34 -28 49 C-28.33 49.99 -28.66 50.98 -29 52 C-26.69 52.33 -24.38 52.66 -22 53 C-20.66667905 50.3333581 -21.32897967 48.83319697 -22 46 C-21.01 46 -20.02 46 -19 46 C-18.8453125 45.1028125 -18.8453125 45.1028125 -18.6875 44.1875 C-17.90175967 41.68741714 -17.03081147 40.62464918 -15 39 C-14.34 39 -13.68 39 -13 39 C-12.67 38.01 -12.34 37.02 -12 36 C-11.34 36 -10.68 36 -10 36 C-10 34.35 -10 32.7 -10 31 C-9.34 31 -8.68 31 -8 31 C-8.37125 30.1646875 -8.37125 30.1646875 -8.75 29.3125 C-9 27 -9 27 -7.3125 24.3125 C-5.0545012 22.0545012 -4.09998746 21.33214151 -1 21 C-1.33 20.01 -1.66 19.02 -2 18 C-2.66 18 -3.32 18 -4 18 C-4 17.34 -4 16.68 -4 16 C-4.99 15.505 -4.99 15.505 -6 15 C-5.67 13.02 -5.34 11.04 -5 9 C-3.68 9 -2.36 9 -1 9 C-0.67 6.03 -0.34 3.06 0 0 Z M-141 65 C-143.05270463 66.84188612 -143.05270463 66.84188612 -144 69 C-143.01 69.33 -142.02 69.66 -141 70 C-140.34 68.68 -139.68 67.36 -139 66 C-139.66 65.67 -140.32 65.34 -141 65 Z " fill="#EFE2D2" transform="translate(202,122)"/>
<path d="M0 0 C0.99 0.33 1.98 0.66 3 1 C2.67 2.65 2.34 4.3 2 6 C0.68 5.67 -0.64 5.34 -2 5 C-2 7.31 -2 9.62 -2 12 C-2.99 12.33 -3.98 12.66 -5 13 C-5 13.99 -5 14.98 -5 16 C-5.60328125 16.04898437 -6.2065625 16.09796875 -6.828125 16.1484375 C-7.62734375 16.22320313 -8.4265625 16.29796875 -9.25 16.375 C-10.03890625 16.44460937 -10.8278125 16.51421875 -11.640625 16.5859375 C-14.085877 17.01507113 -15.84836903 17.78600638 -18 19 C-18.185625 18.0409375 -18.185625 18.0409375 -18.375 17.0625 C-18.684375 16.0415625 -18.684375 16.0415625 -19 15 C-19.99 14.505 -19.99 14.505 -21 14 C-21.66 15.32 -22.32 16.64 -23 18 C-23.99 18 -24.98 18 -26 18 C-27.67099977 18.31088368 -29.33871537 18.64080332 -31 19 C-31 18.34 -31 17.68 -31 17 C-35.32371893 19.02633069 -35.32371893 19.02633069 -39 22 C-39.495 21.01 -39.495 21.01 -40 20 C-41.98 20.66 -43.96 21.32 -46 22 C-46 22.99 -46 23.98 -46 25 C-46.99 25.66 -47.98 26.32 -49 27 C-49.33 27.66 -49.66 28.32 -50 29 C-51 31 -51 31 -54 33 C-54.495 33.99 -54.495 33.99 -55 35 C-55.99 34.67 -56.98 34.34 -58 34 C-58 33.34 -58 32.68 -58 32 C-58.99 32.33 -59.98 32.66 -61 33 C-61.99 32.505 -61.99 32.505 -63 32 C-63.33 32.99 -63.66 33.98 -64 35 C-66.475 35.495 -66.475 35.495 -69 36 C-69.33 36.99 -69.66 37.98 -70 39 C-71.66666667 40.66666667 -73.33333333 42.33333333 -75 44 C-75.556875 44.928125 -76.11375 45.85625 -76.6875 46.8125 C-77.120625 47.534375 -77.55375 48.25625 -78 49 C-78.66 49 -79.32 49 -80 49 C-81.52453435 51.94017338 -82.95157395 54.85472185 -84 58 C-83.67 58.99 -83.34 59.98 -83 61 C-83.66 61 -84.32 61 -85 61 C-85 61.99 -85 62.98 -85 64 C-86.98 64.99 -86.98 64.99 -89 66 C-88.814375 66.61875 -88.62875 67.2375 -88.4375 67.875 C-88 70 -88 70 -89 72 C-88.34 72.33 -87.68 72.66 -87 73 C-88.25 74.5 -88.25 74.5 -90 76 C-91.32 76 -92.64 76 -94 76 C-95.23921302 78.97411124 -96.30058404 81.85262818 -97 85 C-97.66 84.67 -98.32 84.34 -99 84 C-99 85.32 -99 86.64 -99 88 C-99.99 87.67 -100.98 87.34 -102 87 C-101.67 86.13375 -101.34 85.2675 -101 84.375 C-100.00409181 81.01380984 -99.92447264 78.47425837 -100 75 C-99.5 72.625 -99.5 72.625 -99 71 C-98.01 71 -97.02 71 -96 71 C-95.79890625 70.16662109 -95.79890625 70.16662109 -95.59375 69.31640625 C-94.9577728 66.83525835 -94.23971817 64.38966574 -93.5 61.9375 C-93.2421875 61.08027344 -92.984375 60.22304687 -92.71875 59.33984375 C-92.16968382 57.55239461 -91.59130771 55.77392313 -91 54 C-90.01 54 -89.02 54 -88 54 C-87.773125 53.113125 -87.54625 52.22625 -87.3125 51.3125 C-85.82191947 47.55055865 -83.94465002 45.71813848 -81 43 C-80.67 42.34 -80.34 41.68 -80 41 C-79.34 41 -78.68 41 -78 41 C-77.67 38.03 -77.34 35.06 -77 32 C-76.34 32.33 -75.68 32.66 -75 33 C-74.67 32.67 -74.34 32.34 -74 32 C-72.865625 31.525625 -71.73125 31.05125 -70.5625 30.5625 C-67.02674499 29.26910664 -67.02674499 29.26910664 -65 27 C-66.32 26.01 -67.64 25.02 -69 24 C-68.40832031 23.93941406 -67.81664062 23.87882812 -67.20703125 23.81640625 C-64.80245708 23.56143509 -62.40152862 23.28205873 -60 23 C-59.030625 22.896875 -58.06125 22.79375 -57.0625 22.6875 C-56.381875 22.460625 -55.70125 22.23375 -55 22 C-54.690625 21.38125 -54.38125 20.7625 -54.0625 20.125 C-52.48735568 16.97471135 -50.16482261 16.31867609 -47 15 C-46.34 15 -45.68 15 -45 15 C-44.67 14.34 -44.34 13.68 -44 13 C-42.68 13 -41.36 13 -40 13 C-40 12.34 -40 11.68 -40 11 C-39.01 10.67 -38.02 10.34 -37 10 C-36.67 9.34 -36.34 8.68 -36 8 C-34.01432292 8.06510417 -32.02864583 8.13020833 -30.04296875 8.1953125 C-27.68640281 8.13254462 -27.68640281 8.13254462 -25 6 C-24.01 6 -23.02 6 -22 6 C-21.67 5.34 -21.34 4.68 -21 4 C-20.12988281 4.10828125 -20.12988281 4.10828125 -19.2421875 4.21875 C-12.63333866 5.08196126 -12.63333866 5.08196126 -6 5 C-4.12109566 3.62493901 -4.12109566 3.62493901 -3 2 C-2.01 2.495 -2.01 2.495 -1 3 C-0.67 2.01 -0.34 1.02 0 0 Z " fill="#FCF7EB" transform="translate(107,7)"/>
<path d="M0 0 C1.9375 0.3125 1.9375 0.3125 4 1 C4.33 1.99 4.66 2.98 5 4 C5.99 4 6.98 4 8 4 C9.125 10.75 9.125 10.75 8 13 C8.66 13 9.32 13 10 13 C11.125 16.75 11.125 16.75 10 19 C10.27942455 20.67654729 10.60828247 22.34608154 11 24 C11.66 24 12.32 24 13 24 C13 24.66 13 25.32 13 26 C13.66 26.33 14.32 26.66 15 27 C14.814375 27.61875 14.62875 28.2375 14.4375 28.875 C13.76313824 31.04160178 13.76313824 31.04160178 15 33 C14.71887936 35.00800456 14.38932033 37.01014051 14 39 C15.32 39.66 16.64 40.32 18 41 C17.2265625 41.495 17.2265625 41.495 16.4375 42 C14.78902771 43.84481923 14.78902771 43.84481923 15.12890625 45.875 C15.31259766 46.926875 15.31259766 46.926875 15.5 48 C15.87109375 50.125 15.87109375 50.125 16 52 C14.5625 54 14.5625 54 13 55 C12.67 54.34 12.34 53.68 12 53 C11.34 53 10.68 53 10 53 C8.29685811 48.5718311 7.65803269 44.54613795 7.34375 39.85546875 C7.2303125 39.24316406 7.116875 38.63085938 7 38 C6.34 37.67 5.68 37.34 5 37 C5 35.35 5 33.7 5 32 C5.66 32 6.32 32 7 32 C6.34 30.68 5.68 29.36 5 28 C4.34 28.33 3.68 28.66 3 29 C3 27.35 3 25.7 3 24 C3.66 23.67 4.32 23.34 5 23 C4.71125 21.989375 4.4225 20.97875 4.125 19.9375 C3.94324219 19.30070312 3.76148438 18.66390625 3.57421875 18.0078125 C3.03108076 16.10867694 2.48439758 14.21055632 1.9375 12.3125 C1.628125 11.219375 1.31875 10.12625 1 9 C0.773125 8.2575 0.54625 7.515 0.3125 6.75 C0 5 0 5 1 2 C0.67 1.34 0.34 0.68 0 0 Z " fill="#FCF8EB" transform="translate(1,111)"/>
<path d="M0 0 C2.0625 0.4375 2.0625 0.4375 4 1 C4 1.66 4 2.32 4 3 C4.66 3 5.32 3 6 3 C6 3.66 6 4.32 6 5 C7.32 5.66 8.64 6.32 10 7 C10 7.66 10 8.32 10 9 C16.28295805 10.21250068 19.31442142 9.89853026 25 7 C25.99 6.67 26.98 6.34 28 6 C29.21869929 3.49552484 29.21869929 3.49552484 30 1 C31.65 1 33.3 1 35 1 C34.67 3.31 34.34 5.62 34 8 C33.34 8 32.68 8 32 8 C31.75121094 8.61359375 31.50242188 9.2271875 31.24609375 9.859375 C28.99391425 13.72832285 25.15807274 14.80232765 21 16 C15.89246627 16.63408673 11.57220121 16.67820444 6.8125 14.625 C6.214375 14.08875 5.61625 13.5525 5 13 C5 12.34 5 11.68 5 11 C4.071875 10.8453125 4.071875 10.8453125 3.125 10.6875 C1 10 1 10 -1 7 C-1.1875 3.875 -1.1875 3.875 -1 1 C-0.67 0.67 -0.34 0.34 0 0 Z " fill="#75634E" transform="translate(92,133)"/>
<path d="M0 0 C2 3 2 3 2 7 C2.66 7.33 3.32 7.66 4 8 C0.91969407 16.36328872 0.91969407 16.36328872 -2.4375 18.6875 C-5.65397326 19.07975284 -7.21914691 18.65348022 -10 17 C-12.09866886 13.81678414 -12.14963757 11.60550813 -11.6875 7.875 C-11.58824219 7.00617188 -11.48898438 6.13734375 -11.38671875 5.2421875 C-11 3 -11 3 -10 1 C-6.457201 -0.180933 -3.71640139 -0.27028374 0 0 Z " fill="#62513C" transform="translate(153,99)"/>
<path d="M0 0 C3.375 0.9375 3.375 0.9375 5.375 2.9375 C6.07277089 7.90303236 6.33923807 13.18124957 3.625 17.5625 C1.43171496 19.87763421 0.5073445 20.71376111 -2.625 20.9375 C-2.625 20.2775 -2.625 19.6175 -2.625 18.9375 C-3.264375 18.81375 -3.90375 18.69 -4.5625 18.5625 C-5.5834375 18.253125 -5.5834375 18.253125 -6.625 17.9375 C-8.59926887 13.98896225 -8.05853097 9.2418432 -7.625 4.9375 C-5.54644541 0.61410645 -4.83428141 -0.08334968 0 0 Z " fill="#675540" transform="translate(72.625,97.0625)"/>
<path d="M0 0 C2 3.75 2 3.75 2 6 C4.64 6 7.28 6 10 6 C9.67 7.65 9.34 9.3 9 11 C12.80427492 13.2013866 12.80427492 13.2013866 17 14 C17 14.99 17 15.98 17 17 C15.37828761 17.38897161 13.75245075 17.76078298 12.125 18.125 C11.22007812 18.33382812 10.31515625 18.54265625 9.3828125 18.7578125 C8.59648437 18.83773437 7.81015625 18.91765625 7 19 C6.34 18.34 5.68 17.68 5 17 C5 15.68 5 14.36 5 13 C3.35 13.66 1.7 14.32 0 15 C-0.33 14.01 -0.66 13.02 -1 12 C-1.9075 12.103125 -2.815 12.20625 -3.75 12.3125 C-7 12 -7 12 -9.375 9.5 C-9.91125 8.675 -10.4475 7.85 -11 7 C-9.6875 5.5 -9.6875 5.5 -8 4 C-7.01 4 -6.02 4 -5 4 C-4.67 3.34 -4.34 2.68 -4 2 C-3.34 2.33 -2.68 2.66 -2 3 C-1.34 2.01 -0.68 1.02 0 0 Z " fill="#FCF8EC" transform="translate(157,16)"/>
<path d="M0 0 C1.32 0 2.64 0 4 0 C3.88487847 1.72985242 3.75744323 3.45888751 3.625 5.1875 C3.55539063 6.15042969 3.48578125 7.11335937 3.4140625 8.10546875 C2.99784147 11.01508938 2.20125904 13.32890774 1 16 C0.34 16 -0.32 16 -1 16 C-1 16.66 -1 17.32 -1 18 C-1.99 18 -2.98 18 -4 18 C-4.309375 18.94875 -4.61875 19.8975 -4.9375 20.875 C-6 24 -6 24 -7 26 C-6.34 26 -5.68 26 -5 26 C-5.33 26.99 -5.66 27.98 -6 29 C-6.66 29 -7.32 29 -8 29 C-8.66 30.32 -9.32 31.64 -10 33 C-10.99 33 -11.98 33 -13 33 C-13.39539521 28.51885428 -12.15253394 25.89111905 -10 22 C-9.608125 21.21625 -9.21625 20.4325 -8.8125 19.625 C-8.544375 19.08875 -8.27625 18.5525 -8 18 C-8.99 18 -9.98 18 -11 18 C-11 16 -11 16 -9.1875 13.875 C-7 12 -7 12 -4 12 C-4 11.34 -4 10.68 -4 10 C-2 8 -2 8 0 7 C0 4.69 0 2.38 0 0 Z " fill="#F2E7D8" transform="translate(203,141)"/>
<path d="M0 0 C1.98 0 3.96 0 6 0 C5.54260948 2.46990883 4.95512159 4.06829323 3.5625 6.1875 C1.75077061 9.44861291 1.2145909 12.3574835 0.625 16.01171875 C0 18 0 18 -3 20 C-3.66 19.67 -4.32 19.34 -5 19 C-5.33 19.99 -5.66 20.98 -6 22 C-6.99 21.67 -7.98 21.34 -9 21 C-9 20.34 -9 19.68 -9 19 C-8.01 18.67 -7.02 18.34 -6 18 C-6 17.01 -6 16.02 -6 15 C-6.99 15 -7.98 15 -9 15 C-9.33 13.35 -9.66 11.7 -10 10 C-9.01 10 -8.02 10 -7 10 C-6.896875 9.401875 -6.79375 8.80375 -6.6875 8.1875 C-5.90175967 5.68741714 -5.03081147 4.62464918 -3 3 C-2.34 3 -1.68 3 -1 3 C-0.67 2.01 -0.34 1.02 0 0 Z " fill="#ECDECE" transform="translate(190,158)"/>
<path d="M0 0 C0.99 0.33 1.98 0.66 3 1 C2.01 2.98 1.02 4.96 0 7 C1.65 6.67 3.3 6.34 5 6 C5 5.34 5 4.68 5 4 C4.01 3.67 3.02 3.34 2 3 C2.66 3 3.32 3 4 3 C4.33 2.01 4.66 1.02 5 0 C6.98 0 8.96 0 11 0 C11.66 1.65 12.32 3.3 13 5 C14.98 5 16.96 5 19 5 C19 7.31 19 9.62 19 12 C15.572175 13.17683393 13.53551019 12.80839977 10.125 11.6875 C9.25359375 11.40648437 8.3821875 11.12546875 7.484375 10.8359375 C6.66453125 10.56007812 5.8446875 10.28421875 5 10 C3.80375 9.608125 2.6075 9.21625 1.375 8.8125 C0.59125 8.544375 -0.1925 8.27625 -1 8 C-1.125 2.25 -1.125 2.25 0 0 Z " fill="#E9DAC9" transform="translate(79,192)"/>
<path d="M0 0 C1.32 0.33 2.64 0.66 4 1 C3.67 2.98 3.34 4.96 3 7 C3.33 6.34 3.66 5.68 4 5 C7.0625 4.375 7.0625 4.375 10 4 C10 6 10 6 8.6875 7.625 C7 9 7 9 4 9 C4.7425 9.680625 4.7425 9.680625 5.5 10.375 C7 12 7 12 7 14 C6.01 14 5.02 14 4 14 C4 14.66 4 15.32 4 16 C3.34 16 2.68 16 2 16 C2 15.34 2 14.68 2 14 C-0.33075929 14.95865509 -0.33075929 14.95865509 -2 18 C-2.99 17.67 -3.98 17.34 -5 17 C-4.34 16.01 -3.68 15.02 -3 14 C-3.66 14 -4.32 14 -5 14 C-5 14.66 -5 15.32 -5 16 C-7.21736634 14.89131683 -9.03617993 13.50559539 -11 12 C-8.36 10.68 -5.72 9.36 -3 8 C-3 7.01 -3 6.02 -3 5 C-2.34 5 -1.68 5 -1 5 C-0.67 3.35 -0.34 1.7 0 0 Z " fill="#EDE0CF" transform="translate(167,176)"/>
<path d="M0 0 C3 1 3 1 4 3 C4.039992 4.99960012 4.04346799 7.00047242 4 9 C4.99 9.33 5.98 9.66 7 10 C7.33 10.99 7.66 11.98 8 13 C8.33 13.66 8.66 14.32 9 15 C9.66 15 10.32 15 11 15 C11.2475 15.9075 11.495 16.815 11.75 17.75 C13.03981342 21.10351489 14.31971042 22.67708236 17 25 C16.67 25.99 16.34 26.98 16 28 C15.01 27.34 14.02 26.68 13 26 C12.01 26.33 11.02 26.66 10 27 C9.34 25.35 8.68 23.7 8 22 C7.34 22 6.68 22 6 22 C6 21.01 6 20.02 6 19 C5.34 19 4.68 19 4 19 C4 18.34 4 17.68 4 17 C2.68 16.67 1.36 16.34 0 16 C-0.6875 14.375 -0.6875 14.375 -1 12 C0.4375 8.75 0.4375 8.75 2 6 C1.01 5.01 0.02 4.02 -1 3 C-0.67 2.01 -0.34 1.02 0 0 Z " fill="#FDFAEF" transform="translate(186,39)"/>
<path d="M0 0 C0.144375 0.78375 0.28875 1.5675 0.4375 2.375 C0.87798925 4.96421018 0.87798925 4.96421018 2 7 C1.67 7.66 1.34 8.32 1 9 C0.34 9 -0.32 9 -1 9 C-1 9.66 -1 10.32 -1 11 C-1.66 11 -2.32 11 -3 11 C-3.2475 11.639375 -3.495 12.27875 -3.75 12.9375 C-5 15 -5 15 -6.9375 15.75 C-9 16 -9 16 -12 16 C-12.66 14.02 -13.32 12.04 -14 10 C-12.35 9.67 -10.7 9.34 -9 9 C-9 8.01 -9 7.02 -9 6 C-8.34 6 -7.68 6 -7 6 C-6.814375 4.7934375 -6.814375 4.7934375 -6.625 3.5625 C-6.41875 2.716875 -6.2125 1.87125 -6 1 C-4 0 -4 0 0 0 Z " fill="#F5EBDD" transform="translate(31,62)"/>
<path d="M0 0 C0.99 0.33 1.98 0.66 3 1 C2.67 1.66 2.34 2.32 2 3 C3.65 3.33 5.3 3.66 7 4 C7 4.66 7 5.32 7 6 C7.99 6 8.98 6 10 6 C10 6.66 10 7.32 10 8 C9.34 8 8.68 8 8 8 C7.67 9.98 7.34 11.96 7 14 C7.99 14.33 8.98 14.66 10 15 C9.01 15 8.02 15 7 15 C7.33 16.65 7.66 18.3 8 20 C7.01 20 6.02 20 5 20 C3.92474806 17.34771188 2.90543849 14.71631546 2 12 C1.01 11.67 0.02 11.34 -1 11 C-0.67 10.01 -0.34 9.02 0 8 C-0.99 7.67 -1.98 7.34 -3 7 C-3 6.34 -3 5.68 -3 5 C-2.01 5 -1.02 5 0 5 C0 3.35 0 1.7 0 0 Z " fill="#FBF5E8" transform="translate(17,164)"/>
<path d="M0 0 C0.66 0 1.32 0 2 0 C1.125 4.75 1.125 4.75 0 7 C-0.99 7 -1.98 7 -3 7 C-3.33 8.65 -3.66 10.3 -4 12 C-5.32 11.67 -6.64 11.34 -8 11 C-8 10.34 -8 9.68 -8 9 C-9.32 8.67 -10.64 8.34 -12 8 C-12.99 9.485 -12.99 9.485 -14 11 C-14.66 11 -15.32 11 -16 11 C-15.75 8.125 -15.75 8.125 -15 5 C-13 3.75 -13 3.75 -11 3 C-10.67 2.34 -10.34 1.68 -10 1 C-8.35 1 -6.7 1 -5 1 C-5 1.66 -5 2.32 -5 3 C-1.9254644 2.2236068 -1.9254644 2.2236068 0 0 Z " fill="#F5ECDD" transform="translate(54,38)"/>
<path d="M0 0 C0.66 0.33 1.32 0.66 2 1 C1.67 1.99 1.34 2.98 1 4 C1.99 4 2.98 4 4 4 C4.33 3.34 4.66 2.68 5 2 C13.25597814 2.34616261 13.25597814 2.34616261 16.0625 4.8125 C17 7 17 7 17 11 C15.02 11.33 13.04 11.66 11 12 C10.67 11.01 10.34 10.02 10 9 C9.34 9 8.68 9 8 9 C8 8.34 8 7.68 8 7 C4.27385847 8.11854586 4.27385847 8.11854586 2 11 C2.99 11.33 3.98 11.66 5 12 C4.01 12.495 4.01 12.495 3 13 C2.01 12.67 1.02 12.34 0 12 C-0.92844389 7.66726186 -0.92844389 4.33273814 0 0 Z " fill="#F2E6D5" transform="translate(25,172)"/>
<path d="M0 0 C1.65 0.33 3.3 0.66 5 1 C5 1.66 5 2.32 5 3 C5.99 2.34 6.98 1.68 8 1 C10.1875 1.375 10.1875 1.375 12 2 C11.67 3.32 11.34 4.64 11 6 C10.34 6 9.68 6 9 6 C9.33 7.32 9.66 8.64 10 10 C10 9.34 10 8.68 10 8 C10.99 8.33 11.98 8.66 13 9 C12.34 9 11.68 9 11 9 C11 9.99 11 10.98 11 12 C8.36 11.34 5.72 10.68 3 10 C3 8.35 3 6.7 3 5 C2.67 5.99 2.34 6.98 2 8 C-1.71599191 8.20086443 -2.77208445 8.1519437 -6 6 C-5.67 5.01 -5.34 4.02 -5 3 C-4.01 3 -3.02 3 -2 3 C-1.34 2.01 -0.68 1.02 0 0 Z " fill="#E9DAC8" transform="translate(63,188)"/>
<path d="M0 0 C0 3.3 0 6.6 0 10 C1.65 9.01 3.3 8.02 5 7 C5 8.98 5 10.96 5 13 C2.05633745 14.5138836 0.58985548 15.13717569 -2.6875 14.375 C-5.38801813 12.76928652 -6.08797494 11.98480928 -7 9 C-7.4375 5.9375 -7.4375 5.9375 -7 3 C-4.61107499 1.11400657 -3.08148442 0 0 0 Z " fill="#705E48" transform="translate(148,103)"/>
<path d="M0 0 C0.33 0.99 0.66 1.98 1 3 C1.66 3 2.32 3 3 3 C3.33 2.34 3.66 1.68 4 1 C5.9375 1.8125 5.9375 1.8125 8 3 C9 6 9 6 8.0625 8.1875 C7.711875 8.785625 7.36125 9.38375 7 10 C8.32 10.33 9.64 10.66 11 11 C7.98968256 11.93423645 7.13349732 12.04449911 4 11 C3.67 12.32 3.34 13.64 3 15 C2.34 14.01 1.68 13.02 1 12 C0.67 12.99 0.34 13.98 0 15 C-1.98 14.34 -3.96 13.68 -6 13 C-5.67 11.68 -5.34 10.36 -5 9 C-2.36 9.33 0.28 9.66 3 10 C3 9.34 3 8.68 3 8 C3.66 8 4.32 8 5 8 C5 6.68 5 5.36 5 4 C4.21625 4.20625 3.4325 4.4125 2.625 4.625 C1.75875 4.74875 0.8925 4.8725 0 5 C-0.66 4.34 -1.32 3.68 -2 3 C-1.34 2.01 -0.68 1.02 0 0 Z " fill="#F2E7D8" transform="translate(112,197)"/>
<path d="M0 0 C2.00720923 0.28674418 4.0085944 0.61866701 6 1 C5.67 1.66 5.34 2.32 5 3 C5.66 3.33 6.32 3.66 7 4 C7.66 2.68 8.32 1.36 9 0 C9.969375 0.185625 10.93875 0.37125 11.9375 0.5625 C12.948125 0.706875 13.95875 0.85125 15 1 C15.33 0.67 15.66 0.34 16 0 C17.66617115 -0.04063832 19.33388095 -0.042721 21 0 C21 0.66 21 1.32 21 2 C19.35 2 17.7 2 16 2 C15.67 2.66 15.34 3.32 15 4 C14.01 5.485 14.01 5.485 13 7 C8.41812502 7.61091666 5.66122965 6.79976385 2 4 C2 3.34 2 2.68 2 2 C1.01 1.67 0.02 1.34 -1 1 C-0.67 0.67 -0.34 0.34 0 0 Z " fill="#5E4A36" transform="translate(95,142)"/>
<path d="M0 0 C-0.66 1.98 -1.32 3.96 -2 6 C-0.68 5.34 0.64 4.68 2 4 C1.34 5.65 0.68 7.3 0 9 C-0.99 8.67 -1.98 8.34 -3 8 C-3.268125 8.94875 -3.53625 9.8975 -3.8125 10.875 C-5 14 -5 14 -8 16 C-7.7525 15.0409375 -7.7525 15.0409375 -7.5 14.0625 C-6.74155512 10.93391489 -7.52203046 9.86356598 -9 7 C-8.34 6.67 -7.68 6.34 -7 6 C-7.33 4.68 -7.66 3.36 -8 2 C-7.67 2.66 -7.34 3.32 -7 4 C-6.34 4 -5.68 4 -5 4 C-4.67 3.01 -4.34 2.02 -4 1 C-2 0 -2 0 0 0 Z " fill="#F4EADC" transform="translate(22,79)"/>
<path d="M0 0 C0.66 0.33 1.32 0.66 2 1 C2 1.99 2 2.98 2 4 C2.99 4 3.98 4 5 4 C5.33 3.34 5.66 2.68 6 2 C6.9765625 8.0546875 6.9765625 8.0546875 7 10 C6.34 10.66 5.68 11.32 5 12 C4.21625 11.505 3.4325 11.01 2.625 10.5 C0.21447673 8.83462035 0.21447673 8.83462035 -2 9 C-2 8.34 -2 7.68 -2 7 C-3.65 6.67 -5.3 6.34 -7 6 C-7 5.67 -7 5.34 -7 5 C-5.824375 4.87625 -5.824375 4.87625 -4.625 4.75 C-1.85250896 4.27193661 -1.85250896 4.27193661 -0.6875 1.9375 C-0.460625 1.298125 -0.23375 0.65875 0 0 Z " fill="#F2E7D8" transform="translate(43,182)"/>
<path d="M0 0 C3 2 3 2 3.75 4.0625 C3.87375 5.0215625 3.87375 5.0215625 4 6 C3.67 6.33 3.34 6.66 3 7 C3.66 7.66 4.32 8.32 5 9 C4.01 9.33 3.02 9.66 2 10 C1.67 10.66 1.34 11.32 1 12 C0.01 11.67 -0.98 11.34 -2 11 C-2 10.34 -2 9.68 -2 9 C-1.34 8.67 -0.68 8.34 0 8 C0 7.01 0 6.02 0 5 C-0.99 5 -1.98 5 -3 5 C-3.33 5.66 -3.66 6.32 -4 7 C-6.0625 8.125 -6.0625 8.125 -8 9 C-7.67 7.35 -7.34 5.7 -7 4 C-6.030625 3.71125 -5.06125 3.4225 -4.0625 3.125 C-0.89335797 2.35785318 -0.89335797 2.35785318 0 0 Z " fill="#F5ECDE" transform="translate(130,19)"/>
<path d="M0 0 C0 1.32 0 2.64 0 4 C0.66 4 1.32 4 2 4 C1.67 4.66 1.34 5.32 1 6 C0.34 6 -0.32 6 -1 6 C-1.99 7.485 -1.99 7.485 -3 9 C-3.99 8.67 -4.98 8.34 -6 8 C-5.34 7.01 -4.68 6.02 -4 5 C-4.66 5 -5.32 5 -6 5 C-6 5.66 -6 6.32 -6 7 C-8.21736634 5.89131683 -10.03617993 4.50559539 -12 3 C-4.71428571 -1.71428571 -4.71428571 -1.71428571 0 0 Z " fill="#EADCCA" transform="translate(168,185)"/>
<path d="M0 0 C1.32 0.33 2.64 0.66 4 1 C4.3227506 5.62609198 3.84450614 8.28026121 1 12 C0.34 12 -0.32 12 -1 12 C-1.33 11.01 -1.66 10.02 -2 9 C-2.66 9 -3.32 9 -4 9 C-4 8.01 -4 7.02 -4 6 C-4.66 5.67 -5.32 5.34 -6 5 C-5.38125 4.731875 -4.7625 4.46375 -4.125 4.1875 C-1.7004767 3.04443152 -1.7004767 3.04443152 0 0 Z " fill="#F3E8DA" transform="translate(206,111)"/>
<path d="M0 0 C0.66 0.33 1.32 0.66 2 1 C1.814375 1.78375 1.62875 2.5675 1.4375 3.375 C0.74037734 5.97089775 0.74037734 5.97089775 2 8 C3.32 7.67 4.64 7.34 6 7 C5.67 7.66 5.34 8.32 5 9 C4.34 9 3.68 9 3 9 C3.33 10.98 3.66 12.96 4 15 C3.01 14.67 2.02 14.34 1 14 C1 13.34 1 12.68 1 12 C0.34 11.67 -0.32 11.34 -1 11 C-1 12.65 -1 14.3 -1 16 C-1.99 16 -2.98 16 -4 16 C-4 14.68 -4 13.36 -4 12 C-3.34 12 -2.68 12 -2 12 C-1.91995518 8.4780279 -1.95994298 5.38018531 -3 2 C-2.01 1.34 -1.02 0.68 0 0 Z " fill="#F8EEE1" transform="translate(18,153)"/>
<path d="M0 0 C0.66 0.33 1.32 0.66 2 1 C1.34 3.31 0.68 5.62 0 8 C1.32 8.66 2.64 9.32 4 10 C3.01 10.99 2.02 11.98 1 13 C0.01 12.67 -0.98 12.34 -2 12 C-2.33 11.34 -2.66 10.68 -3 10 C-3.66 10 -4.32 10 -5 10 C-5 8.68 -5 7.36 -5 6 C-4.34 6 -3.68 6 -3 6 C-3.99 4.35 -4.98 2.7 -6 1 C-4 0 -4 0 0 0 Z " fill="#FDFAEF" transform="translate(8,100)"/>
<path d="M0 0 C-0.99 0.66 -1.98 1.32 -3 2 C-2.01 2 -1.02 2 0 2 C0.625 3.875 0.625 3.875 1 6 C0.34 6.66 -0.32 7.32 -1 8 C-2.32 8 -3.64 8 -5 8 C-5 7.01 -5 6.02 -5 5 C-6.32 5.33 -7.64 5.66 -9 6 C-9.6875 4.1875 -9.6875 4.1875 -10 2 C-7.63939534 -2.27859594 -4.19472714 -0.87060375 0 0 Z " fill="#73624D" transform="translate(76,98)"/>
<path d="M0 0 C0.99 0.33 1.98 0.66 3 1 C3.75 2.9375 3.75 2.9375 4 5 C3.67 5.66 3.34 6.32 3 7 C4.32 7.33 5.64 7.66 7 8 C6.34 9.65 5.68 11.3 5 13 C4.34 13 3.68 13 3 13 C3 11.68 3 10.36 3 9 C0.525 10.485 0.525 10.485 -2 12 C-2 9.36 -2 6.72 -2 4 C-1.34 3.67 -0.68 3.34 0 3 C0 2.01 0 1.02 0 0 Z " fill="#604F3A" transform="translate(149,102)"/>
<path d="M0 0 C1.32 0.33 2.64 0.66 4 1 C4.33 2.32 4.66 3.64 5 5 C5.99 5 6.98 5 8 5 C8.99 6.485 8.99 6.485 10 8 C7.69 8 5.38 8 3 8 C2.34 9.32 1.68 10.64 1 12 C-0.32 10.35 -1.64 8.7 -3 7 C-1.74821404 4.49642808 -0.00018842 2.93566621 2 1 C1.34 0.67 0.68 0.34 0 0 Z " fill="#E8D9C8" transform="translate(147,187)"/>
<path d="M0 0 C2.4375 0.1875 2.4375 0.1875 3.4375 1.1875 C3.67630597 8.70988806 3.67630597 8.70988806 2.4375 11.1875 C1.4475 11.1875 0.4575 11.1875 -0.5625 11.1875 C-0.5625 10.5275 -0.5625 9.8675 -0.5625 9.1875 C-1.325625 9.06375 -2.08875 8.94 -2.875 8.8125 C-5.5625 8.1875 -5.5625 8.1875 -8.5625 6.1875 C-8.2325 4.8675 -7.9025 3.5475 -7.5625 2.1875 C-7.2325 2.8475 -6.9025 3.5075 -6.5625 4.1875 C-5.5725 4.1875 -4.5825 4.1875 -3.5625 4.1875 C-3.5625 5.1775 -3.5625 6.1675 -3.5625 7.1875 C-1.9125 6.5275 -0.2625 5.8675 1.4375 5.1875 C1.4375 3.8675 1.4375 2.5475 1.4375 1.1875 C-0.5425 1.5175 -2.5225 1.8475 -4.5625 2.1875 C-2.5625 0.1875 -2.5625 0.1875 0 0 Z " fill="#544230" transform="translate(74.5625,98.8125)"/>
<path d="M0 0 C4.455 0.99 4.455 0.99 9 2 C9 1.34 9 0.68 9 0 C10.32 0.33 11.64 0.66 13 1 C12.01 1.495 12.01 1.495 11 2 C11 2.66 11 3.32 11 4 C11.66 4.33 12.32 4.66 13 5 C10.10765685 5.82638376 8.11257569 6 5 6 C5 5.01 5 4.02 5 3 C3.02 3.66 1.04 4.32 -1 5 C-0.67 3.35 -0.34 1.7 0 0 Z " fill="#F3E8D9" transform="translate(140,198)"/>
<path d="M0 0 C0.99 0.66 1.98 1.32 3 2 C2.67 2.66 2.34 3.32 2 4 C2.9590625 4.433125 2.9590625 4.433125 3.9375 4.875 C6 6 6 6 7 8 C6.01 8 5.02 8 4 8 C4 8.66 4 9.32 4 10 C3.01 10 2.02 10 1 10 C0.34 9.01 -0.32 8.02 -1 7 C-1.66 6.34 -2.32 5.68 -3 5 C-3 3.68 -3 2.36 -3 1 C-2.01 0.67 -1.02 0.34 0 0 Z " fill="#EADBC9" transform="translate(44,176)"/>
<path d="M0 0 C0.66 0.33 1.32 0.66 2 1 C1.67 1.99 1.34 2.98 1 4 C1.99 4 2.98 4 4 4 C4.33 3.34 4.66 2.68 5 2 C5.66 2.66 6.32 3.32 7 4 C5.70700306 6.88437779 4.34058637 8.87219421 2 11 C2.99 11.33 3.98 11.66 5 12 C4.01 12.495 4.01 12.495 3 13 C2.01 12.67 1.02 12.34 0 12 C-0.92844389 7.66726186 -0.92844389 4.33273814 0 0 Z " fill="#F7EEDD" transform="translate(25,172)"/>
<path d="M0 0 C2.1385485 2.1385485 2.42655063 3.13275314 3 6 C-0.82320557 7.42258812 -3.91281305 8.24042276 -8 8 C-7.67 6.68 -7.34 5.36 -7 4 C-3.535 3.505 -3.535 3.505 0 3 C0 2.01 0 1.02 0 0 Z " fill="#78644E" transform="translate(116,141)"/>
<path d="M0 0 C0.99 0.33 1.98 0.66 3 1 C3 1.99 3 2.98 3 4 C4.65 3.01 6.3 2.02 8 1 C8 2.98 8 4.96 8 7 C4.88228073 8.60339848 3.60988311 9.18974141 0.1875 8.125 C-0.534375 7.75375 -1.25625 7.3825 -2 7 C-1.67 6.030625 -1.34 5.06125 -1 4.0625 C0.05173363 1.37850426 0.05173363 1.37850426 0 0 Z " fill="#695742" transform="translate(145,109)"/>
<path d="M0 0 C2 3 2 3 2 5 C2.66 5.33 3.32 5.66 4 6 C4 5.34 4 4.68 4 4 C6.475 4.99 6.475 4.99 9 6 C7.68 7.32 6.36 8.64 5 10 C4.01 9.67 3.02 9.34 2 9 C1.34 9.66 0.68 10.32 0 11 C-1.125 3.375 -1.125 3.375 0 0 Z " fill="#F9F1E3" transform="translate(5,107)"/>
<path d="M0 0 C1.32 0 2.64 0 4 0 C4.103125 0.639375 4.20625 1.27875 4.3125 1.9375 C4.539375 2.618125 4.76625 3.29875 5 4 C5.99 4.33 6.98 4.66 8 5 C8.66 4.67 9.32 4.34 10 4 C9.34 5.32 8.68 6.64 8 8 C5.69 8 3.38 8 1 8 C0.375 6.1875 0.375 6.1875 0 4 C0.66 3.01 1.32 2.02 2 1 C1.34 0.67 0.68 0.34 0 0 Z " fill="#E7D8C6" transform="translate(30,167)"/>
<path d="M0 0 C2.475 0.99 2.475 0.99 5 2 C4.67 3.32 4.34 4.64 4 6 C1.03 5.67 -1.94 5.34 -5 5 C-4.67 4.01 -4.34 3.02 -4 2 C-3.34 1.67 -2.68 1.34 -2 1 C-1.34 1.33 -0.68 1.66 0 2 C0 1.34 0 0.68 0 0 Z " fill="#F2E7D8" transform="translate(30,156)"/>
<path d="M0 0 C0.66 0.33 1.32 0.66 2 1 C1.125 6.75 1.125 6.75 0 9 C-0.66 9 -1.32 9 -2 9 C-2 9.66 -2 10.32 -2 11 C-3.65 11.33 -5.3 11.66 -7 12 C-6.67 10.68 -6.34 9.36 -6 8 C-5.01 8 -4.02 8 -3 8 C-2.67 7.34 -2.34 6.68 -2 6 C-2.66 5.67 -3.32 5.34 -4 5 C-2.68 4.67 -1.36 4.34 0 4 C0 2.68 0 1.36 0 0 Z " fill="#F6EDDF" transform="translate(204,148)"/>
<path d="M0 0 C0.99 0.33 1.98 0.66 3 1 C2.67 2.65 2.34 4.3 2 6 C0.68 5.67 -0.64 5.34 -2 5 C-2.33 5.99 -2.66 6.98 -3 8 C-3.99 7.67 -4.98 7.34 -6 7 C-5.34 5.35 -4.68 3.7 -4 2 C-3.01 2.33 -2.02 2.66 -1 3 C-0.67 2.01 -0.34 1.02 0 0 Z " fill="#FEFBF3" transform="translate(107,7)"/>
<path d="M0 0 C0.66 0.33 1.32 0.66 2 1 C2.33 1.99 2.66 2.98 3 4 C3.99 4.33 4.98 4.66 6 5 C5.67 6.32 5.34 7.64 5 9 C2.5625 8.375 2.5625 8.375 0 7 C-0.875 3.9375 -0.875 3.9375 -1 1 C-0.67 0.67 -0.34 0.34 0 0 Z " fill="#F7EDDB" transform="translate(67,201)"/>
<path d="M0 0 C1.89213369 2.38573379 3.02391783 4.07175348 4 7 C2.576875 7.4640625 2.576875 7.4640625 1.125 7.9375 C-1.86080408 8.87394742 -1.86080408 8.87394742 -4 10 C-4 8.02 -4 6.04 -4 4 C-3.01 4 -2.02 4 -1 4 C-1 3.01 -1 2.02 -1 1 C-0.67 0.67 -0.34 0.34 0 0 Z " fill="#F4EADC" transform="translate(61,28)"/>
<path d="M0 0 C1.4540625 0.0309375 1.4540625 0.0309375 2.9375 0.0625 C3.2675 2.7025 3.5975 5.3425 3.9375 8.0625 C3.2775 7.7325 2.6175 7.4025 1.9375 7.0625 C1.9375 6.0725 1.9375 5.0825 1.9375 4.0625 C0.2875 4.3925 -1.3625 4.7225 -3.0625 5.0625 C-3.625 3.125 -3.625 3.125 -4.0625 1.0625 C-3.0625 0.0625 -3.0625 0.0625 0 0 Z " fill="#ECDDCB" transform="translate(176.0625,174.9375)"/>
<path d="M0 0 C1.65 0 3.3 0 5 0 C4.01 0.495 4.01 0.495 3 1 C2.67 1.99 2.34 2.98 2 4 C1.34 4 0.68 4 0 4 C-0.33 5.32 -0.66 6.64 -1 8 C-1.99 8 -2.98 8 -4 8 C-4.33 6.35 -4.66 4.7 -5 3 C-4.01 3.495 -4.01 3.495 -3 4 C-2.01 3.34 -1.02 2.68 0 2 C0 1.34 0 0.68 0 0 Z " fill="#FEFCE8" transform="translate(179,191)"/>
<path d="M0 0 C0.66 0 1.32 0 2 0 C2.33 1.65 2.66 3.3 3 5 C3.66 4.67 4.32 4.34 5 4 C4.67 4.99 4.34 5.98 4 7 C2.35 7 0.7 7 -1 7 C-1.625 4.625 -1.625 4.625 -2 2 C-1.34 1.34 -0.68 0.68 0 0 Z " fill="#F2E8DA" transform="translate(25,163)"/>
<path d="M0 0 C2.625 -0.1875 2.625 -0.1875 5 0 C5 1.65 5 3.3 5 5 C3.33333333 5 1.66666667 5 0 5 C-0.66 4.34 -1.32 3.68 -2 3 C-1.34 2.01 -0.68 1.02 0 0 Z " fill="#564431" transform="translate(122,134)"/>
<path d="M0 0 C1.32 0.66 2.64 1.32 4 2 C3.34 2 2.68 2 2 2 C2 3.32 2 4.64 2 6 C0.35 6.33 -1.3 6.66 -3 7 C-3 3 -3 3 -1.5 1.25 C-1.005 0.8375 -0.51 0.425 0 0 Z " fill="#F6EBDD" transform="translate(23,132)"/>
<path d="M0 0 C3.37462715 0.54723683 5.08235 1.0549 8 3 C8.51171875 5.1640625 8.51171875 5.1640625 8.6875 7.625 C8.78611328 8.85089844 8.78611328 8.85089844 8.88671875 10.1015625 C8.92410156 10.72804688 8.96148437 11.35453125 9 12 C8.34 11.67 7.68 11.34 7 11 C6.731875 9.88625 6.46375 8.7725 6.1875 7.625 C5.34996429 3.85859768 5.34996429 3.85859768 2.375 2.125 C1.59125 1.75375 0.8075 1.3825 0 1 C0 0.67 0 0.34 0 0 Z " fill="#FAF8F2" transform="translate(71,95)"/>
<path d="M0 0 C0.33 0.66 0.66 1.32 1 2 C1.99 1.67 2.98 1.34 4 1 C4.33 1.99 4.66 2.98 5 4 C4.360625 4.12375 3.72125 4.2475 3.0625 4.375 C2.0415625 4.684375 2.0415625 4.684375 1 5 C0.67 5.66 0.34 6.32 0 7 C-0.33 6.01 -0.66 5.02 -1 4 C-1.99 3.67 -2.98 3.34 -4 3 C-3.01 3 -2.02 3 -1 3 C-0.67 2.01 -0.34 1.02 0 0 Z " fill="#F4E9D9" transform="translate(177,51)"/>
<path d="M0 0 C0.66 0.33 1.32 0.66 2 1 C2 1.66 2 2.32 2 3 C3.65 3 5.3 3 7 3 C7 4.32 7 5.64 7 7 C6.38125 6.814375 5.7625 6.62875 5.125 6.4375 C2.95839822 5.76313824 2.95839822 5.76313824 1 7 C1 6.01 1 5.02 1 4 C0.34 4 -0.32 4 -1 4 C-0.67 2.68 -0.34 1.36 0 0 Z " fill="#EBDDCB" transform="translate(110,198)"/>
<path d="M0 0 C3 1 3 1 5 2.5625 C6.99550643 4.29181802 6.99550643 4.29181802 10 4 C10.33 5.65 10.66 7.3 11 9 C10.01 8.34 9.02 7.68 8 7 C7.01 7.495 7.01 7.495 6 8 C5.34 7.01 4.68 6.02 4 5 C3.01 4.67 2.02 4.34 1 4 C0.3125 1.9375 0.3125 1.9375 0 0 Z " fill="#FEFEF1" transform="translate(25,184)"/>
<path d="M0 0 C0.33 1.32 0.66 2.64 1 4 C0.01 4.33 -0.98 4.66 -2 5 C-2.33 5.66 -2.66 6.32 -3 7 C-6.875 5.25 -6.875 5.25 -8 3 C-5.36 2.67 -2.72 2.34 0 2 C0 1.34 0 0.68 0 0 Z " fill="#F4EBDD" transform="translate(160,193)"/>
<path d="M0 0 C0.99 0.99 1.98 1.98 3 3 C2.21448343 4.31618998 1.4213763 5.62785228 0.625 6.9375 C0.18414062 7.66839844 -0.25671875 8.39929688 -0.7109375 9.15234375 C-2 11 -2 11 -4 12 C-3.67 10.35 -3.34 8.7 -3 7 C-2.34 7 -1.68 7 -1 7 C-0.67 4.69 -0.34 2.38 0 0 Z " fill="#F9F7EF" transform="translate(127,134)"/>
<path d="M0 0 C2.375 0.1875 2.375 0.1875 5 1 C6.375 3.4375 6.375 3.4375 7 6 C6.67 6.66 6.34 7.32 6 8 C5.01 7.67 4.02 7.34 3 7 C2.67 6.01 2.34 5.02 2 4 C2.33 3.67 2.66 3.34 3 3 C2.01 2.01 1.02 1.02 0 0 Z " fill="#7E6B56" transform="translate(96,138)"/>
<path d="M0 0 C1.485 0.99 1.485 0.99 3 2 C2.814375 2.61875 2.62875 3.2375 2.4375 3.875 C1.76313824 6.04160178 1.76313824 6.04160178 3 8 C2.67 8.66 2.34 9.32 2 10 C1.01 10 0.02 10 -1 10 C-0.67 6.7 -0.34 3.4 0 0 Z " fill="#F6EEDF" transform="translate(13,136)"/>
<path d="M0 0 C2.0625 0.4375 2.0625 0.4375 4 1 C4 1.99 4 2.98 4 4 C3.01 4 2.02 4 1 4 C0.67 5.32 0.34 6.64 0 8 C-1 7 -1 7 -1.125 4 C-1 1 -1 1 0 0 Z " fill="#64513C" transform="translate(92,133)"/>
<path d="M0 0 C0.66 0.66 1.32 1.32 2 2 C2.99 2 3.98 2 5 2 C5 2.99 5 3.98 5 5 C6.32 4.67 7.64 4.34 9 4 C9.33 4.66 9.66 5.32 10 6 C6.75691762 7.01925446 5.37302767 7.15750057 2.1875 5.8125 C1.465625 5.214375 0.74375 4.61625 0 4 C0 2.68 0 1.36 0 0 Z " fill="#5D4C38" transform="translate(66,101)"/>
<path d="M0 0 C0.66 0 1.32 0 2 0 C2.33 0.66 2.66 1.32 3 2 C3.66 1.67 4.32 1.34 5 1 C5.33 1.99 5.66 2.98 6 4 C4.0625 6.6875 4.0625 6.6875 2 9 C1.34 6.03 0.68 3.06 0 0 Z " fill="#F4E9D9" transform="translate(123,202)"/>
<path d="M0 0 C2.97 0.495 2.97 0.495 6 1 C5.67 1.99 5.34 2.98 5 4 C2.4375 5.1875 2.4375 5.1875 0 6 C-1.125 2.25 -1.125 2.25 0 0 Z " fill="#F9EFDC" transform="translate(58,201)"/>
<path d="M0 0 C0.99 0.99 1.98 1.98 3 3 C0.87219421 5.34058637 -1.11562221 6.70700306 -4 8 C-2.66666667 5.33333333 -1.33333333 2.66666667 0 0 Z M4 1 C4.33 1.66 4.66 2.32 5 3 C4.34 2.67 3.68 2.34 3 2 C3.33 1.67 3.66 1.34 4 1 Z " fill="#F8F0E4" transform="translate(198,161)"/>
<path d="M0 0 C1.65 0 3.3 0 5 0 C4.34 1.65 3.68 3.3 3 5 C1.35 5 -0.3 5 -2 5 C-1.34 3.35 -0.68 1.7 0 0 Z " fill="#5C4C39" transform="translate(68,110)"/>
<path d="M0 0 C0.33 0.99 0.66 1.98 1 3 C1.66 3 2.32 3 3 3 C2.67 5.64 2.34 8.28 2 11 C1.34 11 0.68 11 0 11 C0 7.37 0 3.74 0 0 Z " fill="#665542" transform="translate(65,102)"/>
<path d="M0 0 C-0.33 0.99 -0.66 1.98 -1 3 C-3.64 3.33 -6.28 3.66 -9 4 C-8.67 3.01 -8.34 2.02 -8 1 C-5.29120665 -0.35439668 -2.99066732 -0.06501451 0 0 Z " fill="#FEF8EA" transform="translate(167,202)"/>
<path d="M0 0 C0.99 0 1.98 0 3 0 C3.99 2.97 4.98 5.94 6 9 C5.01 9.33 4.02 9.66 3 10 C2.92652344 9.04287109 2.92652344 9.04287109 2.8515625 8.06640625 C2.77679688 7.24011719 2.70203125 6.41382813 2.625 5.5625 C2.55539063 4.73878906 2.48578125 3.91507813 2.4140625 3.06640625 C2.27742187 2.38449219 2.14078125 1.70257813 2 1 C1.34 0.67 0.68 0.34 0 0 Z " fill="#F3E8D9" transform="translate(132,198)"/>
<path d="M0 0 C0.66 0 1.32 0 2 0 C2 0.99 2 1.98 2 3 C2.66 3 3.32 3 4 3 C4 3.66 4 4.32 4 5 C4.66 5.33 5.32 5.66 6 6 C5.67 6.66 5.34 7.32 5 8 C3.68 8 2.36 8 1 8 C0.67 5.36 0.34 2.72 0 0 Z " fill="#81705A" transform="translate(151,101)"/>
<path d="M0 0 C0.33 0.66 0.66 1.32 1 2 C0.34 2 -0.32 2 -1 2 C-1 2.99 -1 3.98 -1 5 C-2.65 5.33 -4.3 5.66 -6 6 C-5.67 4.35 -5.34 2.7 -5 1 C-3.35 0.67 -1.7 0.34 0 0 Z " fill="#F4ECDD" transform="translate(165,41)"/>
<path d="M0 0 C0 0.66 0 1.32 0 2 C0.66 2 1.32 2 2 2 C2 2.66 2 3.32 2 4 C1.34 4 0.68 4 0 4 C0 4.66 0 5.32 0 6 C-2.21736634 4.89131683 -4.03617993 3.50559539 -6 2 C-3 0 -3 0 0 0 Z " fill="#E6D5C3" transform="translate(162,186)"/>
<path d="M0 0 C0.33 0.66 0.66 1.32 1 2 C1.66 2.33 2.32 2.66 3 3 C2.67 3.99 2.34 4.98 2 6 C-0.0625 6.6875 -0.0625 6.6875 -2 7 C-2 6.34 -2 5.68 -2 5 C-2.66 4.67 -3.32 4.34 -4 4 C-2.68 2.68 -1.36 1.36 0 0 Z " fill="#796753" transform="translate(72,111)"/>
<path d="M0 0 C0.66 0 1.32 0 2 0 C2 0.66 2 1.32 2 2 C3.32 2.66 4.64 3.32 6 4 C4.02 4.99 4.02 4.99 2 6 C1.01 4.68 0.02 3.36 -1 2 C-0.67 1.34 -0.34 0.68 0 0 Z " fill="#EFE1D1" transform="translate(86,196)"/>
<path d="M0 0 C0.99 0.33 1.98 0.66 3 1 C2.01 1.33 1.02 1.66 0 2 C0.33 3.98 0.66 5.96 1 8 C0.01 7.67 -0.98 7.34 -2 7 C-2.875 5.125 -2.875 5.125 -3 3 C-1.5625 1.25 -1.5625 1.25 0 0 Z " fill="#F3E8D9" transform="translate(21,160)"/>
<path d="M0 0 C0.99 0.33 1.98 0.66 3 1 C3.33 3.31 3.66 5.62 4 8 C1.47735539 6.73867769 0.47347113 5.38561992 -1 3 C-0.67 2.01 -0.34 1.02 0 0 Z " fill="#FFFFFF" transform="translate(186,39)"/>
<path d="M0 0 C1.65 0.33 3.3 0.66 5 1 C5 1.66 5 2.32 5 3 C4.01 3.33 3.02 3.66 2 4 C1.67 4.66 1.34 5.32 1 6 C0.34 5.67 -0.32 5.34 -1 5 C-0.67 3.35 -0.34 1.7 0 0 Z " fill="#F0E5D5" transform="translate(63,188)"/>
<path d="M0 0 C0.66 0 1.32 0 2 0 C2 0.66 2 1.32 2 2 C3.65 1.67 5.3 1.34 7 1 C6.01 1.495 6.01 1.495 5 2 C5 2.66 5 3.32 5 4 C3.35 4 1.7 4 0 4 C0 2.68 0 1.36 0 0 Z " fill="#FCF8EE" transform="translate(31,179)"/>
<path d="M0 0 C0.66 0.99 1.32 1.98 2 3 C1.67 3.99 1.34 4.98 1 6 C-0.32 6 -1.64 6 -3 6 C-1.125 1.125 -1.125 1.125 0 0 Z " fill="#E8D9C8" transform="translate(189,169)"/>
<path d="M0 0 C1.5 1.25 1.5 1.25 3 3 C3 4.32 3 5.64 3 7 C2.01 7 1.02 7 0 7 C-0.38133299 5.0085944 -0.71325582 3.00720923 -1 1 C-0.67 0.67 -0.34 0.34 0 0 Z M-3 2 C-1 3 -1 3 -1 3 Z " fill="#F3E8D9" transform="translate(203,101)"/>
<path d="M0 0 C-1.65 1.32 -3.3 2.64 -5 4 C-5.66 2.68 -6.32 1.36 -7 0 C-4.3333581 -1.33332095 -2.83319697 -0.67102033 0 0 Z " fill="#F9F2E5" transform="translate(24,72)"/>
<path d="M0 0 C0.5534764 2.07553648 1 3.84365964 1 6 C0.01 6 -0.98 6 -2 6 C-2.66 4.35 -3.32 2.7 -4 1 C-2.68 0.67 -1.36 0.34 0 0 Z " fill="#F5EBDC" transform="translate(153,27)"/>
<path d="M0 0 C1.0625 1.875 1.0625 1.875 2 4 C1.67 4.66 1.34 5.32 1 6 C-0.98 5.34 -2.96 4.68 -5 4 C-4.67 3.34 -4.34 2.68 -4 2 C-3.34 2.33 -2.68 2.66 -2 3 C-1.34 2.01 -0.68 1.02 0 0 Z " fill="#FFFFFC" transform="translate(157,16)"/>
<path d="M0 0 C1.33333333 0 2.66666667 0 4 0 C4 1.65 4 3.3 4 5 C2.68 5 1.36 5 0 5 C-0.5625 3.0625 -0.5625 3.0625 -1 1 C-0.67 0.67 -0.34 0.34 0 0 Z " fill="#FEFCF3" transform="translate(114,10)"/>
<path d="M0 0 C0.66 0.33 1.32 0.66 2 1 C2 1.99 2 2.98 2 4 C2.66 4 3.32 4 4 4 C4 4.66 4 5.32 4 6 C1.03 5.505 1.03 5.505 -2 5 C-1.34 3.35 -0.68 1.7 0 0 Z " fill="#EEE1D1" transform="translate(119,193)"/>
<path d="M0 0 C1.32 0.66 2.64 1.32 4 2 C3.67 2.99 3.34 3.98 3 5 C2.01 5 1.02 5 0 5 C-0.5625 3.0625 -0.5625 3.0625 -1 1 C-0.67 0.67 -0.34 0.34 0 0 Z " fill="#EFE2D2" transform="translate(59,183)"/>
<path d="M0 0 C0 0.99 0 1.98 0 3 C-4.75 4.125 -4.75 4.125 -7 3 C-6.67 2.34 -6.34 1.68 -6 1 C-4.7934375 1.0309375 -4.7934375 1.0309375 -3.5625 1.0625 C-1.06645115 1.29633621 -1.06645115 1.29633621 0 0 Z " fill="#ECDECE" transform="translate(39,171)"/>
<path d="M0 0 C0.66 0 1.32 0 2 0 C2.33 1.65 2.66 3.3 3 5 C1.35 5 -0.3 5 -2 5 C-1.125 1.125 -1.125 1.125 0 0 Z " fill="#897661" transform="translate(104,144)"/>
<path d="M0 0 C2.1385485 2.1385485 2.42655063 3.13275314 3 6 C-0.37462715 5.45276317 -2.08235 4.9451 -5 3 C-3.35 3 -1.7 3 0 3 C0 2.01 0 1.02 0 0 Z " fill="#89755E" transform="translate(116,141)"/>
<path d="M0 0 C0.33 0.66 0.66 1.32 1 2 C3.02463255 2.65213292 3.02463255 2.65213292 5 3 C4.34 3.66 3.68 4.32 3 5 C1.68 5 0.36 5 -1 5 C-0.67 3.35 -0.34 1.7 0 0 Z " fill="#F9E6D8" transform="translate(36,135)"/>
<path d="M0 0 C1 3 1 3 0 6 C-2.62901288 4.47793991 -4.84365964 3.15634036 -7 1 C-5.5459375 1.0309375 -5.5459375 1.0309375 -4.0625 1.0625 C-1.12534105 1.35618499 -1.12534105 1.35618499 0 0 Z " fill="#FFFFFD" transform="translate(181,33)"/>
<path d="M0 0 C0.66 0.66 1.32 1.32 2 2 C1.01 1.67 0.02 1.34 -1 1 C-0.67 0.67 -0.34 0.34 0 0 Z " fill="#FFFFFF" transform="translate(39,33)"/>
<path d="M0 0 C0.66 0.66 1.32 1.32 2 2 C1.34 2 0.68 2 0 2 C0 1.34 0 0.68 0 0 Z " fill="#FFFFFF" transform="translate(10,164)"/>
<path d="M0 0 C2 1 2 1 2 1 Z " fill="#FFFFFF" transform="translate(72,214)"/>
<path d="M0 0 C2 1 2 1 2 1 Z " fill="#FFFFFF" transform="translate(170,205)"/>
<path d="" fill="#FFFFFF" transform="translate(0,0)"/>
<path d="M0 0 C2 1 2 1 2 1 Z " fill="#FFFFFF" transform="translate(188,190)"/>
<path d="M0 0 C2 1 2 1 2 1 Z " fill="#FFFFFF" transform="translate(202,173)"/>
<path d="" fill="#FFFFFF" transform="translate(0,0)"/>
<path d="M0 0 C2 1 2 1 2 1 Z " fill="#FFFFFF" transform="translate(196,51)"/>
<path d="M0 0 C2 1 2 1 2 1 Z " fill="#FFFFFF" transform="translate(179,32)"/>
<path d="M0 0 C2 1 2 1 2 1 Z " fill="#FFFFFF" transform="translate(176,31)"/>
<path d="M0 0 C2 1 2 1 2 1 Z " fill="#FFFFFF" transform="translate(153,16)"/>
<path d="" fill="#FFFFFF" transform="translate(0,0)"/>
<path d="" fill="#FFFFFF" transform="translate(0,0)"/>
<path d="M0 0 C2 1 2 1 2 1 Z " fill="#FFFFFF" transform="translate(104,7)"/>
<path d="" fill="#FFFFFF" transform="translate(0,0)"/>
<path d="" fill="#FFFFFF" transform="translate(0,0)"/>
<path d="" fill="#FFFFFF" transform="translate(0,0)"/>
<path d="" fill="#FFFFFF" transform="translate(0,0)"/>
<path d="" fill="#FFFFFF" transform="translate(0,0)"/>
<path d="" fill="#FFFFBF" transform="translate(0,0)"/>
<path d="" fill="#FFFFFF" transform="translate(0,0)"/>
<path d="" fill="#FFFFFF" transform="translate(0,0)"/>
<path d="" fill="#FFFFFF" transform="translate(0,0)"/>
<path d="" fill="#FFFFFF" transform="translate(0,0)"/>
<path d="" fill="#FFFFFF" transform="translate(0,0)"/>
<path d="" fill="#FFFFFF" transform="translate(0,0)"/>
<path d="" fill="#FFFFFF" transform="translate(0,0)"/>
<path d="" fill="#FFFFFF" transform="translate(0,0)"/>
<path d="" fill="#FFFFFF" transform="translate(0,0)"/>
<path d="" fill="#FFFFFF" transform="translate(0,0)"/>
<path d="" fill="#FFFFFF" transform="translate(0,0)"/>
<path d="" fill="#FFFFFF" transform="translate(0,0)"/>
<path d="" fill="#FFFFFF" transform="translate(0,0)"/>
<path d="" fill="#FFFFFF" transform="translate(0,0)"/>
<path d="" fill="#FFFFFF" transform="translate(0,0)"/>
<path d="" fill="#FFFFFF" transform="translate(0,0)"/>
<path d="" fill="#FFFFFF" transform="translate(0,0)"/>
<path d="" fill="#FFFFFF" transform="translate(0,0)"/>
<path d="" fill="#FFFFFF" transform="translate(0,0)"/>
<path d="" fill="#FFFFFF" transform="translate(0,0)"/>
<path d="" fill="#FFFFCC" transform="translate(0,0)"/>
<path d="" fill="#FFFFFF" transform="translate(0,0)"/>
<path d="" fill="#FFFFFF" transform="translate(0,0)"/>
<path d="" fill="#FFFFFF" transform="translate(0,0)"/>
<path d="" fill="#FFFFFF" transform="translate(0,0)"/>
<path d="" fill="#FFFFFF" transform="translate(0,0)"/>
<path d="" fill="#FFFFFF" transform="translate(0,0)"/>
<path d="" fill="#FFFFFF" transform="translate(0,0)"/>
<path d="" fill="#FFFFFF" transform="translate(0,0)"/>
<path d="" fill="#FFFFFF" transform="translate(0,0)"/>
<path d="" fill="#FFFFFF" transform="translate(0,0)"/>
<path d="" fill="#FFFFFF" transform="translate(0,0)"/>
<path d="" fill="#FFFFFF" transform="translate(0,0)"/>
<path d="" fill="#FFFFFF" transform="translate(0,0)"/>
<path d="" fill="#FFFFFF" transform="translate(0,0)"/>
<path d="" fill="#FFFFFF" transform="translate(0,0)"/>
<path d="" fill="#FFFFFF" transform="translate(0,0)"/>
<path d="" fill="#FFFFFF" transform="translate(0,0)"/>
<path d="" fill="#FFFFFF" transform="translate(0,0)"/>
<path d="" fill="#FFFFFF" transform="translate(0,0)"/>
<path d="" fill="#FFFFFF" transform="translate(0,0)"/>
<path d="" fill="#FFFFFF" transform="translate(0,0)"/>
<path d="" fill="#FFFFFF" transform="translate(0,0)"/>
<path d="" fill="#FFFFFF" transform="translate(0,0)"/>
<path d="" fill="#FFFFFF" transform="translate(0,0)"/>
<path d="" fill="#FFFFFF" transform="translate(0,0)"/>
<path d="" fill="#FFFFFF" transform="translate(0,0)"/>
<path d="" fill="#FFFFFF" transform="translate(0,0)"/>
<path d="" fill="#FFFFFF" transform="translate(0,0)"/>
<path d="" fill="#FFFFFF" transform="translate(0,0)"/>
<path d="" fill="#FFFFFF" transform="translate(0,0)"/>
<path d="" fill="#FFFFFF" transform="translate(0,0)"/>
<path d="" fill="#FFFFFF" transform="translate(0,0)"/>
<path d="" fill="#FFFFFF" transform="translate(0,0)"/>
<path d="" fill="#FFFFFF" transform="translate(0,0)"/>
<path d="" fill="#FFFFFF" transform="translate(0,0)"/>
<path d="" fill="#FFFFFF" transform="translate(0,0)"/>
<path d="" fill="#FFFFFF" transform="translate(0,0)"/>
<path d="" fill="#FFFFFF" transform="translate(0,0)"/>
<path d="" fill="#FFFFFF" transform="translate(0,0)"/>
<path d="" fill="#FFFFFF" transform="translate(0,0)"/>
<path d="" fill="#FFFFFF" transform="translate(0,0)"/>
<path d="" fill="#FFFFFF" transform="translate(0,0)"/>
<path d="" fill="#FFFFFF" transform="translate(0,0)"/>
<path d="" fill="#FFFFFF" transform="translate(0,0)"/>
<path d="" fill="#FFFFFF" transform="translate(0,0)"/>
<path d="" fill="#FFFFFF" transform="translate(0,0)"/>
<path d="" fill="#FFFFFF" transform="translate(0,0)"/>
<path d="" fill="#FFFFFF" transform="translate(0,0)"/>
<path d="" fill="#FFFFFF" transform="translate(0,0)"/>
<path d="" fill="#FFFFFF" transform="translate(0,0)"/>
<path d="" fill="#FFFFFF" transform="translate(0,0)"/>
<path d="" fill="#FFFFFF" transform="translate(0,0)"/>
<path d="" fill="#FFFFFF" transform="translate(0,0)"/>
<path d="" fill="#FFFFFF" transform="translate(0,0)"/>
<path d="" fill="#FFFFFF" transform="translate(0,0)"/>
<path d="" fill="#FFFFFF" transform="translate(0,0)"/>
<path d="" fill="#FFFFFF" transform="translate(0,0)"/>
<path d="" fill="#FFFFFF" transform="translate(0,0)"/>
<path d="" fill="#FFFFFF" transform="translate(0,0)"/>
<path d="" fill="#FFFFFF" transform="translate(0,0)"/>
<path d="" fill="#FFFFFF" transform="translate(0,0)"/>
<path d="" fill="#FFFFFF" transform="translate(0,0)"/>
<path d="" fill="#FFFFFF" transform="translate(0,0)"/>
<path d="" fill="#FFFFFF" transform="translate(0,0)"/>
<path d="" fill="#FFFFFF" transform="translate(0,0)"/>
<path d="" fill="#FFFFFF" transform="translate(0,0)"/>
<path d="" fill="#FFFFFF" transform="translate(0,0)"/>
<path d="" fill="#FFFFFF" transform="translate(0,0)"/>
<path d="" fill="#FFFFFF" transform="translate(0,0)"/>
<path d="" fill="#FFFFFF" transform="translate(0,0)"/>
<path d="" fill="#FFFFFF" transform="translate(0,0)"/>
<path d="" fill="#FFFFFF" transform="translate(0,0)"/>
<path d="" fill="#FFFFFF" transform="translate(0,0)"/>
<path d="" fill="#FFFFFF" transform="translate(0,0)"/>
<path d="" fill="#FFFFFF" transform="translate(0,0)"/>
<path d="" fill="#FFFFFF" transform="translate(0,0)"/>
<path d="" fill="#FFFFFF" transform="translate(0,0)"/>
<path d="" fill="#FFFFFF" transform="translate(0,0)"/>
<path d="" fill="#FFFFFF" transform="translate(0,0)"/>
<path d="" fill="#FFFFFF" transform="translate(0,0)"/>
<path d="" fill="#FFFFFF" transform="translate(0,0)"/>
<path d="" fill="#FFFFFF" transform="translate(0,0)"/>
<path d="" fill="#FFFFFF" transform="translate(0,0)"/>
<path d="" fill="#FFFFFF" transform="translate(0,0)"/>
<path d="" fill="#FFFFFF" transform="translate(0,0)"/>
<path d="" fill="#FFFFFF" transform="translate(0,0)"/>
<path d="" fill="#FFFFFF" transform="translate(0,0)"/>
<path d="" fill="#FFFFFF" transform="translate(0,0)"/>
<path d="" fill="#FFFFFF" transform="translate(0,0)"/>
</svg>
