<?xml version="1.0" encoding="UTF-8"?>
<svg version="1.1" xmlns="http://www.w3.org/2000/svg" width="220" height="220">
<path d="M0 0 C5.41538462 -0.36923077 5.41538462 -0.36923077 8.375 1.5 C8.91125 1.995 9.4475 2.49 10 3 C10.33 2.01 10.66 1.02 11 0 C11 0.66 11 1.32 11 2 C12.65 2.33 14.3 2.66 16 3 C16.33 2.01 16.66 1.02 17 0 C19 1 19 1 22 3 C22.66 2.67 23.32 2.34 24 2 C24 2.66 24 3.32 24 4 C24.99 4 25.98 4 27 4 C27.33 3.34 27.66 2.68 28 2 C28.99 2.66 29.98 3.32 31 4 C31.33 3.01 31.66 2.02 32 1 C32.495 1.99 32.495 1.99 33 3 C33.7425 2.979375 34.485 2.95875 35.25 2.9375 C37.70462279 2.99328688 39.66109261 3.3069904 42 4 C42 4.66 42 5.32 42 6 C43.98 5.34 45.96 4.68 48 4 C48 4.99 48 5.98 48 7 C49.98 7 51.96 7 54 7 C54 7.99 54 8.98 54 10 C55.98 9.67 57.96 9.34 60 9 C60 9.66 60 10.32 60 11 C60.99 11.12375 60.99 11.12375 62 11.25 C64.71067897 11.92766974 66.56608261 12.75795716 69 14.0625 C71.65934463 15.47480732 72.73872866 16.00580603 75.8125 15.9375 C76.534375 15.958125 77.25625 15.97875 78 16 C79.01351664 17.65848177 80.01120795 19.32665961 81 21 C82.67194914 22.12322023 82.67194914 22.12322023 84.5625 23.0625 C87.89775095 24.94236872 88.83769339 25.51308018 90 29 C90.33 29.66 90.66 30.32 91 31 C91.61875 31.0825 92.2375 31.165 92.875 31.25 C96.12366889 32.39658902 96.50129006 35.00258012 98 38 C99.65261839 39.02304948 101.31791365 40.02616054 103 41 C103.625 42.875 103.625 42.875 104 45 C104.9601817 46.68991979 105.95355934 48.36209288 107 50 C107.33 49.34 107.66 48.68 108 48 C108.66 48.33 109.32 48.66 110 49 C110.37086181 50.99338221 110.69737711 52.99512332 111 55 C112.10903794 58.96084977 113.33678068 61.85255899 116 65 C116.66 64.67 117.32 64.34 118 64 C118.98559905 68.06559609 119 71.83012531 119 76 C119.44367588 78.95783923 120.19152747 81.630914 121.0625 84.5 C121.88202408 87.55955656 122.18973675 89.86934356 122 93 C122.99 93.33 123.98 93.66 125 94 C124.34 94.99 123.68 95.98 123 97 C122.66661404 100.54187831 122.66661404 100.54187831 123 104 C123.66 104.66 124.32 105.32 125 106 C124.6640625 107.81640625 124.6640625 107.81640625 124 110 C122.87557765 117.53829373 122.87557765 117.53829373 124 125 C123.34 125 122.68 125 122 125 C121.87882813 125.74765625 121.75765625 126.4953125 121.6328125 127.265625 C121.38144531 128.74289063 121.38144531 128.74289063 121.125 130.25 C120.88136719 131.71179688 120.88136719 131.71179688 120.6328125 133.203125 C120.04854152 135.78545845 119.17153469 137.65693062 118 140 C118.30378052 142.68993053 118.30378052 142.68993053 119 145 C118.01 145 117.02 145 116 145 C115.67 145.66 115.34 146.32 115 147 C114.34 147.99 113.68 148.98 113 150 C112.64587656 151.32796291 112.31478446 152.66216607 112 154 C110.59684462 157.80856461 108.84777218 161.38844529 107 165 C106.34 165 105.68 165 105 165 C104.938125 165.556875 104.87625 166.11375 104.8125 166.6875 C103.67629251 169.92132131 101.40160569 171.59839431 99 174 C98.13880866 176.17346568 98.13880866 176.17346568 98 178 C96.35 178.33 94.7 178.66 93 179 C92.67 179.99 92.34 180.98 92 182 C90.35178756 183.03013277 88.68496298 184.03114628 87 185 C86.67 185.66 86.34 186.32 86 187 C85.34 187 84.68 187 84 187 C83.67 187.66 83.34 188.32 83 189 C82.01 189 81.02 189 80 189 C79.67 189.66 79.34 190.32 79 191 C78.01 191 77.02 191 76 191 C75.01 191.66 74.02 192.32 73 193 C72.01 193 71.02 193 70 193 C69.8453125 193.8971875 69.8453125 193.8971875 69.6875 194.8125 C68.86619675 197.42573762 68.17931115 198.34672947 66 200 C63.30078125 200.29296875 63.30078125 200.29296875 60.3125 200.1875 C59.31863281 200.16042969 58.32476562 200.13335937 57.30078125 200.10546875 C56.54152344 200.07066406 55.78226563 200.03585938 55 200 C54.67 201.32 54.34 202.64 54 204 C52.74703125 203.96519531 51.4940625 203.93039063 50.203125 203.89453125 C48.55209676 203.86638872 46.90105399 203.83908906 45.25 203.8125 C44.425 203.78736328 43.6 203.76222656 42.75 203.73632812 C37.85661679 203.64179025 37.85661679 203.64179025 33.421875 205.51171875 C32.95265625 206.00285156 32.4834375 206.49398437 32 207 C31.34 206.67 30.68 206.34 30 206 C30 205.34 30 204.68 30 204 C29.278125 204.165 28.55625 204.33 27.8125 204.5 C25.13572455 204.97587119 22.71050513 205.077443 20 205 C20 205.99 20 206.98 20 208 C19.34 207.67 18.68 207.34 18 207 C17.34 206.835 16.68 206.67 16 206.5 C14 206 14 206 12 205 C11.67 205.99 11.34 206.98 11 208 C8 206 8 206 7 205 C6.67 205.99 6.34 206.98 6 208 C5.21625 207.814375 4.4325 207.62875 3.625 207.4375 C1.02910225 206.74037734 1.02910225 206.74037734 -1 208 C-1.391875 207.525625 -1.78375 207.05125 -2.1875 206.5625 C-6.07861977 203.2080864 -11.10668646 203.90405268 -16 204 C-16.33 204.66 -16.66 205.32 -17 206 C-17.33 205.01 -17.66 204.02 -18 203 C-18.86625 202.87625 -19.7325 202.7525 -20.625 202.625 C-24 202 -24 202 -27 200.9375 C-30.16419683 199.94868849 -32.70642473 199.84316308 -36 200 C-35.67 199.34 -35.34 198.68 -35 198 C-35.99 198 -36.98 198 -38 198 C-39.01405257 196.67732273 -40.01268258 195.34275169 -41 194 C-43.43631507 192.37578995 -44.67315176 191.9922179 -47.625 192.0625 C-48.40875 192.041875 -49.1925 192.02125 -50 192 C-50.66 191.01 -51.32 190.02 -52 189 C-53.99330842 187.65668346 -55.99384866 186.32405988 -58 185 C-59.37086915 183.70529025 -60.71340837 182.37849103 -62 181 C-62.66 180.34 -63.32 179.68 -64 179 C-63.67 178.67 -63.34 178.34 -63 178 C-63.639375 177.54625 -64.27875 177.0925 -64.9375 176.625 C-67 175 -67 175 -68 173 C-68.99 172.67 -69.98 172.34 -71 172 C-73 170 -73 170 -73.9375 166.6875 C-74.92202113 163.27063256 -76.18235102 161.00307223 -78 158 C-78.34060811 156.33480481 -78.67558396 154.66842534 -79 153 C-79.66 152.67 -80.32 152.34 -81 152 C-81.309375 151.05125 -81.61875 150.1025 -81.9375 149.125 C-82.94794567 146.15310098 -83.62997461 144.93911169 -86 143 C-85.505 142.01 -85.505 142.01 -85 141 C-85.7763932 137.9254644 -85.7763932 137.9254644 -88 136 C-88.6875 134 -88.6875 134 -89 132 C-88.505 131.01 -88.505 131.01 -88 130 C-88.4578404 127.94625877 -89.08901509 125.97856169 -89.72265625 123.97265625 C-90 122 -90 122 -88 119 C-88.33 118.67 -88.66 118.34 -89 118 C-89.33 117.01 -89.66 116.02 -90 115 C-90.33 114.67 -90.66 114.34 -91 114 C-91 113.34 -91 112.68 -91 112 C-90.34 112 -89.68 112 -89 112 C-89.20625 111.2575 -89.4125 110.515 -89.625 109.75 C-90.05697922 106.58215237 -89.41722453 105.74587253 -88 103 C-88.40929986 100.94603274 -88.40929986 100.94603274 -89 99 C-88.67 98.01 -88.34 97.02 -88 96 C-87.81304349 94.64073848 -87.66129756 93.27640403 -87.53515625 91.91015625 C-87.41817383 90.73356445 -87.41817383 90.73356445 -87.29882812 89.53320312 C-87.14168135 87.89030507 -86.98801673 86.24707009 -86.83789062 84.60351562 C-86.75861328 83.81783203 -86.67933594 83.03214844 -86.59765625 82.22265625 C-86.49723022 81.15156616 -86.49723022 81.15156616 -86.39477539 80.05883789 C-85.95600634 77.77056367 -85.1254721 76.02973171 -84 74 C-83.67 74 -83.34 74 -83 74 C-82.34 72.35 -81.68 70.7 -81 69 C-80.34 69 -79.68 69 -79 69 C-79.556875 67.453125 -79.556875 67.453125 -80.125 65.875 C-81.07536506 61.66624045 -80.70269571 59.87836244 -79 56 C-77.68 56.33 -76.36 56.66 -75 57 C-75 56.34 -75 55.68 -75 55 C-74.34 55 -73.68 55 -73 55 C-73.495 52.525 -73.495 52.525 -74 50 C-73.01 49.34 -72.02 48.68 -71 48 C-71.33 47.34 -71.66 46.68 -72 46 C-72 45.01 -72 44.02 -72 43 C-69.525 42.505 -69.525 42.505 -67 42 C-68.485 41.505 -68.485 41.505 -70 41 C-69.401875 40.731875 -68.80375 40.46375 -68.1875 40.1875 C-65.98261439 39.12465855 -65.98261439 39.12465855 -64.5 37.5 C-62.81466827 35.81466827 -61.16231155 34.96931207 -59 34 C-59 33.34 -59 32.68 -59 32 C-58.34 32 -57.68 32 -57 32 C-57 29.36 -57 26.72 -57 24 C-55.68 24 -54.36 24 -53 24 C-53 24.99 -53 25.98 -53 27 C-52.34 27.33 -51.68 27.66 -51 28 C-51.495 26.515 -51.495 26.515 -52 25 C-47.25 22 -47.25 22 -45 22 C-42.65130253 20.02709413 -41.99897713 18.99693138 -41 16 C-38.36 15.67 -35.72 15.34 -33 15 C-32.67 13.68 -32.34 12.36 -32 11 C-31.34 11 -30.68 11 -30 11 C-30 10.34 -30 9.68 -30 9 C-30.66 8.67 -31.32 8.34 -32 8 C-30.35 8 -28.7 8 -27 8 C-27 8.66 -27 9.32 -27 10 C-25.68 10 -24.36 10 -23 10 C-23 9.34 -23 8.68 -23 8 C-22.12988281 7.92652344 -22.12988281 7.92652344 -21.2421875 7.8515625 C-16.56076908 7.40350595 -12.42514541 6.701979 -8 5 C-8 4.34 -8 3.68 -8 3 C-6.865625 2.87625 -5.73125 2.7525 -4.5625 2.625 C-3.386875 2.41875 -2.21125 2.2125 -1 2 C-0.67 1.34 -0.34 0.68 0 0 Z M116 67 C117 69 117 69 117 69 Z M117 69 C117 72 117 72 117 72 Z " fill="#F9F1E3" transform="translate(93,8)"/>
<path d="M0 0 C6.75 -0.125 6.75 -0.125 9 1 C9 1.99 9 2.98 9 4 C8.34 4 7.68 4 7 4 C7 4.99 7 5.98 7 7 C6.34 7 5.68 7 5 7 C4.67 9.64 4.34 12.28 4 15 C3.34 15 2.68 15 2 15 C2 15.66 2 16.32 2 17 C1.34 17.33 0.68 17.66 0 18 C-0.33 18.99 -0.66 19.98 -1 21 C-2.32 21 -3.64 21 -5 21 C-5.33 21.99 -5.66 22.98 -6 24 C-5.34 24.33 -4.68 24.66 -4 25 C-4.33 25.99 -4.66 26.98 -5 28 C-5.99 27.67 -6.98 27.34 -8 27 C-7.67 27.66 -7.34 28.32 -7 29 C-6.34 29 -5.68 29 -5 29 C-5 29.66 -5 30.32 -5 31 C-5.99 31 -6.98 31 -8 31 C-8.33 31.66 -8.66 32.32 -9 33 C-9.99 33 -10.98 33 -12 33 C-12 32.01 -12 31.02 -12 30 C-12.33 30.99 -12.66 31.98 -13 33 C-15.475 33.495 -15.475 33.495 -18 34 C-18.33 34.99 -18.66 35.98 -19 37 C-21.0625 38.1875 -21.0625 38.1875 -23 39 C-23 39.66 -23 40.32 -23 41 C-24.134375 41.268125 -25.26875 41.53625 -26.4375 41.8125 C-27.613125 42.204375 -28.78875 42.59625 -30 43 C-30.33 43.99 -30.66 44.98 -31 46 C-33.5625 47.1875 -33.5625 47.1875 -36 48 C-36 47.34 -36 46.68 -36 46 C-38.47627099 46.63921965 -38.47627099 46.63921965 -41 48 C-42.36078035 50.52372901 -42.36078035 50.52372901 -43 53 C-44.9375 52.6875 -44.9375 52.6875 -47 52 C-47.33 51.01 -47.66 50.02 -48 49 C-48.66 49 -49.32 49 -50 49 C-49.67 49.99 -49.34 50.98 -49 52 C-49.99 52 -50.98 52 -52 52 C-52 52.66 -52 53.32 -52 54 C-51.34 54.33 -50.68 54.66 -50 55 C-53 57 -53 57 -56 57 C-56.28875 56.360625 -56.5775 55.72125 -56.875 55.0625 C-57.82823451 52.84793921 -57.82823451 52.84793921 -60 52 C-60.33 52.99 -60.66 53.98 -61 55 C-62.65 54.67 -64.3 54.34 -66 54 C-66 53.34 -66 52.68 -66 52 C-66.66 51.67 -67.32 51.34 -68 51 C-67.01 50.67 -66.02 50.34 -65 50 C-65 50.99 -65 51.98 -65 53 C-64.34 53 -63.68 53 -63 53 C-63 52.34 -63 51.68 -63 51 C-62.34 51 -61.68 51 -61 51 C-61 50.34 -61 49.68 -61 49 C-61.94875 49.020625 -62.8975 49.04125 -63.875 49.0625 C-67 49 -67 49 -69 48 C-70.54023996 47.93049459 -72.08334988 47.91547643 -73.625 47.9375 C-74.44226563 47.94652344 -75.25953125 47.95554688 -76.1015625 47.96484375 C-76.72804688 47.97644531 -77.35453125 47.98804688 -78 48 C-78 48.66 -78 49.32 -78 50 C-78.78375 49.979375 -79.5675 49.95875 -80.375 49.9375 C-82.98114961 49.81315937 -82.98114961 49.81315937 -85 51 C-85.99 49.02 -85.99 49.02 -87 47 C-88.36125 47.495 -88.36125 47.495 -89.75 48 C-93 49 -93 49 -97 49 C-97 48.34 -97 47.68 -97 47 C-97.99 47.33 -98.98 47.66 -100 48 C-100.33 48.99 -100.66 49.98 -101 51 C-102.5625 52.6875 -102.5625 52.6875 -104 54 C-104.99 53.67 -105.98 53.34 -107 53 C-106.34 51.68 -105.68 50.36 -105 49 C-104.34 49 -103.68 49 -103 49 C-106.91063224 47.52952664 -106.91063224 47.52952664 -111 47 C-111 47.66 -111 48.32 -111 49 C-111.66 49 -112.32 49 -113 49 C-113 48.34 -113 47.68 -113 47 C-114.65 47.66 -116.3 48.32 -118 49 C-117.34 49.66 -116.68 50.32 -116 51 C-119.01031744 51.93423645 -119.86650268 52.04449911 -123 51 C-123.495 51.99 -123.495 51.99 -124 53 C-124 51.68 -124 50.36 -124 49 C-125.32 49 -126.64 49 -128 49 C-129.37482707 47.36739286 -130.70647667 45.69774938 -132 44 C-134.11660427 42.68834743 -134.11660427 42.68834743 -136 42 C-136 41.01 -136 40.02 -136 39 C-136.598125 39.185625 -137.19625 39.37125 -137.8125 39.5625 C-140 40 -140 40 -143 39 C-143 38.34 -143 37.68 -143 37 C-143.9590625 36.8453125 -143.9590625 36.8453125 -144.9375 36.6875 C-145.9584375 36.3471875 -145.9584375 36.3471875 -147 36 C-147.495 34.515 -147.495 34.515 -148 33 C-148.763125 33.061875 -149.52625 33.12375 -150.3125 33.1875 C-153 33 -153 33 -154.8125 31.6875 C-156 30 -156 30 -156 27 C-154.68 27 -153.36 27 -152 27 C-152 25.68 -152 24.36 -152 23 C-151.34 22.67 -150.68 22.34 -150 22 C-150 21.01 -150 20.02 -150 19 C-149.52949219 19.3609375 -149.05898437 19.721875 -148.57421875 20.09375 C-147.95160156 20.5578125 -147.32898438 21.021875 -146.6875 21.5 C-146.07261719 21.9640625 -145.45773438 22.428125 -144.82421875 22.90625 C-142.92566995 24.25711283 -142.92566995 24.25711283 -140 24 C-139.67 24.66 -139.34 25.32 -139 26 C-138.01 25.01 -137.02 24.02 -136 23 C-135.34 23.33 -134.68 23.66 -134 24 C-134 24.99 -134 25.98 -134 27 C-133.34 27 -132.68 27 -132 27 C-131.375 28.875 -131.375 28.875 -131 31 C-131.66 31.66 -132.32 32.32 -133 33 C-132.34 34.98 -131.68 36.96 -131 39 C-130.34 39 -129.68 39 -129 39 C-129 39.66 -129 40.32 -129 41 C-128.34 41 -127.68 41 -127 41 C-126.67 40.01 -126.34 39.02 -126 38 C-123.525 37.505 -123.525 37.505 -121 37 C-121 37.66 -121 38.32 -121 39 C-120.2575 38.525625 -119.515 38.05125 -118.75 37.5625 C-116.38949985 36.22130673 -114.63351523 35.487688 -112 35 C-110.35 36.98 -108.7 38.96 -107 41 C-106.34 40.01 -105.68 39.02 -105 38 C-103.68 38.66 -102.36 39.32 -101 40 C-100.01 38.68 -99.02 37.36 -98 36 C-95.03 36.495 -95.03 36.495 -92 37 C-92 37.66 -92 38.32 -92 39 C-89.00695443 40.49652278 -87.12686551 39.80693303 -84 39 C-83.67 39 -83.34 39 -83 39 C-83.165 38.236875 -83.33 37.47375 -83.5 36.6875 C-84 34 -84 34 -84 31 C-82.35 31 -80.7 31 -79 31 C-79.33 31.94875 -79.66 32.8975 -80 33.875 C-81.10159191 36.77062452 -81.10159191 36.77062452 -81 39 C-80.01 39 -79.02 39 -78 39 C-77.855625 38.360625 -77.71125 37.72125 -77.5625 37.0625 C-77 35 -77 35 -76 34 C-74.33382885 33.95936168 -72.66611905 33.957279 -71 34 C-71.33 35.98 -71.66 37.96 -72 40 C-70.515 40.495 -70.515 40.495 -69 41 C-69 39.68 -69 38.36 -69 37 C-67.02 36.67 -65.04 36.34 -63 36 C-63 35.34 -63 34.68 -63 34 C-61.02 34.495 -61.02 34.495 -59 35 C-59 34.34 -59 33.68 -59 33 C-58.4225 33.37125 -57.845 33.7425 -57.25 34.125 C-55 35.29166667 -55 35.29166667 -52.75 34.125 C-52.1725 33.75375 -51.595 33.3825 -51 33 C-51.495 33.99 -51.495 33.99 -52 35 C-50.35 35.33 -48.7 35.66 -47 36 C-46.505 35.01 -46.505 35.01 -46 34 C-46.33 33.01 -46.66 32.02 -47 31 C-45.1875 30.3125 -45.1875 30.3125 -43 30 C-41.4375 31.4375 -41.4375 31.4375 -40 33 C-39.01 33 -38.02 33 -37 33 C-37.62814399 28.9280023 -37.62814399 28.9280023 -38.625 24.9375 C-39.1118389 22.42216567 -38.61560812 20.46243248 -38 18 C-35.5625 18.625 -35.5625 18.625 -33 20 C-32.1875 23.125 -32.1875 23.125 -32 26 C-32.66 26 -33.32 26 -34 26 C-33.505 27.98 -33.505 27.98 -33 30 C-32.01 29.67 -31.02 29.34 -30 29 C-30.495 27.515 -30.495 27.515 -31 26 C-30.34 26 -29.68 26 -29 26 C-29.495 24.02 -29.495 24.02 -30 22 C-27.69 21.67 -25.38 21.34 -23 21 C-23 19.35 -23 17.7 -23 16 C-20.23735711 15.40267181 -17.83967231 15 -15 15 C-12.31232422 12.56249975 -12.31232422 12.56249975 -10 10 C-10 11.32 -10 12.64 -10 14 C-8.35 14 -6.7 14 -5 14 C-4.67 12.35 -4.34 10.7 -4 9 C-3.34 9 -2.68 9 -2 9 C-1.814375 8.0409375 -1.814375 8.0409375 -1.625 7.0625 C-1.41875 6.381875 -1.2125 5.70125 -1 5 C-0.34 4.67 0.32 4.34 1 4 C0.67 2.68 0.34 1.36 0 0 Z M-148 24 C-149.01111093 27.04913228 -149.01111093 27.04913228 -148 30 C-146.02 29.67 -144.04 29.34 -142 29 C-142.66 27.68 -143.32 26.36 -144 25 C-144.66 25 -145.32 25 -146 25 C-146.66 24.67 -147.32 24.34 -148 24 Z " fill="#ECDFCF" transform="translate(192,153)"/>
<path d="M0 0 C0 3 0 3 -2.0625 5.625 C-5.47997699 8.3880665 -7.67403972 8.74553175 -12 9 C-12 9.66 -12 10.32 -12 11 C-12.99 11 -13.98 11 -15 11 C-15.3403125 12.175625 -15.3403125 12.175625 -15.6875 13.375 C-17 16 -17 16 -19.375 17.4375 C-22 18 -22 18 -24.3125 17.125 C-24.869375 16.75375 -25.42625 16.3825 -26 16 C-26.66 16.99 -27.32 17.98 -28 19 C-28.66 19 -29.32 19 -30 19 C-30.33 20.32 -30.66 21.64 -31 23 C-31.66 23 -32.32 23 -33 23 C-32.938125 23.78375 -32.87625 24.5675 -32.8125 25.375 C-32.9053125 26.674375 -32.9053125 26.674375 -33 28 C-35.61941217 29.74627478 -37.03824877 30.38722388 -40 31 C-39.505 34.465 -39.505 34.465 -39 38 C-41.90600261 39.25664978 -43.79604584 40 -47 40 C-47.103125 40.9075 -47.20625 41.815 -47.3125 42.75 C-48.01296174 46.06127366 -48.68025695 47.59103606 -51 50 C-52.485 50.495 -52.485 50.495 -54 51 C-54.73323796 53.01508358 -54.73323796 53.01508358 -55 55 C-54.34 55.33 -53.68 55.66 -53 56 C-53.99 56 -54.98 56 -56 56 C-57.74979929 60.31617159 -59.10803282 64.42866818 -60 69 C-60.32483418 70.33542939 -60.6550855 71.66961551 -61 73 C-61.66 73 -62.32 73 -63 73 C-62.979375 74.216875 -62.95875 75.43375 -62.9375 76.6875 C-62.92449966 79.16189816 -63.02139657 81.08558628 -63.625 83.5 C-64.10041803 86.66945354 -63.28214644 88.89491238 -62.40625 91.9375 C-61.79446502 95.04348529 -62.50477289 97.90483057 -63 101 C-62.34 101.66 -61.68 102.32 -61 103 C-62.98 103.495 -62.98 103.495 -65 104 C-65.04241723 106.33294775 -65.04092937 108.66702567 -65 111 C-64.67 111.33 -64.34 111.66 -64 112 C-63.60006314 114.68862664 -63.24865457 117.36352217 -62.9375 120.0625 C-62.84662109 120.82111328 -62.75574219 121.57972656 -62.66210938 122.36132812 C-62.4375626 124.2404301 -62.21829022 126.12016095 -62 128 C-61.01 128.33 -60.02 128.66 -59 129 C-59.33 130.65 -59.66 132.3 -60 134 C-60.66 134 -61.32 134 -62 134 C-62 135.65 -62 137.3 -62 139 C-62.66 139 -63.32 139 -64 139 C-64.33 139.99 -64.66 140.98 -65 142 C-65.103125 141.401875 -65.20625 140.80375 -65.3125 140.1875 C-66.08876455 137.71756736 -67.07088921 136.67748765 -69 135 C-68.505 134.01 -68.505 134.01 -68 133 C-68.7763932 129.9254644 -68.7763932 129.9254644 -71 128 C-71.6875 126 -71.6875 126 -72 124 C-71.505 123.01 -71.505 123.01 -71 122 C-71.4578404 119.94625877 -72.08901509 117.97856169 -72.72265625 115.97265625 C-73 114 -73 114 -71 111 C-71.33 110.67 -71.66 110.34 -72 110 C-72.33 109.01 -72.66 108.02 -73 107 C-73.33 106.67 -73.66 106.34 -74 106 C-74 105.34 -74 104.68 -74 104 C-73.34 104 -72.68 104 -72 104 C-72.20625 103.2575 -72.4125 102.515 -72.625 101.75 C-73.05697922 98.58215237 -72.41722453 97.74587253 -71 95 C-71.40929986 92.94603274 -71.40929986 92.94603274 -72 91 C-71.67 90.01 -71.34 89.02 -71 88 C-70.81304349 86.64073848 -70.66129756 85.27640403 -70.53515625 83.91015625 C-70.41817383 82.73356445 -70.41817383 82.73356445 -70.29882812 81.53320312 C-70.14168135 79.89030507 -69.98801673 78.24707009 -69.83789062 76.60351562 C-69.75861328 75.81783203 -69.67933594 75.03214844 -69.59765625 74.22265625 C-69.49723022 73.15156616 -69.49723022 73.15156616 -69.39477539 72.05883789 C-68.95600634 69.77056367 -68.1254721 68.02973171 -67 66 C-66.67 66 -66.34 66 -66 66 C-65.34 64.35 -64.68 62.7 -64 61 C-63.34 61 -62.68 61 -62 61 C-62.556875 59.453125 -62.556875 59.453125 -63.125 57.875 C-64.07536506 53.66624045 -63.70269571 51.87836244 -62 48 C-60.68 48.33 -59.36 48.66 -58 49 C-58 48.34 -58 47.68 -58 47 C-57.34 47 -56.68 47 -56 47 C-56.495 44.525 -56.495 44.525 -57 42 C-56.01 41.34 -55.02 40.68 -54 40 C-54.33 39.34 -54.66 38.68 -55 38 C-55 37.01 -55 36.02 -55 35 C-52.525 34.505 -52.525 34.505 -50 34 C-51.485 33.505 -51.485 33.505 -53 33 C-52.401875 32.731875 -51.80375 32.46375 -51.1875 32.1875 C-48.98261439 31.12465855 -48.98261439 31.12465855 -47.5 29.5 C-45.81466827 27.81466827 -44.16231155 26.96931207 -42 26 C-42 25.34 -42 24.68 -42 24 C-41.34 24 -40.68 24 -40 24 C-40 21.36 -40 18.72 -40 16 C-38.68 16 -37.36 16 -36 16 C-36 16.99 -36 17.98 -36 19 C-35.34 19.33 -34.68 19.66 -34 20 C-34.495 18.515 -34.495 18.515 -35 17 C-30.25 14 -30.25 14 -28 14 C-25.65130253 12.02709413 -24.99897713 10.99693138 -24 8 C-21.36 7.67 -18.72 7.34 -16 7 C-15.67 5.68 -15.34 4.36 -15 3 C-14.34 3 -13.68 3 -13 3 C-13 2.34 -13 1.68 -13 1 C-13.66 0.67 -14.32 0.34 -15 0 C-13.35 0 -11.7 0 -10 0 C-10 0.66 -10 1.32 -10 2 C-8.68 2 -7.36 2 -6 2 C-6 1.34 -6 0.68 -6 0 C-2.25 -1.125 -2.25 -1.125 0 0 Z " fill="#FCF8EC" transform="translate(76,16)"/>
<path d="M0 0 C2.12046792 3.53411321 2.53199289 6.94393835 3 11 C3.99 11.33 4.98 11.66 6 12 C5.34 12.99 4.68 13.98 4 15 C3.66661404 18.54187831 3.66661404 18.54187831 4 22 C4.99 22.99 4.99 22.99 6 24 C5.6640625 25.81640625 5.6640625 25.81640625 5 28 C3.87557765 35.53829373 3.87557765 35.53829373 5 43 C4.34 43 3.68 43 3 43 C2.81824219 44.12148437 2.81824219 44.12148437 2.6328125 45.265625 C2.46523437 46.25046875 2.29765625 47.2353125 2.125 48.25 C1.96257812 49.22453125 1.80015625 50.1990625 1.6328125 51.203125 C1.04854152 53.78545845 0.17153469 55.65693062 -1 58 C-0.69621948 60.68993053 -0.69621948 60.68993053 0 63 C-0.99 63 -1.98 63 -3 63 C-3.33 63.66 -3.66 64.32 -4 65 C-4.66 65.99 -5.32 66.98 -6 68 C-6.35412344 69.32796291 -6.68521554 70.66216607 -7 72 C-8.40315538 75.80856461 -10.15222782 79.38844529 -12 83 C-12.66 83 -13.32 83 -14 83 C-14.061875 83.556875 -14.12375 84.11375 -14.1875 84.6875 C-15.32370749 87.92132131 -17.59839431 89.59839431 -20 92 C-20.86119134 94.17346568 -20.86119134 94.17346568 -21 96 C-23.475 96.495 -23.475 96.495 -26 97 C-26.495 98.485 -26.495 98.485 -27 100 C-28.64821244 101.03013277 -30.31503702 102.03114628 -32 103 C-32.33 103.66 -32.66 104.32 -33 105 C-33.66 105 -34.32 105 -35 105 C-35.33 105.66 -35.66 106.32 -36 107 C-36.99 107 -37.98 107 -39 107 C-39.33 107.66 -39.66 108.32 -40 109 C-40.99 109 -41.98 109 -43 109 C-43.99 109.66 -44.98 110.32 -46 111 C-46.99 111 -47.98 111 -49 111 C-49.103125 111.598125 -49.20625 112.19625 -49.3125 112.8125 C-50.13380325 115.42573762 -50.82068885 116.34672947 -53 118 C-55.69921875 118.29296875 -55.69921875 118.29296875 -58.6875 118.1875 C-59.68136719 118.16042969 -60.67523438 118.13335937 -61.69921875 118.10546875 C-62.45847656 118.07066406 -63.21773437 118.03585938 -64 118 C-64.33 119.32 -64.66 120.64 -65 122 C-66.45792884 122.05399736 -67.91642712 122.09279177 -69.375 122.125 C-70.18710938 122.14820313 -70.99921875 122.17140625 -71.8359375 122.1953125 C-74 122 -74 122 -76 120 C-74.02 119.01 -74.02 119.01 -72 118 C-72 117.01 -72 116.02 -72 115 C-71.01 114.505 -71.01 114.505 -70 114 C-70 113.34 -70 112.68 -70 112 C-70.66 111.67 -71.32 111.34 -72 111 C-69.5625 111.375 -69.5625 111.375 -67 112 C-66.67 112.66 -66.34 113.32 -66 114 C-65.01 114.33 -64.02 114.66 -63 115 C-62.67 113.35 -62.34 111.7 -62 110 C-59.03 109.505 -59.03 109.505 -56 109 C-56 109.66 -56 110.32 -56 111 C-53.30274481 109.11192137 -51.86783571 107.80175356 -50 105 C-46.375 104.3125 -46.375 104.3125 -43 104 C-43.33 103.01 -43.66 102.02 -44 101 C-43.195625 100.71125 -42.39125 100.4225 -41.5625 100.125 C-38.8673532 99.26737432 -38.8673532 99.26737432 -38 97 C-37.34 97 -36.68 97 -36 97 C-35.67 96.34 -35.34 95.68 -35 95 C-34.01 95.495 -34.01 95.495 -33 96 C-33.33 95.01 -33.66 94.02 -34 93 C-33.34 93 -32.68 93 -32 93 C-31.67 93.66 -31.34 94.32 -31 95 C-30.01 94.67 -29.02 94.34 -28 94 C-27.01 94 -26.02 94 -25 94 C-25 93.34 -25 92.68 -25 92 C-25.99 92.33 -26.98 92.66 -28 93 C-28 92.01 -28 91.02 -28 90 C-27.01 90 -26.02 90 -25 90 C-24.67 89.34 -24.34 88.68 -24 88 C-24.99 87.67 -25.98 87.34 -27 87 C-26.01 85.515 -26.01 85.515 -25 84 C-23.68 84 -22.36 84 -21 84 C-20.505 82.02 -20.505 82.02 -20 80 C-19.34 80 -18.68 80 -18 80 C-18 79.34 -18 78.68 -18 78 C-17.34 78 -16.68 78 -16 78 C-16.33 76.02 -16.66 74.04 -17 72 C-16.34 72 -15.68 72 -15 72 C-15 71.34 -15 70.68 -15 70 C-14.34 70 -13.68 70 -13 70 C-13 69.01 -13 68.02 -13 67 C-12.03320312 66.35611328 -12.03320312 66.35611328 -11.046875 65.69921875 C-8.70837285 64.11667709 -8.70837285 64.11667709 -8.390625 61.08203125 C-8.34421875 60.00308594 -8.2978125 58.92414063 -8.25 57.8125 C-8.16492188 56.18248047 -8.16492188 56.18248047 -8.078125 54.51953125 C-8.05234375 53.68808594 -8.0265625 52.85664063 -8 52 C-7.01 51.67 -6.02 51.34 -5 51 C-5 50.34 -5 49.68 -5 49 C-5.66 49 -6.32 49 -7 49 C-6.67 48.01 -6.34 47.02 -6 46 C-5.34 46 -4.68 46 -4 46 C-4 45.01 -4 44.02 -4 43 C-3.01 42.01 -3.01 42.01 -2 41 C-2 40.01 -2 39.02 -2 38 C-1.34 38 -0.68 38 0 38 C0 37.34 0 36.68 0 36 C-1.32 36.33 -2.64 36.66 -4 37 C-3.41196203 33.97580475 -2.77321882 30.98241547 -2 28 C-3.32 27.34 -4.64 26.68 -6 26 C-5.34 26 -4.68 26 -4 26 C-4.495 25.13375 -4.495 25.13375 -5 24.25 C-6 22 -6 22 -6 18 C-5.34 18 -4.68 18 -4 18 C-4.495 16.02 -4.495 16.02 -5 14 C-4.01 14 -3.02 14 -2 14 C-2.25561323 11.6568787 -2.59270772 9.32156597 -3 7 C-3.99 6.505 -3.99 6.505 -5 6 C-4.67 4.68 -4.34 3.36 -4 2 C-2.68 2 -1.36 2 0 2 C0 1.34 0 0.68 0 0 Z " fill="#FBF4E6" transform="translate(212,90)"/>
<path d="M0 0 C0.33 0.99 0.66 1.98 1 3 C1.66 3.33 2.32 3.66 3 4 C5.03853571 7.4655107 5.04294817 8.81286869 4.125 12.8125 C3.75375 13.864375 3.3825 14.91625 3 16 C3.99 16.33 4.98 16.66 6 17 C5.34 17 4.68 17 4 17 C4 17.66 4 18.32 4 19 C4.66 19 5.32 19 6 19 C6.391875 18.54625 6.78375 18.0925 7.1875 17.625 C9.80138604 15.28151596 12.64083629 14.82394582 16 14 C15.34 17.3 14.68 20.6 14 24 C14.66 24.33 15.32 24.66 16 25 C14.02 25.99 14.02 25.99 12 27 C12.66 27.33 13.32 27.66 14 28 C14 28.66 14 29.32 14 30 C14.99 30 15.98 30 17 30 C16.1875 32.4375 16.1875 32.4375 15 35 C13.515 35.495 13.515 35.495 12 36 C11.67 36.99 11.34 37.98 11 39 C9.35 38.67 7.7 38.34 6 38 C5.505 36.515 5.505 36.515 5 35 C3.68 35 2.36 35 1 35 C1.33 32.69 1.66 30.38 2 28 C0.68 27.67 -0.64 27.34 -2 27 C-2 26.01 -2 25.02 -2 24 C-2.99 24 -3.98 24 -5 24 C-5.66 23.01 -6.32 22.02 -7 21 C-7.99 21.33 -8.98 21.66 -10 22 C-10 21.01 -10 20.02 -10 19 C-9.34 19 -8.68 19 -8 19 C-8 17.35 -8 15.7 -8 14 C-7.34 14 -6.68 14 -6 14 C-5.67 12.35 -5.34 10.7 -5 9 C-5.99 9.33 -6.98 9.66 -8 10 C-8 8 -8 8 -6.5 6.375 C-6.005 5.92125 -5.51 5.4675 -5 5 C-5.99 4.67 -6.98 4.34 -8 4 C-6.865625 3.525625 -5.73125 3.05125 -4.5625 2.5625 C-1.24259834 1.36377917 -1.24259834 1.36377917 0 0 Z " fill="#F0E4D5" transform="translate(22,136)"/>
<path d="M0 0 C0.05441656 1.89551022 0.09298035 3.7914792 0.125 5.6875 C0.14820312 6.74324219 0.17140625 7.79898438 0.1953125 8.88671875 C-0.00411006 12.06551435 -0.53690483 14.18404286 -2 17 C-4.375 18.4375 -4.375 18.4375 -7 19 C-9.078125 18.33203125 -9.078125 18.33203125 -11 17 C-12.81205727 12.6195485 -13.19771279 8.2082448 -12.4375 3.5625 C-9.18684144 -2.23215221 -5.82534979 -2.57399177 0 0 Z " fill="#62513E" transform="translate(77,97)"/>
<path d="M0 0 C3.37559685 0.58199946 4.62752283 1.62752283 7 4 C11.13071332 6.24238723 15.39952053 6.95018509 20 6 C23.52646107 4.26946846 26.76712599 2.22591325 30 0 C31 1 31 1 31.1875 3.375 C31 6 31 6 29 9 C23.77097883 12.2437289 18.16122574 14.14601068 12 13 C2.8186847 10.22802704 2.8186847 10.22802704 0 6 C-0.125 2.8125 -0.125 2.8125 0 0 Z " fill="#6F5B46" transform="translate(94,131)"/>
<path d="M0 0 C0.5775 0.37125 1.155 0.7425 1.75 1.125 C1.75 2.115 1.75 3.105 1.75 4.125 C2.41 4.455 3.07 4.785 3.75 5.125 C3.80416188 6.72879341 3.84286638 8.33311406 3.875 9.9375 C3.89820313 10.83082031 3.92140625 11.72414063 3.9453125 12.64453125 C3.75 15.125 3.75 15.125 1.75 18.125 C-1.0625 19.125 -1.0625 19.125 -4.25 19.125 C-7.125 17.25 -7.125 17.25 -9.25 14.125 C-9.82578317 10.3235225 -9.992203 6.609406 -8.25 3.125 C-7.59 3.125 -6.93 3.125 -6.25 3.125 C-6.25 2.465 -6.25 1.805 -6.25 1.125 C-2.80384615 -1.09038462 -2.80384615 -1.09038462 0 0 Z " fill="#64533F" transform="translate(149.25,96.875)"/>
<path d="M0 0 C1.49739583 1.26953125 2.99479167 2.5390625 4.4921875 3.80859375 C6.00594079 5.0878152 6.00594079 5.0878152 8 6 C8.33333333 7.33333333 8.66666667 8.66666667 9 10 C9.9601817 11.68991979 10.95355934 13.36209288 12 15 C12.33 14.34 12.66 13.68 13 13 C13.66 13.33 14.32 13.66 15 14 C15.40632091 15.98645776 15.72949547 17.99053778 16 20 C16.32635698 21.66804677 16.65725594 23.33524314 17 25 C16.01 24.67 15.02 24.34 14 24 C14 23.01 14 22.02 14 21 C10.95086772 19.98888907 10.95086772 19.98888907 8 21 C5.4375 20.375 5.4375 20.375 3 19 C2.1875 16.375 2.1875 16.375 2 14 C1.01 13.67 0.02 13.34 -1 13 C-0.979375 12.195625 -0.95875 11.39125 -0.9375 10.5625 C-0.70366379 8.06645115 -0.70366379 8.06645115 -2 7 C-2.04063832 5.33382885 -2.042721 3.66611905 -2 2 C-1.34 2 -0.68 2 0 2 C0 1.34 0 0.68 0 0 Z " fill="#FCF8EC" transform="translate(188,43)"/>
<path d="M0 0 C0.33 0.99 0.66 1.98 1 3 C1.78375 2.79375 2.5675 2.5875 3.375 2.375 C4.674375 2.189375 4.674375 2.189375 6 2 C6.66 2.66 7.32 3.32 8 4 C7.01 4 6.02 4 5 4 C5 4.99 5 5.98 5 7 C3.5 8.6875 3.5 8.6875 2 10 C2.66 10 3.32 10 4 10 C4 10.66 4 11.32 4 12 C3.01 12.495 3.01 12.495 2 13 C1.53348793 15.12576782 1.53348793 15.12576782 1.375 17.5625 C1.30023438 18.38878906 1.22546875 19.21507812 1.1484375 20.06640625 C1.09945312 20.70449219 1.05046875 21.34257812 1 22 C-0.65 22.33 -2.3 22.66 -4 23 C-4 22.01 -4 21.02 -4 20 C-4.99 20.33 -5.98 20.66 -7 21 C-7.33 20.01 -7.66 19.02 -8 18 C-7.01 18 -6.02 18 -5 18 C-5 17.34 -5 16.68 -5 16 C-5.99 15.67 -6.98 15.34 -8 15 C-7.525625 14.278125 -7.05125 13.55625 -6.5625 12.8125 C-5.05847097 10.10524774 -4.43400818 8.03805725 -4 5 C-3.01 5 -2.02 5 -1 5 C-0.67 3.35 -0.34 1.7 0 0 Z " fill="#EFE3D3" transform="translate(203,129)"/>
<path d="M0 0 C0.66 0.99 1.32 1.98 2 3 C5.465 2.505 5.465 2.505 9 2 C9 3.98 9 5.96 9 8 C9.99 8.33 10.98 8.66 12 9 C11.67 9.99 11.34 10.98 11 12 C8 10 8 10 7 9 C6.67 9.99 6.34 10.98 6 12 C5.21625 11.814375 4.4325 11.62875 3.625 11.4375 C1.02910225 10.74037734 1.02910225 10.74037734 -1 12 C-1.391875 11.525625 -1.78375 11.05125 -2.1875 10.5625 C-6.07861977 7.2080864 -11.10668646 7.90405268 -16 8 C-16.33 8.66 -16.66 9.32 -17 10 C-17 8.35 -17 6.7 -17 5 C-16.67 5.66 -16.34 6.32 -16 7 C-15.44570312 6.77183594 -14.89140625 6.54367188 -14.3203125 6.30859375 C-13.23363281 5.87740234 -13.23363281 5.87740234 -12.125 5.4375 C-11.40570313 5.14746094 -10.68640625 4.85742188 -9.9453125 4.55859375 C-8 4 -8 4 -6 5 C-5.67 4.01 -5.34 3.02 -5 2 C-4.34 2.66 -3.68 3.32 -3 4 C-2.01 2.68 -1.02 1.36 0 0 Z " fill="#FCF7E9" transform="translate(93,204)"/>
<path d="M0 0 C5.21423975 1.36563422 8.20216442 3.29048618 12 7 C12.875 9.3125 12.875 9.3125 13 11 C14.32 11.33 15.64 11.66 17 12 C16.67 12.66 16.34 13.32 16 14 C14.9275 13.835 13.855 13.67 12.75 13.5 C7.48309717 12.61485525 7.48309717 12.61485525 2.75 14.5 C2.1725 14.995 1.595 15.49 1 16 C-0.58129743 11.67778703 -1.65277825 7.60068817 -2 3 C-1.34 2.01 -0.68 1.02 0 0 Z " fill="#FCF7EB" transform="translate(171,28)"/>
<path d="M0 0 C2 0.3125 2 0.3125 4 1 C4.33 1.66 4.66 2.32 5 3 C6.32 3 7.64 3 9 3 C9.33 2.34 9.66 1.68 10 1 C10.99 1.33 11.98 1.66 13 2 C13.33 3.98 13.66 5.96 14 8 C12.9275 7.938125 11.855 7.87625 10.75 7.8125 C6.89133813 8.00543309 5.71182212 8.39665076 3 11 C2.34 10.67 1.68 10.34 1 10 C1 9.34 1 8.68 1 8 C0.278125 8.165 -0.44375 8.33 -1.1875 8.5 C-3.86427545 8.97587119 -6.28949487 9.077443 -9 9 C-9 9.99 -9 10.98 -9 12 C-9.66 11.67 -10.32 11.34 -11 11 C-11.66 10.855625 -12.32 10.71125 -13 10.5625 C-15 10 -15 10 -17 8 C-16.39671875 7.93941406 -15.7934375 7.87882813 -15.171875 7.81640625 C-13.97304687 7.69072266 -13.97304687 7.69072266 -12.75 7.5625 C-11.96109375 7.48128906 -11.1721875 7.40007812 -10.359375 7.31640625 C-7.12109403 6.89878137 -7.12109403 6.89878137 -4 6 C-3.67 5.01 -3.34 4.02 -3 3 C-3.99 2.67 -4.98 2.34 -6 2 C-5.01 1.67 -4.02 1.34 -3 1 C-2.67 1.99 -2.34 2.98 -2 4 C-1.34 4 -0.68 4 0 4 C-0.33 3.01 -0.66 2.02 -1 1 C-0.67 0.67 -0.34 0.34 0 0 Z " fill="#FBF4E5" transform="translate(122,204)"/>
<path d="M0 0 C6.75 -0.125 6.75 -0.125 9 1 C9 1.99 9 2.98 9 4 C8.34 4 7.68 4 7 4 C7 4.99 7 5.98 7 7 C6.34 7 5.68 7 5 7 C4.67 9.64 4.34 12.28 4 15 C3.34 15 2.68 15 2 15 C2 15.66 2 16.32 2 17 C1.34 17.33 0.68 17.66 0 18 C-0.33 18.99 -0.66 19.98 -1 21 C-2.65 21.33 -4.3 21.66 -6 22 C-6 21.34 -6 20.68 -6 20 C-5.34 20 -4.68 20 -4 20 C-3.30428121 16.5194493 -3.30428121 16.5194493 -3 13 C-3.66 12.34 -4.32 11.68 -5 11 C-4.67 10.34 -4.34 9.68 -4 9 C-3.34 9 -2.68 9 -2 9 C-1.814375 8.0409375 -1.814375 8.0409375 -1.625 7.0625 C-1.41875 6.381875 -1.2125 5.70125 -1 5 C-0.34 4.67 0.32 4.34 1 4 C0.67 2.68 0.34 1.36 0 0 Z " fill="#F0E4D5" transform="translate(192,153)"/>
<path d="M0 0 C0.33 0 0.66 0 1 0 C3.21538462 7.38461538 3.21538462 7.38461538 2.125 10.5 C1.75375 10.995 1.3825 11.49 1 12 C-0.9375 11.6875 -0.9375 11.6875 -3 11 C-3.33 10.01 -3.66 9.02 -4 8 C-4.66 8 -5.32 8 -6 8 C-5.67 8.99 -5.34 9.98 -5 11 C-5.99 11 -6.98 11 -8 11 C-8 11.66 -8 12.32 -8 13 C-7.34 13.33 -6.68 13.66 -6 14 C-9 16 -9 16 -12 16 C-12.33 14.68 -12.66 13.36 -13 12 C-12.01 11.67 -11.02 11.34 -10 11 C-10.66 11 -11.32 11 -12 11 C-11.75 8.625 -11.75 8.625 -11 6 C-9 4.8125 -9 4.8125 -7 4 C-6.67 3.34 -6.34 2.68 -6 2 C-3 3 -3 3 -2 5 C-2 4.01 -2 3.02 -2 2 C-1.34 2 -0.68 2 0 2 C0 1.34 0 0.68 0 0 Z M11 1 C11.33 1.99 11.66 2.98 12 4 C11.01 5.485 11.01 5.485 10 7 C9.34 7 8.68 7 8 7 C8 6.34 8 5.68 8 5 C6.02 5.33 4.04 5.66 2 6 C2 5.01 2 4.02 2 3 C3.32 3.33 4.64 3.66 6 4 C6 3.34 6 2.68 6 2 C9 1 9 1 11 1 Z " fill="#F4EADB" transform="translate(148,194)"/>
<path d="M0 0 C0.66 0.66 1.32 1.32 2 2 C3.66608987 2.04384447 5.33380554 2.0396713 7 2 C8.34332728 2.29044914 9.68225804 2.60955794 11 3 C11 3.66 11 4.32 11 5 C12.98 4.34 14.96 3.68 17 3 C17.33 4.65 17.66 6.3 18 8 C17.01 8 16.02 8 15 8 C15 7.34 15 6.68 15 6 C14.01 6 13.02 6 12 6 C11.91878906 6.60328125 11.83757812 7.2065625 11.75390625 7.828125 C10.76334726 10.68175609 9.52557989 11.27109721 6.9375 12.75 C6.20402344 13.17796875 5.47054687 13.6059375 4.71484375 14.046875 C4.14894531 14.36140625 3.58304687 14.6759375 3 15 C2.87625 14.38125 2.7525 13.7625 2.625 13.125 C2.12802644 10.80879168 2.12802644 10.80879168 0 9 C0 7.68 0 6.36 0 5 C-0.66 4.34 -1.32 3.68 -2 3 C-1.34 3 -0.68 3 0 3 C0 2.01 0 1.02 0 0 Z " fill="#FDF9EF" transform="translate(124,9)"/>
<path d="M0 0 C0.99 0.33 1.98 0.66 3 1 C3 3.31 3 5.62 3 8 C3.66 8 4.32 8 5 8 C5.66 7.01 6.32 6.02 7 5 C9.51083114 6.25541557 9.87125446 7.50063488 11 10 C10.38125 10.5775 9.7625 11.155 9.125 11.75 C7.18652947 13.80249821 6.09985751 15.43366582 5 18 C3.68 18 2.36 18 1 18 C0.93941406 17.32453125 0.87882813 16.6490625 0.81640625 15.953125 C0.73261719 15.06109375 0.64882812 14.1690625 0.5625 13.25 C0.48128906 12.36828125 0.40007813 11.4865625 0.31640625 10.578125 C0.06195681 8.045631 0.06195681 8.045631 -0.5625 5.8125 C-1.10021722 3.58481439 -0.69281526 2.15542525 0 0 Z " fill="#F3E9DA" transform="translate(11,120)"/>
<path d="M0 0 C1.65 0 3.3 0 5 0 C5.05441656 1.89551022 5.09298035 3.7914792 5.125 5.6875 C5.14820312 6.74324219 5.17140625 7.79898438 5.1953125 8.88671875 C4.99858729 12.02251859 4.33057654 14.17645373 3 17 C0 17 0 17 -2 16 C-1.01 14.68 -0.02 13.36 1 12 C0.525625 11.608125 0.05125 11.21625 -0.4375 10.8125 C-2.35179633 8.59191626 -2.61266988 6.86624291 -3 4 C-2.01 3.67 -1.02 3.34 0 3 C0 2.01 0 1.02 0 0 Z " fill="#74634F" transform="translate(72,97)"/>
<path d="M0 0 C3.37559685 0.58199946 4.62752283 1.62752283 7 4 C9.59915538 5.19027984 9.59915538 5.19027984 12 6 C12 6.66 12 7.32 12 8 C11.01 8.33 10.02 8.66 9 9 C11.475 9.99 11.475 9.99 14 11 C14 10.01 14 9.02 14 8 C14.99 8.33 15.98 8.66 17 9 C16.34 9 15.68 9 15 9 C15 9.66 15 10.32 15 11 C15.99 10.67 16.98 10.34 18 10 C18 10.66 18 11.32 18 12 C12.64707793 13.69039644 9.14047552 12.22067794 4.171875 10.203125 C2 9 2 9 0 6 C-0.125 2.8125 -0.125 2.8125 0 0 Z " fill="#725F4A" transform="translate(94,131)"/>
<path d="M0 0 C1.65 0.33 3.3 0.66 5 1 C5 1.66 5 2.32 5 3 C5.99 3.33 6.98 3.66 8 4 C8 4.66 8 5.32 8 6 C10.31 6 12.62 6 15 6 C15.28875 6.61875 15.5775 7.2375 15.875 7.875 C16.93720042 10.13325765 16.93720042 10.13325765 19 12 C17.35 12.33 15.7 12.66 14 13 C13.87625 12.360625 13.7525 11.72125 13.625 11.0625 C13.41875 10.381875 13.2125 9.70125 13 9 C12.34 8.67 11.68 8.34 11 8 C10.34 9.65 9.68 11.3 9 13 C9.66 13.33 10.32 13.66 11 14 C9.68 13.67 8.36 13.34 7 13 C7 12.34 7 11.68 7 11 C5.68 10.67 4.36 10.34 3 10 C3.33 9.34 3.66 8.68 4 8 C6.475 8.99 6.475 8.99 9 10 C7.84315671 7.9004467 7.84315671 7.9004467 6 6 C3.37374861 5.66574265 3.37374861 5.66574265 1 6 C-0.0625 4.125 -0.0625 4.125 -1 2 C-0.67 1.34 -0.34 0.68 0 0 Z " fill="#F4EADB" transform="translate(41,186)"/>
<path d="M0 0 C2.4375 0.625 2.4375 0.625 5 2 C5.8125 5.125 5.8125 5.125 6 8 C5.34 8 4.68 8 4 8 C4.20625 8.5775 4.4125 9.155 4.625 9.75 C5 12 5 12 4.3125 14.1875 C3 16 3 16 0.875 16.75 C-0.053125 16.87375 -0.053125 16.87375 -1 17 C-1 16.34 -1 15.68 -1 15 C-0.34 15 0.32 15 1 15 C0.37185601 10.9280023 0.37185601 10.9280023 -0.625 6.9375 C-1.1118389 4.42216567 -0.61560812 2.46243248 0 0 Z " fill="#EDE0CF" transform="translate(154,171)"/>
<path d="M0 0 C2.12046792 3.53411321 2.53199289 6.94393835 3 11 C3.99 11.33 4.98 11.66 6 12 C4.68 13.65 3.36 15.3 2 17 C1.67 15.35 1.34 13.7 1 12 C0.01 12 -0.98 12 -2 12 C-2.12375 11.195625 -2.2475 10.39125 -2.375 9.5625 C-2.684375 8.2940625 -2.684375 8.2940625 -3 7 C-3.66 6.67 -4.32 6.34 -5 6 C-4.67 4.68 -4.34 3.36 -4 2 C-2.68 2 -1.36 2 0 2 C0 1.34 0 0.68 0 0 Z " fill="#FEFCF3" transform="translate(212,90)"/>
<path d="M0 0 C0.66 0.33 1.32 0.66 2 1 C2 1.66 2 2.32 2 3 C1.34 3 0.68 3 0 3 C-0.66 5.31 -1.32 7.62 -2 10 C-2.66 10 -3.32 10 -4 10 C-4.33 8.68 -4.66 7.36 -5 6 C-5.33 7.65 -5.66 9.3 -6 11 C-8.475 10.01 -8.475 10.01 -11 9 C-10.67 8.01 -10.34 7.02 -10 6 C-9.01 5.67 -8.02 5.34 -7 5 C-7.99 5 -8.98 5 -10 5 C-9.67 4.01 -9.34 3.02 -9 2 C-7.35 1.67 -5.7 1.34 -4 1 C-4 1.66 -4 2.32 -4 3 C-2.68 2.01 -1.36 1.02 0 0 Z " fill="#E9DBCA" transform="translate(75,189)"/>
<path d="M0 0 C0.33 0.66 0.66 1.32 1 2 C2.65919896 2.36871088 4.32774271 2.69595322 6 3 C7.6792238 3.63437344 9.35008418 4.29289322 11 5 C10 7 10 7 6.9375 8.125 C5.968125 8.41375 4.99875 8.7025 4 9 C3.67 8.34 3.34 7.68 3 7 C0.69 7 -1.62 7 -4 7 C-4 5.35 -4 3.7 -4 2 C-3.34 2 -2.68 2 -2 2 C-1.67 2.66 -1.34 3.32 -1 4 C-0.67 2.68 -0.34 1.36 0 0 Z " fill="#FDFBF0" transform="translate(152,17)"/>
<path d="M0 0 C0.66 0.33 1.32 0.66 2 1 C2.20086443 4.71599191 2.1519437 5.77208445 0 9 C-2.1640625 9.29296875 -2.1640625 9.29296875 -4.625 9.1875 C-5.44226563 9.16042969 -6.25953125 9.13335937 -7.1015625 9.10546875 C-7.72804688 9.07066406 -8.35453125 9.03585938 -9 9 C-7.63783758 5.78034336 -6.27468847 4.18312565 -3.375 2.25 C-2.74335937 1.82203125 -2.11171875 1.3940625 -1.4609375 0.953125 C-0.97882813 0.63859375 -0.49671875 0.3240625 0 0 Z " fill="#7C6954" transform="translate(123,131)"/>
<path d="M0 0 C0.99 0.33 1.98 0.66 3 1 C3.36625971 5.51720311 3.36625971 5.51720311 1.625 7.8125 C0 9 0 9 -2 9 C-2.33 9.66 -2.66 10.32 -3 11 C-5.97 10.505 -5.97 10.505 -9 10 C-8.67 8.68 -8.34 7.36 -8 6 C-3.25 5 -3.25 5 -1 5 C-1.33 3.68 -1.66 2.36 -2 1 C-1.34 0.67 -0.68 0.34 0 0 Z " fill="#F0E4D4" transform="translate(147,183)"/>
<path d="M0 0 C0.99 0.99 1.98 1.98 3 3 C2.195625 3.556875 1.39125 4.11375 0.5625 4.6875 C-2.24228216 7.21864487 -2.69381595 8.32579134 -3 12 C-3.66 11.67 -4.32 11.34 -5 11 C-7.3400417 11.28241883 -9.67504723 11.61250787 -12 12 C-11.67 11.01 -11.34 10.02 -11 9 C-9.35 8.67 -7.7 8.34 -6 8 C-6.99 7.67 -7.98 7.34 -9 7 C-8.401875 6.731875 -7.80375 6.46375 -7.1875 6.1875 C-5.00283415 5.00153854 -3.66764721 3.8192515 -2 2 C-1.34 1.34 -0.68 0.68 0 0 Z " fill="#FEFCF4" transform="translate(32,42)"/>
<path d="M0 0 C0.66 1.32 1.32 2.64 2 4 C2.99 4 3.98 4 5 4 C4.67 4.99 4.34 5.98 4 7 C3.01 6.67 2.02 6.34 1 6 C1.33 6.66 1.66 7.32 2 8 C2.66 8 3.32 8 4 8 C4 8.66 4 9.32 4 10 C3.01 10 2.02 10 1 10 C0.67 10.66 0.34 11.32 0 12 C-0.99 12 -1.98 12 -3 12 C-2.814375 11.071875 -2.62875 10.14375 -2.4375 9.1875 C-1.75876119 5.98656229 -1.75876119 5.98656229 -3 3 C-2.01 2.01 -1.02 1.02 0 0 Z " fill="#F1E7D7" transform="translate(183,174)"/>
<path d="M0 0 C0.66 0.33 1.32 0.66 2 1 C2 1.99 2 2.98 2 4 C2.66 4 3.32 4 4 4 C4.625 5.875 4.625 5.875 5 8 C4.34 8.66 3.68 9.32 3 10 C-0.125 9.625 -0.125 9.625 -3 9 C-3 8.01 -3 7.02 -3 6 C-2.34 6.33 -1.68 6.66 -1 7 C-1 6.01 -1 5.02 -1 4 C-1.66 3.67 -2.32 3.34 -3 3 C-2.01 2.01 -1.02 1.02 0 0 Z " fill="#EFE3D3" transform="translate(56,176)"/>
<path d="M0 0 C0.66 0 1.32 0 2 0 C2 0.66 2 1.32 2 2 C2.99 2 3.98 2 5 2 C5.33 5.96 5.66 9.92 6 14 C5.34 14 4.68 14 4 14 C3.67 14.66 3.34 15.32 3 16 C2.63877119 14.68942607 2.28619689 13.37646376 1.9375 12.0625 C1.64166016 10.96615234 1.64166016 10.96615234 1.33984375 9.84765625 C1.22769531 9.23792969 1.11554688 8.62820312 1 8 C1.33 7.67 1.66 7.34 2 7 C1.34 7 0.68 7 0 7 C0 4.69 0 2.38 0 0 Z M-2 7 C-1.01 7.495 -1.01 7.495 0 8 C-0.99 8.495 -0.99 8.495 -2 9 C-2 8.34 -2 7.68 -2 7 Z " fill="#F1E7D8" transform="translate(199,78)"/>
<path d="M0 0 C0.99 0 1.98 0 3 0 C4.85521098 3.40122014 5.02623982 4.8568737 4.3125 8.75 C3.879375 9.8225 3.44625 10.895 3 12 C2.01 12.33 1.02 12.66 0 13 C-0.66 12.34 -1.32 11.68 -2 11 C-2 10.01 -2 9.02 -2 8 C-1.01 8 -0.02 8 1 8 C1.33 7.34 1.66 6.68 2 6 C1.01 6 0.02 6 -1 6 C-1 5.34 -1 4.68 -1 4 C-0.34 4 0.32 4 1 4 C0.67 2.68 0.34 1.36 0 0 Z " fill="#E7D8C6" transform="translate(129,187)"/>
<path d="M0 0 C3.3 0 6.6 0 10 0 C9.34 1.32 8.68 2.64 8 4 C7.34 4 6.68 4 6 4 C6 3.34 6 2.68 6 2 C3.69 2.33 1.38 2.66 -1 3 C-0.67 4.32 -0.34 5.64 0 7 C-1.98 7.33 -3.96 7.66 -6 8 C-5.67 6.68 -5.34 5.36 -5 4 C-4.01 4 -3.02 4 -2 4 C-1.34 2.68 -0.68 1.36 0 0 Z " fill="#E6D7C5" transform="translate(172,179)"/>
<path d="M0 0 C0.99 0.33 1.98 0.66 3 1 C2.34 2.65 1.68 4.3 1 6 C0.01 6 -0.98 6 -2 6 C-1.67 7.32 -1.34 8.64 -1 10 C-1.66 10 -2.32 10 -3 10 C-3.66 7.69 -4.32 5.38 -5 3 C-2.6875 1.4375 -2.6875 1.4375 0 0 Z " fill="#5B4B3A" transform="translate(71,95)"/>
<path d="M0 0 C0.33 1.32 0.66 2.64 1 4 C1.66 4 2.32 4 3 4 C2.67 5.65 2.34 7.3 2 9 C0.02 8.34 -1.96 7.68 -4 7 C-3.43628586 3.73045798 -2.50037734 2.17424117 0 0 Z " fill="#F1E4D4" transform="translate(181,163)"/>
<path d="M0 0 C1.32 0.33 2.64 0.66 4 1 C4.33 2.32 4.66 3.64 5 5 C6.98 5 8.96 5 11 5 C11 5.66 11 6.32 11 7 C8.69 7.66 6.38 8.32 4 9 C3.566875 7.88625 3.566875 7.88625 3.125 6.75 C2.17697356 4.43260203 1.15154089 2.22082885 0 0 Z " fill="#E6D6C4" transform="translate(48,184)"/>
<path d="M0 0 C1.32 0 2.64 0 4 0 C4 3.3 4 6.6 4 10 C3.67 10 3.34 10 3 10 C3 8.35 3 6.7 3 5 C2.34 5 1.68 5 1 5 C1 5.66 1 6.32 1 7 C-0.32 6.34 -1.64 5.68 -3 5 C-1.68 4.67 -0.36 4.34 1 4 C0.67 2.68 0.34 1.36 0 0 Z " fill="#766451" transform="translate(149,102)"/>
<path d="M0 0 C0.99 0.33 1.98 0.66 3 1 C2.67 2.32 2.34 3.64 2 5 C-0.31 5.66 -2.62 6.32 -5 7 C-5 6.01 -5 5.02 -5 4 C-2.6875 1.75 -2.6875 1.75 0 0 Z " fill="#F4EADB" transform="translate(185,50)"/>
<path d="M0 0 C0.33 0.99 0.66 1.98 1 3 C3.97 3.495 3.97 3.495 7 4 C6.67 4.66 6.34 5.32 6 6 C5.34 6 4.68 6 4 6 C3.67 6.66 3.34 7.32 3 8 C0.525 7.01 0.525 7.01 -2 6 C-2 5.01 -2 4.02 -2 3 C-1.34 3 -0.68 3 0 3 C0 2.01 0 1.02 0 0 Z " fill="#F3E8D9" transform="translate(83,197)"/>
<path d="M0 0 C0.33 0.66 0.66 1.32 1 2 C2.423125 2.433125 2.423125 2.433125 3.875 2.875 C7.24241218 4.08726838 8.37796137 4.85133677 10 8 C9.67 8.99 9.34 9.98 9 11 C8.67 10.34 8.34 9.68 8 9 C7.1028125 8.566875 7.1028125 8.566875 6.1875 8.125 C3.59598189 6.79221926 1.98470178 5.11701523 0 3 C-0.66 2.34 -1.32 1.68 -2 1 C-1.34 0.67 -0.68 0.34 0 0 Z " fill="#FEF9ED" transform="translate(31,186)"/>
<path d="M0 0 C0.99 0 1.98 0 3 0 C3.05389087 1.95803507 3.09274217 3.91648909 3.125 5.875 C3.14820312 6.96554688 3.17140625 8.05609375 3.1953125 9.1796875 C3 12 3 12 1 14 C0.67 13.01 0.34 12.02 0 11 C-0.66 10.67 -1.32 10.34 -2 10 C-2 9.01 -2 8.02 -2 7 C-1.34 7 -0.68 7 0 7 C0 7.66 0 8.32 0 9 C0.66 9 1.32 9 2 9 C1.51515724 4.35413108 1.51515724 4.35413108 0 0 Z " fill="#503F2D" transform="translate(74,97)"/>
<path d="M0 0 C0.66 0.33 1.32 0.66 2 1 C1.67 2.32 1.34 3.64 1 5 C-0.98 5 -2.96 5 -5 5 C-5 5.66 -5 6.32 -5 7 C-5.99 6.67 -6.98 6.34 -8 6 C-7.34 6 -6.68 6 -6 6 C-6 5.01 -6 4.02 -6 3 C-4.03533587 1.93224776 -2.03144641 0.93446535 0 0 Z " fill="#E6D7C5" transform="translate(100,192)"/>
<path d="M0 0 C2.1796875 0.234375 2.1796875 0.234375 4.875 0.75 C6.20144531 0.98976562 6.20144531 0.98976562 7.5546875 1.234375 C10.17085215 2.05349364 11.27143728 2.91656679 13 5 C11.75283203 4.7834375 11.75283203 4.7834375 10.48046875 4.5625 C9.39378906 4.376875 8.30710937 4.19125 7.1875 4 C6.10855469 3.814375 5.02960938 3.62875 3.91796875 3.4375 C0.99729102 2.92586214 0.99729102 2.92586214 -2 3 C-1 1 -1 1 0 0 Z " fill="#FEFDE9" transform="translate(59,205)"/>
<path d="M0 0 C0.66 0.33 1.32 0.66 2 1 C2 2.65 2 4.3 2 6 C0.02 6.99 0.02 6.99 -2 8 C-1.34 6.68 -0.68 5.36 0 4 C-1.98 4.66 -3.96 5.32 -6 6 C-4 4 -2 2 0 0 Z " fill="#5B4731" transform="translate(123,131)"/>
<path d="M0 0 C0.66 0.99 1.32 1.98 2 3 C0.625 6.6875 0.625 6.6875 -1 10 C-1.66 9.34 -2.32 8.68 -3 8 C-2.64700993 4.55834679 -1.95418308 2.93127462 0 0 Z " fill="#F5EADC" transform="translate(169,35)"/>
<path d="M0 0 C0.33 0.66 0.66 1.32 1 2 C0.67 2.66 0.34 3.32 0 4 C0.66 4.33 1.32 4.66 2 5 C1.01 5 0.02 5 -1 5 C-1 5.66 -1 6.32 -1 7 C-3.475 6.01 -3.475 6.01 -6 5 C-5.34 4.67 -4.68 4.34 -4 4 C-4 3.34 -4 2.68 -4 2 C-2.68 1.34 -1.36 0.68 0 0 Z " fill="#7A6854" transform="translate(147,96)"/>
<path d="M0 0 C1.65 0 3.3 0 5 0 C5 1.32 5 2.64 5 4 C5.99 4.33 6.98 4.66 8 5 C5.6875 5.6875 5.6875 5.6875 3 6 C1.1875 4.75 1.1875 4.75 0 3 C0 2.01 0 1.02 0 0 Z " fill="#EFE4D4" transform="translate(36,180)"/>
<path d="M0 0 C2.475 0.99 2.475 0.99 5 2 C5 4 5 4 3.5 5.625 C3.005 6.07875 2.51 6.5325 2 7 C1.01 6.67 0.02 6.34 -1 6 C-0.67 4.02 -0.34 2.04 0 0 Z " fill="#F1E6D7" transform="translate(154,171)"/>
<path d="M0 0 C-1.32 0.33 -2.64 0.66 -4 1 C-4 1.99 -4 2.98 -4 4 C-4.66 3.67 -5.32 3.34 -6 3 C-6.99 2.7834375 -6.99 2.7834375 -8 2.5625 C-10 2 -10 2 -12 0 C-7.91556885 -1.53166168 -4.20544343 -0.63081652 0 0 Z " fill="#FEFBF0" transform="translate(117,212)"/>
<path d="M0 0 C0.66 0 1.32 0 2 0 C2.33 1.98 2.66 3.96 3 6 C1.68 6.99 0.36 7.98 -1 9 C-1.625 6.1875 -1.625 6.1875 -2 3 C-1.34 2.01 -0.68 1.02 0 0 Z " fill="#F2E5D6" transform="translate(206,114)"/>
<path d="M0 0 C0.598125 0.20625 1.19625 0.4125 1.8125 0.625 C1.4825 1.945 1.1525 3.265 0.8125 4.625 C-0.1775 4.625 -1.1675 4.625 -2.1875 4.625 C-2.1875 3.965 -2.1875 3.305 -2.1875 2.625 C-3.1775 2.295 -4.1675 1.965 -5.1875 1.625 C-2.1875 -0.375 -2.1875 -0.375 0 0 Z " fill="#F4E9DB" transform="translate(38.1875,161.375)"/>
<path d="M0 0 C-0.99 0.33 -1.98 0.66 -3 1 C-3.33 1.66 -3.66 2.32 -4 3 C-6.33333333 3 -8.66666667 3 -11 3 C-11 2.34 -11 1.68 -11 1 C-9.5437328 0.63743142 -8.08488815 0.28520207 -6.625 -0.0625 C-5.40683594 -0.35833984 -5.40683594 -0.35833984 -4.1640625 -0.66015625 C-2 -1 -2 -1 0 0 Z " fill="#E4D5C2" transform="translate(145,195)"/>
<path d="M0 0 C2.31 0 4.62 0 7 0 C7 0.99 7 1.98 7 3 C6.01 3 5.02 3 4 3 C3.01 4.485 3.01 4.485 2 6 C2 4.68 2 3.36 2 2 C1.34 2 0.68 2 0 2 C0 1.34 0 0.68 0 0 Z " fill="#F4EADC" transform="translate(197,142)"/>
<path d="M0 0 C0.99 0.33 1.98 0.66 3 1 C2.34 1 1.68 1 1 1 C1 1.66 1 2.32 1 3 C1.99 2.67 2.98 2.34 4 2 C4 2.66 4 3.32 4 4 C-0.41062136 5.0257259 -2.92630576 5.03684712 -7 3 C-3.86650268 1.95550089 -3.01031744 2.06576355 0 3 C0 2.01 0 1.02 0 0 Z " fill="#55412E" transform="translate(108,139)"/>
<path d="M0 0 C1.65 0.33 3.3 0.66 5 1 C5 1.99 5 2.98 5 4 C3.35 4 1.7 4 0 4 C0 2.68 0 1.36 0 0 Z " fill="#FEF7E2" transform="translate(43,196)"/>
<path d="M0 0 C1 3 1 3 0.0625 5.1875 C-0.4634375 6.0846875 -0.4634375 6.0846875 -1 7 C-1.66 7 -2.32 7 -3 7 C-3.33 5.02 -3.66 3.04 -4 1 C-2.68 0.67 -1.36 0.34 0 0 Z " fill="#ECDFCE" transform="translate(21,152)"/>
<path d="M0 0 C-0.99 0.33 -1.98 0.66 -3 1 C-3 1.99 -3 2.98 -3 4 C-5.97 3.505 -5.97 3.505 -9 3 C-7.14340032 -0.71319936 -3.69365381 -0.09982848 0 0 Z " fill="#86735D" transform="translate(111,138)"/>
<path d="M0 0 C0.66 0.33 1.32 0.66 2 1 C1.67 2.32 1.34 3.64 1 5 C-0.65 5.33 -2.3 5.66 -4 6 C-4 5.01 -4 4.02 -4 3 C-2.68 3 -1.36 3 0 3 C0 2.01 0 1.02 0 0 Z " fill="#EEE2D2" transform="translate(16,132)"/>
<path d="M0 0 C1.32 0.33 2.64 0.66 4 1 C3.67 2.65 3.34 4.3 3 6 C2.01 6 1.02 6 0 6 C0 4.02 0 2.04 0 0 Z " fill="#5B4937" transform="translate(94,131)"/>
<path d="M0 0 C1.65 0 3.3 0 5 0 C5.33 0.99 5.66 1.98 6 3 C4.1875 4.0625 4.1875 4.0625 2 5 C1.01 4.67 0.02 4.34 -1 4 C-0.01 3.67 0.98 3.34 2 3 C2 2.34 2 1.68 2 1 C1.34 0.67 0.68 0.34 0 0 Z " fill="#FFFFFB" transform="translate(61,16)"/>
<path d="M0 0 C0.66 1.32 1.32 2.64 2 4 C-0.31 4 -2.62 4 -5 4 C-5 3.34 -5 2.68 -5 2 C-3.35 1.34 -1.7 0.68 0 0 Z " fill="#EADCCB" transform="translate(140,196)"/>
<path d="M0 0 C1.98 0 3.96 0 6 0 C5.01 2.31 4.02 4.62 3 7 C0 3.375 0 3.375 0 0 Z " fill="#F2E6D6" transform="translate(107,184)"/>
<path d="M0 0 C0.99 0.33 1.98 0.66 3 1 C3 1.66 3 2.32 3 3 C3.66 3.33 4.32 3.66 5 4 C4.01 4.99 3.02 5.98 2 7 C2 6.01 2 5.02 2 4 C1.34 4 0.68 4 0 4 C0 2.68 0 1.36 0 0 Z " fill="#F0E4D3" transform="translate(73,176)"/>
<path d="M0 0 C1.5625 1.25 1.5625 1.25 3 3 C2.6875 5.1875 2.6875 5.1875 2 7 C1.01 6.67 0.02 6.34 -1 6 C-0.67 4.02 -0.34 2.04 0 0 Z " fill="#F1E5D6" transform="translate(21,72)"/>
<path d="M0 0 C1.32 0.33 2.64 0.66 4 1 C3.01 1.495 3.01 1.495 2 2 C2 3.32 2 4.64 2 6 C1.01 6 0.02 6 -1 6 C-1.33 4.68 -1.66 3.36 -2 2 C-1.34 2 -0.68 2 0 2 C0 1.34 0 0.68 0 0 Z " fill="#FEFBF3" transform="translate(85,11)"/>
<path d="M0 0 C0.33 1.32 0.66 2.64 1 4 C0.01 3.67 -0.98 3.34 -2 3 C-1.34 2.67 -0.68 2.34 0 2 C0 1.34 0 0.68 0 0 Z " fill="#FEFEF2" transform="translate(163,204)"/>
<path d="M0 0 C0.66 0.66 1.32 1.32 2 2 C1.01 2.66 0.02 3.32 -1 4 C-0.67 2.68 -0.34 1.36 0 0 Z " fill="#FFFFFF" transform="translate(37,196)"/>
<path d="M0 0 C0.99 0.33 1.98 0.66 3 1 C1.02 1.99 1.02 1.99 -1 3 C-0.67 2.01 -0.34 1.02 0 0 Z " fill="#FFFFFF" transform="translate(217,133)"/>
<path d="M0 0 C0.66 0.66 1.32 1.32 2 2 C1.34 2 0.68 2 0 2 C0 1.34 0 0.68 0 0 Z " fill="#FFFFE9" transform="translate(170,198)"/>
<path d="M0 0 C0.99 0.495 0.99 0.495 2 1 C1.01 1.495 1.01 1.495 0 2 C0 1.34 0 0.68 0 0 Z " fill="#FFFFFF" transform="translate(218,128)"/>
<path d="M0 0 C0.66 0.66 1.32 1.32 2 2 C1.34 2 0.68 2 0 2 C0 1.34 0 0.68 0 0 Z " fill="#FFFFFF" transform="translate(114,8)"/>
<path d="M0 0 C0.66 0 1.32 0 2 0 C1.67 0.66 1.34 1.32 1 2 C0.67 1.34 0.34 0.68 0 0 Z " fill="#FFFFFF" transform="translate(127,8)"/>
<path d="M0 0 C0.99 0.495 0.99 0.495 2 1 C1.01 1.495 1.01 1.495 0 2 C0 1.34 0 0.68 0 0 Z " fill="#FFFFFF" transform="translate(87,8)"/>
</svg>
